<?xml version="1.0" encoding="utf-8"?>
<!-- Generator: Adobe Illustrator 27.6.1, SVG Export Plug-In . SVG Version: 6.00 Build 0)  -->
<svg version="1.1" id="layer" xmlns="http://www.w3.org/2000/svg" xmlns:xlink="http://www.w3.org/1999/xlink" x="0px" y="0px"
	 viewBox="0 0 171.39 313.43" style="enable-background:new 0 0 171.39 313.43;" xml:space="preserve">
<style type="text/css">
	.st0{fill:url(#SVGID_1_);fill-opacity:0;}
	.st1{fill:#B4DD0A;}
	.st2{fill:#95C501;}
	.st3{fill:#72372B;}
	.st4{fill:#FF9976;}
	.st5{fill:#FFD961;}
	.st6{fill:#FFBA55;}
	.st7{fill:#FFEDBB;}
	.st8{fill:#FFC655;}
	.st9{fill:#F4B042;}
	.st10{fill:#F4A53B;}
	.st11{fill:#EA7150;}
	.st12{opacity:0.57;fill:#AD5F4D;}
	.st13{fill:#F78263;}
	.st14{fill:#4C2922;}
	.st15{fill:#7F453C;}
	.st16{fill:#86B1BA;}
	.st17{fill:#6B969B;}
	.st18{fill:#A1BEC4;}
	.st19{fill:#FFECCA;}
	.st20{fill:#563832;}
	.st21{fill:#725149;}
	.st22{fill:#FFEDCA;}
	.st23{fill:#C95236;}
	.st24{fill:#AD5F4D;}
	.st25{fill:#D35C40;}
	.st26{fill:#E55555;}
	.st27{fill:#A0352A;}
	.st28{fill:#8E4F39;}
	.st29{fill:#F48134;}
	.st30{fill:#A56950;}
	.st31{fill:#F2CA8F;}
	.st32{fill:#FFE2B0;}
	.st33{fill:#FFE8C0;}
	.st34{fill:#F9AA53;}
	.st35{fill:#FC9047;}
	.st36{fill:#CEAC7A;}
	.st37{fill:#EA783F;}
	.st38{fill:#C65C2C;}
	.st39{fill:#E24F3B;}
	.st40{fill:#723828;}
	.st41{fill:#9B2C1E;}
</style>
<g id="layer2">
</g>
<g id="layer3">
</g>
<g>
	<g>
		
			<linearGradient id="SVGID_1_" gradientUnits="userSpaceOnUse" x1="62.19" y1="291.14" x2="62.19" y2="291.14" gradientTransform="matrix(1 0 0 -1 0 316)">
			<stop  offset="0" style="stop-color:#390154"/>
			<stop  offset="0.1687" style="stop-color:#3F035A"/>
			<stop  offset="0.3942" style="stop-color:#4F076B"/>
			<stop  offset="0.6519" style="stop-color:#690F87"/>
			<stop  offset="0.9317" style="stop-color:#8E19AD"/>
			<stop  offset="1" style="stop-color:#981CB8"/>
		</linearGradient>
		<path class="st0" d="M62.19,24.86"/>
	</g>
	<g>
		<g>
			<path class="st1" d="M65.05,22.49"/>
			<path class="st2" d="M65.03,22.49"/>
		</g>
	</g>
</g>
<g id="XMLID_1224_">
	<path id="XMLID_1202_" class="st3" d="M87.1,75.13c0.41,0.3,4.54,8.99,6.44,14.38l-14.86-5.56L87.1,75.13z"/>
	<path id="XMLID_69_" class="st4" d="M91.73,75.42c0.3,0.4,1.72,9.92,1.96,15.63L81.1,81.4L91.73,75.42z"/>
	<path id="XMLID_81_" class="st5" d="M83.58,161.68c-0.3-16.25,1.67-27.95,2.58-32.05c0.91-4.1,0.3-18.98,10.78-29.62
		c10.48-10.63,13.97,46.02,12.3,51.49c-1.67,5.47-5.47,17.77-5.47,17.77L83.58,161.68z"/>
	<path id="XMLID_1189_" class="st6" d="M97.37,99.63c2.82,6.86,4.61,17.06,4.61,28.47c0,18.01-4.46,33.03-10.4,36.58l12.2,4.59
		c0,0,4.47-12.14,6.14-17.6C111.57,146.27,107.52,90.9,97.37,99.63z"/>
	<path id="XMLID_66_" class="st7" d="M82.66,168.38c-2.17-1.44-0.84-12.16,0.72-14.09c1.57-1.93,9.75-3.85,13.24-2.29
		c3.49,1.57,8.43,9.51,9.03,12.04c0.6,2.53-1.93,10.23-3.73,9.99C100.12,173.79,82.66,168.38,82.66,168.38z"/>
	<path id="XMLID_73_" class="st8" d="M163.2,198.26c0.3-5.16-4.44-31.88-4.44-31.88l-36.15,10.33
		c-0.3,14.28-23.84,116.18-23.84,116.18l2.43-1.06c7.29-28.86,37.64-95.36,37.64-95.36l6.67,1.88c3.95,8.51,16.9,97.12,16.9,97.12
		l2.43-3.95C158.91,271.63,162.89,203.43,163.2,198.26z"/>
	<path id="XMLID_1179_" class="st9" d="M122.47,175.68l0.18,3.16c0,0,29.16-5.6,34.85-3.61l-1.17-9.03L122.47,175.68z"/>
	<g id="XMLID_637_">
		<path id="XMLID_691_" class="st9" d="M145.77,198.08l-8.31-3.06c0,0-29.76,66.03-37.34,97.29l1.08-0.47
			c7.29-28.86,37.8-94.29,37.8-94.29l6.83,1.64L145.77,198.08z"/>
		<path id="XMLID_692_" class="st9" d="M164.23,198.28c0.3-5.16-5.46-33.24-5.46-33.24l-3.91,2.46c1.75,8.4,5.8,24.35,5.63,28.33
			c-0.24,5.44-3.33,76.93,2.85,97.9l-0.95,1.66c0.01,0.06,0.01,0.1,0.01,0.1l2.43-3.95C158.91,271.63,163.93,203.44,164.23,198.28z"
			/>
		<polygon id="XMLID_1183_" class="st9" points="146.43,198.12 148.65,211.23 145.12,198.11 		"/>
		<polygon id="XMLID_1185_" class="st9" points="142.02,195.19 139.81,178.3 138.14,178.21 139.95,196.22 145.86,198.62 
			146.43,198.12 		"/>
	</g>
	<g id="XMLID_670_">
		<path id="XMLID_688_" class="st10" d="M116.21,228.45c-0.77-1.44-1.49-2.89-2.19-4.35c-6.83,32.35-15.25,68.8-15.25,68.8
			l2.43-1.06c3.43-13.58,11.97-35.49,20.04-54.89C119.49,234.27,117.8,231.44,116.21,228.45z"/>
		<path id="XMLID_689_" class="st10" d="M157.79,264.98c2.64,16.98,4.62,30.49,4.62,30.49l2.43-3.95c-1.7-5.72-2.5-15.44-2.77-26.5
			C160.67,265.15,159.24,265.13,157.79,264.98z"/>
	</g>
	<path id="XMLID_16_" class="st5" d="M96.95,99.1c-4.17,10.84,9.42,51.03,11.69,53.31c2.28,2.28,5.77,3.34,5.77,3.34
		s-0.15,4.71,1.67,3.8c1.82-0.91,1.22,1.06,1.22,2.28s4.04,6.72,3.49,9.72c-0.3,1.67,2.13,1.67,2.13,1.67s-2.89,2.13-0.3,3.49
		c2.58,1.37,33.24-3.05,36.15-10.33c1.52-3.8-5.16-23.69-5.32-28.1c-0.15-4.4-3.16-44.39-19.44-49.51
		C115.17,82.85,99.23,93.18,96.95,99.1z"/>
	<path id="XMLID_1188_" class="st7" d="M102.4,90.72l-1.2,6.74c0,0,5.41,14.81,12.76,18.18c2.89,1.32,9.39-28.63,9.39-28.63
		S106.85,87.59,102.4,90.72z"/>
	<g id="XMLID_1177_">
		<path id="XMLID_1178_" class="st6" d="M153.45,138.29c-0.14-4.03-2.67-37.82-15.56-47.48c5.59,17.09,6.12,53.01,4,54.99
			c-0.88,0.82-3.74,2.07-7.4,3.26c0.97-0.11,1.92-0.07,2.82,0.17c4.94,1.32,16.13,11.92,12.52,15.41c-3.61,3.49,5.06-0.48,4.21,2.41
			c-0.51,1.76-5.52,4.76-10.36,7c7.22-1.84,13.81-4.48,15.08-7.67C160.28,162.59,153.6,142.69,153.45,138.29z"/>
		<path id="XMLID_1180_" class="st6" d="M124.55,174.63c2.29-2.05,6.5-3.73,3.85-3.37c-2.65,0.36-5.18,1.69-5.9-0.72
			c-0.72-2.41-3.97-13.12-0.24-15.53c2.06-1.33,4.93-3.36,7.92-4.68c-7.04,1.86-15.16,3-18.28,0.89
			c-3.29-2.23-7.84-11.72-12.08-24.32c3.23,12.48,7.61,24.31,8.81,25.52c2.28,2.28,5.77,3.34,5.77,3.34s-0.15,4.71,1.67,3.8
			c1.82-0.91,1.22,1.06,1.22,2.28s4.04,6.72,3.49,9.72c-0.3,1.67,2.13,1.67,2.13,1.67s-2.89,2.13-0.3,3.49
			c0.45,0.24,1.74,0.3,3.59,0.2C124.27,176.43,123.47,175.6,124.55,174.63z"/>
	</g>
	<path id="XMLID_15_" class="st5" d="M139.32,147.1c0.16-23.03-16.82-59.39-9.53-59.39c9.27-0.01,21.75,16.28,27.22,42.7
		c5.47,26.43-2.5,25.35-5.38,25.35C148.74,155.75,139.28,153.11,139.32,147.1z"/>
	<path id="XMLID_1191_" class="st6" d="M157.01,130.41c-4.88-23.6-15.39-39.81-24.15-42.37c21.32,16.29,19.04,51.51,13.14,65.92
		c2.18,1.18,4.34,1.8,5.63,1.8C154.51,155.75,162.47,156.83,157.01,130.41z"/>
	<path id="XMLID_76_" class="st7" d="M135.53,149.37c-1.22,5.62-0.61,10.78,1.82,12c2.43,1.22,10.18,2.89,12.15,1.97
		c1.97-0.91,9.92-5.91,8.68-12.14c-1.24-6.23-3.06-16.31-9.59-18.34C142.06,130.84,135.53,149.37,135.53,149.37z"/>
	<path id="XMLID_74_" class="st4" d="M136.74,156.82c-3.63-5.17-9.05-32.92-12.67-36.84c-2.77-3-0.67-14.66,1.78-13.82
		c5.51,1.9,22.89,24.23,25.32,31.67C153.6,145.27,140.69,162.43,136.74,156.82z"/>
	<path id="XMLID_1190_" class="st11" d="M151.17,137.83c-2.05-6.26-14.68-23.07-21.91-29.37c3.53,3.58,7.5,10.67,9.86,19.1
		c3.61,12.87,2.4,27.69-1.44,28.77c-0.41,0.12-0.86,0.06-1.32-0.14c0.13,0.23,0.26,0.44,0.39,0.62
		C140.69,162.43,153.6,145.27,151.17,137.83z"/>
	<path id="XMLID_77_" class="st4" d="M120.03,87.09c0.15,0.62-4.3,20.61-7.04,23.5c-2.73,2.89-12.33-16.11-12.33-16.11
		C107.15,89.88,111.76,87.82,120.03,87.09z"/>
	<path id="XMLID_75_" class="st4" d="M117.3,89.99l-10.34-17.4l-9.71,14.97l8.15,16.04C105.41,103.6,112.59,100.77,117.3,89.99z"/>
	<g id="XMLID_1208_">
		<path id="XMLID_1210_" class="st7" d="M136.23,176c-1.33-0.26-1.69-2.14-2.04-3.95c-0.22-1.15-0.5-2.59-0.97-2.59
			c-1.02,0-1.59-2.28-2.73-7.88c-0.54-2.64-1.27-6.25-1.79-6.66c-0.31,0.02-0.59-0.08-0.81-0.29c-0.75-0.73-0.7-2.72-0.66-3.45
			c-8.53-4.59-13.56-35.33-13.78-36.65l0.71-0.11c0.05,0.32,5.27,32.22,13.6,36.23l0.23,0.11l-0.02,0.25
			c-0.09,0.96-0.05,2.66,0.42,3.11c0.08,0.08,0.16,0.11,0.27,0.09c0.94-0.12,1.45,1.89,2.54,7.23c0.57,2.8,1.43,7.04,2.05,7.3
			c0,0,0,0,0,0c1.04,0,1.32,1.47,1.65,3.17c0.29,1.51,0.62,3.22,1.47,3.38L136.23,176z"/>
	</g>
	<path id="XMLID_1209_" class="st12" d="M113.84,121.18c12.57-1.05,14.87-23.89,17.32-33.35c-0.46-0.08-0.92-0.13-1.37-0.13
		c-0.01,0-0.02,0-0.04,0c-2.2-0.43-4.34-0.65-6.41-0.69c0,0,0-0.01,0-0.01s-0.05,0-0.14,0.01c-1.08-0.02-2.14,0.01-3.17,0.08
		c0,0,0-0.01,0-0.01c-0.1,0.01-0.19,0.02-0.28,0.03c-0.94,0.07-1.86,0.18-2.75,0.32c-0.37,0.03-0.76,0.07-1.15,0.11l-6.65-11.19
		l-10.64,9.18l-0.18,0.28c-0.24,0.79-0.48,1.65-0.71,2.55l3.07,6.04c-0.01,0.01-0.02,0.02-0.03,0.03c-0.02,0.01-0.03,0.02-0.05,0.03
		c0,0,0,0,0,0c-1.89,1.6-3.82,3.14-3.72,4.62C97.72,110.15,103.72,122.02,113.84,121.18z"/>
	<path id="XMLID_78_" class="st4" d="M84.8,78.9c0,0,17.01,26.12,16.4,28.86c-0.61,2.73,6.83,3.04,7.75,0.46
		c0.91-2.58,5.77-16.55,3.64-23.84c-2.13-7.29-10.02-18.68-10.02-18.68L84.8,78.9z"/>
	<polygon id="XMLID_68_" class="st3" points="102.22,73.99 108.84,85.79 110.65,83.02 110.47,78.26 103.13,72.84 	"/>
	<path id="XMLID_80_" class="st4" d="M83.69,198.79c-0.55-0.56-5.27-29.06-0.1-37.11c5.16-8.05,18.38,1.37,19.59,6.99
		c1.22,5.62-9.98,28.19-9.98,28.19L83.69,198.79z"/>
	<path id="XMLID_1193_" class="st11" d="M103.18,168.66c-0.55-2.57-3.61-5.92-7.26-8.05c0.86,3.64,1.37,7.84,1.37,12.45
		c0,9.09-1.97,17.89-4.77,23.92l0.68-0.14C93.19,196.85,104.39,174.28,103.18,168.66z"/>
	<path id="XMLID_558_" class="st13" d="M97.29,184.09l-3.67,4.7l1.12,4.26c-2.3,2.09-4.69,4.68-4.23,6.04
		c0.84,2.51,4.04,2.73,4.98,2.08c0.57-0.39,2.89-3.11,4.65-5.2c1.25-1.49,1.47-3.58,0.58-5.3L97.29,184.09z"/>
	<polygon id="XMLID_83_" class="st14" points="72.19,247.79 118.97,114.34 121.4,118.19 74.22,248.8 	"/>
	<polygon id="XMLID_695_" class="st15" points="96.69,182.56 120.22,117.44 118.97,114.34 95.35,181.74 	"/>
	<path id="XMLID_554_" class="st4" d="M92.59,205.22c-0.36-1.08-5.54-8.55-5.54-8.55l-3.72,1.18c0,0,3.24,11.7,5.89,11.58
		C91.87,209.31,92.95,206.3,92.59,205.22z"/>
	<path id="XMLID_553_" class="st4" d="M96.27,201.17c-0.48-1.03-6.49-7.85-6.49-7.85l-3.66,1.88c0,0,4.67,10.97,7.28,10.55
		C96.03,205.32,96.75,202.21,96.27,201.17z"/>
	<path id="XMLID_555_" class="st4" d="M99.41,197.12c-0.54-1.01-7.53-7.97-7.53-7.97l-3.55,2.08c0,0,5.89,11.19,8.48,10.62
		S99.95,198.12,99.41,197.12z"/>
	<polygon id="XMLID_84_" class="st16" points="60.71,240.3 85.11,251.41 67.61,287.32 60.51,290.33 40.4,278.53 41.36,272.02 	"/>
	<polygon id="XMLID_1184_" class="st17" points="58.78,239.22 83.18,250.33 65.68,286.24 58.58,289.25 38.47,277.45 39.43,270.93 	
		"/>
	<polygon id="XMLID_1186_" class="st18" points="60.3,240.96 82.96,251.59 66.4,285.83 59.76,288.69 41.11,277.41 42.05,271.19 	"/>
	<path id="XMLID_694_" class="st16" d="M60.71,240.3l-4.26,6.98c1.75-0.29,3.5-0.23,5.2,0.24c9.2,2.55,13.5,15.99,9.61,30
		c-1.04,3.76-2.58,7.18-4.43,10.13l0.78-0.33l17.5-35.91L60.71,240.3z"/>
	<path id="XMLID_88_" class="st19" d="M101.25,290.72l-2.99,1.57c0,0-5.72,4.91-10.38,5.52c-4.66,0.61-10.12,1.28-8.51,3.11h22.88
		C102.47,299.16,101.25,290.72,101.25,290.72z"/>
	<path id="XMLID_89_" class="st19" d="M167.99,296.68c-1.11-2.73-2.83-6.58-4.25-6.28c-1.42,0.3-3.75,6.99-3.75,10.23h15.19
		C178.72,295.17,169.1,299.42,167.99,296.68z"/>
	<path id="XMLID_1197_" class="st20" d="M82.82,88.73l-0.24,0.51c0,0,6.72,6.76,10.67,6.93c2.59,0.11,2.07-4.51-1.3-9.41
		L82.82,88.73z"/>
	<path id="XMLID_94_" class="st21" d="M82.58,89.24c2.86,3.36,6.35,7.26,10.43,7.44c2.59,0.11,2.07-4.51-1.3-9.41L82.58,89.24z"/>
	<path id="XMLID_1192_" class="st20" d="M83.98,89.72c2.35,2.75,5.21,5.96,8.56,6.1c2.12,0.09,1.7-3.7-1.07-7.73L83.98,89.72z"/>
	<path id="XMLID_1195_" class="st22" d="M84.56,89.57c2.12,2.49,4.71,5.39,7.75,5.52c1.92,0.08,1.54-3.35-0.97-6.99L84.56,89.57z"/>
	<path id="XMLID_97_" class="st11" d="M92.51,88.59c0,0,3.52,14.08,4.44,15.07c1.14,1.23,3.8-6.07,3.8-6.07L92.51,88.59z"/>
	<path id="XMLID_1201_" class="st4" d="M92.75,87.33c0,0,3.52,14.08,4.44,15.07c1.14,1.23,3.8-6.08,3.8-6.08L92.75,87.33z"/>
	<polygon id="XMLID_1181_" class="st20" points="101.03,85.12 108.57,76.5 108.43,79.07 103.02,86.74 	"/>
	<path id="XMLID_1196_" class="st20" d="M91.88,86.77c2.47,3.76,7.82,7.5,11.92,7.66c3.14-0.54,1.85-5.65-2.46-9.97L91.88,86.77z"/>
	<path id="XMLID_96_" class="st21" d="M91.3,87.41c2.47,3.76,8.29,6.92,12.39,7.07c2.6,0.1,1.38-5.06-2.94-9.39L91.3,87.41z"/>
	<path id="XMLID_1187_" class="st20" d="M92.59,87.98c2.01,3.06,6.75,5.63,10.09,5.76c2.11,0.08,1.12-4.12-2.39-7.64L92.59,87.98z"
		/>
	<path id="XMLID_1194_" class="st22" d="M93.49,87.83c1.78,2.71,5.99,4.99,8.95,5.1c1.87,0.07,0.99-3.65-2.12-6.78L93.49,87.83z"/>
	<path id="XMLID_310_" class="st3" d="M111.48,67.87c0.3,0.41,1.72,9.92,1.96,15.63l-8.87-11.38L111.48,67.87z"/>
	<path id="XMLID_67_" class="st4" d="M108.02,80.28c-0.39-2.6,1.06-7.03,2.72-5.24c1.66,1.79,1.66,6.14,1.08,8.83
		C111.24,86.55,108.48,83.41,108.02,80.28z"/>
	<path id="XMLID_1199_" class="st23" d="M109.07,80.39c-0.23-1.67,0.63-4.53,1.61-3.37c0.98,1.15,0.98,3.95,0.64,5.68
		S109.34,82.41,109.07,80.39z"/>
	<path id="XMLID_1200_" class="st4" d="M109.7,81.65c-0.14-1.05,0.39-2.84,1.01-2.12c0.62,0.72,0.62,2.48,0.4,3.57
		C110.89,84.18,109.87,82.92,109.7,81.65z"/>
	<polygon id="XMLID_62_" class="st16" points="69.42,246.27 74.47,238.44 77.53,239.62 75.31,249.28 	"/>
	<path id="XMLID_564_" class="st4" d="M118.05,112.87c1.05-0.62,2.77-3.55,2.77-3.55s2.23,4.03,4.03,3.19
		c1.81-0.84,3.93-3.88,3.15-5.08c-0.78-1.2-7.12-5.52-8.44-4.79c-1.32,0.72-3.97,6.38-4.09,7.4
		C115.35,111.07,116.73,113.66,118.05,112.87z"/>
	<path id="XMLID_563_" class="st4" d="M117.81,117.39c1.05-0.62,2.77-3.55,2.77-3.55s2.23,4.03,4.03,3.19
		c1.81-0.84,2.83-4.03,2.05-5.24c-0.78-1.2-6.02-5.36-7.34-4.64c-1.32,0.72-3.97,6.38-4.09,7.4
		C115.1,115.58,116.49,118.17,117.81,117.39z"/>
	<path id="XMLID_557_" class="st4" d="M118.23,121.48c1.05-0.62,2.77-3.55,2.77-3.55s2.23,4.03,4.03,3.19
		c1.81-0.84,2.83-4.03,2.05-5.24c-0.78-1.2-6.02-5.36-7.34-4.63c-1.32,0.72-3.97,6.38-4.09,7.4
		C115.53,119.68,116.91,122.27,118.23,121.48z"/>
	<polygon id="XMLID_1173_" class="st9" points="143.72,175.15 136.77,175.94 137.21,180.32 144.17,179.08 	"/>
	<polygon id="XMLID_1182_" class="st7" points="142.18,175.5 136.98,176.09 137.31,179.36 142.51,178.44 	"/>
	<path id="XMLID_1204_" class="st21" d="M90.17,91.35c-0.42-0.34-0.92-0.43-1.11-0.19c-0.19,0.23,0,0.7,0.42,1.04
		c0.42,0.34,0.92,0.43,1.11,0.19C90.78,92.16,90.59,91.69,90.17,91.35z"/>
	<path id="XMLID_1198_" class="st21" d="M100.1,89.82c-0.42-0.34-0.92-0.43-1.11-0.19c-0.19,0.23,0,0.7,0.42,1.04
		c0.42,0.34,0.92,0.43,1.11,0.19C100.71,90.62,100.52,90.16,100.1,89.82z"/>
	<path id="XMLID_1207_" class="st24" d="M113.44,83.5c-0.24-5.71-1.66-15.22-1.96-15.63l-5.37,3.3c-0.81-1.33-1.56-2.51-2.16-3.43
		L79.22,83.38l-0.54,0.57l9.62,3.6l-5.47,1.19l-0.24,0.51c0.63,0.74,1.29,1.5,1.97,2.24c8.92-0.01,21.5-0.81,30.94-4.53L113.44,83.5
		z"/>
	<path id="XMLID_234_" class="st5" d="M71.03,89.13c15.07-2.25,42.53-9.65,48.78-23.37c0,0-8.86-6-17.96-6.64
		C84.29,57.88,71.03,89.13,71.03,89.13z"/>
	<path id="XMLID_1213_" class="st6" d="M101.84,59.12c-0.21-0.02-0.42-0.02-0.64-0.03c-7.18,9.23,7.22,11.47,6.38,18.4
		c5.62-3.23,10.12-7.12,12.22-11.73C119.81,65.76,110.95,59.76,101.84,59.12z"/>
	<path id="XMLID_184_" class="st5" d="M80.45,33.4c-16.87,6.38-5.72,31.9-3.56,44.69c17.86-1.82,32.32-10.03,30.77-17.91
		C107.66,60.18,92.83,28.72,80.45,33.4z"/>
	<path id="XMLID_1214_" class="st6" d="M107.66,60.18c0,0-14.68-31.15-27.03-26.84c9.28,0.9,16.65,14.72,16.65,31.64
		c0,2.73-0.19,5.37-0.55,7.89C104.1,69.4,108.56,64.74,107.66,60.18z"/>
	<g id="XMLID_1205_">
		<path id="XMLID_1206_" class="st25" d="M101.24,100.81l-0.01-0.23c3.74-0.14,6.37-2.85,5.67-6.74l0.61-0.11
			C108.29,98.05,105.3,100.63,101.24,100.81z"/>
	</g>
	<path id="XMLID_1215_" class="st26" d="M104.68,54.68c0,0-0.59-1.24-1.62-3.19c0.22,7.07-12.61,14.17-28.5,15.99
		c0.36,1.51,0.68,2.93,0.89,4.21C92.42,69.96,106.15,62.16,104.68,54.68z"/>
	<path id="XMLID_1211_" class="st27" d="M67.73,281.3c0-1.06-0.59-1.93-1.32-1.93s-1.32,0.86-1.32,1.93c0,1.06,0.59,1.93,1.32,1.93
		S67.73,282.36,67.73,281.3z"/>
	<ellipse id="XMLID_1216_" class="st27" cx="60.63" cy="279" rx="1.14" ry="1.34"/>
	<ellipse id="XMLID_1217_" class="st27" cx="76.52" cy="282.13" rx="1.14" ry="1.34"/>
	<path id="XMLID_1222_" class="st27" d="M60.59,271.6c0-0.97-0.82-1.76-1.83-1.76s-1.83,0.79-1.83,1.76s0.82,1.76,1.83,1.76
		S60.59,272.57,60.59,271.6z"/>
	<path id="XMLID_1223_" class="st27" d="M49.88,274.85c0-0.97-0.82-1.76-1.83-1.76c-1.01,0-1.83,0.79-1.83,1.76
		c0,0.97,0.82,1.76,1.83,1.76C49.06,276.61,49.88,275.82,49.88,274.85z"/>
	<path id="XMLID_1218_" class="st27" d="M83.6,284.09c0.19-0.46-0.04-0.98-0.51-1.18c-0.47-0.19-1,0.02-1.19,0.47
		c-0.19,0.46,0.04,0.98,0.51,1.17C82.87,284.76,83.41,284.55,83.6,284.09z"/>
	<path id="XMLID_1219_" class="st27" d="M84.71,275.03c0.19-0.46-0.04-0.98-0.51-1.18c-0.47-0.19-1,0.02-1.19,0.47
		c-0.19,0.46,0.04,0.98,0.51,1.18C83.99,275.69,84.52,275.48,84.71,275.03z"/>
	<path id="XMLID_1220_" class="st27" d="M91.45,287.67c0.19-0.46-0.04-0.98-0.51-1.18c-0.47-0.19-1,0.02-1.19,0.47
		c-0.19,0.46,0.04,0.98,0.51,1.18C90.73,288.33,91.27,288.12,91.45,287.67z"/>
	<path id="XMLID_1221_" class="st27" d="M95.55,278.88c0.19-0.46-0.04-0.98-0.51-1.17c-0.47-0.19-1,0.02-1.19,0.47
		c-0.19,0.46,0.04,0.98,0.51,1.18C94.83,279.55,95.36,279.33,95.55,278.88z"/>
</g>
<g id="XMLID_825_">
	<polygon id="XMLID_735_" class="st28" points="19.18,280.01 18.19,279.98 17.79,274.95 19.58,274.62 	"/>
	<path id="XMLID_460_" class="st29" d="M30.74,295.35c0.18,0.2-19.74,0-19.74,0s9.95-16.21,11.14-16.4
		C23.26,278.77,28.04,292.4,30.74,295.35z"/>
	<polygon id="XMLID_56_" class="st28" points="65.14,261.06 63.71,259.8 59.57,250.6 59.74,248.41 45.59,249.55 23.82,246.21 
		21.36,246.21 21.36,247.4 18.24,247.73 18.49,253.22 19.5,253.39 18.32,253.98 18.15,258.45 18.91,258.45 17.22,258.87 
		17.39,265.87 18.32,265.95 16.97,266.38 17.56,272.37 18.17,272.49 19.92,295.44 70.96,295.4 	"/>
	<polygon id="XMLID_168_" class="st30" points="67.61,261.06 66.17,259.8 62.04,250.6 62.21,248.41 48.71,247.99 23.82,246.21 
		24.18,247.71 21.06,248.05 20.96,253.22 21.97,253.39 20.79,253.98 20.62,258.45 21.38,258.45 19.69,258.87 19.86,265.87 
		20.79,265.95 19.44,266.38 20.03,272.37 20.62,272.2 22.39,295.44 73.43,295.4 	"/>
	<polygon id="XMLID_741_" class="st28" points="19.73,286.83 18.74,286.8 18.34,281.77 20.13,281.44 	"/>
	<polygon id="XMLID_60_" class="st31" points="22.16,292.19 19.01,291.67 18.88,281.76 21.82,282.24 	"/>
	<polygon id="XMLID_57_" class="st31" points="21.4,282.2 18.81,281.12 18.22,273.29 20.68,272.83 	"/>
	<path id="XMLID_167_" class="st32" d="M73.1,295.36l-4.14-24.4l-2.42-3.5l-0.82-3.61c0,0-1.14-2.21-1.2-2.4
		c-0.06-0.19-3.35-1.39-3.35-1.39l-0.38-1.08l-5.88-4.01l-1.14-0.16l0.7-4.3l-1.01-1.33l-1.58-0.51l-0.14-0.61l-3.34-0.1l-19.8-1.41
		l-1.27,4.15l-1.77,2.85l0.44,0.57l-0.32,1.58l-2.59,0.57c0,0-0.95,7.28-1.08,10.12c-0.08,1.87-1.21,4.37-2.02,5.87l0.31-0.09
		l1.47,19.34l2.35,3.9L73.1,295.36z"/>
	<path id="XMLID_426_" class="st33" d="M56.95,275.66c3.98,6.84,6.76,13.59,8.32,19.75l8.16-0.01l-4.14-24.4l-2.42-3.5l-0.82-3.61
		c0,0-1.14-2.21-1.2-2.4c-0.06-0.19-3.35-1.39-3.35-1.39l-0.38-1.08l-5.88-4.01l-1.14-0.16l0.7-4.3l-1.01-1.33l-1.58-0.51
		l-0.14-0.61l-3.34-0.1l-19.8-1.41l-0.01,0.04C38.59,251.71,49.15,262.27,56.95,275.66z"/>
	<polygon id="XMLID_352_" class="st30" points="69.91,274.62 68.14,275.59 65.54,274.77 62.19,274.14 56.24,276.67 51.69,281.73 
		43.84,283.19 40.42,286.6 39.22,290.4 34.03,290.4 30.43,293.31 30.49,295.4 52.51,295.4 51.24,291.03 53.08,288.38 57.06,284.71 
		59.66,284.26 61.56,280.91 63.39,278.51 66.17,278.13 68.52,279.64 70.67,279.01 	"/>
	<g id="XMLID_868_">
		<polygon id="XMLID_871_" class="st28" points="51.74,281.87 56.31,276.76 62.2,274.24 65.51,274.87 68.15,275.71 69.91,274.62 
			69.9,274.5 68.12,275.47 65.56,274.65 62.18,274.01 56.2,276.57 56.17,276.58 51.63,281.67 43.79,283.13 40.33,286.62 
			39.14,290.39 33.99,290.39 30.31,293.38 30.38,295.4 30.6,295.4 30.54,293.48 34.07,290.61 39.3,290.61 40.52,286.73 
			43.89,283.34 51.71,281.88 		"/>
		<polygon id="XMLID_873_" class="st28" points="68.53,279.55 66.2,278.02 63.33,278.42 61.46,280.89 59.59,284.22 57.01,284.66 
			53,288.38 51.12,291.12 52.35,295.4 52.58,295.4 51.36,291.16 53.16,288.53 57.11,284.87 59.73,284.42 61.64,281.01 63.45,278.62 
			66.15,278.25 68.5,279.79 70.66,279.05 70.65,278.95 		"/>
	</g>
	<path id="XMLID_157_" class="st31" d="M65.58,295.44h12.53c0,0-6.49-6.48-6.84-6.83S65.58,295.44,65.58,295.44z"/>
	<path id="XMLID_166_" class="st34" d="M69.59,295.44H85.6c0,0-11.64-6.96-12.08-7.34C73.07,287.72,69.59,295.44,69.59,295.44z"/>
	<path id="XMLID_351_" class="st35" d="M75.46,295.17c-1.56-2.37-2.23-4.9-2.06-7.06c-0.73,0.49-3.81,7.32-3.81,7.32h6.06
		C75.59,295.35,75.52,295.26,75.46,295.17z"/>
	<path id="XMLID_164_" class="st34" d="M5.44,295.4c-0.32,0.09,34.42,0,34.42,0s-17.35-7.42-19.42-7.51
		C18.48,287.8,10.16,294.05,5.44,295.4z"/>
	<path id="XMLID_768_" class="st35" d="M28.93,291.35l-4.49-0.52l-1.17,1.63c-0.47,0.18-1.27-0.44-1.1-0.96l2.35-2.03l0.58,0.28
		l-0.31,0.62l3.24,0.44L28.93,291.35z"/>
	<path id="XMLID_349_" class="st35" d="M18.93,293.03c0.11-1.73,0.56-3.47,1.29-5.13c-2.28,0.3-10.22,6.19-14.79,7.5
		c-0.14,0.04,6.27,0.05,13.6,0.04C18.92,294.68,18.88,293.88,18.93,293.03z"/>
	<path id="XMLID_428_" class="st36" d="M44.99,266.74c-1.25,0-2.52-0.14-3.8-0.43c-5.05-1.14-8.38-4.14-8.74-4.48l-0.32-0.3
		l0.34-0.28c0.24-0.2,6.04-4.9,11.49-5.15c0.12-0.01,0.24-0.01,0.36-0.01c5.4,0,11.83,5.36,12.11,5.6l0.35,0.29l-0.35,0.29
		C52.84,265.25,49.01,266.74,44.99,266.74z M32.76,261.44c1.04,0.85,4.11,3.11,8.45,4.09c5.27,1.2,10.29,0.05,14.91-3.41
		c-1.54-1.17-7.46-5.41-12.15-5.26C39.3,257.01,34.16,260.44,32.76,261.44z"/>
	<g id="XMLID_169_">
		<path id="XMLID_414_" class="st36" d="M45.71,265.35c-1.97,0-3.74-1.58-4.01-3.65c-0.14-1.1,0.17-2.19,0.86-3
			c0.62-0.72,1.48-1.15,2.43-1.22c2.08-0.14,3.99,1.48,4.27,3.64c0.14,1.1-0.17,2.19-0.86,3c-0.62,0.72-1.48,1.15-2.43,1.22
			C45.89,265.35,45.8,265.35,45.71,265.35z M45.26,258.24c-0.07,0-0.14,0-0.2,0.01c-0.73,0.05-1.4,0.39-1.88,0.94
			c-0.55,0.64-0.8,1.52-0.69,2.42c0.23,1.76,1.76,3.1,3.42,2.97c0.73-0.05,1.4-0.39,1.88-0.94c0.55-0.64,0.8-1.52,0.69-2.42
			C48.26,259.54,46.84,258.24,45.26,258.24z"/>
	</g>
	<polygon id="XMLID_172_" class="st37" points="30.54,287.12 27.94,290.84 28.93,291.35 31.04,287.5 	"/>
	<path id="XMLID_826_" class="st38" d="M30.4,288.68l0.65-1.18l-0.51-0.38l-1.13,1.62C29.75,288.69,30.08,288.67,30.4,288.68z"/>
	<path id="XMLID_170_" class="st39" d="M32.47,288.69l0.3-0.34c0,0-2.66-3.08-3.21-2.99c-0.55,0.08-1.05,1.01-0.67,1.31
		C29.26,286.96,32.47,288.69,32.47,288.69z"/>
	<polygon id="XMLID_58_" class="st40" points="20.96,253.22 18.49,253.22 19.16,253.48 18.32,253.98 20.79,253.98 25.29,253.13 	"/>
	<polygon id="XMLID_55_" class="st40" points="17.94,272.45 20.03,272.37 20.62,272.2 23.34,269.96 20.68,272.9 18.24,273.34 	"/>
	<polygon id="XMLID_71_" class="st40" points="19.44,266.44 16.97,266.38 17.92,266.04 17.39,265.87 19.86,265.87 24.61,265.28 	"/>
	<polygon id="XMLID_72_" class="st28" points="55.32,255.07 50.02,254.76 54.11,254.7 59.61,254.48 	"/>
	<polygon id="XMLID_476_" class="st28" points="49.54,250.95 38.82,250.38 47.1,250.58 58.22,250.72 	"/>
	<polygon id="XMLID_477_" class="st28" points="31.26,259.12 19.44,258.83 20.63,258.15 30.45,258.78 39.94,258.88 	"/>
	<polygon id="XMLID_103_" class="st30" points="66.81,259.25 61.49,260.09 62.03,257.87 65.52,256.76 	"/>
	<polygon id="XMLID_433_" class="st28" points="57.59,284.54 46.88,284.14 57.2,284.85 65.93,284.28 69.46,283.31 65.78,284.05 	"/>
	<polygon id="XMLID_436_" class="st28" points="35.12,279.04 52.38,279.26 35.16,278.82 21.14,279.09 21.19,279.67 	"/>
	<polygon id="XMLID_348_" class="st28" points="61.51,259.87 54.91,259.65 61.49,260.09 66.17,259.8 66.81,259.25 	"/>
	<polygon id="XMLID_465_" class="st40" points="21.15,279.09 19.13,279.36 21.19,279.67 21.86,279.37 	"/>
	<polygon id="XMLID_438_" class="st28" points="35.01,278.9 35.71,275.4 35.49,278.89 	"/>
	<polygon id="XMLID_467_" class="st28" points="66.33,283.94 67.1,287.15 65.6,284.16 	"/>
	<path id="XMLID_93_" class="st36" d="M45.43,259.84c-0.03,0-0.07,0-0.1,0c-0.36,0.03-0.68,0.2-0.92,0.5
		c-0.27,0.34-0.4,0.81-0.35,1.28c0.1,0.93,0.83,1.64,1.64,1.57c0.36-0.03,0.68-0.2,0.92-0.5c0.27-0.34,0.4-0.81,0.35-1.28
		C46.87,260.53,46.19,259.84,45.43,259.84z"/>
	<g id="XMLID_736_">
		<path id="XMLID_745_" class="st36" d="M27.06,275.15l12.5,0.2l13.16-0.16C45.91,275.21,27.06,275.15,27.06,275.15z"/>
		<path id="XMLID_746_" class="st36" d="M52.72,275.19c1.49,0,2.41-0.01,2.42-0.03L52.72,275.19z"/>
	</g>
	<g id="XMLID_747_">
		<path id="XMLID_749_" class="st36" d="M29.43,270.97l12.5,0.2l13.16-0.16C48.27,271.03,29.43,270.97,29.43,270.97z"/>
		<path id="XMLID_748_" class="st36" d="M55.08,271.01c1.49,0,2.41-0.01,2.42-0.03L55.08,271.01z"/>
	</g>
	<g id="XMLID_755_">
		<rect id="XMLID_690_" x="38.23" y="272.35" class="st36" width="0.43" height="2.43"/>
		<g id="XMLID_478_">
			<rect id="XMLID_634_" x="36.28" y="273.46" class="st36" width="1.33" height="0.56"/>
			<rect id="XMLID_750_" x="36.28" y="272.59" class="st36" width="1.33" height="0.56"/>
		</g>
		<g id="XMLID_762_">
			
				<rect id="XMLID_764_" x="47.5" y="273.03" transform="matrix(-1.836970e-16 1 -1 -1.836970e-16 321.7129 224.9006)" class="st36" width="1.82" height="0.56"/>
			
				<rect id="XMLID_763_" x="48.36" y="273.03" transform="matrix(-1.836970e-16 1 -1 -1.836970e-16 322.5778 224.0357)" class="st36" width="1.82" height="0.56"/>
		</g>
		<g id="XMLID_693_">
			<rect id="XMLID_696_" x="39.39" y="272.35" class="st36" width="0.43" height="2.43"/>
			
				<rect id="XMLID_697_" x="39.39" y="271.86" transform="matrix(-1.836970e-16 1 -1 -1.836970e-16 311.9099 232.7039)" class="st36" width="0.43" height="0.9"/>
		</g>
		<rect id="XMLID_744_" x="30.89" y="272.39" class="st36" width="2.1" height="2.13"/>
		<rect id="XMLID_821_" x="55.58" y="268.46" class="st36" width="1.24" height="1.25"/>
		<rect id="XMLID_779_" x="57.42" y="272.39" class="st36" width="2.1" height="2.13"/>
		<rect id="XMLID_483_" x="28.95" y="272.07" class="st36" width="0.85" height="2.37"/>
		<path id="XMLID_485_" class="st36" d="M26.31,273.37c0,0.47,0.38,0.85,0.85,0.85c0.47,0,0.85-0.38,0.85-0.85s-0.38-0.85-0.85-0.85
			C26.69,272.52,26.31,272.9,26.31,273.37z"/>
		<g id="XMLID_754_">
			<path id="XMLID_468_" class="st36" d="M34.23,273.89c0,0.42,0.34,0.77,0.77,0.77s0.77-0.34,0.77-0.77s-0.34-0.77-0.77-0.77
				S34.23,273.46,34.23,273.89z"/>
			<circle id="XMLID_482_" class="st36" cx="35" cy="272.45" r="0.49"/>
		</g>
		<rect id="XMLID_778_" x="54.67" y="272.35" class="st36" width="0.43" height="2.43"/>
		<g id="XMLID_775_">
			<rect id="XMLID_777_" x="52.72" y="273.46" class="st36" width="1.33" height="0.56"/>
			<rect id="XMLID_776_" x="52.72" y="272.59" class="st36" width="1.33" height="0.56"/>
		</g>
		<g id="XMLID_772_">
			<rect id="XMLID_774_" x="55.83" y="272.35" class="st36" width="0.43" height="2.43"/>
			
				<rect id="XMLID_773_" x="55.83" y="271.86" transform="matrix(-1.836970e-16 1 -1 -1.836970e-16 328.3552 216.2586)" class="st36" width="0.43" height="0.9"/>
		</g>
		<g id="XMLID_769_">
			<path id="XMLID_771_" class="st36" d="M50.68,273.89c0,0.42,0.34,0.77,0.77,0.77c0.42,0,0.77-0.34,0.77-0.77
				s-0.34-0.77-0.77-0.77C51.02,273.12,50.68,273.46,50.68,273.89z"/>
			<circle id="XMLID_770_" class="st36" cx="51.44" cy="272.45" r="0.49"/>
		</g>
		<g id="XMLID_756_">
			<path id="XMLID_758_" class="st36" d="M43.2,273.89c0,0.42,0.34,0.77,0.77,0.77c0.42,0,0.77-0.34,0.77-0.77s-0.34-0.77-0.77-0.77
				C43.54,273.12,43.2,273.46,43.2,273.89z"/>
			<circle id="XMLID_757_" class="st36" cx="43.96" cy="272.45" r="0.49"/>
		</g>
		<path id="XMLID_753_" class="st36" d="M41.43,272.52c-0.47,0-0.85,0.38-0.85,0.85c0,0.47,0.38,0.85,0.85,0.85
			c0.47,0,0.85-0.38,0.85-0.85C42.29,272.9,41.9,272.52,41.43,272.52z M41.43,273.76c-0.22,0-0.4-0.18-0.4-0.4
			c0-0.22,0.18-0.4,0.4-0.4c0.22,0,0.4,0.18,0.4,0.4C41.83,273.59,41.65,273.76,41.43,273.76z"/>
		<path id="XMLID_822_" class="st36" d="M39.18,280.17c-0.68,0-1.23,0.55-1.23,1.23c0,0.68,0.55,1.23,1.23,1.23s1.23-0.55,1.23-1.23
			C40.41,280.72,39.86,280.17,39.18,280.17z M39.18,281.97c-0.31,0-0.57-0.25-0.57-0.57c0-0.31,0.25-0.57,0.57-0.57
			c0.31,0,0.57,0.25,0.57,0.57C39.75,281.71,39.49,281.97,39.18,281.97z"/>
		<path id="XMLID_765_" class="st36" d="M46.71,271.91c-0.33,0-0.6,0.27-0.6,0.6s0.27,0.6,0.6,0.6c0.33,0,0.6-0.27,0.6-0.6
			S47.04,271.91,46.71,271.91z M46.71,272.79c-0.15,0-0.28-0.13-0.28-0.28c0-0.15,0.13-0.28,0.28-0.28c0.15,0,0.28,0.13,0.28,0.28
			C46.99,272.67,46.86,272.79,46.71,272.79z"/>
		<g id="XMLID_759_">
			
				<rect id="XMLID_761_" x="46.3" y="273.22" transform="matrix(-1.836970e-16 1 -1 -1.836970e-16 320.4128 227.3752)" class="st36" width="0.43" height="1.36"/>
			
				<rect id="XMLID_760_" x="47.1" y="273.44" transform="matrix(-1 1.174674e-04 -1.174674e-04 -1 94.4743 547.7823)" class="st36" width="0.24" height="0.9"/>
		</g>
	</g>
	
		<rect id="XMLID_819_" x="49.69" y="267.43" transform="matrix(-1 -1.224647e-16 1.224647e-16 -1 99.8208 537.291)" class="st36" width="0.43" height="2.43"/>
	<g id="XMLID_816_">
		
			<rect id="XMLID_818_" x="50.76" y="268.19" transform="matrix(-1 -1.224647e-16 1.224647e-16 -1 102.837 536.9371)" class="st36" width="1.33" height="0.56"/>
		
			<rect id="XMLID_817_" x="50.76" y="269.05" transform="matrix(-1 -1.224647e-16 1.224647e-16 -1 102.837 538.6669)" class="st36" width="1.33" height="0.56"/>
	</g>
	<g id="XMLID_813_">
		
			<rect id="XMLID_815_" x="39.04" y="268.62" transform="matrix(6.123234e-17 -1 1 6.123234e-17 -228.9501 308.8518)" class="st36" width="1.82" height="0.56"/>
		
			<rect id="XMLID_820_" x="29.51" y="268.33" transform="matrix(6.123234e-17 -1 1 6.123234e-17 -238.1903 299.025)" class="st36" width="1.82" height="0.56"/>
		
			<rect id="XMLID_814_" x="38.18" y="268.62" transform="matrix(6.123234e-17 -1 1 6.123234e-17 -229.815 307.9869)" class="st36" width="1.82" height="0.56"/>
	</g>
	<g id="XMLID_810_">
		
			<rect id="XMLID_812_" x="48.54" y="267.43" transform="matrix(-1 -1.224647e-16 1.224647e-16 -1 97.508 537.291)" class="st36" width="0.43" height="2.43"/>
		
			<rect id="XMLID_811_" x="48.54" y="269.45" transform="matrix(6.123234e-17 -1 1 6.123234e-17 -221.1468 318.6548)" class="st36" width="0.43" height="0.9"/>
	</g>
	
		<rect id="XMLID_809_" x="44.14" y="276.05" transform="matrix(-1 -1.224647e-16 1.224647e-16 -1 90.3855 554.2341)" class="st36" width="2.1" height="2.13"/>
	
		<rect id="XMLID_808_" x="32.14" y="280.42" transform="matrix(-1 1.356871e-05 -1.356871e-05 -1 66.3799 562.9606)" class="st36" width="2.1" height="2.13"/>
	
		<rect id="XMLID_807_" x="58.55" y="267.76" transform="matrix(-1 -1.224647e-16 1.224647e-16 -1 117.956 537.8928)" class="st36" width="0.85" height="2.37"/>
	<path id="XMLID_806_" class="st36" d="M62.05,268.84c0-0.47-0.38-0.85-0.85-0.85c-0.47,0-0.85,0.38-0.85,0.85
		c0,0.47,0.38,0.85,0.85,0.85C61.67,269.69,62.05,269.31,62.05,268.84z"/>
	<g id="XMLID_803_">
		<path id="XMLID_805_" class="st36" d="M54.13,268.32c0-0.42-0.34-0.77-0.77-0.77c-0.42,0-0.77,0.34-0.77,0.77s0.34,0.77,0.77,0.77
			C53.78,269.09,54.13,268.74,54.13,268.32z"/>
		<circle id="XMLID_804_" class="st36" cx="53.36" cy="269.75" r="0.49"/>
	</g>
	
		<rect id="XMLID_802_" x="33.25" y="267.43" transform="matrix(-1 -1.224647e-16 1.224647e-16 -1 66.9302 537.2911)" class="st36" width="0.43" height="2.43"/>
	<g id="XMLID_799_">
		
			<rect id="XMLID_801_" x="34.31" y="268.19" transform="matrix(-1 -1.224647e-16 1.224647e-16 -1 69.9464 536.9371)" class="st36" width="1.33" height="0.56"/>
		
			<rect id="XMLID_800_" x="34.31" y="269.05" transform="matrix(-1 -1.224647e-16 1.224647e-16 -1 69.9464 538.6669)" class="st36" width="1.33" height="0.56"/>
	</g>
	<g id="XMLID_796_">
		
			<rect id="XMLID_798_" x="32.09" y="267.43" transform="matrix(-1 -1.224647e-16 1.224647e-16 -1 64.6173 537.2911)" class="st36" width="0.43" height="2.43"/>
		
			<rect id="XMLID_797_" x="32.09" y="269.45" transform="matrix(6.123234e-17 -1 1 6.123234e-17 -237.5921 302.2095)" class="st36" width="0.43" height="0.9"/>
	</g>
	<g id="XMLID_793_">
		<path id="XMLID_795_" class="st36" d="M37,281.33c0-0.42-0.34-0.77-0.77-0.77c-0.42,0-0.77,0.34-0.77,0.77s0.34,0.77,0.77,0.77
			C36.65,282.1,37,281.76,37,281.33z"/>
		<path id="XMLID_794_" class="st36" d="M37.74,269.75c0-0.27-0.22-0.49-0.49-0.49c-0.27,0-0.49,0.22-0.49,0.49
			c0,0.27,0.22,0.49,0.49,0.49C37.52,270.25,37.74,270.03,37.74,269.75z"/>
	</g>
	<g id="XMLID_790_">
		<path id="XMLID_792_" class="st36" d="M45.16,268.32c0-0.42-0.34-0.77-0.77-0.77c-0.42,0-0.77,0.34-0.77,0.77
			c0,0.42,0.34,0.77,0.77,0.77C44.82,269.09,45.16,268.74,45.16,268.32z"/>
		<circle id="XMLID_791_" class="st36" cx="44.39" cy="269.75" r="0.49"/>
	</g>
	<path id="XMLID_787_" class="st36" d="M46.92,269.69c0.47,0,0.85-0.38,0.85-0.85c0-0.47-0.38-0.85-0.85-0.85
		c-0.47,0-0.85,0.38-0.85,0.85C46.07,269.31,46.45,269.69,46.92,269.69z M46.92,268.44c0.22,0,0.4,0.18,0.4,0.4
		c0,0.22-0.18,0.4-0.4,0.4s-0.4-0.18-0.4-0.4C46.53,268.62,46.7,268.44,46.92,268.44z"/>
	<path id="XMLID_784_" class="st36" d="M41.65,270.3c0.33,0,0.6-0.27,0.6-0.6c0-0.33-0.27-0.6-0.6-0.6c-0.33,0-0.6,0.27-0.6,0.6
		C41.05,270.03,41.32,270.3,41.65,270.3z M41.65,269.42c0.15,0,0.28,0.13,0.28,0.28s-0.13,0.28-0.28,0.28
		c-0.15,0-0.28-0.13-0.28-0.28S41.49,269.42,41.65,269.42z"/>
	<g id="XMLID_781_">
		
			<rect id="XMLID_783_" x="41.62" y="267.64" transform="matrix(6.123234e-17 -1 1 6.123234e-17 -226.4756 310.1519)" class="st36" width="0.43" height="1.36"/>
		<rect id="XMLID_782_" x="41.01" y="267.86" class="st36" width="0.24" height="0.9"/>
	</g>
	<path id="XMLID_165_" class="st41" d="M29.65,286.27c0.25-0.34,0.29-0.75,0.08-0.9c-0.21-0.15-0.58,0-0.83,0.35
		c-0.25,0.34-0.29,0.75-0.08,0.9C29.03,286.77,29.4,286.61,29.65,286.27z"/>
	<polygon id="XMLID_780_" class="st28" points="53.32,291.93 51.34,291.12 47.85,291.82 42.9,292.74 40.45,289.51 43.31,292.44 
		47.82,291.67 51.41,290.43 	"/>
</g>
</svg>
