<?xml version="1.0" encoding="utf-8"?>
<!-- Generator: Adobe Illustrator 27.6.1, SVG Export Plug-In . SVG Version: 6.00 Build 0)  -->
<svg version="1.1" id="layer" xmlns="http://www.w3.org/2000/svg" xmlns:xlink="http://www.w3.org/1999/xlink" x="0px" y="0px"
	 viewBox="0 0 171.4 313.4" style="enable-background:new 0 0 171.4 313.4;" xml:space="preserve">
<style type="text/css">
	.st0{fill:#1292A7;}
	.st1{fill:#E6F8FF;}
	.st2{enable-background:new    ;}
	.st3{fill:#0E879C;}
	.st4{fill:#CCC141;}
	.st5{fill:#14BEDB;}
	.st6{fill:#818181;}
	.st7{fill:#EDEDED;}
	.st8{fill:#D8D8D8;}
	.st9{fill:#1D1D1B;}
	.st10{fill:#3C3C3C;}
	.st11{fill:url(#SVGID_1_);}
	.st12{fill:#1D1D1C;}
	.st13{fill:#E7A42F;}
	.st14{fill:url(#SVGID_00000047046735736745677620000004127905602765208980_);}
	.st15{fill:url(#SVGID_00000017514427573023024790000012569681320984995234_);}
	.st16{fill:url(#SVGID_00000156587124806013034010000011319549226665171085_);}
	.st17{fill:#E8E8E8;}
	.st18{fill:url(#SVGID_00000118369845093010693320000013054981791104635811_);}
	.st19{fill:#F33B3B;}
	.st20{fill:#FF5353;}
	.st21{fill:#F5F5F5;}
	.st22{fill:#D4D4D4;}
	.st23{fill:url(#SVGID_00000070828297716689525910000005368513033112432530_);}
</style>
<g id="layer2">
</g>
<g id="layer3">
</g>
<g>
	<path class="st0" d="M75.9,273.4c0,2-1.6,3.6-3.6,3.6c-2,0-3.6-1.6-3.6-3.6c0-2,1.6-13.9,3.6-13.9
		C74.3,259.5,75.9,271.4,75.9,273.4z"/>
	<path class="st0" d="M97.3,287.9c0,2-1.6,3.6-3.6,3.6s-3.6-1.6-3.6-3.6c0-2,1.6-25.6,3.6-25.6S97.3,285.9,97.3,287.9z"/>
	<path class="st0" d="M61.6,263c0,2-1.6,3.6-3.6,3.6c-2,0-3.6-1.6-3.6-3.6s1.6-13.9,3.6-13.9C60,249.1,61.6,261,61.6,263z"/>
	<path class="st0" d="M139.4,266.9c0,1.3-1.1,2.3-2.3,2.3c-1.3,0-2.3-1.1-2.3-2.3s1.1-9.1,2.3-9.1
		C138.4,257.8,139.4,265.6,139.4,266.9z"/>
	<path class="st0" d="M130,274.6c0,1.3-1.1,2.3-2.3,2.3c-1.3,0-2.3-1.1-2.3-2.3c0-1.3,1.1-9.1,2.3-9.1
		C129,265.5,130,273.3,130,274.6z"/>
	<path class="st0" d="M112.4,280.3c0,1.3-1.1,2.3-2.3,2.3s-2.3-1.1-2.3-2.3s1.1-9.1,2.3-9.1S112.4,279,112.4,280.3z"/>
	<path class="st0" d="M86.5,262.3c0,1.1-0.9,1.9-1.9,1.9c-1.1,0-1.9-0.9-1.9-1.9c0-1.1,0.9-7.5,1.9-7.5
		C85.6,254.8,86.5,261.2,86.5,262.3z"/>
	<path class="st1" d="M157.3,119.3c0.7-1.1,1.3-2.3,1.7-3.5c0.4-1.2,0.7-2.4,0.8-3.6c0.3-2.5,0.1-4.9-0.3-7.3
		c-0.8-4.8-2.9-9.4-4.7-14.4c-0.9-2.5-1.7-5-2.3-7.7c-0.6-2.7-0.8-5.5-0.5-8.2c0.5-5.5,2.7-10.8,6.2-14.6c-2.1,4.8-3.1,9.8-2.9,14.7
		c0.1,4.9,1.7,9.5,3.5,14.4c0.9,2.4,1.8,4.9,2.6,7.4c0.8,2.5,1.3,5.3,1.5,8c0.1,2.7-0.1,5.5-1,8.2c-0.5,1.3-1,2.6-1.8,3.7
		C159.2,117.5,158.3,118.5,157.3,119.3z"/>
	<path class="st1" d="M61.5,113.9c-6.5-2.2-11.1-9.8-9.6-17.4c0.7-3.7,2.5-6.9,4.2-9.8c1.8-2.9,3.5-5.5,4.5-8.2
		c1-2.7,1.2-5.2,0.2-7.8c-1-2.7-2.8-5.2-4.7-8.1c-1.8-2.8-3.7-6.1-3.9-9.9c0-1.9,0.3-3.7,1.1-5.3c0.8-1.6,2.2-3,3.8-3.5
		c-1.3,1.1-2.1,2.5-2.4,4c-0.3,1.5-0.3,3,0.1,4.5c0.8,2.8,2.7,5.3,4.7,7.8c2.1,2.5,4.5,5.1,6,8.6c0.8,1.8,1.3,3.8,1.2,5.8
		c0,2-0.4,4-1.1,5.8c-0.7,1.8-1.6,3.4-2.5,4.8c-0.9,1.5-1.9,2.9-2.8,4.2c-1.8,2.7-3.5,5.3-4.4,8C54.2,102.9,56.2,109.8,61.5,113.9z"
		/>
	<path class="st1" d="M125.7,95.1c-2.3,0.2-4.7-0.4-6.8-1.4c-2.1-1.1-4-2.8-5.4-5c-1.4-2.1-2.2-4.7-2.3-7.3
		c-0.1-2.6,0.4-5.2,1.5-7.6c0.6-1.2,1.3-2.3,2.1-3.3c0.8-1,1.8-1.9,2.6-2.6c1.8-1.5,3.3-2.6,4.3-4c1.9-2.7,2-7.4-0.8-10.8
		c4.4,1.7,6.9,7.8,4.5,12.9c-1.2,2.5-3.1,4.2-4.6,5.7c-1.5,1.5-2.5,2.8-3.3,4.4c-1.5,3.3-1.7,7.2-0.3,10.6
		C118.6,90.2,121.5,93.3,125.7,95.1z"/>
	<path class="st1" d="M36.8,146.2c-1.9-1.1-3.7-2.3-5.4-3.5c-1.7-1.3-3.4-2.5-5.1-4c-0.8-0.8-1.7-1.6-2.4-2.6
		c-0.8-1-1.4-2.2-1.8-3.5c-0.8-2.6-0.6-5.3,0.1-7.6c0.3-1.2,0.8-2.3,1.2-3.3c0.5-1.1,1-2,1.6-3c1.1-1.9,2.1-3.6,3-5.3
		c0.9-1.7,1.5-3.4,1.6-5.3c0.2-1.9-0.1-3.9-1.3-5.7c2,0.9,3.4,3.2,4,5.5c0.6,2.3,0.3,4.9-0.3,7.1c-1.3,4.5-3.7,8-4.6,11.5
		c-0.5,1.7-0.6,3.4-0.3,4.9c0.3,1.5,1.2,3,2.4,4.5c1.2,1.6,2.6,3.3,3.9,5C34.5,142.5,35.7,144.3,36.8,146.2z"/>
	<g>
		<g class="st2">
			<g>
				<path class="st0" d="M158.4,172.7c-0.5,8.8-6.6,13.9-18.4,20.5l-5.6-1.1c-24.1,13.5-54.3,13.8-77.7-0.2
					c-11.5-6.9-20-11.8-20-20.6c-0.2,11.3,3,22.1,8.7,31.4c3.4,5.5,5.4,11.9,5.5,18.4c0.2,8.1,0.4,15.3,0.4,16.1
					c0,4.2,3.4,7.6,7.6,7.6c4.2,0,7.6-3.4,7.6-7.6c0,0,0-0.1,0-0.1c0.5,1,0.9,2,1.2,3.1c0.8,2.7,1.1,5.4,0.8,8.2
					c0,0.5-0.1,0.9-0.1,1.1c0,2.5,2,4.5,4.5,4.5c2.5,0,4.5-2,4.5-4.5c0-0.6-0.1-1.8-0.3-3.4c-0.1-1,0.6-1.9,1.6-1.9
					c0.1,0,0.3,0,0.4,0c0.7,0.3,2,2.3,8.2,2.3c8,0,9.8-5.1,12.7-2.8c0.1,0.3,0.3,0.6,0.4,0.8c0.5,1.2,0.5,2.5,0.3,3.8
					c-0.7,4.5-1.1,8.4-1.1,9.9c0,4.4,3.6,8,8,8s8-3.6,8-8c0-1.1-0.2-3.5-0.6-6.5c-0.3-2.2-0.2-4.5,0.5-6.7c0.4-1.3,0.9-2.4,1.7-3.4
					c0.5-0.7,1.1-1.3,1.7-1.9c0.7-0.7,1.3-1.2,1.9-1.6c2.9-1.7,6.6,0.7,6.4,4.1c-0.1,1.3-0.1,2.3-0.1,2.8c0,4.8,3.9,8.7,8.7,8.7
					c4.8,0,8.7-3.9,8.7-8.7c0-0.2,0-13.3,0-23.7c0-6.6,1.8-13.1,5.2-18.7C155.3,193.7,158.4,183.4,158.4,172.7z"/>
				<path class="st3" d="M64.6,189c-0.7,2.1-22.4-9.9-23.8-8.2c-4.8,6.3,9,19.6,9.7,28.2c0.1,1.5,0.2,4.6,1.2,5.7
					c0.8,0.9,2.3,0.9,3.5,0.5c1.2-0.4,2.4-1,3.6-0.9c1.6,0.1,7.2,1.1,8.2,2.3s1.7,2.6,2.7,3.8c3.2,3.6,3.5,5.4,6,9.5
					c1.3,2.1,2.6,3.9,4.2,5.8c1.7,2.1,5,2.7,7.4,1.6c2.5-1.1,4.1-3.8,4.3-6.5c0.1-1.7-1.4-2.5-1.3-4.2c0.2-2.6,2.9-5.7,4.3-7.9
					s2.6-4.8,1.9-7.3c-0.6-2.3-2.7-4-3.8-6.1c-1.7-3.1-1.3-6.8-1.6-10.2c-0.6-6.7-4.3-13.1-9.7-17.2c-3.1-2.3-8.6-4.5-12-1.6
					c-1.4,1.2-2.7,3.2-3.4,4.9C65,183.8,65.5,186.5,64.6,189z"/>
				<path class="st4" d="M84.7,236.6c-1.5,0-2.9-0.6-3.8-1.6c-1.5-1.9-2.8-3.6-4.1-5.7c-0.8-1.4-1.4-2.4-2-3.5c-1.1-2-2-3.7-4.2-6.2
					c-0.5-0.6-0.9-1.2-1.4-1.9c-0.4-0.6-0.8-1.2-1.3-1.8c-1.6-2-8.5-2.8-9.2-2.8c-0.1,0-0.1,0-0.2,0c-1.1,0-2.1,0.3-2.9,0.7
					c-0.3,0.1-0.6,0.2-0.9,0.3c-0.4,0.1-0.8,0.2-1.1,0.2c-0.3,0-0.8-0.1-1-0.3c-0.5-0.6-0.7-3-0.8-4.1c0-0.3,0-0.6-0.1-0.8
					c-0.3-3.8-3-8.4-5.6-12.8c-3.2-5.4-6.4-11-4.7-14.1c1.8,0.3,6.6,2.4,10.6,4.2c6.1,2.7,10,4.4,11.8,4.4c1.3,0,1.7-0.8,1.8-1.1
					c0.5-1.4,0.6-2.7,0.7-4c0.1-1.3,0.2-2.5,0.7-3.7c0.6-1.4,1.8-3.4,3-4.4c0.8-0.7,1.9-1,3.2-1c2.6,0,5.4,1.4,7.2,2.7
					c5.1,3.8,8.6,9.8,9.2,16.2c0.1,0.9,0.1,1.7,0.2,2.6c0.1,2.7,0.2,5.5,1.6,8.1c0.5,0.9,1.1,1.7,1.7,2.5c0.8,1.1,1.6,2.1,1.9,3.3
					c0.6,2.2-0.7,4.6-1.8,6.3c-0.3,0.5-0.7,1.1-1.1,1.7c-1.5,2.1-3.1,4.5-3.3,6.8c-0.1,1.3,0.4,2.2,0.8,2.9c0.3,0.6,0.5,0.9,0.5,1.3
					c-0.1,2.3-1.5,4.5-3.5,5.3C86.2,236.4,85.4,236.6,84.7,236.6z"/>
				<path class="st3" d="M120.1,224.1c-0.5-1.6-2.8-2.1-3.1-3.7c-0.2-1.1,0.8-2.1,1.5-3c0.8-1.1,1.3-2.5,1.3-3.9
					c0-0.6-0.1-1.3-0.4-1.8c-0.3-0.5-0.9-0.9-1.6-0.9c-0.9,0.1-1.5,1-2.3,1.4c-1.2,0.6-2.6,0-3.9,0c-1.4,0-2.9,0.6-3.8,1.7
					c-0.9,1-1.4,2.7-1.2,4c0.2,1.5,1.3,2.8,1.4,4.4c0.1,1.6-0.6,3.5-2.2,4.1c-0.6,0.2-1.4,0.3-1.9,0.7c-0.5,0.4-0.7,1.1-0.7,1.7
					c0,0.2,0,0.4,0.1,0.6c-0.1,0.2-0.1,0.4-0.1,0.7c0.5,3.1,3.3,12.5,3,19.6s-2.1,9.6-0.5,10.6c1.6,1.1,4.4,0.3,4.9-5.1
					c0.5-5.5-2.1-16-1.1-18.2c1.5-3.3,6.1-1.2,7.3-4.8c0,0,0,0,0,0c0.1-0.2,0.2-0.3,0.3-0.5c0.1-0.4,0.1-0.8,0.1-1.2
					c0.2-1.1,1.1-2,1.8-2.9C119.7,226.4,120.4,225.2,120.1,224.1z"/>
				<path class="st4" d="M107,259.1c-0.2,0-0.4-0.1-0.6-0.2c0,0,0,0,0,0c-0.1-0.3,0.1-1.5,0.3-2.6c0.3-1.6,0.7-3.8,0.8-6.8
					c0.3-5.5-1.2-12.1-2.3-16.6c-0.3-1.4-0.6-2.6-0.7-3.3c0,0,0,0,0,0l0.1-0.3l-0.1-0.4c0-0.1,0-0.3,0-0.4c0-0.3,0.1-0.5,0.2-0.6
					c0.1-0.1,0.4-0.2,0.7-0.2c0.3-0.1,0.6-0.1,0.9-0.3c2.3-0.9,3.2-3.4,3-5.4c-0.1-1.1-0.5-2-0.9-2.8c-0.3-0.6-0.5-1.1-0.6-1.7
					c-0.1-0.9,0.2-2.2,0.9-3c0.6-0.8,1.6-1.2,2.6-1.2l0.1,0c0.3,0,0.7,0.1,1.1,0.1c0.5,0.1,1.1,0.2,1.6,0.2c0.7,0,1.3-0.1,1.8-0.4
					c0.5-0.2,0.8-0.5,1.1-0.8c0.2-0.2,0.6-0.5,0.7-0.5c0,0,0.2,0.1,0.3,0.2c0.1,0.2,0.2,0.6,0.2,1.1c0,1.1-0.4,2.2-1,3.2
					c-0.1,0.2-0.2,0.3-0.4,0.5c-0.7,0.9-1.6,2-1.3,3.5c0.2,1.4,1.2,2.2,2,2.8c0.5,0.4,1,0.8,1.1,1.1c0.1,0.4-0.2,1.1-0.8,1.9
					c-0.1,0.1-0.2,0.2-0.3,0.3c-0.7,0.9-1.6,1.9-1.8,3.2c0,0.2,0,0.4-0.1,0.6c0,0.2,0,0.3,0,0.4c0,0,0,0.1-0.1,0.1l-0.1,0.1
					l-0.1,0.2c-0.4,1-1.1,1.3-2.7,1.6c-1.5,0.3-3.6,0.8-4.6,3.1c-0.6,1.4-0.3,4.1,0.3,8.8c0.4,3.4,0.9,7.3,0.7,9.9
					C108.9,258,107.9,259.1,107,259.1z"/>
				<path class="st3" d="M158.4,172.7c0-0.3,0-0.7,0-1C158.4,172,158.4,172.4,158.4,172.7z"/>
			</g>
		</g>
	</g>
	<path class="st3" d="M158.4,172.7c-0.4,8-5.5,12.9-15.2,18.7c-1.7,3.3-3.9,6.4-6.9,8.6c-3.3,2.4-7.5,3.7-10.1,7
		c-3,3.8-2.7,9.2-2.4,14c0.1,2.3,0.2,4.7-0.2,7c-0.4,2.8,1.3,5.5,4,6.4c2.4,0.8,4.5,2.4,5.7,4.7c1,2,1.7,4.6,3.9,4.9
		c0.9,0.2,1.9-0.2,2.6-0.9c1.2-1.1,1.6-2.8,1.7-4.3c0.5-6.3-2.2-13.1,0.4-18.9c0.8-1.7,2-3.2,3.3-4.6c0.7-4.5,2.3-8.8,4.7-12.6
		C155.3,193.7,158.4,183.4,158.4,172.7z"/>
	<path class="st4" d="M137.7,242.7c-0.1,0-0.1,0-0.2,0c-1-0.2-1.6-1.3-2.3-3c-0.2-0.4-0.4-0.8-0.6-1.2c-1.3-2.5-3.6-4.4-6.5-5.4
		c-2.1-0.7-3.4-2.8-3.1-4.9c0.4-2.5,0.3-5.2,0.2-7.2c-0.3-4.5-0.6-9.7,2.1-13.1c1.4-1.8,3.6-3,5.8-4.3c1.3-0.7,2.7-1.5,4-2.4
		c2.7-2,5-4.8,7.1-8.7c5.1-3.1,11.4-15.1,14.1-18.6c0.1,4.5,1.3,8.3-7.5,28.3c-1.8,4.2-4.8,8.7-5.6,13.2c-1.2,1.3-3.7,2.2-4.5,4.1
		c-1.8,3.9-1.3,8.2-0.8,12.3c0.3,2.3,0.5,4.8,0.3,7c-0.1,1.7-0.5,2.8-1.3,3.5C138.6,242.5,138.1,242.7,137.7,242.7z"/>
	<g>
		<path class="st3" d="M140,196.6c-24.1,13.5-62.6,13.1-86-0.9s-22.9-36.3,1.2-49.8c24.1-13.5,62.6-13.1,86,0.9
			C164.6,160.8,164.1,183.1,140,196.6z M97.6,171.2L97.6,171.2L97.6,171.2L97.6,171.2L97.6,171.2L97.6,171.2z"/>
	</g>
	<g>
		<path class="st5" d="M140,194.3c-24.1,13.5-62.6,13.1-86-0.9s-22.9-36.3,1.2-49.8c24.1-13.5,62.6-13.1,86,0.9
			S164.1,180.8,140,194.3z M97.6,169L97.6,169L97.6,169L97.6,169L97.6,169L97.6,169z"/>
	</g>
	<g>
		<path class="st3" d="M65.5,168.8c2.1,3.5,5.7,6,9.7,7c5.9,1.4,12.5-0.7,18.1,1.6c4.3,1.8,7.1,5.7,10,9.3c2.9,3.6,6.5,7.2,11.1,7.6
			c3.4,0.3,6.6-1.1,9.7-2.5c4.5-2.1,9.1-4.2,13.1-7.3c3-2.3,5.5-5.2,7.5-8.4c1.8-2.9,3.1-6.3,2.2-9.5c-1.2-4.8-6.5-7.4-11.4-8
			c-4.9-0.6-10,0-14.7-1.4c-5.1-1.5-9.3-5.2-13.6-8.4c-4.3-3.2-9.3-6.1-14.7-5.6c-3.4,0.3-6.5,2-9.6,3.6c-4.4,2.4-8.8,4.8-13.3,7.1
			c-1.7,0.9-4.4,1.8-5.8,3.2c-1.1,1.1-0.8,3.4-0.7,4.9c0.1,1.2,0.4,2.4,0.7,3.6C64.1,166,65,168.8,65.5,168.8z"/>
		<g>
			<g>
				<path class="st6" d="M125.6,127.2c-0.5,3.5-1.1,9.4-1,14.4c0,0-1.1,9.5,0.4,15.6c0,0-2.2,5.8-0.7,8.1c1.4,2.3,10.6,7,13.3,7
					c2.4,0,5.8-1.3,5.4-4.1c-0.1-0.6-0.3-1.1-0.7-1.5c-1.2-1.6-5.1-6.9-5.8-7.7c0,0,1.5-5.1,2.1-8.5c0,0,3.6-8.8,5.1-13.5
					c1.3-4.2-3.5-19.9-14.2-15.1C127.3,122.9,125.9,124.9,125.6,127.2z"/>
				<path d="M137.2,171.2c0,0,1.9,1.9,2.1,3.6c0,0,0.5-2-0.9-4.3C138.5,170.5,137.5,170.2,137.2,171.2z"/>
				<path d="M139.8,170.3c0,0,1.9,1.9,2.1,3.6c0,0,0.5-2-0.9-4.3C141.1,169.6,140.1,169.4,139.8,170.3z"/>
				<path d="M141.5,168.6c0,0,1.9,1.9,2.1,3.6c0,0,0.5-2-0.9-4.3C142.7,167.9,141.7,167.7,141.5,168.6z"/>
			</g>
			<g>
				<path class="st6" d="M114.7,112.5c0.8,1.5,1.3,3.1,1.5,4.8c0.2,2.8,0.1,7.4-2.3,11.2c-1.8,2.9-3.6,5.6-5,7.7
					c-1.6,2.3-1.7,5.4-0.3,7.9c1.3,2.3,2.9,5,4,6.7c0,0-1,3.7-5.7,3.6c-4.7-0.2-6.5-2.6-10.6-5.5c-4-2.9-3-7.1-2.6-10.8
					c0.3-3.7,1-10.3,0.4-14.6c-0.6-4.2-2.2-17.5,0.2-24C96.6,93.5,108.6,101.5,114.7,112.5z"/>
				<path d="M105.7,152.9c0,0,1.9,1.9,2.1,3.6c0,0,0.5-2-0.9-4.3C106.9,152.1,105.9,151.9,105.7,152.9z"/>
				<path d="M108.6,152.5c0,0,1.9,1.9,2.1,3.6c0,0,0.5-2-0.9-4.3C109.8,151.8,108.8,151.5,108.6,152.5z"/>
				<path d="M110.6,151c0,0,1.9,1.9,2.1,3.6c0,0,0.5-2-0.9-4.3C111.8,150.2,110.8,150,110.6,151z"/>
			</g>
			<path class="st7" d="M83.9,97.1c0,0-7.5-2.7-7.1,6.3C77.3,112.5,83.9,97.1,83.9,97.1z"/>
			<path class="st7" d="M93.6,95.2c4.1-0.1,8.1,0,14.3,3.8c7.4,4.5,12.7,13.7,16.5,14.6c13.9,1.9,12.1,8.2,19.8,12.6
				c2.9,1.6,3.9,8.9,3.9,8.9l-11.6,10.5c0,0-5.7,0.7-10.4,2.8c-4.7,2.1-22.6-7.9-28.1-10c0,0-6.1,0.1-9.9-1.9
				c-3.8-2-18.7-13.1-20.2-18.9c0,0,0.7-8.2,7-14.8C81.3,96.1,89.5,95.3,93.6,95.2z"/>
			<g>
				<path class="st7" d="M151.5,128.8c0,0-0.1,2.5,3.2-0.7c1.1-1.1,2.2-1.4,2.9-1l-3.9,5.9L151.5,128.8z"/>
				<path class="st8" d="M155.1,132c0,0-1.4-1.5,0.4-3.7c0.5-0.6,1.4-1.3,2.1-1.2c-0.5-0.8-2.1-0.2-2.9,0.7c-1.7,1.8-3.2,1-3.2,1
					l2.2,4.2c0,0,0.1-0.1,0.2-0.2L155.1,132z"/>
				<path class="st9" d="M154.7,131.8c1.3-1.1,2.8-3.3,2.9-4.1c0-0.3,0-0.4-0.1-0.6c-1.7,0.8-2.6,2.1-2.7,3.4
					C154.8,131.6,154.7,131.8,154.7,131.8z"/>
			</g>
			<path class="st7" d="M144.8,126.6l4.2,1.5c0,0,7.7,0.6,8,8.6c0,0,0.3,0.5,0.7,1.5c0.5,1.4,0.2,2.9-0.7,4l-0.5,0.6
				c0,0,3,6.5,3.4,10c0,0,0.6,1.3,0.2,2.6c-0.4,1.3-2.6,1.6-4.5,1.6c-1.9-0.1-4.8-1.9-5.7-2.4c0,0-0.1,0.4-1.2-0.2
				c-1.1-0.6-3.1-1.5-4.7-2.4c-1.7-0.9-6.9-3.9-7.4-6.5c-0.4-2.6-1.3-6.4,0.7-10.9C139.2,130.4,140.9,128.4,144.8,126.6z"/>
			<path class="st7" d="M144.8,126.6l4.2,1.5c0,0,7.7,0.6,8,8.6c0,0,0.1,0.2,0.3,0.6c0.8,1.6,1,3.4,0.7,5.1l-0.2,1.6
				c0,0,1.6,5.2,2,8.8c0,0,0.6,1.3,0.2,2.6c-0.4,1.3-2.6,1.6-4.5,1.6c-1.9-0.1-4.8-1.9-5.7-2.4c0,0-0.1,0.4-1.2-0.2
				c-1.1-0.6-3.1-1.5-4.7-2.4c-1.7-0.9-6.9-3.9-7.4-6.5c-0.4-2.6-1.3-6.4,0.7-10.9C139.2,130.4,140.9,128.4,144.8,126.6z"/>
			<path class="st8" d="M137.6,144.8c-0.7-1.1-1.3-2.2-1.5-3.3c0,0-6.7,6.2-12.5,4.9c-5.8-1.3-13.7-5.8-18.2-7.4
				c-4.5-1.6-12.6-7.1-17.8-14.1c-4.9-6.7-17.5-7.6-17.8-7.8c-0.1-0.1-0.7-0.2-1.6-0.3c-0.1,0.6-0.1,1-0.1,1
				c1.5,5.8,16.4,18,20.2,20.1c3.8,2,9.9,1.9,9.9,1.9c5.5,2.1,22.8,10.5,27.8,9.6c5.7-1.1,10.7-3.5,10.7-3.5L137.6,144.8z"/>
			<path class="st8" d="M155.7,157.1c-0.6-0.9,0-1.3,0-1.3s-6.4-5-9.5-4.9c-6.3,0.3-9-5.3-10.1-9.3c0.1,1.6,0.3,3,0.5,4.2
				c0.4,2.6,5.7,5.6,7.4,6.5c1.7,0.9,3.6,1.8,4.7,2.4c1.1,0.6,1.2,0.2,1.2,0.2c0.9,0.5,3.8,2.3,5.7,2.4
				C155.6,157.1,155.7,157.1,155.7,157.1z"/>
			<path class="st9" d="M147.7,143.7c0,0,1.9,0.2,2.1,0.2c0.2,0.1,0.9,0.6-0.1,1c-1,0.4-2,0.5-2.5-0.2
				C146.7,144.1,147.1,143.6,147.7,143.7z"/>
			<path class="st9" d="M156.9,140.4c0,0-1.1,1.3-1.2,1.5c-0.1,0.2-0.2,1,0.7,0.6c0.9-0.3,1.6-1,1.5-1.7
				C157.8,140,157.3,140,156.9,140.4z"/>
			<path class="st7" d="M137.8,140.7c0,0-2.5-3.6-0.2-5.5c2.3-1.9,5.3-0.3,5.9,0.6C143.5,135.8,138,138.4,137.8,140.7z"/>
			<path class="st8" d="M137.8,140.7c0,0-2.5-3.6-0.2-5.5c2.3-1.9,5.3-0.3,5.9,0.6c0,0-3.8-1.9-5.8,0
				C136.9,136.5,136.6,137.9,137.8,140.7z"/>
			<path class="st9" d="M137.8,137.5c-0.4,0.7,0.1,1.4,0.6,1.8c1-1.2,2.8-2.3,3.9-3c-0.3-0.2-0.7-0.5-1.1-0.6
				C139.9,135.4,138.5,136.3,137.8,137.5z"/>
			<path class="st8" d="M117.3,124c0,0,8.8-3.1,12.1,5.2c0,0,0.5-5.4-4.5-7.6C120,119.3,117.3,124,117.3,124z"/>
			<path class="st9" d="M159.8,152.9c0,0-1.3-3-3.5,1.9c0,0.1-0.1,0.2-0.1,0.2c-0.2,0.6-0.8,1-1.5,1c0,0,0,0,0,0
				c-1.5,0-4.9-1.3-4.9-1.3c0.9,0.5,3.8,2.4,5.7,2.5c0.4,0,0.7,0,1.1-0.1c0.5,0.1,1.2,0,1.8-0.2c0.8-0.2,1.6-0.7,1.7-1.4
				C160.6,154.2,159.8,152.9,159.8,152.9z"/>
			<g>
				<path class="st7" d="M88.7,126.9c1.1,1.9,1.7,4.1,1.8,6.3c0.1,2.8-0.2,6.8-2.4,10.3c-1.8,3-3.7,5.8-5.2,7.9
					c-1.5,2.2-1.6,5.2-0.3,7.5c1.1,2,2.5,4.3,3.5,6c0.4,0.7,0.4,1.5-0.1,2.2c-0.7,1.1-2.2,2.4-5.1,2.3c-4.7-0.2-6.5-2.6-10.6-5.5
					c-4-2.9-3-7.1-2.6-10.8c0.3-3.7,1-10.3,0.4-14.6c-0.6-4.2-2.2-17.5,0.2-24C70.8,108.4,82.6,116.2,88.7,126.9z"/>
				<path d="M79.9,168.1c0,0,1.9,1.9,2.1,3.6c0,0,0.5-2-0.9-4.3C81.2,167.3,80.2,167.1,79.9,168.1z"/>
				<path d="M82.8,167.3c0,0,1.9,1.9,2.1,3.6c0,0,0.5-2-0.9-4.3C84,166.6,83,166.4,82.8,167.3z"/>
				<path d="M84.9,165.8c0,0,1.9,1.9,2.1,3.6c0,0,0.5-2-0.9-4.3C86.1,165.1,85.1,164.9,84.9,165.8z"/>
			</g>
			<g>
				<path class="st7" d="M105.3,138.9c-0.5,3.5-1.1,9.4-1,14.4c0,0-1.1,9.5,0.4,15.6c0,0-2.2,5.8-0.7,8.1c1.4,2.3,10.6,7,13.3,7
					c2.4,0,5.8-1.3,5.4-4.1c-0.1-0.6-0.3-1.1-0.7-1.5c-1.2-1.6-5.1-6.9-5.8-7.7c0,0,1.5-5.1,2.1-8.5c0,0,3.6-8.8,5.1-13.5
					c1.3-4.2-3.5-19.9-14.2-15.1C107,134.6,105.6,136.7,105.3,138.9z"/>
				<path d="M116.9,182.9c0,0,1.9,1.9,2.1,3.6c0,0,0.5-2-0.9-4.3C118.2,182.2,117.2,181.9,116.9,182.9z"/>
				<path d="M119.5,182c0,0,1.9,1.9,2.1,3.6c0,0,0.5-2-0.9-4.3C120.8,181.3,119.8,181.1,119.5,182z"/>
				<path d="M121.2,180.3c0,0,1.9,1.9,2.1,3.6c0,0,0.5-2-0.9-4.3C122.4,179.6,121.4,179.4,121.2,180.3z"/>
			</g>
		</g>
	</g>
	<g>
		<g>
			<path class="st3" d="M52.6,183.7c1.4,2.3,3.8,4,6.4,4.7c4,0.9,8.4-0.5,12.1,1.1c2.8,1.2,4.7,3.8,6.7,6.2c1.9,2.4,4.3,4.8,7.4,5.1
				c2.3,0.2,4.4-0.7,6.5-1.7c3-1.4,6.1-2.8,8.7-4.9c2-1.6,3.7-3.5,5-5.6c1.2-1.9,2.1-4.2,1.5-6.4c-0.8-3.2-4.3-4.9-7.6-5.3
				c-3.3-0.4-6.7,0-9.8-0.9c-3.4-1-6.2-3.5-9.1-5.6c-2.9-2.1-6.2-4.1-9.8-3.8c-2.3,0.2-4.4,1.3-6.4,2.4c-3,1.6-5.9,3.2-8.9,4.8
				c-1.2,0.6-2.9,1.2-3.9,2.1c-0.7,0.8-0.6,2.3-0.5,3.3c0.1,0.8,0.2,1.6,0.5,2.4C51.7,181.8,52.3,183.7,52.6,183.7z"/>
		</g>
		<g>
			<path d="M91.3,192.1l4,2.1c0,0-1,0.4-1.2,1.2c0,0-1.8-0.2-2.4,0.8c0,0-3.5-3.2-3.8-4.1c-0.3-0.9,0.2-1.9,1.4-2.3
				C90.4,189.4,91.5,190,91.3,192.1z"/>
			<path d="M100.3,186.9l4,2.1c0,0-1,0.4-1.2,1.2c0,0-1.8-0.2-2.4,0.8c0,0-3.5-3.2-3.8-4.1c-0.3-0.9,0.2-1.9,1.4-2.3
				C99.4,184.2,100.5,184.8,100.3,186.9z"/>
			<path class="st10" d="M84.7,185.1c0,0,0.7,4.5-1.8,6.3c0,0,3,0.4,6.5-2L84.7,185.1z"/>
			<path class="st9" d="M104.2,161.5c0,0,0.7,1.2,0.9,3.1c0.1,1.9,0,4.1-0.3,5.1c0,0-0.8-2.2-1-4
				C103.6,163.7,103.4,162.3,104.2,161.5z"/>
			<linearGradient id="SVGID_1_" gradientUnits="userSpaceOnUse" x1="99.3104" y1="190.1868" x2="92.4775" y2="156.666">
				<stop  offset="0" style="stop-color:#EDEDED"/>
				<stop  offset="0.3643" style="stop-color:#EDECEB"/>
				<stop  offset="0.4955" style="stop-color:#EDEAE4"/>
				<stop  offset="0.589" style="stop-color:#ECE5D9"/>
				<stop  offset="0.6647" style="stop-color:#ECDFC8"/>
				<stop  offset="0.7295" style="stop-color:#EBD6B2"/>
				<stop  offset="0.7869" style="stop-color:#EACC96"/>
				<stop  offset="0.8388" style="stop-color:#E9BF76"/>
				<stop  offset="0.8849" style="stop-color:#E8B152"/>
				<stop  offset="0.9214" style="stop-color:#E7A42F"/>
			</linearGradient>
			<path class="st11" d="M101.4,187.5c0.9-1.6,2.2-8.2,3-11.7c0.7-3.5,0.7-8.1-0.1-12.6c0,0,0.3-0.4,0-1.7c-0.2-1.1-1-3.1-2.5-4.8
				c-0.8-0.4-1.8-0.9-2.7-1c-1.6-0.1-4.2,1.8-5.4,2.2c0,0-1.8-1.3-2.8-2.1c-0.2,0.1-0.3,0.1-0.5,0.2c-0.4,0.3-0.9,0.8-0.9,1.2
				c0,0.7,1.6,1.9,2.7,2.3c0,0-2.1,1.7-2.7,4.6c-0.6,2.9-1.8,6.9-1.8,6.9l0.6,0.8c0,0-0.6,18.1,0.9,20.6c0.3,0.1,0.6,0.1,0.9,0.1
				c0.9-0.1,1.9-1.1,1.9-1.1s4.8,0.4,7.3-1.9C99.2,189.5,100.5,189,101.4,187.5z"/>
			<g>
				<path class="st12" d="M99,155.6c0.8,0.1,1.8,0.5,2.6,1c-0.3-0.3-0.6-0.6-0.9-0.9c-1.6-1.3-6.4-1.4-9.9,0
					c1.1,0.9,2.8,2.1,2.8,2.1C94.9,157.4,97.4,155.5,99,155.6z"/>
				<path class="st12" d="M90.4,155.9c0.2-0.1,0.3-0.1,0.5-0.2C90.7,155.8,90.5,155.9,90.4,155.9z"/>
				<path class="st10" d="M88.2,171.8l-4.7,7.9c0.7,4.8,2.1,9,3.8,11.5c0.4,0.6,1.1,1,1.8,1.2C87.6,189.9,88.2,171.8,88.2,171.8z"/>
				<path class="st12" d="M89.5,157.2c0-0.4,0.5-0.9,0.9-1.2c-1.1,0.5-2.1,1.2-2.7,2.1c0,0-3.5,2.9-4.4,11.2
					c-0.4,3.4-0.2,7.1,0.2,10.4l4.7-7.9l-0.6-0.8c0,0,1.2-3.9,1.8-6.9c0.6-2.9,2.7-4.6,2.7-4.6C91.1,159.1,89.4,157.9,89.5,157.2z"
					/>
				<polygon class="st7" points="90.4,155.9 90.4,155.9 90.4,155.9 				"/>
				<polygon class="st7" points="90.9,155.7 90.9,155.7 90.9,155.7 				"/>
			</g>
			<path class="st9" d="M85.5,167.9c0.7,0.2,1.6,0.6,2.4,1.4c0.6,0.5,0.9,1.4,0.8,2.2c0,0.4-0.1,0.8-0.2,1.3c0,0-0.7,6.4-2.5,8.3
				c-1.9,1.9-3.2,2.4-3.7,2c-0.6-0.3,0.4-2.8,0.8-3.8c0.5-1,0.5-5.1,0.4-6.2c-0.1-0.8-0.3-3.1,0.4-4.5
				C84.1,168,84.8,167.7,85.5,167.9z"/>
			<path class="st12" d="M87.5,158.5c0,0,0.5-4.9,3.5-6.9c3-2,5.2-1.1,6.3,0.3c0.8,0.9,1.6,2,1.9,3.5c0,0-0.5,1.1-1.5,2.1
				c-0.3,0.3-1.4,0.8-1.9,1c-1.9,0.6-3.2,0.1-4.1-0.3c-0.4-0.2-1,0-1.7,0C88.9,158.1,87.8,158.2,87.5,158.5z"/>
			<path class="st13" d="M92.5,158.1c-1.3-0.8-1-2.1-1.3-2.9c-0.2-0.4-0.9-0.5-1.2-0.1c-1.2,1.5-0.1,3-0.1,3s0.6,0.4,0.9,0.6
				c0.9,0.4,3.2,0.4,4.9-0.3C95.8,158.4,93.9,158.9,92.5,158.1z"/>
			<path class="st7" d="M94.4,154.7c-0.1,0.2-0.4,0.3-0.6,0.2c-0.3-0.1-0.4-0.4-0.4-0.6c0.1-0.2,0.4-0.3,0.6-0.2
				C94.3,154.2,94.5,154.5,94.4,154.7z"/>
			<g>
				<path class="st8" d="M97.9,156.5c0,0.1,0,0.2,0,0.3c0.1,0.2,0.4,0.1,0.7,0.1c0.3,0,2.3,1.3,2.3,1.3c0,0,0.2,0.1,0.3,0.1
					C100,156.9,98.5,156.6,97.9,156.5z"/>
				<path class="st7" d="M101.3,158c-0.2-0.5-1.7-1.9-1.9-2.1c0,0-0.1-0.4-0.3-0.6c0,0-0.7-0.2-1.1,0.6c-0.1,0.2-0.1,0.4-0.1,0.5
					c0.6,0.1,2.1,0.4,3.3,1.8C101.4,158.3,101.4,158.2,101.3,158z"/>
			</g>
		</g>
		<g>
			<path d="M71.9,172l-3.7,1.9c0,0,1,0.4,1.1,1.1c0,0,1.6-0.2,2.2,0.8c0,0,3.2-3,3.5-3.8c0.2-0.8-0.2-1.8-1.3-2.1
				C72.6,169.6,71.7,170.1,71.9,172z"/>
			<path d="M63.6,167.2l-3.7,1.9c0,0,1,0.4,1.1,1.1c0,0,1.6-0.2,2.2,0.8c0,0,3.2-3,3.5-3.8c0.2-0.8-0.2-1.8-1.3-2.1
				C64.4,164.8,63.4,165.3,63.6,167.2z"/>
			<path class="st10" d="M77.9,165.6c0,0-0.6,4.1,1.6,5.8c0,0-2.7,0.4-6-1.8L77.9,165.6z"/>
			<path class="st9" d="M60,143.9c0,0-0.7,1.1-0.8,2.8c-0.1,1.7,0,3.8,0.3,4.6c0,0,0.7-2,0.9-3.7C60.6,146,60.8,144.6,60,143.9z"/>
			
				<linearGradient id="SVGID_00000037681329166572228910000011120779431138077857_" gradientUnits="userSpaceOnUse" x1="-921.4497" y1="170.2873" x2="-927.728" y2="139.4876" gradientTransform="matrix(-1 0 0 1 -856.9597 0)">
				<stop  offset="0" style="stop-color:#EDEDED"/>
				<stop  offset="0.3643" style="stop-color:#EDECEB"/>
				<stop  offset="0.4955" style="stop-color:#EDEAE4"/>
				<stop  offset="0.589" style="stop-color:#ECE5D9"/>
				<stop  offset="0.6647" style="stop-color:#ECDFC8"/>
				<stop  offset="0.7295" style="stop-color:#EBD6B2"/>
				<stop  offset="0.7869" style="stop-color:#EACC96"/>
				<stop  offset="0.8388" style="stop-color:#E9BF76"/>
				<stop  offset="0.8849" style="stop-color:#E8B152"/>
				<stop  offset="0.9214" style="stop-color:#E7A42F"/>
			</linearGradient>
			<path style="fill:url(#SVGID_00000037681329166572228910000011120779431138077857_);" d="M62.6,167.8c-0.8-1.4-2-7.5-2.7-10.8
				c-0.7-3.2-0.6-7.5,0.1-11.6c0,0-0.2-0.4,0-1.6c0.2-1,0.9-2.9,2.3-4.4c0.7-0.4,1.7-0.9,2.5-0.9c1.5-0.1,3.8,1.6,4.9,2
				c0,0,1.6-1.2,2.6-2c0.1,0.1,0.3,0.1,0.4,0.2c0.3,0.3,0.8,0.7,0.8,1.1c0,0.6-1.5,1.8-2.5,2.1c0,0,1.9,1.5,2.5,4.2
				c0.5,2.7,1.6,6.3,1.6,6.3l-0.5,0.8c0,0,0.6,16.7-0.9,18.9c-0.3,0.1-0.6,0.1-0.8,0.1c-0.8-0.1-1.7-1-1.7-1s-4.4,0.4-6.7-1.7
				C64.6,169.6,63.4,169.2,62.6,167.8z"/>
			<g>
				<path class="st12" d="M64.7,138.5c-0.8,0.1-1.7,0.5-2.4,0.9c0.3-0.3,0.5-0.6,0.9-0.8c1.4-1.2,5.8-1.3,9.1,0c-1,0.8-2.6,2-2.6,2
					C68.6,140.2,66.2,138.4,64.7,138.5z"/>
				<path class="st12" d="M72.7,138.8c-0.1-0.1-0.3-0.1-0.4-0.2C72.4,138.7,72.5,138.7,72.7,138.8z"/>
				<path class="st10" d="M74.7,153.3l4.3,7.3c-0.6,4.4-1.9,8.3-3.5,10.6c-0.4,0.5-1,0.9-1.7,1.1C75.2,170,74.7,153.3,74.7,153.3z"
					/>
				<path class="st12" d="M73.5,140c0-0.4-0.5-0.9-0.8-1.1c1,0.5,1.9,1.1,2.5,1.9c0,0,3.2,2.7,4,10.3c0.3,3.2,0.2,6.5-0.2,9.6
					l-4.3-7.3l0.5-0.8c0,0-1.1-3.6-1.6-6.3c-0.5-2.7-2.5-4.2-2.5-4.2C72.1,141.7,73.6,140.6,73.5,140z"/>
				<polygon class="st7" points="72.7,138.8 72.7,138.8 72.7,138.8 				"/>
				<polygon class="st7" points="72.3,138.6 72.3,138.6 72.3,138.6 				"/>
			</g>
			<path class="st9" d="M77.2,149.8c-0.6,0.2-1.4,0.5-2.2,1.2c-0.6,0.5-0.8,1.3-0.7,2c0,0.3,0.1,0.7,0.2,1.2c0,0,0.6,5.9,2.3,7.6
				c1.7,1.8,2.9,2.2,3.4,1.9c0.5-0.3-0.3-2.5-0.8-3.5c-0.4-1-0.5-4.7-0.3-5.7c0.1-0.8,0.3-2.8-0.4-4.2
				C78.5,149.9,77.8,149.7,77.2,149.8z"/>
			<path class="st12" d="M75.3,141.1c0,0-0.4-4.5-3.2-6.3c-2.8-1.9-4.8-1-5.8,0.2c-0.7,0.9-1.4,1.9-1.7,3.2c0,0,0.5,1,1.3,1.9
				c0.3,0.3,1.3,0.8,1.8,0.9c1.8,0.6,3,0.1,3.8-0.3c0.3-0.2,0.9,0,1.6,0C74.1,140.8,75.1,140.9,75.3,141.1z"/>
			<path class="st13" d="M70.7,140.8c1.2-0.7,0.9-1.9,1.2-2.7c0.2-0.4,0.8-0.5,1.1-0.1c1.1,1.4,0.1,2.8,0.1,2.8s-0.5,0.4-0.9,0.5
				c-0.8,0.4-2.9,0.4-4.5-0.3C67.7,141,69.5,141.5,70.7,140.8z"/>
			<path class="st7" d="M69,137.6c0.1,0.2,0.3,0.3,0.6,0.2c0.3-0.1,0.4-0.3,0.3-0.5c-0.1-0.2-0.3-0.3-0.6-0.2
				C69.1,137.2,68.9,137.5,69,137.6z"/>
			<g>
				<path class="st8" d="M65.7,139.3c0,0.1,0,0.2,0,0.3c-0.1,0.2-0.4,0.1-0.6,0.1c-0.3,0-2.1,1.2-2.1,1.2c0,0-0.2,0.1-0.2,0.1
					C63.8,139.7,65.2,139.4,65.7,139.3z"/>
				<path class="st7" d="M62.6,140.7c0.2-0.4,1.5-1.8,1.7-1.9c0,0,0.1-0.4,0.3-0.5c0,0,0.6-0.2,1,0.6c0.1,0.2,0.1,0.3,0.1,0.5
					c-0.5,0.1-1.9,0.4-3,1.7C62.6,141,62.5,140.9,62.6,140.7z"/>
			</g>
		</g>
		<g>
			<path d="M77.3,190.4l-1.6,0.9c0,0,0.4,0.2,0.5,0.5c0,0,0.7-0.1,1,0.3c0,0,1.4-1.3,1.5-1.7c0.1-0.4-0.1-0.8-0.6-0.9
				C77.7,189.3,77.2,189.5,77.3,190.4z"/>
			<path d="M73.6,188.3l-1.6,0.9c0,0,0.4,0.2,0.5,0.5c0,0,0.7-0.1,1,0.3c0,0,1.4-1.3,1.5-1.7c0.1-0.4-0.1-0.8-0.6-0.9
				C74,187.2,73.6,187.4,73.6,188.3z"/>
			<path class="st10" d="M80,187.5c0,0-0.3,1.8,0.7,2.6c0,0-1.2,0.2-2.7-0.8L80,187.5z"/>
			<path class="st9" d="M72.1,177.9c0,0-0.3,0.5-0.4,1.3c-0.1,0.8,0,1.7,0.1,2.1c0,0,0.3-0.9,0.4-1.6
				C72.3,178.8,72.4,178.2,72.1,177.9z"/>
			
				<linearGradient id="SVGID_00000082333934958022798230000003685456198660796339_" gradientUnits="userSpaceOnUse" x1="-931.0037" y1="189.6351" x2="-933.7924" y2="175.9541" gradientTransform="matrix(-1 0 0 1 -856.9597 0)">
				<stop  offset="0" style="stop-color:#EDEDED"/>
				<stop  offset="0.3643" style="stop-color:#EDECEB"/>
				<stop  offset="0.4955" style="stop-color:#EDEAE4"/>
				<stop  offset="0.589" style="stop-color:#ECE5D9"/>
				<stop  offset="0.6647" style="stop-color:#ECDFC8"/>
				<stop  offset="0.7295" style="stop-color:#EBD6B2"/>
				<stop  offset="0.7869" style="stop-color:#EACC96"/>
				<stop  offset="0.8388" style="stop-color:#E9BF76"/>
				<stop  offset="0.8849" style="stop-color:#E8B152"/>
				<stop  offset="0.9214" style="stop-color:#E7A42F"/>
			</linearGradient>
			<path style="fill:url(#SVGID_00000082333934958022798230000003685456198660796339_);" d="M73.2,188.5c-0.4-0.6-0.9-3.3-1.2-4.8
				c-0.3-1.4-0.3-3.3,0.1-5.2c0,0-0.1-0.2,0-0.7c0.1-0.5,0.4-1.3,1-1.9c0.3-0.2,0.7-0.4,1.1-0.4c0.7,0,1.7,0.7,2.2,0.9
				c0,0,0.7-0.5,1.1-0.9c0.1,0,0.1,0.1,0.2,0.1c0.2,0.1,0.4,0.3,0.4,0.5c0,0.3-0.7,0.8-1.1,0.9c0,0,0.9,0.7,1.1,1.9
				c0.2,1.2,0.7,2.8,0.7,2.8l-0.2,0.3c0,0,0.2,7.4-0.4,8.4c-0.1,0-0.2,0-0.4,0c-0.4,0-0.8-0.4-0.8-0.4s-1.9,0.2-3-0.8
				C74.1,189.3,73.6,189.2,73.2,188.5z"/>
			<g>
				<path class="st12" d="M74.2,175.5c-0.3,0-0.8,0.2-1.1,0.4c0.1-0.1,0.2-0.3,0.4-0.4c0.6-0.5,2.6-0.6,4,0
					c-0.4,0.4-1.1,0.9-1.1,0.9C75.9,176.3,74.8,175.5,74.2,175.5z"/>
				<path class="st12" d="M77.7,175.7c-0.1,0-0.1-0.1-0.2-0.1C77.6,175.6,77.6,175.6,77.7,175.7z"/>
				<path class="st10" d="M78.6,182.1l1.9,3.2c-0.3,1.9-0.8,3.7-1.6,4.7c-0.2,0.2-0.5,0.4-0.7,0.5C78.8,189.5,78.6,182.1,78.6,182.1
					z"/>
				<path class="st12" d="M78.1,176.2c0-0.2-0.2-0.4-0.4-0.5c0.5,0.2,0.8,0.5,1.1,0.9c0,0,1.4,1.2,1.8,4.6c0.1,1.4,0.1,2.9-0.1,4.3
					l-1.9-3.2l0.2-0.3c0,0-0.5-1.6-0.7-2.8c-0.2-1.2-1.1-1.9-1.1-1.9C77.4,177,78.1,176.4,78.1,176.2z"/>
				<polygon class="st7" points="77.7,175.7 77.7,175.7 77.7,175.7 				"/>
				<polygon class="st7" points="77.5,175.6 77.5,175.6 77.5,175.6 				"/>
			</g>
			<path class="st9" d="M79.7,180.6c-0.3,0.1-0.6,0.2-1,0.6c-0.2,0.2-0.4,0.6-0.3,0.9c0,0.1,0,0.3,0.1,0.5c0,0,0.3,2.6,1,3.4
				c0.8,0.8,1.3,1,1.5,0.8c0.2-0.1-0.1-1.1-0.3-1.6c-0.2-0.4-0.2-2.1-0.1-2.5c0-0.3,0.1-1.3-0.2-1.8C80.3,180.6,80,180.5,79.7,180.6
				z"/>
			<path class="st12" d="M78.9,176.7c0,0-0.2-2-1.4-2.8c-1.2-0.8-2.1-0.5-2.6,0.1c-0.3,0.4-0.6,0.8-0.8,1.4c0,0,0.2,0.5,0.6,0.9
				c0.1,0.1,0.6,0.3,0.8,0.4c0.8,0.2,1.3,0,1.7-0.1c0.1-0.1,0.4,0,0.7,0C78.3,176.5,78.7,176.6,78.9,176.7z"/>
			<path class="st13" d="M76.8,176.5c0.5-0.3,0.4-0.8,0.5-1.2c0.1-0.2,0.4-0.2,0.5,0c0.5,0.6,0,1.2,0,1.2s-0.2,0.2-0.4,0.2
				c-0.4,0.2-1.3,0.2-2-0.1C75.5,176.6,76.3,176.9,76.8,176.5z"/>
			<path class="st7" d="M76.1,175.1c0,0.1,0.1,0.1,0.3,0.1s0.2-0.1,0.1-0.2c0-0.1-0.2-0.1-0.3-0.1C76.1,174.9,76,175.1,76.1,175.1z"
				/>
			<g>
				<path class="st8" d="M74.6,175.9c0,0.1,0,0.1,0,0.1c0,0.1-0.2,0-0.3,0c-0.1,0-0.9,0.5-1,0.5c0,0-0.1,0-0.1,0
					C73.8,176,74.4,175.9,74.6,175.9z"/>
				<path class="st7" d="M73.2,176.5c0.1-0.2,0.7-0.8,0.8-0.9c0,0,0-0.2,0.1-0.2c0,0,0.3-0.1,0.4,0.3c0,0.1,0.1,0.2,0.1,0.2
					c-0.2,0-0.8,0.2-1.4,0.8C73.2,176.6,73.2,176.6,73.2,176.5z"/>
			</g>
		</g>
		<g>
			<path d="M53.1,182.9l1.9,1c0,0-0.5,0.2-0.6,0.5c0,0-0.8-0.1-1.1,0.4c0,0-1.6-1.5-1.8-1.9c-0.1-0.4,0.1-0.9,0.6-1.1
				C52.7,181.6,53.2,181.9,53.1,182.9z"/>
			<path d="M57.3,180.4l1.9,1c0,0-0.5,0.2-0.6,0.5c0,0-0.8-0.1-1.1,0.4c0,0-1.6-1.5-1.8-1.9c-0.1-0.4,0.1-0.9,0.6-1.1
				C56.9,179.2,57.4,179.4,57.3,180.4z"/>
			<path class="st10" d="M50,179.6c0,0,0.3,2.1-0.8,3c0,0,1.4,0.2,3.1-0.9L50,179.6z"/>
			<path class="st9" d="M59.1,168.5c0,0,0.3,0.6,0.4,1.4c0.1,0.9,0,1.9-0.2,2.4c0,0-0.4-1-0.5-1.9C58.8,169.6,58.8,168.9,59.1,168.5
				z"/>
			
				<linearGradient id="SVGID_00000120535896647567720340000002802102129968757910_" gradientUnits="userSpaceOnUse" x1="96.405" y1="181.9835" x2="93.2019" y2="166.2699" gradientTransform="matrix(1 0 0 1 -39.5509 0)">
				<stop  offset="0" style="stop-color:#EDEDED"/>
				<stop  offset="0.3643" style="stop-color:#EDECEB"/>
				<stop  offset="0.4955" style="stop-color:#EDEAE4"/>
				<stop  offset="0.589" style="stop-color:#ECE5D9"/>
				<stop  offset="0.6647" style="stop-color:#ECDFC8"/>
				<stop  offset="0.7295" style="stop-color:#EBD6B2"/>
				<stop  offset="0.7869" style="stop-color:#EACC96"/>
				<stop  offset="0.8388" style="stop-color:#E9BF76"/>
				<stop  offset="0.8849" style="stop-color:#E8B152"/>
				<stop  offset="0.9214" style="stop-color:#E7A42F"/>
			</linearGradient>
			<path style="fill:url(#SVGID_00000120535896647567720340000002802102129968757910_);" d="M57.8,180.7c0.4-0.7,1-3.8,1.4-5.5
				c0.3-1.6,0.3-3.8-0.1-5.9c0,0,0.1-0.2,0-0.8c-0.1-0.5-0.5-1.5-1.2-2.2c-0.4-0.2-0.9-0.4-1.3-0.5c-0.8-0.1-2,0.8-2.5,1
				c0,0-0.8-0.6-1.3-1c-0.1,0-0.2,0.1-0.2,0.1c-0.2,0.1-0.4,0.4-0.4,0.6c0,0.3,0.7,0.9,1.3,1.1c0,0-1,0.8-1.3,2.2
				c-0.3,1.4-0.8,3.2-0.8,3.2l0.3,0.4c0,0-0.3,8.5,0.4,9.7c0.1,0,0.3,0.1,0.4,0c0.4-0.1,0.9-0.5,0.9-0.5s2.2,0.2,3.4-0.9
				C56.8,181.7,57.4,181.4,57.8,180.7z"/>
			<g>
				<path class="st12" d="M56.7,165.8c0.4,0,0.9,0.2,1.2,0.5c-0.1-0.1-0.3-0.3-0.4-0.4c-0.7-0.6-3-0.7-4.6,0c0.5,0.4,1.3,1,1.3,1
					C54.8,166.6,56,165.7,56.7,165.8z"/>
				<path class="st12" d="M52.7,165.9c0.1,0,0.1-0.1,0.2-0.1C52.8,165.9,52.7,165.9,52.7,165.9z"/>
				<path class="st10" d="M51.7,173.3l-2.2,3.7c0.3,2.2,1,4.2,1.8,5.4c0.2,0.3,0.5,0.5,0.9,0.6C51.4,181.8,51.7,173.3,51.7,173.3z"
					/>
				<path class="st12" d="M52.2,166.5c0-0.2,0.3-0.4,0.4-0.6c-0.5,0.2-1,0.6-1.3,1c0,0-1.7,1.4-2.1,5.2c-0.2,1.6-0.1,3.3,0.1,4.9
					l2.2-3.7l-0.3-0.4c0,0,0.6-1.8,0.8-3.2c0.3-1.4,1.3-2.2,1.3-2.2C53,167.4,52.2,166.8,52.2,166.5z"/>
				<polygon class="st7" points="52.7,165.9 52.7,165.9 52.7,165.9 				"/>
				<polygon class="st7" points="52.9,165.8 52.9,165.8 52.9,165.8 				"/>
			</g>
			<path class="st9" d="M50.4,171.6c0.3,0.1,0.7,0.3,1.1,0.6c0.3,0.3,0.4,0.6,0.4,1c0,0.2-0.1,0.4-0.1,0.6c0,0-0.3,3-1.2,3.9
				c-0.9,0.9-1.5,1.1-1.7,1c-0.3-0.2,0.2-1.3,0.4-1.8c0.2-0.5,0.2-2.4,0.2-2.9c-0.1-0.4-0.2-1.4,0.2-2.1
				C49.7,171.6,50,171.5,50.4,171.6z"/>
			<path class="st12" d="M51.3,167.1c0,0,0.2-2.3,1.6-3.2c1.4-1,2.4-0.5,3,0.1c0.4,0.4,0.7,1,0.9,1.6c0,0-0.2,0.5-0.7,1
				c-0.1,0.2-0.7,0.4-0.9,0.5c-0.9,0.3-1.5,0.1-1.9-0.1c-0.2-0.1-0.5,0-0.8,0C52,166.9,51.5,167,51.3,167.1z"/>
			<path class="st13" d="M53.7,167c-0.6-0.4-0.4-1-0.6-1.4c-0.1-0.2-0.4-0.2-0.5-0.1c-0.6,0.7,0,1.4,0,1.4s0.3,0.2,0.4,0.3
				c0.4,0.2,1.5,0.2,2.3-0.1C55.2,167.1,54.3,167.3,53.7,167z"/>
			<path class="st7" d="M54.5,165.3c0,0.1-0.2,0.1-0.3,0.1c-0.1,0-0.2-0.2-0.2-0.3c0-0.1,0.2-0.1,0.3-0.1
				C54.5,165.1,54.6,165.2,54.5,165.3z"/>
			<g>
				<path class="st8" d="M56.2,166.2c0,0.1,0,0.1,0,0.2c0,0.1,0.2,0,0.3,0.1c0.1,0,1.1,0.6,1.1,0.6c0,0,0.1,0,0.1,0
					C57.2,166.4,56.5,166.2,56.2,166.2z"/>
				<path class="st7" d="M57.8,166.9c-0.1-0.2-0.8-0.9-0.9-1c0,0,0-0.2-0.1-0.3c0,0-0.3-0.1-0.5,0.3c0,0.1-0.1,0.2-0.1,0.3
					c0.3,0,1,0.2,1.6,0.9C57.8,167,57.8,167,57.8,166.9z"/>
			</g>
		</g>
	</g>
	<path class="st3" d="M74.4,228.5c-0.8-1.2-2-2-3-3.1c-1.4-1.4-2.2-3.3-3.4-4.9c-1.2-1.6-2.8-3.1-4.8-3.2c-2-0.2-3.9,1-5,2.6
		c-0.2,0.3-0.4,0.6-0.6,1c-0.1,0.1-0.3,0.2-0.4,0.3c-1,0.9-1.6,2.2-1.8,3.5c-0.3,1.3-0.3,2.7-0.3,4c0,1.9-0.1,3.8-0.1,5.7
		c0,1,0,2,0.3,2.9c0.4,1.2,1.5,2.1,2.7,2.3c1.2,0.3,2.5-0.1,3.4-1c1.6-1.6,1.6-4.3,3.3-5.9c1.1-1,2.8-1.3,4.3-1
		c1.5,0.3,2.8,1.1,4.1,2c0.6,0.4,1.3,0.8,1.9,0.4c0.3-0.2,0.4-0.6,0.5-0.9C75.7,231.7,75.4,229.9,74.4,228.5z"/>
	<path class="st3" d="M106.6,208.4c3.5-0.5,7-1.2,10.4-0.5c0.5,0.1,0.9,0.2,1.3,0.5c0.3,0.3,0.5,0.9,0.2,1.2c-0.2,0.3-0.7,0.3-1,0.3
		c-1.6,0.1-3.1,0.2-4.7,0.3c-2.2,0.1-4.5,0.3-6.2,1.7c-1.3,1.1-2,2.8-2.3,4.4c-0.3,1.7-0.2,3.4-0.2,5.1c0,1.2-0.1,2.5-0.6,3.6
		c-0.7,1.6-2.2,2.8-3.1,4.4c-0.4,0.9-0.7,1.9-1.4,2.5c-1.2,1.1-3.3,0.8-4.4-0.5s-1.3-3.1-0.9-4.7c0.4-1.6,1.2-3.1,1.9-4.6
		c1.2-2.3,2.2-4.7,2.5-7.3c0.3-2.4-0.2-4.4-1.2-6.6c-0.2-0.6-0.3-0.7,0.3-0.6c0.6,0.1,1.1,0.4,1.7,0.5c1.2,0.3,2.4,0.4,3.5,0.4
		C103.9,208.7,105.3,208.5,106.6,208.4z"/>
	<path class="st3" d="M127,235.5c-0.3-0.4-0.7-0.6-1.2-0.9c-0.9-0.5-1.8-1.1-2.4-2.1c-0.9-1.6-0.6-3.5-0.4-5.4
		c0.1-2.2-0.2-4.5-1-6.6c-0.4-1.1-1.1-2.2-2.2-2.3c0.4,2.3,0.8,4.5,1.1,6.8l0.1-1.8c0.1,1.8,0.3,3.5-0.1,5.3c-1,4.8-5.9,8.1-7,12.9
		c-0.1,0.6-0.2,1.2-0.3,1.9c2.1-1.4,2.8-4.2,4.9-5.6c1-0.6,2.2-0.9,3.4-0.9c1.2,0,2.3,0.2,3.5,0.4c0.6,0.1,1.3,0.1,1.6-0.3
		C127.4,236.5,127.3,235.9,127,235.5z"/>
	<path class="st3" d="M78.7,242.4c1.6,1.2,3.5,1.8,5.5,2c2,0.2,4-0.1,5.9-0.4c2.3-0.4,4.8-0.9,6.2-2.9c0.9-1.3,0.9-3.2-0.3-4.1
		c-0.7-0.5-1.7-0.6-2.6-0.4c-2.4,0.4-4.5,2-6.9,2.4c-1.8,0.3-3.7,0-5.4-0.6c-1.3-0.5-2.6-1.1-3.8-1.8c-0.8-0.4-1.6-1.2-1.5,0
		C75.9,238.8,77,241.1,78.7,242.4z"/>
</g>
<g>
	<g>
		<g>
			<g>
				<path class="st17" d="M30.1,149.8L30.1,149.8c-10.2-5.9-18.5-18.9-18.5-29.1V46.8c0-10.2,8.3-13.7,18.5-7.8l0,0
					c10.2,5.9,18.5,18.9,18.5,29.1V142C48.6,152.2,40.3,155.7,30.1,149.8z"/>
				
					<linearGradient id="SVGID_00000134247246047691960280000008622832522475517850_" gradientUnits="userSpaceOnUse" x1="34.304" y1="47.7712" x2="34.304" y2="73.8259">
					<stop  offset="0" style="stop-color:#F5F5F5"/>
					<stop  offset="1" style="stop-color:#C9C9C9"/>
				</linearGradient>
				<path style="fill:url(#SVGID_00000134247246047691960280000008622832522475517850_);" d="M34,36.7c-5.6-3.2-10.6-3.6-14-1.7l0,0
					l-3.9,2.3l0,0c3.4-2,8.4-1.5,14,1.7c10.2,5.9,18.5,18.9,18.5,29.1V142c0,4.6-1.7,7.9-4.5,9.5l0,0l3.9-2.3l0,0
					c2.8-1.6,4.5-4.9,4.5-9.5V65.9C52.5,55.7,44.2,42.6,34,36.7z"/>
			</g>
			<g>
				<g>
					<g>
						<path class="st19" d="M25.5,52.6l-6.6-3.8c-0.2-0.1-0.4-0.4-0.4-0.6c0-0.2,0.2-0.3,0.4-0.2l6.6,3.8c0.2,0.1,0.4,0.4,0.4,0.6
							C25.9,52.7,25.7,52.8,25.5,52.6z"/>
					</g>
					<g>
						<path class="st19" d="M25.5,59.5l-6.6-3.8c-0.2-0.1-0.4-0.4-0.4-0.6c0-0.2,0.2-0.3,0.4-0.2l6.6,3.8c0.2,0.1,0.4,0.4,0.4,0.6
							C25.9,59.6,25.7,59.6,25.5,59.5z"/>
					</g>
					<g>
						<path class="st19" d="M25.5,66.4l-6.6-3.8c-0.2-0.1-0.4-0.4-0.4-0.6c0-0.2,0.2-0.3,0.4-0.2l6.6,3.8c0.2,0.1,0.4,0.4,0.4,0.6
							C25.9,66.4,25.7,66.5,25.5,66.4z"/>
					</g>
					<g>
						<path class="st19" d="M25.5,73.3l-6.6-3.8c-0.2-0.1-0.4-0.4-0.4-0.6c0-0.2,0.2-0.3,0.4-0.2l6.6,3.8c0.2,0.1,0.4,0.4,0.4,0.6
							C25.9,73.3,25.7,73.4,25.5,73.3z"/>
					</g>
					<g>
						<path class="st19" d="M25.5,80.2l-6.6-3.8c-0.2-0.1-0.4-0.4-0.4-0.6c0-0.2,0.2-0.3,0.4-0.2l6.6,3.8c0.2,0.1,0.4,0.4,0.4,0.6
							C25.9,80.2,25.7,80.3,25.5,80.2z"/>
					</g>
					<g>
						<path class="st19" d="M25.5,87l-6.6-3.8c-0.2-0.1-0.4-0.4-0.4-0.6c0-0.2,0.2-0.3,0.4-0.2l6.6,3.8c0.2,0.1,0.4,0.4,0.4,0.6
							C25.9,87.1,25.7,87.2,25.5,87z"/>
					</g>
					<g>
						<path class="st19" d="M16.3,45.1l0.3-0.3c0.2,0.4,0.5,0.7,0.9,1c0.4,0.3,0.8,0.2,0.8-0.3c0-0.5-0.3-0.9-0.7-1.2
							c-0.3-0.1-0.4-0.2-0.6-0.1l-0.3-0.4l0.1-1.9l2.1,1.2v0.6l-1.5-0.9l-0.1,0.9c0.2,0,0.3,0.1,0.5,0.2c0.7,0.4,1.3,1.1,1.3,2
							c0,0.9-0.7,1-1.4,0.6C17,46,16.6,45.5,16.3,45.1z"/>
						<path class="st19" d="M19.6,45.4c0-1.3,0.5-1.7,1.4-1.3s1.4,1.5,1.4,2.8c0,1.3-0.5,1.8-1.4,1.3C20.1,47.8,19.6,46.8,19.6,45.4
							z M21.6,46.6c0-1.1-0.3-1.6-0.7-1.9c-0.4-0.2-0.7,0-0.7,1.1c0,1.1,0.3,1.7,0.7,1.9C21.4,48,21.6,47.7,21.6,46.6z"/>
					</g>
					<g>
						<path class="st19" d="M18,52.4l-1.8-1v-0.5l1.6-1.6l0.9,0.5v2.4l0.5,0.3V53l-0.5-0.3v1L18,53.4V52.4z M18,51.8v-0.9
							c0-0.2,0-0.6,0-0.8l0,0c-0.1,0.1-0.2,0.3-0.3,0.4L17,51.2L18,51.8z"/>
						<path class="st19" d="M19.6,52.3c0-1.3,0.5-1.7,1.4-1.3c0.8,0.5,1.4,1.5,1.4,2.8c0,1.3-0.5,1.8-1.4,1.3
							C20.1,54.7,19.6,53.6,19.6,52.3z M21.6,53.5c0-1.1-0.3-1.6-0.7-1.9c-0.4-0.2-0.7,0-0.7,1.1c0,1.1,0.3,1.7,0.7,1.9
							C21.4,54.8,21.6,54.6,21.6,53.5z"/>
					</g>
					<g>
						<path class="st19" d="M16.3,58.8l0.3-0.3c0.2,0.4,0.5,0.8,0.9,1c0.4,0.2,0.7,0.2,0.7-0.2c0-0.4-0.3-0.8-1.2-1.4v-0.5
							c0.8,0.5,1,0.3,1,0c0-0.3-0.2-0.7-0.6-0.9c-0.3-0.2-0.6-0.2-0.8-0.1l-0.4-0.7c0.3-0.1,0.7-0.1,1.2,0.2
							c0.8,0.4,1.3,1.1,1.3,1.8c0,0.4-0.3,0.6-0.7,0.5v0c0.5,0.4,0.8,0.9,0.8,1.5c0,0.7-0.6,0.8-1.4,0.3
							C17,59.8,16.6,59.3,16.3,58.8z"/>
						<path class="st19" d="M19.6,59.2c0-1.3,0.5-1.7,1.4-1.3c0.8,0.5,1.4,1.5,1.4,2.8c0,1.3-0.5,1.8-1.4,1.3
							C20.1,61.6,19.6,60.5,19.6,59.2z M21.6,60.3c0-1.1-0.3-1.6-0.7-1.9c-0.4-0.2-0.7,0-0.7,1.1c0,1.1,0.3,1.7,0.7,1.9
							C21.4,61.7,21.6,61.5,21.6,60.3z"/>
					</g>
					<g>
						<path class="st19" d="M16.4,65.8c1.1-0.4,1.8-0.7,1.8-1.3c0-0.4-0.2-0.8-0.7-1.1c-0.3-0.2-0.6-0.1-0.8,0l-0.4-0.6
							c0.4-0.2,0.7-0.2,1.3,0.1c0.8,0.4,1.3,1.2,1.3,1.9c0,0.7-0.7,1.1-1.4,1.4c0.2,0.1,0.5,0.2,0.7,0.3l1,0.6v0.6l-2.7-1.6V65.8z"
							/>
						<path class="st19" d="M19.6,66c0-1.3,0.5-1.7,1.4-1.3c0.8,0.5,1.4,1.5,1.4,2.8c0,1.3-0.5,1.8-1.4,1.3
							C20.1,68.4,19.6,67.4,19.6,66z M21.6,67.2c0-1.1-0.3-1.6-0.7-1.9c-0.4-0.2-0.7,0-0.7,1.1c0,1.1,0.3,1.7,0.7,1.9
							C21.4,68.6,21.6,68.3,21.6,67.2z"/>
					</g>
					<g>
						<path class="st19" d="M16.6,72.6l0.9,0.5v-2.6l-0.7-0.4v-0.5c0.4,0.2,0.7,0.2,0.9,0.2l0.5,0.3v3.4L19,74v0.6l-2.4-1.4V72.6z"
							/>
						<path class="st19" d="M19.6,72.9c0-1.3,0.5-1.7,1.4-1.3c0.8,0.5,1.4,1.5,1.4,2.8c0,1.3-0.5,1.8-1.4,1.3
							C20.1,75.3,19.6,74.3,19.6,72.9z M21.6,74.1c0-1.1-0.3-1.6-0.7-1.9c-0.4-0.2-0.7,0-0.7,1.1c0,1.1,0.3,1.7,0.7,1.9
							C21.4,75.4,21.6,75.2,21.6,74.1z"/>
					</g>
					<g>
						<path class="st19" d="M19.8,79.9c0-1.3,0.5-1.7,1.4-1.3c0.8,0.5,1.4,1.5,1.4,2.8c0,1.3-0.5,1.8-1.4,1.3
							C20.3,82.3,19.8,81.2,19.8,79.9z M21.8,81c0-1.1-0.3-1.6-0.7-1.9c-0.4-0.2-0.7,0-0.7,1.1c0,1.1,0.3,1.7,0.7,1.9
							C21.5,82.4,21.8,82.2,21.8,81z"/>
					</g>
					<g>
						<path class="st19" d="M25.5,87c-0.2-0.1-0.4-0.4-0.4-0.6v-40c0-0.2,0.2-0.3,0.4-0.2c0.2,0.1,0.4,0.4,0.4,0.6v40
							C25.9,87.1,25.7,87.1,25.5,87z"/>
					</g>
				</g>
				<g>
					<g>
						<path class="st0" d="M41.4,93.1c0-1.3,0.5-1.7,1.4-1.3c0.8,0.5,1.4,1.5,1.4,2.8c0,1.3-0.5,1.8-1.4,1.3
							C41.9,95.5,41.4,94.5,41.4,93.1z M43.4,94.3c0-1.1-0.3-1.6-0.7-1.9c-0.4-0.2-0.7,0-0.7,1.1c0,1.1,0.3,1.7,0.7,1.9
							C43.1,95.7,43.4,95.4,43.4,94.3z"/>
					</g>
					<g>
						<path class="st0" d="M38.5,99.8l0.9,0.5v-2.6l-0.7-0.4v-0.4c0.4,0.2,0.7,0.2,0.9,0.2l0.5,0.3v3.4l0.8,0.5v0.6l-2.4-1.4V99.8z"
							/>
						<path class="st0" d="M41.5,100.1c0-1.3,0.5-1.7,1.4-1.3c0.8,0.5,1.4,1.5,1.4,2.8c0,1.3-0.5,1.8-1.4,1.3
							C42,102.5,41.5,101.4,41.5,100.1z M43.5,101.2c0-1.1-0.3-1.6-0.7-1.9c-0.4-0.2-0.7,0-0.7,1.1c0,1.1,0.3,1.7,0.7,1.9
							C43.3,102.6,43.5,102.4,43.5,101.2z"/>
					</g>
					<g>
						<path class="st0" d="M38.3,106.7c1.1-0.4,1.8-0.7,1.8-1.3c0-0.4-0.2-0.8-0.7-1.1c-0.3-0.2-0.6-0.1-0.8,0l-0.4-0.6
							c0.4-0.2,0.7-0.2,1.3,0.1c0.8,0.4,1.3,1.2,1.3,1.9c0,0.7-0.7,1.1-1.4,1.4c0.2,0.1,0.5,0.2,0.7,0.3l1,0.6v0.6l-2.7-1.6V106.7z"
							/>
						<path class="st0" d="M41.5,107c0-1.3,0.5-1.7,1.4-1.3c0.8,0.5,1.4,1.5,1.4,2.8c0,1.3-0.5,1.8-1.4,1.3
							C42,109.3,41.5,108.3,41.5,107z M43.5,108.1c0-1.1-0.3-1.6-0.7-1.9c-0.4-0.2-0.7,0-0.7,1.1s0.3,1.7,0.7,1.9
							C43.3,109.5,43.5,109.2,43.5,108.1z"/>
					</g>
					<g>
						<path class="st0" d="M38.2,113.4l0.3-0.3c0.2,0.4,0.5,0.8,0.9,1c0.4,0.2,0.7,0.2,0.7-0.2c0-0.4-0.3-0.8-1.2-1.4v-0.5
							c0.8,0.5,1,0.3,1,0c0-0.3-0.2-0.7-0.6-0.9c-0.3-0.2-0.6-0.2-0.8-0.1l-0.4-0.7c0.3-0.1,0.7-0.1,1.2,0.2
							c0.8,0.4,1.3,1.1,1.3,1.8c0,0.4-0.3,0.6-0.7,0.5v0c0.5,0.4,0.8,0.9,0.8,1.5c0,0.7-0.6,0.8-1.4,0.3
							C38.9,114.4,38.5,113.9,38.2,113.4z"/>
						<path class="st0" d="M41.5,113.8c0-1.3,0.5-1.7,1.4-1.3c0.8,0.5,1.4,1.5,1.4,2.8c0,1.3-0.5,1.8-1.4,1.3
							C42,116.2,41.5,115.2,41.5,113.8z M43.5,115c0-1.1-0.3-1.6-0.7-1.9c-0.4-0.2-0.7,0-0.7,1.1c0,1.1,0.3,1.7,0.7,1.9
							C43.3,116.3,43.5,116.1,43.5,115z"/>
					</g>
					<g>
						<path class="st0" d="M39.9,120.8l-1.8-1v-0.5l1.6-1.6l0.9,0.5v2.4l0.5,0.3v0.6l-0.5-0.3v1l-0.7-0.4V120.8z M39.9,120.2v-0.9
							c0-0.2,0-0.6,0-0.8l0,0c-0.1,0.1-0.2,0.3-0.3,0.4l-0.7,0.7L39.9,120.2z"/>
						<path class="st0" d="M41.5,120.7c0-1.3,0.5-1.7,1.4-1.3c0.8,0.5,1.4,1.5,1.4,2.8c0,1.3-0.5,1.8-1.4,1.3
							C42,123.1,41.5,122,41.5,120.7z M43.5,121.9c0-1.1-0.3-1.6-0.7-1.9c-0.4-0.2-0.7,0-0.7,1.1c0,1.1,0.3,1.7,0.7,1.9
							C43.3,123.2,43.5,123,43.5,121.9z"/>
					</g>
					<g>
						<path class="st0" d="M38.2,127.2l0.3-0.3c0.2,0.4,0.5,0.7,0.9,1c0.4,0.3,0.8,0.2,0.8-0.3c0-0.5-0.3-0.9-0.7-1.2
							c-0.3-0.1-0.4-0.2-0.6-0.1l-0.3-0.4l0.1-1.9l2.1,1.2v0.6l-1.5-0.9l-0.1,0.9c0.2,0,0.3,0.1,0.5,0.2c0.7,0.4,1.3,1.1,1.3,2
							c0,0.9-0.7,1-1.4,0.6C38.9,128.1,38.5,127.6,38.2,127.2z"/>
						<path class="st0" d="M41.5,127.6c0-1.3,0.5-1.7,1.4-1.3c0.8,0.5,1.4,1.5,1.4,2.8c0,1.3-0.5,1.8-1.4,1.3
							C42,129.9,41.5,128.9,41.5,127.6z M43.5,128.7c0-1.1-0.3-1.6-0.7-1.9c-0.4-0.2-0.7,0-0.7,1.1c0,1.1,0.3,1.7,0.7,1.9
							C43.3,130.1,43.5,129.9,43.5,128.7z"/>
					</g>
					<g>
						<g>
							<path class="st0" d="M40.9,96.7l-6.6-3.8c-0.2-0.1-0.4-0.4-0.4-0.6c0-0.2,0.2-0.3,0.4-0.2l6.6,3.8c0.2,0.1,0.4,0.4,0.4,0.6
								C41.3,96.7,41.2,96.8,40.9,96.7z"/>
						</g>
						<g>
							<path class="st0" d="M40.9,103.6l-6.6-3.8c-0.2-0.1-0.4-0.4-0.4-0.6c0-0.2,0.2-0.3,0.4-0.2l6.6,3.8c0.2,0.1,0.4,0.4,0.4,0.6
								C41.3,103.6,41.2,103.7,40.9,103.6z"/>
						</g>
						<g>
							<path class="st0" d="M40.9,110.5l-6.6-3.8c-0.2-0.1-0.4-0.4-0.4-0.6c0-0.2,0.2-0.3,0.4-0.2l6.6,3.8c0.2,0.1,0.4,0.4,0.4,0.6
								C41.3,110.5,41.2,110.6,40.9,110.5z"/>
						</g>
						<g>
							<path class="st0" d="M40.9,117.3l-6.6-3.8c-0.2-0.1-0.4-0.4-0.4-0.6s0.2-0.3,0.4-0.2l6.6,3.8c0.2,0.1,0.4,0.4,0.4,0.6
								C41.3,117.4,41.2,117.5,40.9,117.3z"/>
						</g>
						<g>
							<path class="st0" d="M40.9,124.2l-6.6-3.8c-0.2-0.1-0.4-0.4-0.4-0.6c0-0.2,0.2-0.3,0.4-0.2l6.6,3.8c0.2,0.1,0.4,0.4,0.4,0.6
								C41.3,124.3,41.2,124.3,40.9,124.2z"/>
						</g>
						<g>
							<path class="st0" d="M40.9,131.1l-6.6-3.8c-0.2-0.1-0.4-0.4-0.4-0.6c0-0.2,0.2-0.3,0.4-0.2l6.6,3.8c0.2,0.1,0.4,0.4,0.4,0.6
								S41.2,131.2,40.9,131.1z"/>
						</g>
						<g>
							<path class="st0" d="M34.3,131.3c-0.2-0.1-0.4-0.4-0.4-0.6V92.3c0-0.2,0.2-0.3,0.4-0.2c0.2,0.1,0.4,0.4,0.4,0.6v38.4
								C34.7,131.3,34.5,131.4,34.3,131.3z"/>
						</g>
					</g>
				</g>
				<g>
					<g>
						<path class="st19" d="M39.2,68.5C38,67.8,37,66.2,37,65c0-1.2,1-1.6,2.2-0.9c1.2,0.7,2.2,2.2,2.2,3.4
							C41.4,68.8,40.4,69.2,39.2,68.5z M39.2,64.6c-0.9-0.5-1.7-0.2-1.7,0.7c0,0.9,0.7,2.1,1.7,2.6c0.9,0.5,1.7,0.2,1.7-0.7
							S40.1,65.2,39.2,64.6z"/>
					</g>
					<g>
						<path class="st19" d="M39.2,63.6c-0.1-0.1-0.3-0.3-0.3-0.4v-1.8c0-0.1,0.1-0.2,0.3-0.1c0.1,0.1,0.3,0.3,0.3,0.4v1.8
							C39.4,63.7,39.3,63.7,39.2,63.6z"/>
					</g>
					<g>
						<path class="st19" d="M37.7,63.2c-0.1-0.1-0.2-0.2-0.2-0.3l-0.9-2.1c-0.1-0.2,0-0.3,0.1-0.3c0.1,0,0.3,0.1,0.4,0.3l0.9,2.1
							c0.1,0.2,0,0.3-0.1,0.3C37.8,63.2,37.8,63.2,37.7,63.2z"/>
					</g>
					<g>
						<path class="st19" d="M36.6,63.6c0,0-0.1-0.1-0.1-0.1l-1.6-1.8c-0.1-0.1-0.2-0.3-0.1-0.4c0.1-0.1,0.2,0,0.4,0.1l1.6,1.8
							c0.1,0.1,0.2,0.3,0.1,0.4C36.8,63.7,36.7,63.7,36.6,63.6z"/>
					</g>
					<g>
						<path class="st19" d="M36.2,64.9l-1.8-1c-0.1-0.1-0.3-0.3-0.3-0.4c0-0.1,0.1-0.2,0.3-0.1l1.8,1c0.1,0.1,0.3,0.3,0.3,0.4
							C36.5,64.9,36.4,65,36.2,64.9z"/>
					</g>
					<g>
						<path class="st19" d="M35.1,66.6c-0.1-0.1-0.2-0.2-0.2-0.3c-0.1-0.2,0-0.3,0.1-0.3h1.6c0.1,0,0.3,0.1,0.4,0.3
							c0.1,0.2,0,0.3-0.1,0.3h-1.6C35.2,66.6,35.1,66.6,35.1,66.6z"/>
					</g>
					<g>
						<path class="st19" d="M36.8,69.3c0,0-0.1-0.1-0.1-0.1c-0.1-0.1-0.2-0.3-0.1-0.4l0.9-1c0.1-0.1,0.2,0,0.4,0.1
							c0.1,0.1,0.2,0.3,0.1,0.4l-0.9,1C37,69.4,36.9,69.4,36.8,69.3z"/>
					</g>
					<g>
						<path class="st19" d="M39.2,71.3c-0.1-0.1-0.3-0.3-0.3-0.4v-1.8c0-0.1,0.1-0.2,0.3-0.1c0.1,0.1,0.3,0.3,0.3,0.4v1.8
							C39.4,71.3,39.3,71.4,39.2,71.3z"/>
					</g>
					<g>
						<path class="st19" d="M41.6,72c-0.1-0.1-0.2-0.2-0.2-0.3l-0.9-2.1c-0.1-0.2,0-0.3,0.1-0.3c0.1,0,0.3,0.1,0.4,0.3l0.9,2.1
							c0.1,0.2,0,0.3-0.1,0.3C41.6,72.1,41.6,72.1,41.6,72z"/>
					</g>
					<g>
						<path class="st19" d="M43.3,71.3c0,0-0.1-0.1-0.1-0.1l-1.6-1.8c-0.1-0.1-0.2-0.3-0.1-0.4c0.1-0.1,0.2,0,0.4,0.1l1.6,1.8
							c0.1,0.1,0.2,0.3,0.1,0.4C43.5,71.4,43.4,71.4,43.3,71.3z"/>
					</g>
					<g>
						<path class="st19" d="M43.9,69.3l-1.8-1c-0.1-0.1-0.3-0.3-0.3-0.4c0-0.1,0.1-0.2,0.3-0.1l1.8,1c0.1,0.1,0.3,0.3,0.3,0.4
							C44.2,69.3,44.1,69.4,43.9,69.3z"/>
					</g>
					<g>
						<path class="st19" d="M41.7,66.6c-0.1-0.1-0.2-0.2-0.2-0.3c-0.1-0.2,0-0.3,0.1-0.3h1.6c0.1,0,0.3,0.1,0.4,0.3
							c0.1,0.2,0,0.3-0.1,0.3h-1.6C41.8,66.6,41.8,66.6,41.7,66.6z"/>
					</g>
					<g>
						<path class="st19" d="M40.6,64.9c0,0-0.1-0.1-0.1-0.1c-0.1-0.1-0.2-0.3-0.1-0.4l0.9-1c0.1-0.1,0.2,0,0.4,0.1
							c0.1,0.1,0.2,0.3,0.1,0.4l-0.9,1C40.8,64.9,40.7,64.9,40.6,64.9z"/>
					</g>
				</g>
				<g>
					<g>
						<path class="st0" d="M20.4,115.5c-1.2-0.7-2.2-2.2-2.2-3.4c0-1.2,1-1.6,2.2-0.9c1.2,0.7,2.2,2.2,2.2,3.4
							C22.6,115.8,21.6,116.2,20.4,115.5z M20.4,111.7c-0.9-0.5-1.7-0.2-1.7,0.7c0,0.9,0.7,2.1,1.7,2.6c0.9,0.5,1.7,0.2,1.7-0.7
							C22.1,113.4,21.3,112.2,20.4,111.7z"/>
					</g>
					<g>
						<path class="st0" d="M20.4,110.2L20.4,110.2c-0.1,0-0.1-0.1-0.2-0.2l-1.2-2c-0.1-0.2-0.1-0.3,0-0.4c0.1,0,0.3,0.1,0.4,0.2
							l1,1.7l1-0.5c0.1,0,0.3,0,0.4,0.2c0.1,0.2,0.1,0.3,0,0.4l-1.2,0.6C20.5,110.2,20.5,110.2,20.4,110.2z"/>
					</g>
					<g>
						<path class="st0" d="M18,109.8C18,109.8,18,109.8,18,109.8l-1.8-1.1c-0.1-0.1-0.3-0.3-0.2-0.4c0-0.1,0.1-0.2,0.3-0.1l1.5,0.9
							l-0.1-1.5c0-0.1,0.1-0.2,0.3-0.1c0.2,0.1,0.3,0.3,0.3,0.4l0.1,1.8c0,0.1,0,0.1-0.1,0.2C18.1,109.8,18,109.8,18,109.8z"/>
					</g>
					<g>
						<path class="st0" d="M15.7,112.1c-0.1,0-0.1-0.1-0.2-0.2c-0.1-0.2-0.1-0.3,0-0.4l1.1-0.4l-1.1-1.7c-0.1-0.2-0.1-0.3,0-0.4
							c0.1,0,0.3,0,0.4,0.2l1.3,2c0.1,0.1,0.1,0.2,0.1,0.2c0,0.1,0,0.1-0.1,0.1l-1.3,0.5C15.8,112.1,15.7,112.1,15.7,112.1z"/>
					</g>
					<g>
						<path class="st0" d="M17.9,116.3C17.9,116.3,17.9,116.3,17.9,116.3c-0.2-0.1-0.3-0.3-0.3-0.4l0.1-1.5l-1.5-0.8
							c-0.2-0.1-0.3-0.3-0.3-0.4c0-0.1,0.1-0.2,0.3-0.1l1.8,1c0.1,0,0.1,0.1,0.2,0.2c0.1,0.1,0.1,0.2,0.1,0.2l-0.1,1.7
							C18.2,116.4,18,116.4,17.9,116.3z"/>
					</g>
					<g>
						<path class="st0" d="M21.6,119c-0.1,0-0.1-0.1-0.2-0.2l-1-1.7l-1,0.5c-0.1,0-0.3,0-0.4-0.2c-0.1-0.2-0.1-0.3,0-0.4l1.2-0.6
							c0,0,0.1,0,0.2,0l0,0c0.1,0,0.1,0.1,0.2,0.2l1.2,2c0.1,0.2,0.1,0.3,0,0.4C21.7,119.1,21.7,119.1,21.6,119z"/>
					</g>
					<g>
						<path class="st0" d="M22.9,119.2c-0.1-0.1-0.3-0.3-0.3-0.4l-0.1-1.8c0-0.1,0-0.1,0.1-0.2c0.1,0,0.1,0,0.2,0l1.8,1.1
							c0.1,0.1,0.3,0.3,0.3,0.4c0,0.1-0.1,0.2-0.3,0.1l-1.5-0.9l0.1,1.5C23.2,119.3,23.1,119.3,22.9,119.2
							C22.9,119.2,22.9,119.2,22.9,119.2z"/>
					</g>
					<g>
						<path class="st0" d="M25.1,117.5c-0.1,0-0.1-0.1-0.2-0.2l-1.3-2c-0.1-0.1-0.1-0.2-0.1-0.2c0-0.1,0-0.1,0.1-0.1l1.3-0.5
							c0.1,0,0.3,0.1,0.4,0.2c0.1,0.2,0.1,0.3,0,0.4l-1.1,0.4l1.1,1.7c0.1,0.2,0.1,0.3,0,0.4C25.3,117.6,25.2,117.6,25.1,117.5z"/>
					</g>
					<g>
						<path class="st0" d="M22.8,112.6c-0.1,0-0.1-0.1-0.2-0.2c-0.1-0.1-0.1-0.2-0.1-0.2l0.1-1.7c0-0.1,0.1-0.2,0.3-0.1
							c0.1,0.1,0.3,0.3,0.3,0.4l-0.1,1.5l1.5,0.8c0.2,0.1,0.3,0.3,0.3,0.4c0,0.1-0.1,0.2-0.3,0.1L22.8,112.6
							C22.8,112.6,22.8,112.6,22.8,112.6z"/>
					</g>
				</g>
				<g>
					<path class="st19" d="M31.8,131.6V52.1l-5.5-1.3l1,78.3c0,0-3.4,1-3.1,5.7c0.3,4.8,5.7,5.5,7.9,4
						C34.3,137.3,33.8,133,31.8,131.6z"/>
					<path class="st20" d="M29.8,139.5c-0.1,0-9.4-1.1-1.6-9.5V52.5L28,51.2l-1.8-0.4l1,78.3c0,0-3.8,1.4-3.3,5.7
						C24.3,138.2,27.3,139.6,29.8,139.5z"/>
					<path class="st20" d="M27.2,52.1c1.3,0.7,3.3,0.7,4.6,0l-4.6-2.7C26,50.1,26,51.3,27.2,52.1z"/>
				</g>
				<path class="st21" d="M27.2,50.5c1.3,0.7,3.3,0.7,4.6,0l-4.6-2.7C26,48.5,26,49.7,27.2,50.5z"/>
				<g>
					<path class="st22" d="M27.2,50.5c-0.6-0.4-1-0.8-1-1.3l0,0v1.6c0,0.5,0.3,1,1,1.3c1.3,0.7,3.3,0.7,4.6,0v-1.6
						C30.6,51.2,28.5,51.2,27.2,50.5z"/>
				</g>
				<g>
					<g>
						<path class="st19" d="M37.7,53.4c0-1.5,1-1.9,2.2-1.2c0.6,0.3,1.1,0.9,1.4,1.4l-0.4,0.3c-0.2-0.4-0.5-0.7-0.9-0.9
							c-0.8-0.4-1.3-0.1-1.3,1c0,1.1,0.5,2,1.3,2.5c0.4,0.2,0.7,0.2,1,0.1l0.4,0.8c-0.4,0.2-0.9,0.2-1.5-0.2
							C38.6,56.4,37.7,54.9,37.7,53.4z"/>
					</g>
					<g>
						<path class="st19" d="M36.3,52c-0.5-0.3-0.9-0.9-0.9-1.4c0-0.5,0.4-0.7,0.9-0.4c0.5,0.3,0.9,0.9,0.9,1.4
							C37.2,52.1,36.8,52.3,36.3,52z M36.3,50.6c-0.3-0.1-0.5-0.1-0.5,0.2c0,0.3,0.2,0.6,0.5,0.7c0.3,0.1,0.5,0.1,0.5-0.2
							C36.7,51.1,36.5,50.8,36.3,50.6z"/>
					</g>
				</g>
			</g>
		</g>
		<g>
			
				<linearGradient id="SVGID_00000081636928735304720470000009488065599990547616_" gradientUnits="userSpaceOnUse" x1="33.5937" y1="30.7901" x2="33.5937" y2="35.589">
				<stop  offset="0" style="stop-color:#F5F5F5"/>
				<stop  offset="1" style="stop-color:#C9C9C9"/>
			</linearGradient>
			<path style="fill:url(#SVGID_00000081636928735304720470000009488065599990547616_);" d="M34,28.8c-1.4-0.8-2.6-0.9-3.5-0.4l0,0
				l-2,1.1l0,0c0.8-0.5,2.1-0.4,3.5,0.4c2.6,1.5,4.6,4.7,4.6,7.3v3.9l2-1.1v-3.9C38.6,33.6,36.6,30.3,34,28.8z"/>
			<g>
				<path class="st17" d="M32.1,30c-2.6-1.5-4.6-0.6-4.6,2v3.9c1.5,0.5,3,1.2,4.6,2.1c1.6,0.9,3.1,2,4.6,3.3v-3.9
					C36.7,34.7,34.6,31.4,32.1,30z M31.8,35.6c-1.1-0.7-2.1-2.1-2.1-3.3c0-1.1,0.9-1.5,2.1-0.9c1.1,0.7,2.1,2.1,2.1,3.3
					C33.9,35.9,33,36.3,31.8,35.6z"/>
				<g>
					<path class="st22" d="M31.7,31.5c-1.1-0.6-2-0.2-2,0.9c0,1.1,0.9,2.6,2.1,3.3c1.1,0.7,2.1,0.3,2.1-0.9c0-0.1,0-0.1,0-0.2
						c0,0-0.1,0-0.1,0C32.7,33.9,31.8,32.6,31.7,31.5z"/>
				</g>
			</g>
		</g>
	</g>
</g>
</svg>
