<?xml version="1.0" encoding="utf-8"?>
<!-- Generator: Adobe Illustrator 27.6.1, SVG Export Plug-In . SVG Version: 6.00 Build 0)  -->
<svg version="1.1" id="layer" xmlns="http://www.w3.org/2000/svg" xmlns:xlink="http://www.w3.org/1999/xlink" x="0px" y="0px"
	 viewBox="0 0 171.39 313.43" style="enable-background:new 0 0 171.39 313.43;" xml:space="preserve">
<style type="text/css">
	.st0{fill:#BAE8E2;}
	.st1{fill:#E7FFFF;}
	.st2{fill:#88DBD5;}
	.st3{fill:#27BEF3;}
	.st4{fill:#00D4BA;}
	.st5{fill:#0047C3;}
	.st6{fill:#0088DE;}
	.st7{fill:url(#SVGID_1_);}
	.st8{fill:#00506C;}
	.st9{fill:url(#SVGID_00000014601902360312510530000003536126822280056982_);}
	.st10{fill:url(#SVGID_00000094618200126536182390000002812985705195901586_);}
</style>
<g id="layer2">
</g>
<g id="layer3">
</g>
<g>
	<g>
		<path class="st0" d="M32.49,83.89c-0.46,0.37-0.93,0.75-1.39,1.12c-6.93,5.61-14,11.38-19.31,18.46
			c5.61-1.87,14.74-6.23,24.7-11.98c2.41-1.39,4.7-2.77,6.89-4.14c2.32-3.94,4.35-8.04,6.08-12.28
			C44.57,77.3,38.7,80.32,32.49,83.89z"/>
		<path class="st1" d="M31.11,85.01c0.46-0.37,0.93-0.75,1.39-1.12c-0.1,0.06-0.2,0.11-0.3,0.17C16.63,93.05,4.97,102,6.15,104.05
			c0.43,0.74,2.48,0.47,5.64-0.58C17.1,96.39,24.17,90.62,31.11,85.01z"/>
		<path class="st2" d="M62.53,71.5c-0.7-1.22-5.8,0.29-13.08,3.58c-1.72,4.23-3.75,8.34-6.08,12.28
			C55.34,79.91,63.54,73.24,62.53,71.5z"/>
	</g>
	<g>
		<path class="st1" d="M59.02,12.48c-1.92,0-3.54,9.55-4.09,22.73c1.66-6.46,3.68-12.82,6.08-19.04
			C60.41,13.81,59.74,12.48,59.02,12.48z"/>
		<path class="st0" d="M54.93,35.21c-0.13,3.1-0.2,6.4-0.2,9.82c0,6.42,0.25,12.41,0.67,17.45c3.06-4.66,5.71-9.58,7.9-14.71
			c0.01-0.91,0.02-1.82,0.02-2.75c0-12.55-0.94-23.43-2.31-28.87C58.61,22.39,56.59,28.75,54.93,35.21z"/>
		<path class="st2" d="M59.02,77.58c2.25,0,4.09-13.11,4.28-29.81c-2.19,5.12-4.84,10.05-7.9,14.71
			C56.16,71.56,57.5,77.58,59.02,77.58z"/>
	</g>
	<g>
		<path class="st2" d="M55.51,71.5c-1,1.74,7.2,8.41,19.18,15.87c-3.18-3.81-5.69-8.17-7.33-12.85
			C60.74,71.61,56.18,70.35,55.51,71.5z"/>
		<path class="st1" d="M108.86,99.72c-4.97-0.09-9.92-0.59-14.8-1.51c9.76,4.83,16.99,7.31,17.84,5.84
			C112.3,103.34,111.15,101.8,108.86,99.72z"/>
		<path class="st0" d="M85.85,84.06c-6.84-3.95-13.3-7.25-18.49-9.54c1.65,4.68,4.15,9.04,7.33,12.85c2.18,1.36,4.47,2.74,6.87,4.12
			c4.41,2.55,8.64,4.81,12.5,6.72c4.88,0.92,9.84,1.42,14.8,1.51C104.52,95.79,96.04,89.94,85.85,84.06z"/>
	</g>
	<g>
		<path class="st3" d="M60.2,92.59c-1.6-2.5-3.28-4.94-5.06-7.31l-4.88,208.66c0,1.58,3.92,2.86,8.76,2.86
			c0.44,0,0.86-0.01,1.28-0.03C62.09,271.24,61.16,115.13,60.2,92.59z"/>
		<path class="st4" d="M59.12,71.33h-3.2l-0.78,13.95c1.78,2.37,3.46,4.81,5.06,7.31C59.76,82.31,59.32,74.56,59.12,71.33z"/>
		<path class="st5" d="M63.63,98.27l-1.51-26.95h-3c0.19,3.23,0.64,10.99,1.07,21.26C61.39,94.45,62.54,96.34,63.63,98.27z"/>
		<path class="st6" d="M60.2,92.59c0.96,22.55,1.89,178.65,0.11,204.17c4.23-0.2,7.48-1.39,7.48-2.83L63.63,98.27
			C62.54,96.34,61.39,94.45,60.2,92.59z"/>
	</g>
	
		<ellipse transform="matrix(0.2298 -0.9732 0.9732 0.2298 -26.0992 114.0799)" class="st1" cx="59.02" cy="73.53" rx="5.72" ry="5.72"/>
	<circle class="st2" cx="59.6" cy="73.86" r="3.38"/>
	
		<ellipse transform="matrix(0.2298 -0.9732 0.9732 0.2298 -26.0992 114.0799)" class="st0" cx="59.02" cy="73.53" rx="3.38" ry="3.38"/>
</g>
<g>
	<g>
		<path class="st0" d="M85.45,83.89c-0.46,0.37-0.93,0.75-1.39,1.12c-6.93,5.61-14,11.38-19.31,18.46
			c5.61-1.87,14.74-6.23,24.7-11.98c2.41-1.39,4.7-2.77,6.89-4.14c2.32-3.94,4.35-8.04,6.08-12.28
			C97.52,77.3,91.65,80.32,85.45,83.89z"/>
		<path class="st1" d="M84.06,85.01c0.46-0.37,0.93-0.75,1.39-1.12c-0.1,0.06-0.2,0.11-0.3,0.17C69.58,93.05,57.92,102,59.11,104.05
			c0.43,0.74,2.48,0.47,5.64-0.58C70.06,96.39,77.12,90.62,84.06,85.01z"/>
		<path class="st2" d="M115.49,71.5c-0.7-1.22-5.8,0.29-13.08,3.58c-1.72,4.23-3.75,8.34-6.08,12.28
			C108.29,79.91,116.49,73.24,115.49,71.5z"/>
	</g>
	<g>
		<path class="st1" d="M111.98,12.48c-1.92,0-3.54,9.55-4.09,22.73c1.66-6.46,3.68-12.82,6.08-19.04
			C113.37,13.81,112.69,12.48,111.98,12.48z"/>
		<path class="st0" d="M107.88,35.21c-0.13,3.1-0.2,6.4-0.2,9.82c0,6.42,0.25,12.41,0.67,17.45c3.06-4.66,5.71-9.58,7.9-14.71
			c0.01-0.91,0.02-1.82,0.02-2.75c0-12.55-0.94-23.43-2.31-28.87C111.56,22.39,109.54,28.75,107.88,35.21z"/>
		<path class="st2" d="M111.98,77.58c2.25,0,4.09-13.11,4.28-29.81c-2.19,5.12-4.84,10.05-7.9,14.71
			C109.12,71.56,110.45,77.58,111.98,77.58z"/>
	</g>
	<g>
		<path class="st2" d="M108.47,71.5c-1,1.74,7.2,8.41,19.18,15.87c-3.18-3.81-5.69-8.17-7.33-12.85
			C113.69,71.61,109.13,70.35,108.47,71.5z"/>
		<path class="st1" d="M161.81,99.72c-4.97-0.09-9.92-0.59-14.8-1.51c9.76,4.83,16.99,7.31,17.84,5.84
			C165.26,103.34,164.1,101.8,161.81,99.72z"/>
		<path class="st0" d="M138.8,84.06c-6.84-3.95-13.3-7.25-18.49-9.54c1.65,4.68,4.15,9.04,7.33,12.85c2.18,1.36,4.47,2.74,6.87,4.12
			c4.41,2.55,8.64,4.81,12.5,6.72c4.88,0.92,9.84,1.42,14.8,1.51C157.47,95.79,148.99,89.94,138.8,84.06z"/>
	</g>
	<g>
		<path class="st3" d="M113.15,92.59c-1.6-2.5-3.28-4.94-5.06-7.31l-4.88,208.66c0,1.58,3.92,2.86,8.76,2.86
			c0.44,0,0.86-0.01,1.28-0.03C115.04,271.24,114.11,115.13,113.15,92.59z"/>
		<path class="st4" d="M112.08,71.33h-3.2l-0.78,13.95c1.78,2.37,3.46,4.81,5.06,7.31C112.71,82.31,112.27,74.56,112.08,71.33z"/>
		<path class="st5" d="M116.59,98.27l-1.51-26.95h-3c0.19,3.23,0.64,10.99,1.07,21.26C114.34,94.45,115.5,96.34,116.59,98.27z"/>
		<path class="st6" d="M113.15,92.59c0.96,22.55,1.89,178.65,0.11,204.17c4.23-0.2,7.48-1.39,7.48-2.83l-4.16-195.66
			C115.5,96.34,114.34,94.45,113.15,92.59z"/>
	</g>
	
		<ellipse transform="matrix(0.7071 -0.7071 0.7071 0.7071 -19.1956 100.7154)" class="st1" cx="111.98" cy="73.53" rx="5.72" ry="5.72"/>
	<circle class="st2" cx="112.56" cy="73.86" r="3.38"/>
	
		<ellipse transform="matrix(0.7071 -0.7071 0.7071 0.7071 -19.1956 100.7154)" class="st0" cx="111.98" cy="73.53" rx="3.38" ry="3.38"/>
</g>
<g>
	<linearGradient id="SVGID_1_" gradientUnits="userSpaceOnUse" x1="39.6762" y1="216.1405" x2="39.6762" y2="288.1284">
		<stop  offset="0" style="stop-color:#58B3FF"/>
		<stop  offset="1" style="stop-color:#9A79FF"/>
	</linearGradient>
	<path class="st7" d="M31.18,279.39c-2.6-0.33-5.22-1.67-6.4-4.01c-1.98-3.89,0.62-8.71-0.49-12.94c-0.73-2.79-3.04-5.53-1.94-8.2
		c0.94-2.27,4.02-3.17,4.76-5.52c0.76-2.43-1.38-4.7-2.46-7.01c-1.69-3.62-0.74-7.86,0.24-11.73c0.94-3.73,1.92-7.54,4.12-10.69
		c1.86-2.66,4.49-4.69,6.42-7.3c1.08-1.47,1.93-3.11,3.15-4.45c1.23-1.35,2.97-2.4,4.78-2.18c2.36,0.28,3.98,2.61,4.55,4.93
		c0.57,2.31,0.41,4.75,0.91,7.08c1.4,6.59,7.81,11.69,7.79,18.43c-0.01,3.61-1.94,7.02-1.9,10.63c0.03,2.74,1.19,5.33,1.94,7.96
		c0.76,2.64,1.06,5.67-0.45,7.96c-1.65,2.5-5.28,3.91-5.4,6.9c-0.08,1.94,1.46,3.6,1.63,5.53c0.25,2.73-2.44,5.02-5.17,5.36
		c-3,0.38-5.31-1.42-8.13-1.52C36.48,278.53,33.97,279.75,31.18,279.39z"/>
	<polygon class="st8" points="47.44,242.53 46.28,241.77 40.2,251 40.2,226.63 38.82,226.63 38.82,269.3 31.02,261.27 30.03,262.23 
		38.82,271.28 38.82,294.42 40.2,294.42 40.2,253.52 	"/>
</g>
<g>
	
		<linearGradient id="SVGID_00000078736842206493075660000018001186783897019825_" gradientUnits="userSpaceOnUse" x1="72.2352" y1="277.3017" x2="72.2352" y2="304.9472">
		<stop  offset="0" style="stop-color:#58B3FF"/>
		<stop  offset="1" style="stop-color:#9A79FF"/>
	</linearGradient>
	<path style="fill:url(#SVGID_00000078736842206493075660000018001186783897019825_);" d="M100.55,296.61H46.17
		c-1.83-1.49-3.62-3.5-4.55-5.66c-0.92-2.17-0.91-4.85,0.53-6.71c1.06-1.37,2.72-2.12,4-3.28c1.81-1.63,2.79-3.97,4.12-6.01
		c1.33-2.04,3.37-3.96,5.81-3.88c1.93,0.06,3.63,1.36,5.55,1.55c2.85,0.28,5.28-1.89,7.87-3.11c4.38-2.05,9.54-1.41,14.19-0.09
		c7.28,2.07,14.44,6.03,18.23,12.58C104.56,286.57,103.67,292.36,100.55,296.61z"/>
</g>
<g>
	
		<linearGradient id="SVGID_00000168089071006871612550000009867321279178333845_" gradientUnits="userSpaceOnUse" x1="115.8967" y1="233.0795" x2="111.2924" y2="283.7274">
		<stop  offset="0" style="stop-color:#58B3FF"/>
		<stop  offset="1" style="stop-color:#9A79FF"/>
	</linearGradient>
	<path style="fill:url(#SVGID_00000168089071006871612550000009867321279178333845_);" d="M96.82,241.67c1.1-3.6,3.28-7.02,6.6-8.78
		c4.83-2.55,10.87-1.04,15.6,1.7c6.17,3.57,11.27,9.37,12.89,16.31c1.62,6.94-0.73,14.94-6.54,19.06
		C109.02,281.58,92.48,255.89,96.82,241.67z"/>
	<g>
		<path class="st8" d="M102.14,294.42l-1.52-0.23c2.52-18.65,7.06-37.06,13.49-54.73l1.44,0.52c-6.14,16.87-10.55,34.42-13.1,52.2
			l0.07,0.01L102.14,294.42z"/>
	</g>
</g>
</svg>
