<?xml version="1.0" encoding="utf-8"?>
<!-- Generator: Adobe Illustrator 27.6.1, SVG Export Plug-In . SVG Version: 6.00 Build 0)  -->
<svg version="1.1" id="layer" xmlns="http://www.w3.org/2000/svg" xmlns:xlink="http://www.w3.org/1999/xlink" x="0px" y="0px"
	 viewBox="0 0 171.39 313.43" style="enable-background:new 0 0 171.39 313.43;" xml:space="preserve">
<style type="text/css">
	.st0{opacity:0;fill:url(#SVGID_1_);}
	.st1{opacity:0.05;fill:url(#SVGID_00000131363724377404734440000008881672693004296383_);}
	.st2{opacity:0.1;fill:url(#SVGID_00000103234385209068928150000000659303245544928925_);}
	.st3{opacity:0.15;fill:url(#SVGID_00000029766789761234695980000017164367455931761314_);}
	.st4{opacity:0.2;fill:url(#SVGID_00000012437839034528338530000011014164170888860092_);}
	.st5{opacity:0.25;fill:url(#SVGID_00000020391983167485417090000012303556283545992868_);}
	.st6{opacity:0.3;fill:#FFFFFF;}
	.st7{opacity:0;fill:url(#SVGID_00000101070494544288146510000008926070075481215159_);}
	.st8{opacity:0.05;fill:url(#SVGID_00000171697198338984625280000012664286801175088538_);}
	.st9{opacity:0.1;fill:url(#SVGID_00000018228844782337555580000018106332039229680298_);}
	.st10{opacity:0.15;fill:url(#SVGID_00000146459687099693327190000001373402838903036843_);}
	.st11{opacity:0.2;fill:url(#SVGID_00000099625221542363935400000007425260016004862648_);}
	.st12{opacity:0.25;fill:url(#SVGID_00000167378763536769746680000004669174700441462698_);}
	.st13{opacity:0.1;}
	.st14{fill:#AA1D2F;}
	.st15{fill:#CC303D;}
	.st16{fill:#E53E53;}
	.st17{fill:#95C501;}
	.st18{fill:#B4DD0A;}
	.st19{fill:#E2F1EC;}
	.st20{fill:#BDE5DA;}
	.st21{fill:#784413;}
	.st22{opacity:0.1;fill:#FFFFFF;}
	.st23{fill:#ABD9CE;}
	.st24{fill:#5E320E;}
	.st25{fill:#835529;}
	.st26{opacity:0.4;}
	.st27{opacity:0;fill:#FCFDFD;}
	.st28{opacity:0.1667;fill:#FDFDFD;}
	.st29{opacity:0.3333;fill:#FDFEFE;}
	.st30{opacity:0.5;fill:#FEFEFE;}
	.st31{opacity:0.6667;fill:#FEFEFE;}
	.st32{opacity:0.8333;fill:#FEFFFF;}
	.st33{fill:#FFFFFF;}
	.st34{enable-background:new    ;}
	.st35{fill:#A2C4C5;}
	.st36{fill:#9FC0C1;}
	.st37{fill:#147F91;}
	.st38{fill:#29B2DC;}
	.st39{fill:#EFB185;}
	.st40{fill:#F9F9F9;}
	.st41{fill:#111114;}
	.st42{fill:#632BEE;}
	.st43{fill:#471BCE;}
	.st44{fill:#E5EEFF;}
	.st45{fill:#DD9569;}
	.st46{fill:#E6A376;}
	.st47{fill:#221101;}
	.st48{fill:#341C09;}
	.st49{fill:#17A89F;}
</style>
<g id="layer2">
</g>
<g id="layer3">
</g>
<g>
	<g>
		<linearGradient id="SVGID_1_" gradientUnits="userSpaceOnUse" x1="46.0405" y1="41.0133" x2="78.3479" y2="41.0133">
			<stop  offset="0" style="stop-color:#390154"/>
			<stop  offset="0.1687" style="stop-color:#3F035A"/>
			<stop  offset="0.3942" style="stop-color:#4F076B"/>
			<stop  offset="0.6519" style="stop-color:#690F87"/>
			<stop  offset="0.9317" style="stop-color:#8E19AD"/>
			<stop  offset="1" style="stop-color:#981CB8"/>
		</linearGradient>
		<path class="st0" d="M78.35,41.01c0,8.91-7.23,16.15-16.16,16.15c-8.91,0-16.15-7.24-16.15-16.15c0-8.92,7.24-16.15,16.15-16.15
			C71.12,24.86,78.35,32.09,78.35,41.01z"/>
		
			<linearGradient id="SVGID_00000067951947202158491770000014417963514951473324_" gradientUnits="userSpaceOnUse" x1="48.5606" y1="41.1847" x2="75.8275" y2="41.1847">
			<stop  offset="0" style="stop-color:#5A2B71"/>
			<stop  offset="0.1897" style="stop-color:#602D77"/>
			<stop  offset="0.4434" style="stop-color:#703188"/>
			<stop  offset="0.7319" style="stop-color:#8A39A4"/>
			<stop  offset="1" style="stop-color:#A942C4"/>
		</linearGradient>
		<path style="opacity:0.05;fill:url(#SVGID_00000067951947202158491770000014417963514951473324_);" d="M75.83,41.18
			c0,7.52-6.1,13.63-13.64,13.63c-7.52,0-13.63-6.11-13.63-13.63c0-7.53,6.11-13.63,13.63-13.63
			C69.73,27.55,75.83,33.65,75.83,41.18z"/>
		
			<linearGradient id="SVGID_00000067930064286198586400000017420237721973170108_" gradientUnits="userSpaceOnUse" x1="51.0808" y1="41.356" x2="73.3071" y2="41.356">
			<stop  offset="0" style="stop-color:#7B568D"/>
			<stop  offset="0.2172" style="stop-color:#815893"/>
			<stop  offset="0.5076" style="stop-color:#915CA4"/>
			<stop  offset="0.838" style="stop-color:#AB64C0"/>
			<stop  offset="1" style="stop-color:#BA68D0"/>
		</linearGradient>
		<path style="opacity:0.1;fill:url(#SVGID_00000067930064286198586400000017420237721973170108_);" d="M73.31,41.36
			c0,6.13-4.97,11.11-11.12,11.11c-6.13,0-11.11-4.98-11.11-11.11c0-6.14,4.98-11.11,11.11-11.11
			C68.33,30.24,73.31,35.22,73.31,41.36z"/>
		
			<linearGradient id="SVGID_00000093176253171793918720000004638239090703050145_" gradientUnits="userSpaceOnUse" x1="53.601" y1="41.5274" x2="70.7867" y2="41.5274">
			<stop  offset="0" style="stop-color:#9C80AA"/>
			<stop  offset="0.2613" style="stop-color:#A282B0"/>
			<stop  offset="0.6107" style="stop-color:#B286C1"/>
			<stop  offset="1" style="stop-color:#CC8EDC"/>
		</linearGradient>
		<path style="opacity:0.15;fill:url(#SVGID_00000093176253171793918720000004638239090703050145_);" d="M70.79,41.53
			c0,4.74-3.84,8.59-8.6,8.59c-4.74,0-8.59-3.85-8.59-8.59c0-4.75,3.85-8.59,8.59-8.59C66.94,32.94,70.79,36.78,70.79,41.53z"/>
		
			<linearGradient id="SVGID_00000077312371182726985650000001619464888752530365_" gradientUnits="userSpaceOnUse" x1="56.1212" y1="41.6987" x2="68.2662" y2="41.6987">
			<stop  offset="0" style="stop-color:#BDAAC6"/>
			<stop  offset="0.3398" style="stop-color:#C3ACCC"/>
			<stop  offset="0.7931" style="stop-color:#D3B0DD"/>
			<stop  offset="1" style="stop-color:#DDB3E7"/>
		</linearGradient>
		<path style="opacity:0.2;fill:url(#SVGID_00000077312371182726985650000001619464888752530365_);" d="M68.27,41.7
			c0,3.35-2.72,6.07-6.08,6.07c-3.35,0-6.07-2.72-6.07-6.07c0-3.35,2.72-6.07,6.07-6.07C65.55,35.63,68.27,38.34,68.27,41.7z"/>
		
			<linearGradient id="SVGID_00000134950481285585729080000005865341186764564893_" gradientUnits="userSpaceOnUse" x1="58.6413" y1="41.8701" x2="65.7458" y2="41.8701">
			<stop  offset="0" style="stop-color:#DED5E2"/>
			<stop  offset="0.5164" style="stop-color:#E4D6E8"/>
			<stop  offset="1" style="stop-color:#EED9F3"/>
		</linearGradient>
		<path style="opacity:0.25;fill:url(#SVGID_00000134950481285585729080000005865341186764564893_);" d="M65.75,41.87
			c0,1.96-1.59,3.55-3.55,3.55c-1.96,0-3.55-1.59-3.55-3.55c0-1.96,1.59-3.55,3.55-3.55C64.16,38.32,65.75,39.91,65.75,41.87z"/>
		<path class="st6" d="M63.23,42.04c0,0.57-0.46,1.03-1.03,1.03c-0.57,0-1.03-0.46-1.03-1.03c0-0.57,0.46-1.03,1.03-1.03
			C62.76,41.01,63.23,41.47,63.23,42.04z"/>
	</g>
	<g>
		
			<linearGradient id="SVGID_00000021805202323284736930000003418887613558754696_" gradientUnits="userSpaceOnUse" x1="23.2523" y1="87.6868" x2="55.5583" y2="87.6868">
			<stop  offset="0" style="stop-color:#390154"/>
			<stop  offset="0.1687" style="stop-color:#3F035A"/>
			<stop  offset="0.3942" style="stop-color:#4F076B"/>
			<stop  offset="0.6519" style="stop-color:#690F87"/>
			<stop  offset="0.9317" style="stop-color:#8E19AD"/>
			<stop  offset="1" style="stop-color:#981CB8"/>
		</linearGradient>
		<path style="opacity:0;fill:url(#SVGID_00000021805202323284736930000003418887613558754696_);" d="M55.56,87.68
			c0,8.91-7.23,16.15-16.16,16.15c-8.91,0-16.15-7.24-16.15-16.15c0-8.92,7.24-16.15,16.15-16.15
			C48.33,71.54,55.56,78.76,55.56,87.68z"/>
		
			<linearGradient id="SVGID_00000085935182075236001060000010415349561549235086_" gradientUnits="userSpaceOnUse" x1="25.7725" y1="87.8583" x2="53.0379" y2="87.8583">
			<stop  offset="0" style="stop-color:#5A2B71"/>
			<stop  offset="0.1897" style="stop-color:#602D77"/>
			<stop  offset="0.4434" style="stop-color:#703188"/>
			<stop  offset="0.7319" style="stop-color:#8A39A4"/>
			<stop  offset="1" style="stop-color:#A942C4"/>
		</linearGradient>
		<path style="opacity:0.05;fill:url(#SVGID_00000085935182075236001060000010415349561549235086_);" d="M53.04,87.86
			c0,7.52-6.1,13.63-13.63,13.63c-7.52,0-13.63-6.11-13.63-13.63c0-7.53,6.11-13.63,13.63-13.63
			C46.94,74.23,53.04,80.33,53.04,87.86z"/>
		
			<linearGradient id="SVGID_00000134947891560302566700000002400226541885520007_" gradientUnits="userSpaceOnUse" x1="28.2926" y1="88.0298" x2="50.5174" y2="88.0298">
			<stop  offset="0" style="stop-color:#7B568D"/>
			<stop  offset="0.2172" style="stop-color:#815893"/>
			<stop  offset="0.5076" style="stop-color:#915CA4"/>
			<stop  offset="0.838" style="stop-color:#AB64C0"/>
			<stop  offset="1" style="stop-color:#BA68D0"/>
		</linearGradient>
		<path style="opacity:0.1;fill:url(#SVGID_00000134947891560302566700000002400226541885520007_);" d="M50.52,88.03
			c0,6.13-4.97,11.11-11.11,11.11c-6.13,0-11.11-4.98-11.11-11.11c0-6.14,4.98-11.11,11.11-11.11
			C45.55,76.92,50.52,81.89,50.52,88.03z"/>
		
			<linearGradient id="SVGID_00000101794235624437210710000002932320883523436475_" gradientUnits="userSpaceOnUse" x1="30.8128" y1="88.2012" x2="47.997" y2="88.2012">
			<stop  offset="0" style="stop-color:#9C80AA"/>
			<stop  offset="0.2613" style="stop-color:#A282B0"/>
			<stop  offset="0.6107" style="stop-color:#B286C1"/>
			<stop  offset="1" style="stop-color:#CC8EDC"/>
		</linearGradient>
		<path style="opacity:0.15;fill:url(#SVGID_00000101794235624437210710000002932320883523436475_);" d="M48,88.2
			c0,4.74-3.84,8.59-8.59,8.59c-4.74,0-8.59-3.85-8.59-8.59c0-4.75,3.85-8.59,8.59-8.59C44.15,79.61,48,83.45,48,88.2z"/>
		
			<linearGradient id="SVGID_00000099640747968209099210000013415153768879633042_" gradientUnits="userSpaceOnUse" x1="33.333" y1="88.3727" x2="45.4766" y2="88.3727">
			<stop  offset="0" style="stop-color:#BDAAC6"/>
			<stop  offset="0.3398" style="stop-color:#C3ACCC"/>
			<stop  offset="0.7931" style="stop-color:#D3B0DD"/>
			<stop  offset="1" style="stop-color:#DDB3E7"/>
		</linearGradient>
		<path style="opacity:0.2;fill:url(#SVGID_00000099640747968209099210000013415153768879633042_);" d="M45.48,88.37
			c0,3.35-2.72,6.07-6.07,6.07c-3.35,0-6.07-2.72-6.07-6.07c0-3.35,2.72-6.07,6.07-6.07C42.76,82.3,45.48,85.02,45.48,88.37z"/>
		
			<linearGradient id="SVGID_00000142157110723748753500000013835844267292625032_" gradientUnits="userSpaceOnUse" x1="35.8532" y1="88.5442" x2="42.9561" y2="88.5442">
			<stop  offset="0" style="stop-color:#DED5E2"/>
			<stop  offset="0.5164" style="stop-color:#E4D6E8"/>
			<stop  offset="1" style="stop-color:#EED9F3"/>
		</linearGradient>
		<path style="opacity:0.25;fill:url(#SVGID_00000142157110723748753500000013835844267292625032_);" d="M42.96,88.55
			c0,1.96-1.59,3.55-3.55,3.55c-1.96,0-3.55-1.59-3.55-3.55c0-1.96,1.59-3.55,3.55-3.55C41.37,84.99,42.96,86.58,42.96,88.55z"/>
		<path class="st6" d="M40.44,88.72c0,0.57-0.46,1.03-1.03,1.03c-0.57,0-1.03-0.46-1.03-1.03c0-0.57,0.46-1.03,1.03-1.03
			C39.97,87.68,40.44,88.15,40.44,88.72z"/>
	</g>
	<g class="st13">
		<path d="M139.91,261.25c23.83,8.29,23.95,21.74,0.28,30.03c-23.67,8.29-62.18,8.29-86,0c-23.83-8.29-23.95-21.74-0.28-30.03
			C77.58,252.95,116.08,252.95,139.91,261.25z"/>
	</g>
	<g>
		<path class="st14" d="M60.8,96.51c0.84,4.94-2.48,9.63-7.42,10.48c-4.94,0.84-9.63-2.48-10.48-7.42
			c-0.84-4.94,2.48-9.63,7.42-10.48C55.27,88.24,59.96,91.57,60.8,96.51z"/>
		<path class="st14" d="M60.8,96.51c0.84,4.94-2.48,9.63-7.42,10.48c-4.94,0.84-9.63-2.48-10.48-7.42
			c-0.84-4.94,2.48-9.63,7.42-10.48C55.27,88.24,59.96,91.57,60.8,96.51z"/>
		<path class="st15" d="M42.9,99.56c0.42,2.47,1.8,4.53,3.69,5.87c1.51,0.61,3.21,0.84,4.94,0.55c4.94-0.84,8.26-5.54,7.42-10.48
			c-0.42-2.47-1.8-4.53-3.69-5.87c-1.51-0.62-3.21-0.84-4.94-0.55C45.38,89.93,42.06,94.62,42.9,99.56z"/>
		<path class="st16" d="M50.72,95.25c0.33,1.94-0.97,3.77-2.91,4.1c-1.94,0.33-3.77-0.97-4.1-2.91c-0.33-1.94,0.97-3.77,2.91-4.1
			C48.56,92.01,50.39,93.31,50.72,95.25z"/>
		<path class="st16" d="M51.43,102.44c0.2,1.16-0.58,2.26-1.74,2.46c-1.16,0.2-2.26-0.58-2.46-1.74c-0.2-1.16,0.58-2.26,1.74-2.46
			C50.13,100.5,51.23,101.28,51.43,102.44z"/>
		<path class="st14" d="M54.09,89.91c0.12,0.7-1.36,1.53-3.31,1.86c-1.95,0.33-3.62,0.04-3.74-0.66c-0.12-0.69,1.36-1.53,3.31-1.86
			C52.3,88.92,53.97,89.22,54.09,89.91z"/>
		<g>
			<path class="st17" d="M50.55,90.5c0,0,0.44-2.18,2-2.27c1.56-0.09,1.73,0.56,1.73,0.56s-2.99-0.56-3,1.59L50.55,90.5z"/>
			<path class="st17" d="M50.72,90.47c0,0,1.14-1.63,2.62-1.3l0.69,0.24c0,0-2.53,0.3-2.65,1.12L50.72,90.47z"/>
			<path class="st17" d="M50.91,90.55c0,0-1.14-1.91-2.64-1.48c-1.5,0.43-1.45,1.1-1.45,1.1s2.64-1.52,3.36,0.51L50.91,90.55z"/>
			<path class="st17" d="M50.73,90.58c0,0-1.62-1.16-2.9-0.35l-0.57,0.45c0,0,2.49-0.56,2.87,0.18L50.73,90.58z"/>
			<path class="st17" d="M49.96,89.35c-0.04,0.35,0.43,1.35,0.43,1.35l0.68-0.17c0,0,0.03-1.5-0.31-1.8
				C50.57,88.56,50.04,88.61,49.96,89.35z"/>
			<path class="st17" d="M50.89,90.41c0,0-1.84-0.32-2.62,1.03c-0.78,1.35-0.38,1.71-0.38,1.71s0.95-2.82,2.57-2.13L50.89,90.41z"/>
			<path class="st17" d="M49.82,90.37c0,0,2.1,0.3,2.31,1.83l0.02,0.75c0,0-1.45-2.31-2.33-2.03L49.82,90.37z"/>
			<path class="st17" d="M50.35,90.47c0,0,2.08-0.44,2.8,0.92l0.28,0.7c0,0-2.15-1.67-2.88-1.11L50.35,90.47z"/>
			<path class="st17" d="M51.04,90.18c0,0-1.96,0.82-1.78,2.36l0.17,0.73c0,0,0.82-2.6,1.74-2.55L51.04,90.18z"/>
			<path class="st17" d="M50.41,90.8c0,0,1.3-1.47,2.74-0.86c1.44,0.61,1.32,1.17,1.32,1.17s-2.46-1.71-3.35-0.09L50.41,90.8z"/>
			<path class="st18" d="M51.55,90.09c0.05,0.27-0.31,0.57-0.8,0.65c-0.49,0.08-0.92-0.07-0.97-0.35c-0.05-0.27,0.31-0.57,0.8-0.65
				C51.07,89.66,51.51,89.82,51.55,90.09z"/>
		</g>
	</g>
	<g>
		<circle class="st14" cx="41.11" cy="95" r="9.37"/>
		<circle class="st14" cx="41.11" cy="95" r="9.37"/>
		<path class="st15" d="M31.74,95c0,2.58,1.05,4.92,2.74,6.62c1.43,0.89,3.12,1.41,4.93,1.41c5.18,0,9.37-4.2,9.37-9.38
			c0-2.58-1.05-4.92-2.74-6.62c-1.43-0.89-3.12-1.41-4.93-1.41C35.93,85.63,31.74,89.83,31.74,95z"/>
		<path class="st16" d="M40.45,91.97c0,2.03-1.64,3.67-3.67,3.67c-2.03,0-3.67-1.65-3.67-3.67c0-2.03,1.64-3.67,3.67-3.67
			C38.8,88.29,40.45,89.94,40.45,91.97z"/>
		<path class="st16" d="M39.92,99.41c0,1.22-0.98,2.2-2.2,2.2c-1.22,0-2.2-0.98-2.2-2.2c0-1.21,0.98-2.2,2.2-2.2
			C38.93,97.21,39.92,98.19,39.92,99.41z"/>
		<path class="st14" d="M44.8,87.12c0,0.73-1.65,1.32-3.69,1.32c-2.04,0-3.69-0.59-3.69-1.32c0-0.73,1.65-1.32,3.69-1.32
			C43.15,85.81,44.8,86.4,44.8,87.12z"/>
		<g>
			<path class="st17" d="M41.09,87.1c0,0,0.83-2.15,2.43-1.97c1.61,0.18,1.66,0.86,1.66,0.86s-2.95-1.08-3.33,1.1H41.09z"/>
			<path class="st17" d="M41.28,87.1c0,0,1.44-1.46,2.89-0.86l0.66,0.36c0,0-2.63-0.14-2.89,0.68L41.28,87.1z"/>
			<path class="st17" d="M41.45,87.22c0,0-0.83-2.15-2.43-1.97c-1.6,0.18-1.66,0.86-1.66,0.86s2.95-1.08,3.33,1.1H41.45z"/>
			<path class="st17" d="M41.27,87.22c0,0-1.44-1.46-2.89-0.86l-0.66,0.36c0,0,2.63-0.13,2.89,0.68L41.27,87.22z"/>
			<path class="st17" d="M40.7,85.83c-0.1,0.35,0.2,1.45,0.2,1.45l0.72-0.06c0,0,0.3-1.52,0-1.89
				C41.46,85.13,40.91,85.09,40.7,85.83z"/>
			<path class="st17" d="M41.45,87.08c0,0-1.82-0.64-2.85,0.6c-1.03,1.24-0.68,1.67-0.68,1.67s1.46-2.71,2.99-1.72L41.45,87.08z"/>
			<path class="st17" d="M40.37,86.85c0,0,2.08,0.67,2.04,2.27l-0.11,0.77c0,0-1.07-2.6-2.02-2.47L40.37,86.85z"/>
			<path class="st17" d="M40.9,87.04c0,0,2.19-0.09,2.69,1.43l0.16,0.76c0,0-1.9-2.07-2.74-1.63L40.9,87.04z"/>
			<path class="st17" d="M41.65,86.86c0,0-2.13,0.49-2.22,2.09l0.04,0.77c0,0,1.29-2.5,2.22-2.29L41.65,86.86z"/>
			<path class="st17" d="M40.9,87.39c0,0,1.58-1.27,2.94-0.4c1.36,0.87,1.15,1.42,1.15,1.42s-2.2-2.17-3.4-0.67L40.9,87.39z"/>
			<path class="st18" d="M42.19,86.86c0,0.29-0.41,0.52-0.93,0.52c-0.51,0-0.93-0.23-0.93-0.52c0-0.29,0.42-0.52,0.93-0.52
				C41.77,86.34,42.19,86.58,42.19,86.86z"/>
		</g>
	</g>
	<path class="st17" d="M40.92,87.22c0,0-1.26-10.37,4.41-14.02c5.68-3.65,10.64-11.03,11.29-12.44c0.65-1.41,1.07,0.19,1.07,0.19
		s-7.9,11.35-12.8,14.67c-4.89,3.32-2.81,10.33-3.23,11.32C41.24,87.94,40.92,87.22,40.92,87.22z"/>
	<path class="st17" d="M50.82,90.7c0,0-5.92-6.66-2.38-12.04c3.54-5.38,4.72-13.03,4.67-14.35c-0.05-1.32,1.07-0.39,1.07-0.39
		s-2.06,11.9-5.03,16.66c-2.97,4.77,2.16,8.65,2.23,9.56C51.44,91.04,50.82,90.7,50.82,90.7z"/>
	<g>
		<path class="st19" d="M95.6,249.57c0,9.6-7.78,17.39-17.39,17.39l0,0c-9.6,0-17.39-7.78-17.39-17.39V104.4
			c0-9.6,7.78-17.39,17.39-17.39l0,0c9.6,0,17.39,7.78,17.39,17.39V249.57z"/>
		<path class="st20" d="M92.25,246.85c0,9.25-6.29,16.74-14.04,16.74l0,0c-7.76,0-14.04-7.5-14.04-16.74V103.84
			c0-9.25,6.29-16.74,14.04-16.74l0,0c7.75,0,14.04,7.5,14.04,16.74V246.85z"/>
		<path class="st21" d="M90.44,246.4c0,8.23-5.48,14.9-12.24,14.9l0,0c-6.76,0-12.25-6.67-12.25-14.9V109.58
			c0-8.23,5.48-14.9,12.25-14.9l0,0c6.76,0,12.24,6.67,12.24,14.9V246.4z"/>
		<path class="st22" d="M60.82,104.4v145.17c0,9.03,6.88,16.45,15.69,17.3c0,0-3.08-12.9-3.41-17.3
			c-1.41-18.89,3.41-162.48,3.41-162.48C67.71,87.95,60.82,95.37,60.82,104.4z"/>
		<path class="st23" d="M98.83,95.84c-0.01,0.1-0.01,0.21-0.02,0.31c-0.01,0.09-0.02,0.18-0.03,0.27c-0.02,0.1-0.03,0.21-0.05,0.31
			c-0.02,0.09-0.04,0.18-0.06,0.28c-0.02,0.1-0.05,0.2-0.07,0.3c-0.02,0.09-0.05,0.18-0.08,0.28c-0.03,0.1-0.06,0.2-0.1,0.3
			c-0.03,0.09-0.07,0.18-0.1,0.27c-0.04,0.1-0.09,0.21-0.13,0.31c-0.04,0.09-0.08,0.18-0.12,0.26c-0.05,0.1-0.1,0.21-0.16,0.31
			c-0.05,0.08-0.09,0.17-0.14,0.25c-0.07,0.12-0.15,0.24-0.23,0.37c-0.05,0.07-0.09,0.15-0.14,0.22c-0.09,0.14-0.19,0.27-0.29,0.4
			c-0.05,0.06-0.09,0.12-0.14,0.19c-0.02,0.03-0.05,0.06-0.07,0.09c-0.11,0.13-0.22,0.26-0.33,0.39c-0.03,0.04-0.06,0.07-0.1,0.11
			c-0.14,0.15-0.28,0.3-0.43,0.45c-0.03,0.03-0.06,0.05-0.08,0.08c-0.12,0.11-0.24,0.22-0.36,0.33c-0.09,0.09-0.19,0.17-0.29,0.26
			c-0.09,0.08-0.19,0.16-0.29,0.24c-0.11,0.09-0.21,0.17-0.32,0.26c-0.1,0.08-0.2,0.15-0.3,0.23c-0.12,0.08-0.23,0.17-0.35,0.25
			c-0.11,0.07-0.21,0.15-0.33,0.22c-0.12,0.08-0.25,0.16-0.38,0.24c-0.15,0.1-0.31,0.19-0.47,0.29c-0.31,0.18-0.63,0.35-0.95,0.51
			c-0.09,0.05-0.19,0.09-0.28,0.14c-0.25,0.12-0.51,0.24-0.76,0.36c-0.09,0.04-0.17,0.08-0.26,0.12c-0.34,0.15-0.68,0.29-1.03,0.42
			c-0.06,0.02-0.12,0.04-0.18,0.07c-0.3,0.11-0.59,0.21-0.9,0.32c-0.12,0.04-0.25,0.08-0.37,0.12c-0.17,0.05-0.34,0.1-0.51,0.15
			c-0.14,0.04-0.28,0.08-0.42,0.12c-0.17,0.05-0.35,0.09-0.52,0.14c-0.14,0.04-0.29,0.07-0.43,0.11c-0.18,0.05-0.36,0.08-0.53,0.12
			c-0.14,0.03-0.29,0.06-0.43,0.09c-0.18,0.04-0.37,0.07-0.55,0.11c-0.14,0.03-0.27,0.05-0.4,0.07c-0.39,0.07-0.78,0.13-1.17,0.19
			c-0.05,0.01-0.1,0.01-0.16,0.02c-0.35,0.05-0.69,0.09-1.04,0.12c-0.13,0.01-0.26,0.03-0.39,0.04c-0.22,0.02-0.44,0.04-0.66,0.05
			c-0.14,0.01-0.28,0.02-0.42,0.03c-0.23,0.01-0.45,0.03-0.68,0.03c-0.14,0.01-0.27,0.01-0.4,0.02c-0.2,0.01-0.39,0.01-0.59,0.01
			c-0.15,0-0.29,0.01-0.43,0.01c-0.22,0-0.43,0-0.65-0.01c-0.12,0-0.25,0-0.37,0c-0.2-0.01-0.4-0.02-0.6-0.02
			c-0.13-0.01-0.27-0.01-0.4-0.02c-0.23-0.01-0.45-0.03-0.68-0.05c-0.11-0.01-0.21-0.01-0.32-0.02c-0.27-0.02-0.54-0.05-0.81-0.08
			c-0.06-0.01-0.12-0.01-0.19-0.02c-0.33-0.04-0.66-0.08-0.99-0.13c-0.04,0-0.08-0.01-0.13-0.02c-0.29-0.04-0.58-0.09-0.87-0.14
			c-0.11-0.02-0.22-0.04-0.33-0.06c-0.22-0.04-0.44-0.08-0.65-0.12c-0.11-0.02-0.22-0.05-0.33-0.07c-0.23-0.05-0.46-0.1-0.7-0.16
			c-0.13-0.03-0.26-0.06-0.39-0.1c-0.21-0.05-0.41-0.11-0.62-0.16c-0.12-0.03-0.24-0.07-0.35-0.1c-0.33-0.1-0.66-0.2-0.98-0.3
			c-0.05-0.02-0.11-0.04-0.16-0.05c-0.37-0.12-0.73-0.26-1.09-0.4c-0.15-0.06-0.29-0.12-0.44-0.18c-0.11-0.05-0.23-0.09-0.34-0.14
			c-0.16-0.07-0.32-0.14-0.48-0.22c-0.1-0.05-0.21-0.09-0.31-0.14c-0.18-0.08-0.35-0.17-0.52-0.26c-0.08-0.04-0.17-0.08-0.25-0.12
			c-0.25-0.13-0.5-0.27-0.74-0.41c-4.07-2.35-6.1-5.43-6.09-8.51l-0.02,8.07l0,0l0,0c-0.01,2.31,1.13,4.62,3.42,6.62
			c0.76,0.67,1.65,1.3,2.67,1.89c0.24,0.14,0.49,0.27,0.74,0.41c0.08,0.04,0.16,0.08,0.25,0.12c0.17,0.09,0.35,0.18,0.52,0.26
			c0.1,0.05,0.2,0.1,0.31,0.14c0.16,0.07,0.32,0.15,0.49,0.22c0.11,0.05,0.22,0.09,0.33,0.14c0.11,0.05,0.22,0.09,0.34,0.14
			c0.03,0.01,0.07,0.03,0.11,0.04c0.36,0.14,0.72,0.27,1.09,0.4c0.06,0.02,0.12,0.04,0.18,0.06c0.32,0.11,0.64,0.2,0.97,0.3
			c0.05,0.02,0.11,0.03,0.16,0.05c0.06,0.02,0.13,0.03,0.19,0.05c0.21,0.06,0.41,0.11,0.62,0.17c0.13,0.03,0.26,0.06,0.38,0.09
			c0.23,0.06,0.47,0.11,0.7,0.16c0.09,0.02,0.17,0.04,0.25,0.06c0.02,0,0.05,0.01,0.07,0.01c0.21,0.04,0.43,0.08,0.64,0.12
			c0.12,0.02,0.23,0.04,0.35,0.07c0.3,0.05,0.6,0.1,0.9,0.14c0.03,0,0.06,0.01,0.09,0.01c0,0,0,0,0,0c0.33,0.05,0.66,0.09,0.99,0.12
			c0.1,0.01,0.2,0.02,0.3,0.03c0.23,0.02,0.46,0.05,0.69,0.07c0.01,0,0.02,0,0.02,0c0.13,0.01,0.25,0.02,0.38,0.02
			c0.2,0.01,0.4,0.03,0.6,0.04c0.14,0.01,0.28,0.01,0.42,0.02c0.19,0.01,0.38,0.02,0.57,0.02c0.02,0,0.04,0,0.05,0
			c0.12,0,0.23,0,0.35,0c0.21,0,0.42,0.01,0.63,0c0.14,0,0.28,0,0.41,0c0.2,0,0.41-0.01,0.61-0.01c0.04,0,0.07,0,0.11,0
			c0.09,0,0.18-0.01,0.27-0.01c0.23-0.01,0.47-0.02,0.7-0.04c0.14-0.01,0.28-0.02,0.42-0.03c0.22-0.02,0.44-0.04,0.66-0.06
			c0.08-0.01,0.16-0.01,0.24-0.02c0.05,0,0.11-0.01,0.17-0.02c0.34-0.04,0.69-0.08,1.03-0.12c0.05-0.01,0.11-0.02,0.16-0.02
			c0.39-0.05,0.78-0.12,1.16-0.18c0.04-0.01,0.08-0.01,0.11-0.02c0.1-0.02,0.21-0.04,0.31-0.06c0.18-0.03,0.36-0.07,0.54-0.11
			c0.15-0.03,0.29-0.06,0.44-0.09c0.18-0.04,0.35-0.08,0.53-0.12c0.15-0.04,0.29-0.07,0.43-0.11c0.18-0.05,0.35-0.09,0.52-0.14
			c0.14-0.04,0.28-0.08,0.42-0.12c0.17-0.05,0.34-0.1,0.51-0.16c0.07-0.02,0.14-0.04,0.21-0.06c0.05-0.02,0.1-0.04,0.15-0.05
			c0.31-0.1,0.61-0.21,0.91-0.32c0.06-0.02,0.12-0.04,0.18-0.06c0.35-0.13,0.69-0.27,1.03-0.42c0.09-0.04,0.17-0.08,0.26-0.12
			c0.26-0.12,0.51-0.24,0.77-0.36c0.09-0.05,0.19-0.09,0.28-0.14c0.32-0.17,0.64-0.33,0.95-0.51c0.09-0.05,0.17-0.1,0.25-0.15
			c0.08-0.05,0.15-0.09,0.23-0.14c0.13-0.08,0.25-0.16,0.38-0.24c0.11-0.07,0.22-0.15,0.33-0.22c0.12-0.08,0.24-0.16,0.35-0.25
			c0.1-0.07,0.2-0.15,0.3-0.23c0.11-0.08,0.22-0.17,0.33-0.25c0.1-0.08,0.19-0.16,0.28-0.24c0.1-0.09,0.2-0.17,0.3-0.26
			c0.04-0.03,0.08-0.07,0.12-0.1c0.08-0.08,0.15-0.15,0.23-0.22c0.03-0.03,0.06-0.05,0.08-0.08c0.15-0.15,0.29-0.3,0.43-0.45
			c0.03-0.04,0.06-0.07,0.1-0.11c0.12-0.13,0.23-0.26,0.33-0.39c0.02-0.03,0.05-0.06,0.07-0.09c0.01-0.01,0.02-0.03,0.03-0.04
			c0.04-0.05,0.07-0.1,0.11-0.15c0.1-0.13,0.2-0.27,0.29-0.4c0.05-0.07,0.1-0.15,0.14-0.22c0.08-0.12,0.15-0.24,0.23-0.37
			c0.02-0.03,0.04-0.07,0.06-0.1c0.03-0.05,0.05-0.1,0.08-0.15c0.06-0.1,0.11-0.21,0.16-0.31c0.04-0.09,0.08-0.18,0.12-0.26
			c0.05-0.1,0.09-0.21,0.13-0.31c0.02-0.05,0.04-0.09,0.06-0.14c0.02-0.04,0.03-0.09,0.04-0.13c0.03-0.1,0.07-0.2,0.1-0.3
			c0.03-0.09,0.06-0.18,0.08-0.27c0.03-0.1,0.05-0.2,0.07-0.3c0.01-0.06,0.03-0.11,0.04-0.17c0.01-0.04,0.01-0.07,0.02-0.11
			c0.02-0.1,0.03-0.21,0.05-0.31c0.01-0.09,0.03-0.18,0.03-0.27c0.01-0.1,0.02-0.21,0.02-0.31c0-0.06,0.01-0.12,0.01-0.18
			c0-0.06,0-0.12,0-0.18c0.01-2.69,0.02-5.38,0.02-8.07C98.85,95.6,98.84,95.72,98.83,95.84z"/>
		<g>
			<path class="st19" d="M92.75,86.96c8.09,4.67,8.13,12.24,0.1,16.91c-8.03,4.67-21.1,4.67-29.19,0
				c-8.09-4.67-8.13-12.24-0.09-16.91C71.6,82.29,84.67,82.29,92.75,86.96z"/>
		</g>
		<g>
			<path class="st19" d="M92.75,86.96c8.09,4.67,8.13,12.24,0.1,16.91c-8.03,4.67-21.1,4.67-29.19,0
				c-8.09-4.67-8.13-12.24-0.09-16.91C71.6,82.29,84.67,82.29,92.75,86.96z"/>
		</g>
		<g>
			<path class="st23" d="M89.48,88.8c6.27,3.62,6.3,9.49,0.07,13.11c-6.23,3.62-16.36,3.62-22.63,0c-6.27-3.62-6.3-9.49-0.07-13.11
				C73.07,85.18,83.21,85.18,89.48,88.8z"/>
		</g>
		<path class="st21" d="M89.55,101.91c0.51-0.3,0.98-0.61,1.4-0.94c1.4-2.65,0.27-5.65-3.35-7.75c-5.23-3.02-13.67-3.02-18.86,0
			c-3.59,2.08-4.68,5.06-3.3,7.7c0.45,0.34,0.94,0.67,1.48,0.99C73.19,105.53,83.32,105.53,89.55,101.91z"/>
		<path class="st24" d="M87.6,93.23c-5.23-3.02-13.67-3.02-18.86,0c-1.36,0.79-2.36,1.71-3.01,2.69c0.4-0.31,0.83-0.61,1.32-0.9
			c5.19-3.02,13.64-3.02,18.87,0c3.22,1.86,4.46,4.43,3.73,6.83c0.48-0.28,0.91-0.57,1.31-0.88C92.35,98.33,91.23,95.33,87.6,93.23z
			"/>
		<g>
			<path class="st18" d="M80.47,88.4c0,0-18.41-10.39-9.25-30.26C71.22,58.14,90.24,64.43,80.47,88.4z"/>
			<path class="st18" d="M86.5,83.17c0,0,15.43-10.67,24.97,1.82C111.46,84.99,97.96,96.41,86.5,83.17z"/>
			<path class="st18" d="M86.5,83.17c0,0,15.43-10.67,24.97,1.82C111.46,84.99,97.96,96.41,86.5,83.17z"/>
			<path class="st17" d="M81.16,88.56c0,0,1.55-18.72-9.94-30.43C71.22,58.14,92.07,65.12,81.16,88.56z"/>
			<path class="st17" d="M111.45,85c-10.09,2.82-24.96-1.83-24.96-1.83C97.78,96.21,111.04,85.34,111.45,85z"/>
			<path class="st25" d="M78.52,100.93c0,0-3.63-9.55,4.05-15.48c7.69-5.93,7.95-10.1,8.04-12.52c0,0,2.55,7.03-6.48,12.96
				C84.13,85.88,77.65,88.65,78.52,100.93z"/>
		</g>
		<g>
			<path class="st18" d="M58.72,60.7c0,0-32.07-19.71-49.84,6.36C8.89,67.06,37.19,88.49,58.72,60.7z"/>
			<path class="st17" d="M8.91,67.07c20.52,4.56,49.82-6.37,49.82-6.37C37.53,88.05,9.77,67.72,8.91,67.07z"/>
			<path class="st18" d="M50.29,53.26c0,0,23.07-11.02,14.76-30.77C65.05,22.49,42.39,30.73,50.29,53.26z"/>
			<path class="st17" d="M65.03,22.49C54.86,32.51,50.29,53.26,50.29,53.26C42.51,31.08,64.35,22.75,65.03,22.49z"/>
			<path class="st25" d="M77.76,99.87c0,0,4.34-23.39-14.27-36.21C44.87,50.84,46.63,41.91,46.13,36.3c0,0-5.06,16.66,16.68,29.31
				C62.81,65.61,78.24,71.21,77.76,99.87z"/>
		</g>
	</g>
	<path class="st17" d="M57.09,71.69c0,0,0.89-2.54-0.63-4.39c-1.36-1.65-2.93-3.84-3.06-4.29c-0.13-0.45-0.38,0-0.38,0
		s1.23,3.97,2.68,5.22c1.45,1.25,0.71,2.91,0.79,3.23C56.58,71.78,57.09,71.69,57.09,71.69z"/>
	<g>
		<path class="st14" d="M65.68,79.28c0,4.88-3.96,8.85-8.84,8.85c-4.89,0-8.85-3.96-8.85-8.85s3.96-8.84,8.85-8.84
			C61.72,70.43,65.68,74.39,65.68,79.28z"/>
		<path class="st14" d="M65.68,79.28c0,4.88-3.96,8.85-8.84,8.85c-4.89,0-8.85-3.96-8.85-8.85s3.96-8.84,8.85-8.84
			C61.72,70.43,65.68,74.39,65.68,79.28z"/>
		<path class="st15" d="M47.99,79.28c0,2.44,0.99,4.65,2.58,6.25c1.35,0.84,2.94,1.33,4.65,1.33c4.89,0,8.85-3.96,8.85-8.85
			c0-2.44-0.99-4.65-2.58-6.25c-1.35-0.84-2.94-1.33-4.65-1.33C51.95,70.43,47.99,74.39,47.99,79.28z"/>
		<path class="st16" d="M56.21,76.41c0,1.91-1.55,3.46-3.46,3.46c-1.91,0-3.46-1.55-3.46-3.46c0-1.91,1.55-3.46,3.46-3.46
			C54.66,72.95,56.21,74.5,56.21,76.41z"/>
		<path class="st16" d="M55.71,83.43c0,1.15-0.93,2.08-2.08,2.08c-1.15,0-2.08-0.93-2.08-2.08c0-1.15,0.93-2.08,2.08-2.08
			C54.78,81.36,55.71,82.29,55.71,83.43z"/>
		<ellipse class="st14" cx="56.83" cy="71.84" rx="3.48" ry="1.24"/>
		<g>
			<path class="st17" d="M56.82,71.82c0,0,0.78-2.02,2.3-1.86c1.51,0.17,1.57,0.81,1.57,0.81s-2.78-1.02-3.14,1.04H56.82z"/>
			<path class="st17" d="M56.99,71.82c0,0,1.36-1.38,2.73-0.81l0.62,0.34c0,0-2.48-0.13-2.73,0.64L56.99,71.82z"/>
			<path class="st17" d="M57.16,71.94c0,0-0.78-2.02-2.3-1.86c-1.51,0.17-1.57,0.81-1.57,0.81s2.78-1.02,3.14,1.04H57.16z"/>
			<path class="st17" d="M56.98,71.94c0,0-1.36-1.38-2.73-0.81l-0.62,0.34c0,0,2.48-0.13,2.73,0.64L56.98,71.94z"/>
			<path class="st17" d="M56.44,70.62c-0.1,0.33,0.19,1.37,0.19,1.37l0.68-0.05c0,0,0.28-1.43,0-1.78
				C57.16,69.97,56.64,69.93,56.44,70.62z"/>
			<path class="st17" d="M57.16,71.8c0,0-1.72-0.61-2.69,0.56c-0.97,1.17-0.64,1.58-0.64,1.58s1.38-2.55,2.82-1.62L57.16,71.8z"/>
			<path class="st17" d="M56.13,71.58c0,0,1.97,0.63,1.92,2.14l-0.1,0.72c0,0-1.01-2.45-1.9-2.33L56.13,71.58z"/>
			<path class="st17" d="M56.63,71.76c0,0,2.07-0.08,2.54,1.35l0.15,0.71c0,0-1.79-1.95-2.59-1.53L56.63,71.76z"/>
			<path class="st17" d="M57.34,71.6c0,0-2.01,0.47-2.09,1.97l0.04,0.73c0,0,1.21-2.36,2.09-2.16L57.34,71.6z"/>
			<path class="st17" d="M56.63,72.09c0,0,1.49-1.19,2.77-0.38c1.28,0.82,1.08,1.34,1.08,1.34s-2.08-2.05-3.2-0.63L56.63,72.09z"/>
			<path class="st18" d="M57.85,71.6c0,0.27-0.39,0.49-0.88,0.49c-0.48,0-0.88-0.22-0.88-0.49c0-0.27,0.39-0.49,0.88-0.49
				C57.46,71.1,57.85,71.33,57.85,71.6z"/>
		</g>
	</g>
	<g class="st26">
		<path class="st27" d="M55.25,135.31c12.46,6.16,32.58,6.16,44.96,0c12.38-6.15,12.31-16.14-0.15-22.3
			c-12.46-6.16-32.58-6.16-44.96,0C42.73,119.17,42.8,129.16,55.25,135.31"/>
		<path class="st28" d="M56.6,156.78c11.71,5.9,30.62,5.9,42.25,0c11.63-5.89,11.57-15.46-0.14-21.36c-11.71-5.9-30.62-5.9-42.25,0
			C44.83,141.33,44.9,150.89,56.6,156.78"/>
		<path class="st29" d="M57.95,178.25c10.95,5.64,28.66,5.64,39.54,0c10.89-5.63,10.83-14.77-0.13-20.41
			c-10.96-5.64-28.66-5.64-39.55,0C46.93,163.48,46.99,172.62,57.95,178.25"/>
		<path class="st30" d="M59.3,199.72c10.2,5.38,26.7,5.38,36.84,0c10.14-5.37,10.09-14.09-0.12-19.47c-10.21-5.38-26.7-5.38-36.84,0
			C49.04,185.63,49.09,194.35,59.3,199.72"/>
		<path class="st31" d="M60.65,221.19c9.45,5.12,24.74,5.12,34.13,0c9.4-5.11,9.35-13.41-0.11-18.53c-9.45-5.12-24.74-5.12-34.13,0
			C51.14,207.79,51.19,216.08,60.65,221.19"/>
		<path class="st32" d="M62,242.67c8.7,4.85,22.78,4.85,31.43,0c8.65-4.85,8.61-12.72-0.1-17.58c-8.7-4.85-22.78-4.85-31.43,0
			C53.24,229.94,53.29,237.81,62,242.67"/>
		<path class="st33" d="M63.35,264.14c7.95,4.59,20.81,4.59,28.72,0c7.91-4.59,7.87-12.04-0.09-16.64c-7.95-4.59-20.82-4.59-28.72,0
			C55.35,252.09,55.39,259.54,63.35,264.14"/>
	</g>
	<g>
		<g>
			<g class="st34">
				<g>
					<polygon class="st35" points="130.97,258 129.14,258.06 130.12,260.75 131.95,260.69 					"/>
				</g>
				<g>
					<polygon class="st36" points="131.95,260.69 130.12,260.75 128.88,261.46 130.72,261.4 					"/>
				</g>
				<g>
					<polygon class="st37" points="130.72,261.4 128.88,261.46 130.09,264.78 131.92,264.71 					"/>
				</g>
				<g>
					<polygon class="st36" points="130.97,258 129.14,258.06 127.9,258.77 129.74,258.71 					"/>
				</g>
				<g>
					<polygon class="st35" points="125.57,243.17 123.74,243.23 124.72,245.94 126.56,245.88 					"/>
				</g>
				<g>
					<polygon class="st36" points="126.56,245.88 124.72,245.94 123.48,246.65 125.32,246.59 					"/>
				</g>
				<g>
					<polygon class="st37" points="125.32,246.59 123.48,246.65 127.9,258.77 129.74,258.71 					"/>
				</g>
				<g>
					<polygon class="st36" points="125.57,243.17 123.74,243.23 122.5,243.95 124.34,243.89 					"/>
				</g>
				<g>
					<polygon class="st35" points="119.19,225.67 117.36,225.73 118.34,228.42 120.18,228.36 					"/>
				</g>
				<g>
					<polygon class="st37" points="118.94,229.07 117.1,229.13 122.5,243.95 124.34,243.89 					"/>
				</g>
				<g>
					<polygon class="st36" points="120.18,228.36 118.34,228.42 117.1,229.13 118.94,229.07 					"/>
				</g>
				<g>
					<polygon class="st36" points="119.19,225.67 117.36,225.73 116.12,226.44 117.96,226.38 					"/>
				</g>
				<g>
					<polygon class="st35" points="110.85,202.76 109.02,202.82 110,205.52 111.83,205.45 					"/>
				</g>
				<g>
					<polygon class="st37" points="110.6,206.17 108.76,206.23 116.12,226.44 117.96,226.38 					"/>
				</g>
				<g>
					<polygon class="st36" points="111.83,205.45 110,205.52 108.76,206.23 110.6,206.17 					"/>
				</g>
				<g>
					<polygon class="st37" points="129.74,258.71 127.9,258.77 110.46,268.84 112.3,268.78 					"/>
				</g>
				<g>
					<polygon class="st36" points="113.28,271.47 111.44,271.53 110.21,272.25 112.04,272.19 					"/>
				</g>
				<g>
					<polygon class="st36" points="110.85,202.76 109.02,202.82 107.78,203.54 109.62,203.48 					"/>
				</g>
				<g>
					<polygon class="st38" points="111.06,269.49 112.04,272.19 113.28,271.47 130.72,261.4 131.95,260.69 130.97,258 
						129.74,258.71 112.3,268.78 					"/>
				</g>
				<g>
					<polygon class="st35" points="111.06,269.49 109.23,269.55 110.21,272.25 112.04,272.19 					"/>
				</g>
				<g>
					<polygon class="st36" points="112.3,268.78 110.46,268.84 109.23,269.55 111.06,269.49 					"/>
				</g>
				<g>
					<polygon class="st37" points="124.34,243.89 122.5,243.95 105.06,254.01 106.9,253.95 					"/>
				</g>
				<g>
					<polygon class="st35" points="104.47,185.26 102.64,185.31 103.62,188.01 105.45,187.95 					"/>
				</g>
				<g>
					<polygon class="st36" points="107.88,256.66 106.05,256.72 104.81,257.43 106.65,257.37 					"/>
				</g>
				<g>
					<polygon class="st36" points="105.45,187.95 103.62,188.01 102.38,188.72 104.22,188.66 					"/>
				</g>
				<g>
					<polygon class="st37" points="104.22,188.66 102.38,188.72 107.78,203.54 109.62,203.48 					"/>
				</g>
				<g>
					<polygon class="st35" points="105.66,254.67 103.83,254.73 104.81,257.43 106.65,257.37 					"/>
				</g>
				<g>
					<polygon class="st38" points="105.66,254.67 106.65,257.37 107.88,256.66 125.32,246.59 126.56,245.88 125.57,243.17 
						124.34,243.89 106.9,253.95 					"/>
				</g>
				<g>
					<polygon class="st36" points="106.9,253.95 105.06,254.01 103.83,254.73 105.66,254.67 					"/>
				</g>
				<g>
					<polygon class="st36" points="104.47,185.26 102.64,185.31 101.41,186.03 103.24,185.97 					"/>
				</g>
				<g>
					<polygon class="st37" points="117.96,226.38 116.12,226.44 98.69,236.5 100.52,236.45 					"/>
				</g>
				<g>
					<polygon class="st36" points="101.5,239.14 99.67,239.2 98.43,239.91 100.27,239.85 					"/>
				</g>
				<g>
					<polygon class="st35" points="97.6,166.39 95.77,166.45 96.75,169.14 98.58,169.09 					"/>
				</g>
				<g>
					<polygon class="st36" points="98.58,169.09 96.75,169.14 95.51,169.86 97.35,169.8 					"/>
				</g>
				<g>
					<polygon class="st37" points="97.35,169.8 95.51,169.86 101.41,186.03 103.24,185.97 					"/>
				</g>
				<g>
					<polygon class="st35" points="99.29,237.16 97.45,237.22 98.43,239.91 100.27,239.85 					"/>
				</g>
				<g>
					<polygon class="st36" points="100.52,236.45 98.69,236.5 97.45,237.22 99.29,237.16 					"/>
				</g>
				<g>
					<polygon class="st38" points="99.29,237.16 100.27,239.85 101.5,239.14 118.94,229.07 120.18,228.36 119.19,225.67 
						117.96,226.38 100.52,236.45 					"/>
				</g>
				<g>
					<polygon class="st36" points="97.6,166.39 95.77,166.45 94.53,167.16 96.37,167.11 					"/>
				</g>
				<g>
					<polygon class="st35" points="91.23,148.88 89.39,148.94 90.37,151.64 92.21,151.58 					"/>
				</g>
				<g>
					<polygon class="st37" points="90.97,152.29 89.14,152.35 94.53,167.16 96.37,167.11 					"/>
				</g>
				<g>
					<polygon class="st36" points="92.21,151.58 90.37,151.64 89.14,152.35 90.97,152.29 					"/>
				</g>
				<g>
					<polygon class="st37" points="109.62,203.48 107.78,203.54 90.35,213.6 92.18,213.54 					"/>
				</g>
				<g>
					<polygon class="st36" points="91.23,148.88 89.39,148.94 88.16,149.66 89.99,149.6 					"/>
				</g>
				<g>
					<polygon class="st36" points="93.16,216.23 91.33,216.3 90.09,217.01 91.93,216.95 					"/>
				</g>
				<g>
					<polygon class="st36" points="92.18,213.54 90.35,213.6 89.11,214.32 90.95,214.26 					"/>
				</g>
				<g>
					<polygon class="st38" points="90.95,214.26 91.93,216.95 93.16,216.23 110.6,206.17 111.83,205.45 110.85,202.76 
						109.62,203.48 92.18,213.54 					"/>
				</g>
				<g>
					<polygon class="st35" points="90.95,214.26 89.11,214.32 90.09,217.01 91.93,216.95 					"/>
				</g>
				<g>
					<polygon class="st37" points="88.32,144.99 86.48,145.05 88.16,149.66 89.99,149.6 					"/>
				</g>
				<g>
					<polygon class="st38" points="90.79,143.57 88.95,143.62 86.48,145.05 88.32,144.99 					"/>
				</g>
				<g>
					<polygon class="st38" points="88.32,144.99 89.99,149.6 91.23,148.88 92.21,151.58 90.97,152.29 96.37,167.11 97.6,166.39 
						98.58,169.09 97.35,169.8 103.24,185.97 104.47,185.26 105.45,187.95 104.22,188.66 109.62,203.48 110.85,202.76 
						111.83,205.45 110.6,206.17 117.96,226.38 119.19,225.67 120.18,228.36 118.94,229.07 124.34,243.89 125.57,243.17 
						126.56,245.88 125.32,246.59 129.74,258.71 130.97,258 131.95,260.69 130.72,261.4 131.92,264.71 134.39,263.29 90.79,143.57 
											"/>
				</g>
				<g>
					<polygon class="st37" points="103.24,185.97 101.41,186.03 83.97,196.1 85.8,196.04 					"/>
				</g>
				<g>
					<polygon class="st36" points="86.79,198.73 84.95,198.79 83.71,199.5 85.55,199.44 					"/>
				</g>
				<g>
					<polygon class="st38" points="84.57,196.75 85.55,199.44 86.79,198.73 104.22,188.66 105.45,187.95 104.47,185.26 
						103.24,185.97 85.8,196.04 					"/>
				</g>
				<g>
					<polygon class="st35" points="84.57,196.75 82.73,196.81 83.71,199.5 85.55,199.44 					"/>
				</g>
				<g>
					<polygon class="st36" points="85.8,196.04 83.97,196.1 82.73,196.81 84.57,196.75 					"/>
				</g>
				<g>
					<polygon class="st37" points="96.37,167.11 94.53,167.16 77.1,177.23 78.93,177.17 					"/>
				</g>
				<g>
					<polygon class="st36" points="79.91,179.86 78.08,179.92 76.84,180.64 78.68,180.58 					"/>
				</g>
				<g>
					<polygon class="st36" points="78.93,177.17 77.1,177.23 75.86,177.94 77.7,177.89 					"/>
				</g>
				<g>
					<polygon class="st38" points="77.7,177.89 78.68,180.58 79.91,179.86 97.35,169.8 98.58,169.09 97.6,166.39 96.37,167.11 
						78.93,177.17 					"/>
				</g>
				<g>
					<polygon class="st35" points="77.7,177.89 75.86,177.94 76.84,180.64 78.68,180.58 					"/>
				</g>
				<g>
					<polygon class="st37" points="89.99,149.6 88.16,149.66 70.72,159.72 72.56,159.67 					"/>
				</g>
				<g>
					<polygon class="st36" points="73.54,162.36 71.7,162.42 70.46,163.13 72.3,163.07 					"/>
				</g>
				<g>
					<polygon class="st35" points="71.32,160.38 69.48,160.44 70.46,163.13 72.3,163.07 					"/>
				</g>
				<g>
					<polygon class="st36" points="72.56,159.67 70.72,159.72 69.48,160.44 71.32,160.38 					"/>
				</g>
				<g>
					<polygon class="st38" points="71.32,160.38 72.3,163.07 73.54,162.36 90.97,152.29 92.21,151.58 91.23,148.88 89.99,149.6 
						72.56,159.67 					"/>
				</g>
				<g>
					<polygon class="st38" points="68.41,156.48 112.02,276.21 114.49,274.78 113.28,271.47 112.04,272.19 111.06,269.49 
						112.3,268.78 107.88,256.66 106.65,257.37 105.66,254.67 106.9,253.95 101.5,239.14 100.27,239.85 99.29,237.16 100.52,236.45 
						93.16,216.23 91.93,216.95 90.95,214.26 92.18,213.54 86.79,198.73 85.55,199.44 84.57,196.75 85.8,196.04 79.91,179.86 
						78.68,180.58 77.7,177.89 78.93,177.17 73.54,162.36 72.3,163.07 71.32,160.38 72.56,159.67 70.88,155.06 					"/>
				</g>
				<g>
					<polygon class="st37" points="68.41,156.48 66.57,156.54 110.18,276.27 112.02,276.21 					"/>
				</g>
				<g>
					<polygon class="st38" points="70.88,155.06 69.04,155.12 66.57,156.54 68.41,156.48 					"/>
				</g>
			</g>
		</g>
		<g>
			<path class="st39" d="M92.74,156.2c0,0-1.78-6.56-4.42-6.9c-2.63-0.34-3.62,1.74-3.13,2.24c0.49,0.49,4.22,2.88,5.23,5.6
				C90.43,157.14,92.06,157.49,92.74,156.2z"/>
			<path class="st40" d="M113.61,159.94c1.61,0.73,2.99,3.99-1.82,6.21c-4.81,2.22-14.87,7.36-16.69,6.36
				c-1.47-0.81-3.17-3.11,2.66-6.38C103.59,162.87,109.63,158.14,113.61,159.94z"/>
			<path class="st40" d="M98.72,171.25c0,0-3.11,2.44-5.12-0.24c-2.01-2.68-4.25-15.36-4.25-15.36s3.06-0.22,3.33-1.81
				C92.69,153.83,100.17,168.07,98.72,171.25z"/>
			<g>
				<path class="st41" d="M112.64,238.87c0,0-2.18,0.52-1.53,1.75c0.64,1.22,3.35,2.93,3.76,3.71c0.4,0.77,2.73,3.46,3.37,3.14
					c0.65-0.33,2.41-0.08,1.92-3.34C119.68,240.87,115.57,238.47,112.64,238.87z"/>
			</g>
			<g>
				<path class="st41" d="M115.52,245.84c0,0,1.66,2.89-0.82,4.12c-2.49,1.24-2.03-0.56-7.47,2.01c-5.44,2.58-6.68-0.25-6.68-0.94
					c0-0.69,3.59-2.63,4.77-3.2c1.19-0.57,3.44-1.63,3.44-1.63l6.79-1.34L115.52,245.84z"/>
			</g>
			<g>
				<path class="st42" d="M115.61,195.16c0,0,1.71,18.96,1.9,21.1c0.19,2.14,4.05,18.76,3.27,26.23c0,0-3.77,4.51-7.79,0.69
					c0,0-3.02-20.97-4.5-25.63c-1.47-4.66-2.4-19.24-2.4-19.24L115.61,195.16z"/>
			</g>
			<g>
				<path class="st42" d="M109.03,193.47c0,0,1.45,12.24,2.84,24.4c0,0,4.08,23.86,4.18,27.39c0,0-7.28,3.4-8.76-0.06
					c0,0-3.92-20.93-4.97-25.26c-1.05-4.33-4.79-17.81-4.44-25.18C98.22,187.4,109.03,193.47,109.03,193.47z"/>
			</g>
			<g>
				<path class="st43" d="M116.05,245.26c-0.11-3.54-4.18-27.39-4.18-27.39c-0.94-8.18-2.06-17.76-2.59-22.26l-5,2.03
					c0,0-1,11.04,2.16,24.36c2.44,10.31,4.62,20.5,5.49,24.58C114.05,246.19,116.05,245.26,116.05,245.26z"/>
			</g>
			<g>
				<path class="st43" d="M120.78,242.49c0.78-7.48-3.08-24.1-3.27-26.23c-0.18-2.03-1.74-19.32-1.88-20.96l-3.9,3.58
					c0,0-0.13,13.68,1.88,21.28c1.83,6.92,2.26,20.67,3.19,24.54C119.1,244.49,120.78,242.49,120.78,242.49z"/>
			</g>
			<g>
				<path class="st44" d="M113.28,160.01c0,0,4.22,1.55,2.72,8.6c-1.5,7.05-1.94,15.1-0.66,17.3c8.6,14.7,6.88,30.36,6.88,30.36
					s0.44,6.24-10.5,7.73c-3.65,0.5-14.8-0.61-13.85-7.73c0.95-7.13-1.24-33.87-1.8-36.51c-0.57-2.64-2.77-7.79,3.49-12.14
					C105.82,163.28,108.99,160.22,113.28,160.01z"/>
			</g>
			<g>
				<g>
					<path class="st39" d="M108.17,157.18c0,0-0.03,3.6,1.44,5.68c1.33,1.89-6.83,4.68-7.23,2.83c-0.04-0.2,1.22-3.44-1.21-6.83
						C99.9,157.08,108.17,157.18,108.17,157.18z"/>
				</g>
				<g>
					<path class="st45" d="M109.59,163c-1.09-1.55-1.36-3.93-1.43-5.06l-5.77,3.72c0,0.01,0,0.01,0.01,0.01
						c0.23,0.03,4.47,0.61,5.7,3.48C109.3,164.49,110.07,163.69,109.59,163z"/>
				</g>
				<g>
					<path class="st39" d="M98.3,148.74c0,0-0.94,3.37-0.36,6.12c0.61,2.96,0.23,3.61,0.57,4.92c0.14,0.56,0.28,1.41,0.9,1.88
						c1.02,0.79,2.96,0.9,5.43-0.33c2.99-1.49,5.79-6.15,4.02-9.85C107.09,147.78,102.63,145.08,98.3,148.74z"/>
				</g>
				<g>
					<path class="st46" d="M109.19,155.66c-1.64-3.32-5.21-7.13-5.2-7.36c0-0.14-1.1-0.66-2.35-1.22c-1.08,0.19-2.22,0.71-3.34,1.66
						c0,0-0.25,0.9-0.42,2.15c0.84,0.75,2.46,1.52,2.76,2.2c0.72,1.6,0.71,4.15,0.34,5.31c-0.37,1.17,1.81,2.57,1.5,3.6
						c-0.02,0.05-0.01,0.09,0,0.13c0.71-0.13,1.5-0.39,2.35-0.81C106.74,160.38,108.58,158.13,109.19,155.66z"/>
				</g>
				<g>
					<path class="st47" d="M97.23,147.52c0,0-0.14,2.81,2.74,3.84c1.73,0.61,1.88,3.27,1.85,3.77c-0.02,0.5-0.25,2.77-0.02,3.04
						c0.44,0.51,1.53-1.35,2.14-1.3c1.59,0.13,1.15,1.64-0.09,3.31c-1.31,1.78,2.7,1.99,4.37,0.46c0.89-0.81,1.2-1.28,2.19-3.95
						c1.43-3.89,1.03-8.33-3.6-10.2C102.19,144.62,100.05,148.29,97.23,147.52z"/>
				</g>
				<g>
					<path class="st48" d="M108.22,160.64c0.89-0.81,1.2-1.28,2.19-3.95c1.43-3.89,1.03-8.33-3.6-10.2
						c-4.62-1.87-6.76,1.8-9.59,1.04c0,0-0.02,0.48,0.15,1.11c1.4,0.07,5.27,0.39,6.42,1.9c1.43,1.87,2.68,1.07,2.86,3.57
						c0.18,2.41,1.15,5.47-2.72,7.28C105.56,162.29,107.57,161.24,108.22,160.64z"/>
				</g>
			</g>
			<g>
				<path class="st49" d="M102.73,164.54l-2.47,2.6c0,0,8.76,1.48,10.78-2.96c0.28-0.63-0.36-2.55-1.89-2.75
					C109.15,161.42,109.24,164.84,102.73,164.54z"/>
			</g>
			<g>
				<path class="st40" d="M101.39,168.42c1.77-0.09,4.48,2.18,1.21,6.35c-3.27,4.17-9.87,13.34-11.94,13.27
					c-1.68-0.05-4.24-1.32-0.55-6.88C93.81,175.6,97.03,168.64,101.39,168.42z"/>
				<g>
					<g>
						<path class="st39" d="M78.81,175.57c0,0-2.69-1.31-3.41-1.41c-0.72-0.1-1.99-1.62-2.26-2.51c-0.27-0.89-0.72-3.33,0.56-2.88
							c1.29,0.45,1.8,0.94,2.64,1.1c0.84,0.17,2.28,1.09,2.63,1.6c0.35,0.51,1.45,2.15,1.45,2.15L78.81,175.57z"/>
					</g>
				</g>
				<path class="st40" d="M93.3,185.28c0,0-1.65,3.59-4.66,2.12c-3.01-1.47-10.79-11.73-10.79-11.73s2.62-1.59,2.14-3.13
					C79.99,172.54,93.14,181.8,93.3,185.28z"/>
			</g>
		</g>
	</g>
</g>
</svg>
