<?xml version="1.0" encoding="utf-8"?>
<!-- Generator: Adobe Illustrator 27.6.1, SVG Export Plug-In . SVG Version: 6.00 Build 0)  -->
<svg version="1.1" id="layer" xmlns="http://www.w3.org/2000/svg" xmlns:xlink="http://www.w3.org/1999/xlink" x="0px" y="0px"
	 viewBox="0 0 171.4 313.4" style="enable-background:new 0 0 171.4 313.4;" xml:space="preserve">
<style type="text/css">
	.st0{fill:#375A64;}
	.st1{fill:#1A2E35;}
	.st2{fill:#2B454E;}
	.st3{fill:#D268CC;}
	.st4{opacity:0.5;fill:#FFFFFF;}
	.st5{opacity:0.3;fill:#FFFFFF;}
	.st6{opacity:0.5;}
	.st7{fill:#FFFFFF;}
	.st8{opacity:0.3;}
	.st9{opacity:0.2;}
	.st10{fill:#E1E1E1;}
	.st11{opacity:0.4;}
	.st12{opacity:0.6;fill:#FFFFFF;}
	.st13{opacity:0.35;fill:#FFFFFF;}
	.st14{opacity:0.4;fill:#FFFFFF;}
</style>
<g id="layer2">
</g>
<g id="layer3">
</g>
<g id="Crane_00000052074827464583774090000004696054240969208998_">
	<g id="Base">
		<g>
			<g>
				<g>
					<polygon class="st0" points="103.6,263.7 76.5,279.3 22.4,248 49.4,232.4 					"/>
				</g>
				<polygon class="st1" points="103.6,263.7 76.5,279.3 76.5,282.9 103.6,267.2 				"/>
				<g>
					<polygon class="st2" points="22.4,248 22.4,251.6 76.5,282.9 76.5,279.3 					"/>
				</g>
			</g>
		</g>
		<g>
			<g>
				<g>
					<polygon class="st3" points="88.5,250.4 72,259.9 38.8,240.8 55.4,231.2 					"/>
					<polygon class="st4" points="88.5,250.4 72,259.9 38.8,240.8 55.4,231.2 					"/>
				</g>
				<polygon class="st3" points="88.5,250.4 72,259.9 72,270.3 88.5,260.7 				"/>
				<g>
					<polygon class="st3" points="38.8,240.8 38.8,251.1 72,270.3 72,259.9 					"/>
					<polygon class="st5" points="38.8,240.8 38.8,251.1 72,270.3 72,259.9 					"/>
					<polygon class="st0" points="38.8,243.6 38.8,251.1 72,270.3 72,262.8 					"/>
					<polygon class="st2" points="88.5,253.2 88.5,260.7 72,270.3 72,262.8 					"/>
				</g>
			</g>
			<g>
				<polygon class="st3" points="62.4,257.3 60.5,256.2 52.8,259.2 54.7,260.3 				"/>
				<polygon class="st3" points="49.9,257.5 57.6,254.5 55.7,253.4 48,256.4 				"/>
				<polygon class="st3" points="72,267.4 72,265.6 67.2,267.5 69.1,268.6 				"/>
				<polygon class="st3" points="52.8,251.7 50.9,250.6 43.2,253.7 45.1,254.8 				"/>
				<polygon class="st3" points="38.8,248.3 43.6,246.4 41.7,245.3 38.8,246.5 				"/>
				<polygon class="st3" points="48.4,249.2 46.5,248.1 38.8,251.1 40.7,252.2 				"/>
				<polygon class="st3" points="72,262.8 70.1,261.7 62.4,264.7 64.3,265.8 				"/>
				<polygon class="st3" points="67.2,260 65.3,258.9 57.6,262 59.5,263.1 				"/>
			</g>
			<g class="st6">
				<polygon class="st7" points="62.4,257.3 60.5,256.2 52.8,259.2 54.7,260.3 				"/>
				<polygon class="st7" points="49.9,257.5 57.6,254.5 55.7,253.4 48,256.4 				"/>
				<polygon class="st7" points="72,267.4 72,265.6 67.2,267.5 69.1,268.6 				"/>
				<polygon class="st7" points="52.8,251.7 50.9,250.6 43.2,253.7 45.1,254.8 				"/>
				<polygon class="st7" points="38.8,248.3 43.6,246.4 41.7,245.3 38.8,246.5 				"/>
				<polygon class="st7" points="48.4,249.2 46.5,248.1 38.8,251.1 40.7,252.2 				"/>
				<polygon class="st7" points="72,262.8 70.1,261.7 62.4,264.7 64.3,265.8 				"/>
				<polygon class="st7" points="67.2,260 65.3,258.9 57.6,262 59.5,263.1 				"/>
			</g>
			<g>
				<polygon class="st3" points="81.5,264.7 73.9,261.7 72,262.8 79.6,265.8 				"/>
				<polygon class="st3" points="76.8,260 84.4,263.1 86.3,262 78.6,258.9 				"/>
				<polygon class="st3" points="76.7,267.5 72,265.6 72,267.4 74.9,268.6 				"/>
				<polygon class="st3" points="88.5,258.2 83.4,256.2 81.5,257.3 88.5,260 				"/>
				<polygon class="st3" points="88.2,253.4 86.3,254.5 88.5,255.4 88.5,253.5 				"/>
			</g>
			<g class="st8">
				<polygon class="st7" points="81.5,264.7 73.9,261.7 72,262.8 79.6,265.8 				"/>
				<polygon class="st7" points="76.8,260 84.4,263.1 86.3,262 78.6,258.9 				"/>
				<polygon class="st7" points="76.7,267.5 72,265.6 72,267.4 74.9,268.6 				"/>
				<polygon class="st7" points="88.5,258.2 83.4,256.2 81.5,257.3 88.5,260 				"/>
				<polygon class="st7" points="88.2,253.4 86.3,254.5 88.5,255.4 88.5,253.5 				"/>
			</g>
		</g>
	</g>
	<g>
		<path class="st0" d="M140.2,179.8c0,1,0.8,1.8,1.7,1.8c1,0,1.7-0.8,1.7-1.8c0-1-0.8-1.8-1.7-1.8
			C141,178.1,140.2,178.8,140.2,179.8z"/>
		<g>
			<path class="st0" d="M142.7,191.8c0.3,0,0.5-0.1,0.8-0.2c0.7-0.4,1.1-1.3,1.1-2.5c0-0.3-0.2-0.5-0.5-0.5c-0.3,0-0.5,0.2-0.5,0.5
				c0,1-0.3,1.5-0.6,1.6c-0.2,0.1-0.4,0.1-0.7-0.1c-1-0.6-1.8-2.4-1.8-4c0-1,0.3-1.5,0.6-1.6c0.2-0.1,0.4-0.1,0.7,0.1
				c0.2,0.1,0.3,0.1,0.5,0c0.2-0.1,0.3-0.3,0.3-0.4v-3c0-0.3-0.2-0.5-0.5-0.5c-0.3,0-0.5,0.2-0.5,0.5v2.3c-0.3,0-0.7,0-1,0.2
				c-0.7,0.4-1.1,1.3-1.1,2.5c0,2,1,4.1,2.3,4.9C142,191.7,142.3,191.8,142.7,191.8z"/>
		</g>
		<g>
			<path class="st3" d="M139.3,171.7l3.5-2.1c0.1-0.1,0.3-0.1,0.4,0c0.1,0.1,1.7,1,1.8,1.1c0.1,0.1,0.2,0.2,0.2,0.4v3.1l-0.7,3.9
				l-3.2,1.9l-1.8-1.1l-0.7-3.1v-3.1C138.7,172.3,139,171.8,139.3,171.7z"/>
			<path class="st5" d="M139.3,171.7l3.5-2.1c0.1-0.1,0.3-0.1,0.4,0c0.1,0.1,1.7,1,1.8,1.1c0.1,0.1,0.2,0.2,0.2,0.4v3.1l-0.7,3.9
				l-3.2,1.9l-1.8-1.1l-0.7-3.1v-3.1C138.7,172.3,139,171.8,139.3,171.7z"/>
			<path class="st3" d="M141.2,180l-1.8-1.1l-0.7-3.1v-3.1c0-0.2,0.1-0.4,0.2-0.6l2.3,1.4V180z"/>
			<path class="st9" d="M141.2,180l-1.8-1.1l-0.7-3.1v-3.1c0-0.2,0.1-0.4,0.2-0.6l2.3,1.4V180z"/>
			<path class="st3" d="M144.6,170.7l-3.5,2.1c-0.3,0.2-0.5,0.7-0.5,1.1v3.1l0.7,3.1l3.2-1.9l0.7-3.9v-3.1
				C145.2,170.7,144.9,170.5,144.6,170.7z"/>
			<g>
				<polygon class="st1" points="143.7,178.5 140.6,176 140.6,176.9 140.8,178.2 142.3,179.3 				"/>
				<polygon class="st1" points="144.1,171 142.7,171.8 145.2,173.7 145.2,171.8 				"/>
				<path class="st1" d="M141.3,172.7l-0.2,0.1c-0.3,0.2-0.5,0.7-0.5,1.1v0.2l4.1,3.2l0.3-1.7L141.3,172.7z"/>
			</g>
		</g>
		<g>
			<path class="st0" d="M141,171.8c0.2,0,0.3-0.1,0.3-0.3v-35.7c0-0.2-0.1-0.3-0.3-0.3c-0.2,0-0.3,0.1-0.3,0.3v35.7
				C140.6,171.6,140.8,171.8,141,171.8z"/>
		</g>
		<g>
			<path class="st0" d="M142.4,170.9c0.2,0,0.3-0.1,0.3-0.3v-35.7c0-0.2-0.1-0.3-0.3-0.3c-0.2,0-0.3,0.1-0.3,0.3v35.7
				C142.1,170.8,142.2,170.9,142.4,170.9z"/>
		</g>
	</g>
	<g id="Crane">
		<g>
			<g>
				<g>
					<g>
						<path class="st10" d="M64.3,147.9c-0.1-0.1-0.2-0.2-0.2-0.3v-13.1c0-0.1,0.1-0.2,0.2-0.3l11.3-6.5c0.1-0.1,0.2-0.1,0.3,0
							c0.1,0.1,0.2,0.2,0.2,0.3v13.1c0,0.1-0.1,0.2-0.2,0.3l-11.3,6.5c-0.1,0-0.1,0-0.2,0C64.4,148,64.3,148,64.3,147.9z
							 M75.4,128.6l-10.6,6.1V147l10.6-6.1V128.6z"/>
					</g>
					<g>
						<path class="st10" d="M64.4,148c0.1,0,0.2-0.1,0.3-0.2l11.3-19.6c0.1-0.2,0-0.4-0.1-0.5c-0.2-0.1-0.4,0-0.5,0.1l-11.3,19.6
							c-0.1,0.2,0,0.4,0.1,0.5C64.3,148,64.4,148,64.4,148z"/>
					</g>
					<g>
						<path class="st10" d="M75.8,141.5c0.1,0,0.2-0.1,0.3-0.2c0.1-0.2,0-0.4-0.1-0.5l-11.3-6.5c-0.2-0.1-0.4,0-0.5,0.1
							c-0.1,0.2,0,0.4,0.1,0.5l11.3,6.5C75.6,141.4,75.7,141.5,75.8,141.5z"/>
					</g>
				</g>
				<g>
					<g>
						<path class="st10" d="M64.3,161c-0.1-0.1-0.2-0.2-0.2-0.3v-13.1c0-0.1,0.1-0.2,0.2-0.3l11.3-6.5c0.1-0.1,0.2-0.1,0.3,0
							c0.1,0.1,0.2,0.2,0.2,0.3v13.1c0,0.1-0.1,0.2-0.2,0.3L64.6,161c-0.1,0-0.1,0-0.2,0C64.4,161.1,64.3,161.1,64.3,161z
							 M75.4,141.7l-10.6,6.1v12.3l10.6-6.1V141.7z"/>
					</g>
					<g>
						<path class="st10" d="M64.4,161.1c0.1,0,0.2-0.1,0.3-0.2l11.3-19.6c0.1-0.2,0-0.4-0.1-0.5c-0.2-0.1-0.4,0-0.5,0.1l-11.3,19.6
							c-0.1,0.2,0,0.4,0.1,0.5C64.3,161.1,64.4,161.1,64.4,161.1z"/>
					</g>
					<g>
						<path class="st10" d="M75.8,154.5c0.1,0,0.2-0.1,0.3-0.2c0.1-0.2,0-0.4-0.1-0.5l-11.3-6.5c-0.2-0.1-0.4,0-0.5,0.1
							c-0.1,0.2,0,0.4,0.1,0.5l11.3,6.5C75.6,154.5,75.7,154.5,75.8,154.5z"/>
					</g>
				</g>
				<g>
					<g>
						<path class="st10" d="M64.3,174.1c-0.1-0.1-0.2-0.2-0.2-0.3v-13.1c0-0.1,0.1-0.2,0.2-0.3l11.3-6.5c0.1-0.1,0.2-0.1,0.3,0
							c0.1,0.1,0.2,0.2,0.2,0.3v13.1c0,0.1-0.1,0.2-0.2,0.3l-11.3,6.5c-0.1,0-0.1,0-0.2,0C64.4,174.1,64.3,174.1,64.3,174.1z
							 M75.4,154.8l-10.6,6.1v12.3l10.6-6.1V154.8z"/>
					</g>
					<g>
						<path class="st10" d="M64.4,174.1c0.1,0,0.2-0.1,0.3-0.2l11.3-19.6c0.1-0.2,0-0.4-0.1-0.5c-0.2-0.1-0.4,0-0.5,0.1l-11.3,19.6
							c-0.1,0.2,0,0.4,0.1,0.5C64.3,174.1,64.4,174.1,64.4,174.1z"/>
					</g>
					<g>
						<path class="st10" d="M75.8,167.6c0.1,0,0.2-0.1,0.3-0.2c0.1-0.2,0-0.4-0.1-0.5l-11.3-6.5c-0.2-0.1-0.4,0-0.5,0.1
							c-0.1,0.2,0,0.4,0.1,0.5l11.3,6.5C75.6,167.6,75.7,167.6,75.8,167.6z"/>
					</g>
				</g>
				<g>
					<g>
						<path class="st10" d="M64.3,187.2c-0.1-0.1-0.2-0.2-0.2-0.3v-13.1c0-0.1,0.1-0.2,0.2-0.3l11.3-6.5c0.1-0.1,0.2-0.1,0.3,0
							c0.1,0.1,0.2,0.2,0.2,0.3v13.1c0,0.1-0.1,0.2-0.2,0.3l-11.3,6.5c-0.1,0-0.1,0-0.2,0C64.4,187.2,64.3,187.2,64.3,187.2z
							 M75.4,167.9L64.8,174v12.3l10.6-6.1V167.9z"/>
					</g>
					<g>
						<path class="st10" d="M64.4,187.2c0.1,0,0.2-0.1,0.3-0.2l11.3-19.6c0.1-0.2,0-0.4-0.1-0.5c-0.2-0.1-0.4,0-0.5,0.1l-11.3,19.6
							c-0.1,0.2,0,0.4,0.1,0.5C64.3,187.2,64.4,187.2,64.4,187.2z"/>
					</g>
					<g>
						<path class="st10" d="M75.8,180.7c0.1,0,0.2-0.1,0.3-0.2c0.1-0.2,0-0.4-0.1-0.5l-11.3-6.5c-0.2-0.1-0.4,0-0.5,0.1
							c-0.1,0.2,0,0.4,0.1,0.5l11.3,6.5C75.6,180.7,75.7,180.7,75.8,180.7z"/>
					</g>
				</g>
				<g>
					<g>
						<path class="st10" d="M64.3,200.3c-0.1-0.1-0.2-0.2-0.2-0.3v-13.1c0-0.1,0.1-0.2,0.2-0.3l11.3-6.5c0.1-0.1,0.2-0.1,0.3,0
							c0.1,0.1,0.2,0.2,0.2,0.3v13.1c0,0.1-0.1,0.2-0.2,0.3l-11.3,6.5c-0.1,0-0.1,0-0.2,0C64.4,200.3,64.3,200.3,64.3,200.3z
							 M75.4,180.9l-10.6,6.1v12.3l10.6-6.1V180.9z"/>
					</g>
					<g>
						<path class="st10" d="M64.4,200.3c0.1,0,0.2-0.1,0.3-0.2l11.3-19.6c0.1-0.2,0-0.4-0.1-0.5c-0.2-0.1-0.4,0-0.5,0.1l-11.3,19.6
							c-0.1,0.2,0,0.4,0.1,0.5C64.3,200.3,64.4,200.3,64.4,200.3z"/>
					</g>
					<g>
						<path class="st10" d="M75.8,193.8c0.1,0,0.2-0.1,0.3-0.2c0.1-0.2,0-0.4-0.1-0.5l-11.3-6.5c-0.2-0.1-0.4,0-0.5,0.1
							c-0.1,0.2,0,0.4,0.1,0.5l11.3,6.5C75.6,193.7,75.7,193.8,75.8,193.8z"/>
					</g>
				</g>
				<g>
					<g>
						<path class="st10" d="M64.3,213.3c-0.1-0.1-0.2-0.2-0.2-0.3V200c0-0.1,0.1-0.2,0.2-0.3l11.3-6.5c0.1-0.1,0.2-0.1,0.3,0
							c0.1,0.1,0.2,0.2,0.2,0.3v13.1c0,0.1-0.1,0.2-0.2,0.3l-11.3,6.5c-0.1,0-0.1,0-0.2,0C64.4,213.4,64.3,213.4,64.3,213.3z
							 M75.4,194l-10.6,6.1v12.3l10.6-6.1V194z"/>
					</g>
					<g>
						<path class="st10" d="M64.4,213.4c0.1,0,0.2-0.1,0.3-0.2l11.3-19.6c0.1-0.2,0-0.4-0.1-0.5c-0.2-0.1-0.4,0-0.5,0.1l-11.3,19.6
							c-0.1,0.2,0,0.4,0.1,0.5C64.3,213.4,64.4,213.4,64.4,213.4z"/>
					</g>
					<g>
						<path class="st10" d="M75.8,206.8c0.1,0,0.2-0.1,0.3-0.2c0.1-0.2,0-0.4-0.1-0.5l-11.3-6.5c-0.2-0.1-0.4,0-0.5,0.1
							c-0.1,0.2,0,0.4,0.1,0.5l11.3,6.5C75.6,206.8,75.7,206.8,75.8,206.8z"/>
					</g>
				</g>
				<g>
					<g>
						<path class="st10" d="M64.3,226.4c-0.1-0.1-0.2-0.2-0.2-0.3V213c0-0.1,0.1-0.2,0.2-0.3l11.3-6.5c0.1-0.1,0.2-0.1,0.3,0
							c0.1,0.1,0.2,0.2,0.2,0.3v13.1c0,0.1-0.1,0.2-0.2,0.3l-11.3,6.5c-0.1,0-0.1,0-0.2,0C64.4,226.5,64.3,226.4,64.3,226.4z
							 M75.4,207.1l-10.6,6.1v12.3l10.6-6.1V207.1z"/>
					</g>
					<g>
						<path class="st10" d="M64.4,226.5c0.1,0,0.2-0.1,0.3-0.2l11.3-19.6c0.1-0.2,0-0.4-0.1-0.5c-0.2-0.1-0.4,0-0.5,0.1l-11.3,19.6
							c-0.1,0.2,0,0.4,0.1,0.5C64.3,226.4,64.4,226.5,64.4,226.5z"/>
					</g>
					<g>
						<path class="st10" d="M75.8,219.9c0.1,0,0.2-0.1,0.3-0.2c0.1-0.2,0-0.4-0.1-0.5l-11.3-6.5c-0.2-0.1-0.4,0-0.5,0.1
							c-0.1,0.2,0,0.4,0.1,0.5l11.3,6.5C75.6,219.9,75.7,219.9,75.8,219.9z"/>
					</g>
				</g>
				<g>
					<g>
						<path class="st10" d="M64.3,239.5c-0.1-0.1-0.2-0.2-0.2-0.3v-13.1c0-0.1,0.1-0.2,0.2-0.3l11.3-6.5c0.1-0.1,0.2-0.1,0.3,0
							c0.1,0.1,0.2,0.2,0.2,0.3v13.1c0,0.1-0.1,0.2-0.2,0.3l-11.3,6.5c-0.1,0-0.1,0-0.2,0C64.4,239.5,64.3,239.5,64.3,239.5z
							 M75.4,220.2l-10.6,6.1v12.3l10.6-6.1V220.2z"/>
					</g>
					<g>
						<path class="st10" d="M64.4,239.5c0.1,0,0.2-0.1,0.3-0.2l11.3-19.6c0.1-0.2,0-0.4-0.1-0.5c-0.2-0.1-0.4,0-0.5,0.1L64.1,239
							c-0.1,0.2,0,0.4,0.1,0.5C64.3,239.5,64.4,239.5,64.4,239.5z"/>
					</g>
					<g>
						<path class="st10" d="M75.8,233c0.1,0,0.2-0.1,0.3-0.2c0.1-0.2,0-0.4-0.1-0.5l-11.3-6.5c-0.2-0.1-0.4,0-0.5,0.1
							c-0.1,0.2,0,0.4,0.1,0.5l11.3,6.5C75.6,233,75.7,233,75.8,233z"/>
					</g>
				</g>
				<g>
					<g>
						<path class="st10" d="M64.3,252.6c-0.1-0.1-0.2-0.2-0.2-0.3v-13.1c0-0.1,0.1-0.2,0.2-0.3l11.3-6.5c0.1-0.1,0.2-0.1,0.3,0
							c0.1,0.1,0.2,0.2,0.2,0.3v13.1c0,0.1-0.1,0.2-0.2,0.3l-11.3,6.5c-0.1,0-0.1,0-0.2,0C64.4,252.6,64.3,252.6,64.3,252.6z
							 M75.4,233.3l-10.6,6.1v12.3l10.6-6.1V233.3z"/>
					</g>
					<g>
						<path class="st10" d="M64.4,252.6c0.1,0,0.2-0.1,0.3-0.2l11.3-19.6c0.1-0.2,0-0.4-0.1-0.5c-0.2-0.1-0.4,0-0.5,0.1l-11.3,19.6
							c-0.1,0.2,0,0.4,0.1,0.5C64.3,252.6,64.4,252.6,64.4,252.6z"/>
					</g>
					<g>
						<path class="st10" d="M75.8,246.1c0.1,0,0.2-0.1,0.3-0.2c0.1-0.2,0-0.4-0.1-0.5l-11.3-6.5c-0.2-0.1-0.4,0-0.5,0.1
							c-0.1,0.2,0,0.4,0.1,0.5l11.3,6.5C75.6,246.1,75.7,246.1,75.8,246.1z"/>
					</g>
				</g>
			</g>
			<g class="st11">
				<g>
					<g>
						<path d="M64.3,147.9c-0.1-0.1-0.2-0.2-0.2-0.3v-13.1c0-0.1,0.1-0.2,0.2-0.3l11.3-6.5c0.1-0.1,0.2-0.1,0.3,0
							c0.1,0.1,0.2,0.2,0.2,0.3v13.1c0,0.1-0.1,0.2-0.2,0.3l-11.3,6.5c-0.1,0-0.1,0-0.2,0C64.4,148,64.3,148,64.3,147.9z
							 M75.4,128.6l-10.6,6.1V147l10.6-6.1V128.6z"/>
					</g>
					<g>
						<path d="M64.4,148c0.1,0,0.2-0.1,0.3-0.2l11.3-19.6c0.1-0.2,0-0.4-0.1-0.5c-0.2-0.1-0.4,0-0.5,0.1l-11.3,19.6
							c-0.1,0.2,0,0.4,0.1,0.5C64.3,148,64.4,148,64.4,148z"/>
					</g>
					<g>
						<path d="M75.8,141.5c0.1,0,0.2-0.1,0.3-0.2c0.1-0.2,0-0.4-0.1-0.5l-11.3-6.5c-0.2-0.1-0.4,0-0.5,0.1c-0.1,0.2,0,0.4,0.1,0.5
							l11.3,6.5C75.6,141.4,75.7,141.5,75.8,141.5z"/>
					</g>
				</g>
				<g>
					<g>
						<path d="M64.3,161c-0.1-0.1-0.2-0.2-0.2-0.3v-13.1c0-0.1,0.1-0.2,0.2-0.3l11.3-6.5c0.1-0.1,0.2-0.1,0.3,0
							c0.1,0.1,0.2,0.2,0.2,0.3v13.1c0,0.1-0.1,0.2-0.2,0.3L64.6,161c-0.1,0-0.1,0-0.2,0C64.4,161.1,64.3,161.1,64.3,161z
							 M75.4,141.7l-10.6,6.1v12.3l10.6-6.1V141.7z"/>
					</g>
					<g>
						<path d="M64.4,161.1c0.1,0,0.2-0.1,0.3-0.2l11.3-19.6c0.1-0.2,0-0.4-0.1-0.5c-0.2-0.1-0.4,0-0.5,0.1l-11.3,19.6
							c-0.1,0.2,0,0.4,0.1,0.5C64.3,161.1,64.4,161.1,64.4,161.1z"/>
					</g>
					<g>
						<path d="M75.8,154.5c0.1,0,0.2-0.1,0.3-0.2c0.1-0.2,0-0.4-0.1-0.5l-11.3-6.5c-0.2-0.1-0.4,0-0.5,0.1c-0.1,0.2,0,0.4,0.1,0.5
							l11.3,6.5C75.6,154.5,75.7,154.5,75.8,154.5z"/>
					</g>
				</g>
				<g>
					<g>
						<path d="M64.3,174.1c-0.1-0.1-0.2-0.2-0.2-0.3v-13.1c0-0.1,0.1-0.2,0.2-0.3l11.3-6.5c0.1-0.1,0.2-0.1,0.3,0
							c0.1,0.1,0.2,0.2,0.2,0.3v13.1c0,0.1-0.1,0.2-0.2,0.3l-11.3,6.5c-0.1,0-0.1,0-0.2,0C64.4,174.1,64.3,174.1,64.3,174.1z
							 M75.4,154.8l-10.6,6.1v12.3l10.6-6.1V154.8z"/>
					</g>
					<g>
						<path d="M64.4,174.1c0.1,0,0.2-0.1,0.3-0.2l11.3-19.6c0.1-0.2,0-0.4-0.1-0.5c-0.2-0.1-0.4,0-0.5,0.1l-11.3,19.6
							c-0.1,0.2,0,0.4,0.1,0.5C64.3,174.1,64.4,174.1,64.4,174.1z"/>
					</g>
					<g>
						<path d="M75.8,167.6c0.1,0,0.2-0.1,0.3-0.2c0.1-0.2,0-0.4-0.1-0.5l-11.3-6.5c-0.2-0.1-0.4,0-0.5,0.1c-0.1,0.2,0,0.4,0.1,0.5
							l11.3,6.5C75.6,167.6,75.7,167.6,75.8,167.6z"/>
					</g>
				</g>
				<g>
					<g>
						<path d="M64.3,187.2c-0.1-0.1-0.2-0.2-0.2-0.3v-13.1c0-0.1,0.1-0.2,0.2-0.3l11.3-6.5c0.1-0.1,0.2-0.1,0.3,0
							c0.1,0.1,0.2,0.2,0.2,0.3v13.1c0,0.1-0.1,0.2-0.2,0.3l-11.3,6.5c-0.1,0-0.1,0-0.2,0C64.4,187.2,64.3,187.2,64.3,187.2z
							 M75.4,167.9L64.8,174v12.3l10.6-6.1V167.9z"/>
					</g>
					<g>
						<path d="M64.4,187.2c0.1,0,0.2-0.1,0.3-0.2l11.3-19.6c0.1-0.2,0-0.4-0.1-0.5c-0.2-0.1-0.4,0-0.5,0.1l-11.3,19.6
							c-0.1,0.2,0,0.4,0.1,0.5C64.3,187.2,64.4,187.2,64.4,187.2z"/>
					</g>
					<g>
						<path d="M75.8,180.7c0.1,0,0.2-0.1,0.3-0.2c0.1-0.2,0-0.4-0.1-0.5l-11.3-6.5c-0.2-0.1-0.4,0-0.5,0.1c-0.1,0.2,0,0.4,0.1,0.5
							l11.3,6.5C75.6,180.7,75.7,180.7,75.8,180.7z"/>
					</g>
				</g>
				<g>
					<g>
						<path d="M64.3,200.3c-0.1-0.1-0.2-0.2-0.2-0.3v-13.1c0-0.1,0.1-0.2,0.2-0.3l11.3-6.5c0.1-0.1,0.2-0.1,0.3,0
							c0.1,0.1,0.2,0.2,0.2,0.3v13.1c0,0.1-0.1,0.2-0.2,0.3l-11.3,6.5c-0.1,0-0.1,0-0.2,0C64.4,200.3,64.3,200.3,64.3,200.3z
							 M75.4,180.9l-10.6,6.1v12.3l10.6-6.1V180.9z"/>
					</g>
					<g>
						<path d="M64.4,200.3c0.1,0,0.2-0.1,0.3-0.2l11.3-19.6c0.1-0.2,0-0.4-0.1-0.5c-0.2-0.1-0.4,0-0.5,0.1l-11.3,19.6
							c-0.1,0.2,0,0.4,0.1,0.5C64.3,200.3,64.4,200.3,64.4,200.3z"/>
					</g>
					<g>
						<path d="M75.8,193.8c0.1,0,0.2-0.1,0.3-0.2c0.1-0.2,0-0.4-0.1-0.5l-11.3-6.5c-0.2-0.1-0.4,0-0.5,0.1c-0.1,0.2,0,0.4,0.1,0.5
							l11.3,6.5C75.6,193.7,75.7,193.8,75.8,193.8z"/>
					</g>
				</g>
				<g>
					<g>
						<path d="M64.3,213.3c-0.1-0.1-0.2-0.2-0.2-0.3V200c0-0.1,0.1-0.2,0.2-0.3l11.3-6.5c0.1-0.1,0.2-0.1,0.3,0
							c0.1,0.1,0.2,0.2,0.2,0.3v13.1c0,0.1-0.1,0.2-0.2,0.3l-11.3,6.5c-0.1,0-0.1,0-0.2,0C64.4,213.4,64.3,213.4,64.3,213.3z
							 M75.4,194l-10.6,6.1v12.3l10.6-6.1V194z"/>
					</g>
					<g>
						<path d="M64.4,213.4c0.1,0,0.2-0.1,0.3-0.2l11.3-19.6c0.1-0.2,0-0.4-0.1-0.5c-0.2-0.1-0.4,0-0.5,0.1l-11.3,19.6
							c-0.1,0.2,0,0.4,0.1,0.5C64.3,213.4,64.4,213.4,64.4,213.4z"/>
					</g>
					<g>
						<path d="M75.8,206.8c0.1,0,0.2-0.1,0.3-0.2c0.1-0.2,0-0.4-0.1-0.5l-11.3-6.5c-0.2-0.1-0.4,0-0.5,0.1c-0.1,0.2,0,0.4,0.1,0.5
							l11.3,6.5C75.6,206.8,75.7,206.8,75.8,206.8z"/>
					</g>
				</g>
				<g>
					<g>
						<path d="M64.3,226.4c-0.1-0.1-0.2-0.2-0.2-0.3V213c0-0.1,0.1-0.2,0.2-0.3l11.3-6.5c0.1-0.1,0.2-0.1,0.3,0
							c0.1,0.1,0.2,0.2,0.2,0.3v13.1c0,0.1-0.1,0.2-0.2,0.3l-11.3,6.5c-0.1,0-0.1,0-0.2,0C64.4,226.5,64.3,226.4,64.3,226.4z
							 M75.4,207.1l-10.6,6.1v12.3l10.6-6.1V207.1z"/>
					</g>
					<g>
						<path d="M64.4,226.5c0.1,0,0.2-0.1,0.3-0.2l11.3-19.6c0.1-0.2,0-0.4-0.1-0.5c-0.2-0.1-0.4,0-0.5,0.1l-11.3,19.6
							c-0.1,0.2,0,0.4,0.1,0.5C64.3,226.4,64.4,226.5,64.4,226.5z"/>
					</g>
					<g>
						<path d="M75.8,219.9c0.1,0,0.2-0.1,0.3-0.2c0.1-0.2,0-0.4-0.1-0.5l-11.3-6.5c-0.2-0.1-0.4,0-0.5,0.1c-0.1,0.2,0,0.4,0.1,0.5
							l11.3,6.5C75.6,219.9,75.7,219.9,75.8,219.9z"/>
					</g>
				</g>
				<g>
					<g>
						<path d="M64.3,239.5c-0.1-0.1-0.2-0.2-0.2-0.3v-13.1c0-0.1,0.1-0.2,0.2-0.3l11.3-6.5c0.1-0.1,0.2-0.1,0.3,0
							c0.1,0.1,0.2,0.2,0.2,0.3v13.1c0,0.1-0.1,0.2-0.2,0.3l-11.3,6.5c-0.1,0-0.1,0-0.2,0C64.4,239.5,64.3,239.5,64.3,239.5z
							 M75.4,220.2l-10.6,6.1v12.3l10.6-6.1V220.2z"/>
					</g>
					<g>
						<path d="M64.4,239.5c0.1,0,0.2-0.1,0.3-0.2l11.3-19.6c0.1-0.2,0-0.4-0.1-0.5c-0.2-0.1-0.4,0-0.5,0.1L64.1,239
							c-0.1,0.2,0,0.4,0.1,0.5C64.3,239.5,64.4,239.5,64.4,239.5z"/>
					</g>
					<g>
						<path d="M75.8,233c0.1,0,0.2-0.1,0.3-0.2c0.1-0.2,0-0.4-0.1-0.5l-11.3-6.5c-0.2-0.1-0.4,0-0.5,0.1c-0.1,0.2,0,0.4,0.1,0.5
							l11.3,6.5C75.6,233,75.7,233,75.8,233z"/>
					</g>
				</g>
				<g>
					<g>
						<path d="M64.3,252.6c-0.1-0.1-0.2-0.2-0.2-0.3v-13.1c0-0.1,0.1-0.2,0.2-0.3l11.3-6.5c0.1-0.1,0.2-0.1,0.3,0
							c0.1,0.1,0.2,0.2,0.2,0.3v13.1c0,0.1-0.1,0.2-0.2,0.3l-11.3,6.5c-0.1,0-0.1,0-0.2,0C64.4,252.6,64.3,252.6,64.3,252.6z
							 M75.4,233.3l-10.6,6.1v12.3l10.6-6.1V233.3z"/>
					</g>
					<g>
						<path d="M64.4,252.6c0.1,0,0.2-0.1,0.3-0.2l11.3-19.6c0.1-0.2,0-0.4-0.1-0.5c-0.2-0.1-0.4,0-0.5,0.1l-11.3,19.6
							c-0.1,0.2,0,0.4,0.1,0.5C64.3,252.6,64.4,252.6,64.4,252.6z"/>
					</g>
					<g>
						<path d="M75.8,246.1c0.1,0,0.2-0.1,0.3-0.2c0.1-0.2,0-0.4-0.1-0.5l-11.3-6.5c-0.2-0.1-0.4,0-0.5,0.1c-0.1,0.2,0,0.4,0.1,0.5
							l11.3,6.5C75.6,246.1,75.7,246.1,75.8,246.1z"/>
					</g>
				</g>
			</g>
			<g>
				<g>
					<g>
						<path class="st10" d="M64.3,147.9l-11.3-6.5c-0.1-0.1-0.2-0.2-0.2-0.3l0-13.1c0-0.1,0.1-0.2,0.2-0.3c0.1-0.1,0.2-0.1,0.3,0
							l11.3,6.5c0.1,0.1,0.2,0.2,0.2,0.3v13.1c0,0.1-0.1,0.2-0.2,0.3c-0.1,0-0.1,0-0.2,0C64.4,148,64.3,148,64.3,147.9z M53.5,128.6
							l0,12.3l10.6,6.1v-12.3L53.5,128.6z"/>
					</g>
					<g>
						<path class="st10" d="M64.4,148c0.1,0,0.1,0,0.2,0c0.2-0.1,0.2-0.3,0.1-0.5l-11.3-19.6c-0.1-0.2-0.3-0.2-0.5-0.1
							c-0.2,0.1-0.2,0.3-0.1,0.5l11.3,19.6C64.2,147.9,64.3,148,64.4,148z"/>
					</g>
					<g>
						<path class="st10" d="M53.1,141.5c0.1,0,0.1,0,0.2,0l11.3-6.5c0.2-0.1,0.2-0.3,0.1-0.5c-0.1-0.2-0.3-0.2-0.5-0.1l-11.3,6.5
							c-0.2,0.1-0.2,0.3-0.1,0.5C52.9,141.4,53,141.5,53.1,141.5z"/>
					</g>
				</g>
				<g>
					<g>
						<path class="st10" d="M64.3,161l-11.3-6.5c-0.1-0.1-0.2-0.2-0.2-0.3l0-13.1c0-0.1,0.1-0.2,0.2-0.3c0.1-0.1,0.2-0.1,0.3,0
							l11.3,6.5c0.1,0.1,0.2,0.2,0.2,0.3v13.1c0,0.1-0.1,0.2-0.2,0.3c-0.1,0-0.1,0-0.2,0C64.4,161.1,64.3,161.1,64.3,161z
							 M53.5,141.7l0,12.3l10.6,6.1v-12.3L53.5,141.7z"/>
					</g>
					<g>
						<path class="st10" d="M64.4,161.1c0.1,0,0.1,0,0.2,0c0.2-0.1,0.2-0.3,0.1-0.5l-11.3-19.6c-0.1-0.2-0.3-0.2-0.5-0.1
							c-0.2,0.1-0.2,0.3-0.1,0.5l11.3,19.6C64.2,161,64.3,161.1,64.4,161.1z"/>
					</g>
					<g>
						<path class="st10" d="M53.1,154.5c0.1,0,0.1,0,0.2,0l11.3-6.5c0.2-0.1,0.2-0.3,0.1-0.5c-0.1-0.2-0.3-0.2-0.5-0.1l-11.3,6.5
							c-0.2,0.1-0.2,0.3-0.1,0.5C52.9,154.5,53,154.5,53.1,154.5z"/>
					</g>
				</g>
				<g>
					<g>
						<path class="st10" d="M64.3,174.1l-11.3-6.5c-0.1-0.1-0.2-0.2-0.2-0.3l0-13.1c0-0.1,0.1-0.2,0.2-0.3c0.1-0.1,0.2-0.1,0.3,0
							l11.3,6.5c0.1,0.1,0.2,0.2,0.2,0.3v13.1c0,0.1-0.1,0.2-0.2,0.3c-0.1,0-0.1,0-0.2,0C64.4,174.1,64.3,174.1,64.3,174.1z
							 M53.5,154.8l0,12.3l10.6,6.1v-12.3L53.5,154.8z"/>
					</g>
					<g>
						<path class="st10" d="M64.4,174.1c0.1,0,0.1,0,0.2,0c0.2-0.1,0.2-0.3,0.1-0.5L53.4,154c-0.1-0.2-0.3-0.2-0.5-0.1
							c-0.2,0.1-0.2,0.3-0.1,0.5L64.1,174C64.2,174.1,64.3,174.1,64.4,174.1z"/>
					</g>
					<g>
						<path class="st10" d="M53.1,167.6c0.1,0,0.1,0,0.2,0l11.3-6.5c0.2-0.1,0.2-0.3,0.1-0.5c-0.1-0.2-0.3-0.2-0.5-0.1L52.9,167
							c-0.2,0.1-0.2,0.3-0.1,0.5C52.9,167.5,53,167.6,53.1,167.6z"/>
					</g>
				</g>
				<g>
					<g>
						<path class="st10" d="M64.3,187.2l-11.3-6.5c-0.1-0.1-0.2-0.2-0.2-0.3l0-13.1c0-0.1,0.1-0.2,0.2-0.3c0.1-0.1,0.2-0.1,0.3,0
							l11.3,6.5c0.1,0.1,0.2,0.2,0.2,0.3v13.1c0,0.1-0.1,0.2-0.2,0.3c-0.1,0-0.1,0-0.2,0C64.4,187.2,64.3,187.2,64.3,187.2z
							 M53.5,167.9l0,12.3l10.6,6.1V174L53.5,167.9z"/>
					</g>
					<g>
						<path class="st10" d="M64.4,187.2c0.1,0,0.1,0,0.2,0c0.2-0.1,0.2-0.3,0.1-0.5l-11.3-19.6c-0.1-0.2-0.3-0.2-0.5-0.1
							c-0.2,0.1-0.2,0.3-0.1,0.5l11.3,19.6C64.2,187.2,64.3,187.2,64.4,187.2z"/>
					</g>
					<g>
						<path class="st10" d="M53.1,180.7c0.1,0,0.1,0,0.2,0l11.3-6.5c0.2-0.1,0.2-0.3,0.1-0.5c-0.1-0.2-0.3-0.2-0.5-0.1L52.9,180
							c-0.2,0.1-0.2,0.3-0.1,0.5C52.9,180.6,53,180.7,53.1,180.7z"/>
					</g>
				</g>
				<g>
					<g>
						<path class="st10" d="M64.3,200.3l-11.3-6.5c-0.1-0.1-0.2-0.2-0.2-0.3l0-13.1c0-0.1,0.1-0.2,0.2-0.3c0.1-0.1,0.2-0.1,0.3,0
							l11.3,6.5c0.1,0.1,0.2,0.2,0.2,0.3V200c0,0.1-0.1,0.2-0.2,0.3c-0.1,0-0.1,0-0.2,0C64.4,200.3,64.3,200.3,64.3,200.3z
							 M53.5,180.9l0,12.3l10.6,6.1v-12.3L53.5,180.9z"/>
					</g>
					<g>
						<path class="st10" d="M64.4,200.3c0.1,0,0.1,0,0.2,0c0.2-0.1,0.2-0.3,0.1-0.5l-11.3-19.6c-0.1-0.2-0.3-0.2-0.5-0.1
							c-0.2,0.1-0.2,0.3-0.1,0.5l11.3,19.6C64.2,200.2,64.3,200.3,64.4,200.3z"/>
					</g>
					<g>
						<path class="st10" d="M53.1,193.8c0.1,0,0.1,0,0.2,0l11.3-6.5c0.2-0.1,0.2-0.3,0.1-0.5c-0.1-0.2-0.3-0.2-0.5-0.1l-11.3,6.5
							c-0.2,0.1-0.2,0.3-0.1,0.5C52.9,193.7,53,193.8,53.1,193.8z"/>
					</g>
				</g>
				<g>
					<g>
						<path class="st10" d="M64.3,213.3l-11.3-6.5c-0.1-0.1-0.2-0.2-0.2-0.3l0-13.1c0-0.1,0.1-0.2,0.2-0.3c0.1-0.1,0.2-0.1,0.3,0
							l11.3,6.5c0.1,0.1,0.2,0.2,0.2,0.3V213c0,0.1-0.1,0.2-0.2,0.3c-0.1,0-0.1,0-0.2,0C64.4,213.4,64.3,213.4,64.3,213.3z
							 M53.5,194l0,12.3l10.6,6.1v-12.3L53.5,194z"/>
					</g>
					<g>
						<path class="st10" d="M64.4,213.4c0.1,0,0.1,0,0.2,0c0.2-0.1,0.2-0.3,0.1-0.5l-11.3-19.6c-0.1-0.2-0.3-0.2-0.5-0.1
							c-0.2,0.1-0.2,0.3-0.1,0.5l11.3,19.6C64.2,213.3,64.3,213.4,64.4,213.4z"/>
					</g>
					<g>
						<path class="st10" d="M53.1,206.8c0.1,0,0.1,0,0.2,0l11.3-6.5c0.2-0.1,0.2-0.3,0.1-0.5c-0.1-0.2-0.3-0.2-0.5-0.1l-11.3,6.5
							c-0.2,0.1-0.2,0.3-0.1,0.5C52.9,206.8,53,206.8,53.1,206.8z"/>
					</g>
				</g>
				<g>
					<g>
						<path class="st10" d="M64.3,226.4l-11.3-6.5c-0.1-0.1-0.2-0.2-0.2-0.3l0-13.1c0-0.1,0.1-0.2,0.2-0.3c0.1-0.1,0.2-0.1,0.3,0
							l11.3,6.5c0.1,0.1,0.2,0.2,0.2,0.3v13.1c0,0.1-0.1,0.2-0.2,0.3c-0.1,0-0.1,0-0.2,0C64.4,226.5,64.3,226.4,64.3,226.4z
							 M53.5,207.1l0,12.3l10.6,6.1v-12.3L53.5,207.1z"/>
					</g>
					<g>
						<path class="st10" d="M64.4,226.5c0.1,0,0.1,0,0.2,0c0.2-0.1,0.2-0.3,0.1-0.5l-11.3-19.6c-0.1-0.2-0.3-0.2-0.5-0.1
							c-0.2,0.1-0.2,0.3-0.1,0.5l11.3,19.6C64.2,226.4,64.3,226.5,64.4,226.5z"/>
					</g>
					<g>
						<path class="st10" d="M53.1,219.9c0.1,0,0.1,0,0.2,0l11.3-6.5c0.2-0.1,0.2-0.3,0.1-0.5c-0.1-0.2-0.3-0.2-0.5-0.1l-11.3,6.5
							c-0.2,0.1-0.2,0.3-0.1,0.5C52.9,219.9,53,219.9,53.1,219.9z"/>
					</g>
				</g>
				<g>
					<g>
						<path class="st10" d="M64.3,239.5L52.9,233c-0.1-0.1-0.2-0.2-0.2-0.3l0-13.1c0-0.1,0.1-0.2,0.2-0.3c0.1-0.1,0.2-0.1,0.3,0
							l11.3,6.5c0.1,0.1,0.2,0.2,0.2,0.3v13.1c0,0.1-0.1,0.2-0.2,0.3c-0.1,0-0.1,0-0.2,0C64.4,239.5,64.3,239.5,64.3,239.5z
							 M53.5,220.2l0,12.3l10.6,6.1v-12.3L53.5,220.2z"/>
					</g>
					<g>
						<path class="st10" d="M64.4,239.5c0.1,0,0.1,0,0.2,0c0.2-0.1,0.2-0.3,0.1-0.5l-11.3-19.6c-0.1-0.2-0.3-0.2-0.5-0.1
							c-0.2,0.1-0.2,0.3-0.1,0.5l11.3,19.6C64.2,239.5,64.3,239.5,64.4,239.5z"/>
					</g>
					<g>
						<path class="st10" d="M53.1,233c0.1,0,0.1,0,0.2,0l11.3-6.5c0.2-0.1,0.2-0.3,0.1-0.5c-0.1-0.2-0.3-0.2-0.5-0.1l-11.3,6.5
							c-0.2,0.1-0.2,0.3-0.1,0.5C52.9,232.9,53,233,53.1,233z"/>
					</g>
				</g>
				<g>
					<g>
						<path class="st10" d="M64.3,252.6L52.9,246c-0.1-0.1-0.2-0.2-0.2-0.3l0-13.1c0-0.1,0.1-0.2,0.2-0.3c0.1-0.1,0.2-0.1,0.3,0
							l11.3,6.5c0.1,0.1,0.2,0.2,0.2,0.3v13.1c0,0.1-0.1,0.2-0.2,0.3c-0.1,0-0.1,0-0.2,0C64.4,252.6,64.3,252.6,64.3,252.6z
							 M53.5,233.3l0,12.3l10.6,6.1v-12.3L53.5,233.3z"/>
					</g>
					<g>
						<path class="st10" d="M64.4,252.6c0.1,0,0.1,0,0.2,0c0.2-0.1,0.2-0.3,0.1-0.5l-11.3-19.6c-0.1-0.2-0.3-0.2-0.5-0.1
							c-0.2,0.1-0.2,0.3-0.1,0.5l11.3,19.6C64.2,252.6,64.3,252.6,64.4,252.6z"/>
					</g>
					<g>
						<path class="st10" d="M53.1,246.1c0.1,0,0.1,0,0.2,0l11.3-6.5c0.2-0.1,0.2-0.3,0.1-0.5c-0.1-0.2-0.3-0.2-0.5-0.1l-11.3,6.5
							c-0.2,0.1-0.2,0.3-0.1,0.5C52.9,246,53,246.1,53.1,246.1z"/>
					</g>
				</g>
			</g>
			<g class="st9">
				<g>
					<g>
						<path d="M64.3,147.9l-11.3-6.5c-0.1-0.1-0.2-0.2-0.2-0.3l0-13.1c0-0.1,0.1-0.2,0.2-0.3c0.1-0.1,0.2-0.1,0.3,0l11.3,6.5
							c0.1,0.1,0.2,0.2,0.2,0.3v13.1c0,0.1-0.1,0.2-0.2,0.3c-0.1,0-0.1,0-0.2,0C64.4,148,64.3,148,64.3,147.9z M53.5,128.6l0,12.3
							l10.6,6.1v-12.3L53.5,128.6z"/>
					</g>
					<g>
						<path d="M64.4,148c0.1,0,0.1,0,0.2,0c0.2-0.1,0.2-0.3,0.1-0.5l-11.3-19.6c-0.1-0.2-0.3-0.2-0.5-0.1c-0.2,0.1-0.2,0.3-0.1,0.5
							l11.3,19.6C64.2,147.9,64.3,148,64.4,148z"/>
					</g>
					<g>
						<path d="M53.1,141.5c0.1,0,0.1,0,0.2,0l11.3-6.5c0.2-0.1,0.2-0.3,0.1-0.5c-0.1-0.2-0.3-0.2-0.5-0.1l-11.3,6.5
							c-0.2,0.1-0.2,0.3-0.1,0.5C52.9,141.4,53,141.5,53.1,141.5z"/>
					</g>
				</g>
				<g>
					<g>
						<path d="M64.3,161l-11.3-6.5c-0.1-0.1-0.2-0.2-0.2-0.3l0-13.1c0-0.1,0.1-0.2,0.2-0.3c0.1-0.1,0.2-0.1,0.3,0l11.3,6.5
							c0.1,0.1,0.2,0.2,0.2,0.3v13.1c0,0.1-0.1,0.2-0.2,0.3c-0.1,0-0.1,0-0.2,0C64.4,161.1,64.3,161.1,64.3,161z M53.5,141.7l0,12.3
							l10.6,6.1v-12.3L53.5,141.7z"/>
					</g>
					<g>
						<path d="M64.4,161.1c0.1,0,0.1,0,0.2,0c0.2-0.1,0.2-0.3,0.1-0.5l-11.3-19.6c-0.1-0.2-0.3-0.2-0.5-0.1
							c-0.2,0.1-0.2,0.3-0.1,0.5l11.3,19.6C64.2,161,64.3,161.1,64.4,161.1z"/>
					</g>
					<g>
						<path d="M53.1,154.5c0.1,0,0.1,0,0.2,0l11.3-6.5c0.2-0.1,0.2-0.3,0.1-0.5c-0.1-0.2-0.3-0.2-0.5-0.1l-11.3,6.5
							c-0.2,0.1-0.2,0.3-0.1,0.5C52.9,154.5,53,154.5,53.1,154.5z"/>
					</g>
				</g>
				<g>
					<g>
						<path d="M64.3,174.1l-11.3-6.5c-0.1-0.1-0.2-0.2-0.2-0.3l0-13.1c0-0.1,0.1-0.2,0.2-0.3c0.1-0.1,0.2-0.1,0.3,0l11.3,6.5
							c0.1,0.1,0.2,0.2,0.2,0.3v13.1c0,0.1-0.1,0.2-0.2,0.3c-0.1,0-0.1,0-0.2,0C64.4,174.1,64.3,174.1,64.3,174.1z M53.5,154.8
							l0,12.3l10.6,6.1v-12.3L53.5,154.8z"/>
					</g>
					<g>
						<path d="M64.4,174.1c0.1,0,0.1,0,0.2,0c0.2-0.1,0.2-0.3,0.1-0.5L53.4,154c-0.1-0.2-0.3-0.2-0.5-0.1c-0.2,0.1-0.2,0.3-0.1,0.5
							L64.1,174C64.2,174.1,64.3,174.1,64.4,174.1z"/>
					</g>
					<g>
						<path d="M53.1,167.6c0.1,0,0.1,0,0.2,0l11.3-6.5c0.2-0.1,0.2-0.3,0.1-0.5c-0.1-0.2-0.3-0.2-0.5-0.1L52.9,167
							c-0.2,0.1-0.2,0.3-0.1,0.5C52.9,167.5,53,167.6,53.1,167.6z"/>
					</g>
				</g>
				<g>
					<g>
						<path d="M64.3,187.2l-11.3-6.5c-0.1-0.1-0.2-0.2-0.2-0.3l0-13.1c0-0.1,0.1-0.2,0.2-0.3c0.1-0.1,0.2-0.1,0.3,0l11.3,6.5
							c0.1,0.1,0.2,0.2,0.2,0.3v13.1c0,0.1-0.1,0.2-0.2,0.3c-0.1,0-0.1,0-0.2,0C64.4,187.2,64.3,187.2,64.3,187.2z M53.5,167.9
							l0,12.3l10.6,6.1V174L53.5,167.9z"/>
					</g>
					<g>
						<path d="M64.4,187.2c0.1,0,0.1,0,0.2,0c0.2-0.1,0.2-0.3,0.1-0.5l-11.3-19.6c-0.1-0.2-0.3-0.2-0.5-0.1
							c-0.2,0.1-0.2,0.3-0.1,0.5l11.3,19.6C64.2,187.2,64.3,187.2,64.4,187.2z"/>
					</g>
					<g>
						<path d="M53.1,180.7c0.1,0,0.1,0,0.2,0l11.3-6.5c0.2-0.1,0.2-0.3,0.1-0.5c-0.1-0.2-0.3-0.2-0.5-0.1L52.9,180
							c-0.2,0.1-0.2,0.3-0.1,0.5C52.9,180.6,53,180.7,53.1,180.7z"/>
					</g>
				</g>
				<g>
					<g>
						<path d="M64.3,200.3l-11.3-6.5c-0.1-0.1-0.2-0.2-0.2-0.3l0-13.1c0-0.1,0.1-0.2,0.2-0.3c0.1-0.1,0.2-0.1,0.3,0l11.3,6.5
							c0.1,0.1,0.2,0.2,0.2,0.3V200c0,0.1-0.1,0.2-0.2,0.3c-0.1,0-0.1,0-0.2,0C64.4,200.3,64.3,200.3,64.3,200.3z M53.5,180.9
							l0,12.3l10.6,6.1v-12.3L53.5,180.9z"/>
					</g>
					<g>
						<path d="M64.4,200.3c0.1,0,0.1,0,0.2,0c0.2-0.1,0.2-0.3,0.1-0.5l-11.3-19.6c-0.1-0.2-0.3-0.2-0.5-0.1
							c-0.2,0.1-0.2,0.3-0.1,0.5l11.3,19.6C64.2,200.2,64.3,200.3,64.4,200.3z"/>
					</g>
					<g>
						<path d="M53.1,193.8c0.1,0,0.1,0,0.2,0l11.3-6.5c0.2-0.1,0.2-0.3,0.1-0.5c-0.1-0.2-0.3-0.2-0.5-0.1l-11.3,6.5
							c-0.2,0.1-0.2,0.3-0.1,0.5C52.9,193.7,53,193.8,53.1,193.8z"/>
					</g>
				</g>
				<g>
					<g>
						<path d="M64.3,213.3l-11.3-6.5c-0.1-0.1-0.2-0.2-0.2-0.3l0-13.1c0-0.1,0.1-0.2,0.2-0.3c0.1-0.1,0.2-0.1,0.3,0l11.3,6.5
							c0.1,0.1,0.2,0.2,0.2,0.3V213c0,0.1-0.1,0.2-0.2,0.3c-0.1,0-0.1,0-0.2,0C64.4,213.4,64.3,213.4,64.3,213.3z M53.5,194l0,12.3
							l10.6,6.1v-12.3L53.5,194z"/>
					</g>
					<g>
						<path d="M64.4,213.4c0.1,0,0.1,0,0.2,0c0.2-0.1,0.2-0.3,0.1-0.5l-11.3-19.6c-0.1-0.2-0.3-0.2-0.5-0.1
							c-0.2,0.1-0.2,0.3-0.1,0.5l11.3,19.6C64.2,213.3,64.3,213.4,64.4,213.4z"/>
					</g>
					<g>
						<path d="M53.1,206.8c0.1,0,0.1,0,0.2,0l11.3-6.5c0.2-0.1,0.2-0.3,0.1-0.5c-0.1-0.2-0.3-0.2-0.5-0.1l-11.3,6.5
							c-0.2,0.1-0.2,0.3-0.1,0.5C52.9,206.8,53,206.8,53.1,206.8z"/>
					</g>
				</g>
				<g>
					<g>
						<path d="M64.3,226.4l-11.3-6.5c-0.1-0.1-0.2-0.2-0.2-0.3l0-13.1c0-0.1,0.1-0.2,0.2-0.3c0.1-0.1,0.2-0.1,0.3,0l11.3,6.5
							c0.1,0.1,0.2,0.2,0.2,0.3v13.1c0,0.1-0.1,0.2-0.2,0.3c-0.1,0-0.1,0-0.2,0C64.4,226.5,64.3,226.4,64.3,226.4z M53.5,207.1
							l0,12.3l10.6,6.1v-12.3L53.5,207.1z"/>
					</g>
					<g>
						<path d="M64.4,226.5c0.1,0,0.1,0,0.2,0c0.2-0.1,0.2-0.3,0.1-0.5l-11.3-19.6c-0.1-0.2-0.3-0.2-0.5-0.1
							c-0.2,0.1-0.2,0.3-0.1,0.5l11.3,19.6C64.2,226.4,64.3,226.5,64.4,226.5z"/>
					</g>
					<g>
						<path d="M53.1,219.9c0.1,0,0.1,0,0.2,0l11.3-6.5c0.2-0.1,0.2-0.3,0.1-0.5c-0.1-0.2-0.3-0.2-0.5-0.1l-11.3,6.5
							c-0.2,0.1-0.2,0.3-0.1,0.5C52.9,219.9,53,219.9,53.1,219.9z"/>
					</g>
				</g>
				<g>
					<g>
						<path d="M64.3,239.5L52.9,233c-0.1-0.1-0.2-0.2-0.2-0.3l0-13.1c0-0.1,0.1-0.2,0.2-0.3c0.1-0.1,0.2-0.1,0.3,0l11.3,6.5
							c0.1,0.1,0.2,0.2,0.2,0.3v13.1c0,0.1-0.1,0.2-0.2,0.3c-0.1,0-0.1,0-0.2,0C64.4,239.5,64.3,239.5,64.3,239.5z M53.5,220.2
							l0,12.3l10.6,6.1v-12.3L53.5,220.2z"/>
					</g>
					<g>
						<path d="M64.4,239.5c0.1,0,0.1,0,0.2,0c0.2-0.1,0.2-0.3,0.1-0.5l-11.3-19.6c-0.1-0.2-0.3-0.2-0.5-0.1
							c-0.2,0.1-0.2,0.3-0.1,0.5l11.3,19.6C64.2,239.5,64.3,239.5,64.4,239.5z"/>
					</g>
					<g>
						<path d="M53.1,233c0.1,0,0.1,0,0.2,0l11.3-6.5c0.2-0.1,0.2-0.3,0.1-0.5c-0.1-0.2-0.3-0.2-0.5-0.1l-11.3,6.5
							c-0.2,0.1-0.2,0.3-0.1,0.5C52.9,232.9,53,233,53.1,233z"/>
					</g>
				</g>
				<g>
					<g>
						<path d="M64.3,252.6L52.9,246c-0.1-0.1-0.2-0.2-0.2-0.3l0-13.1c0-0.1,0.1-0.2,0.2-0.3c0.1-0.1,0.2-0.1,0.3,0l11.3,6.5
							c0.1,0.1,0.2,0.2,0.2,0.3v13.1c0,0.1-0.1,0.2-0.2,0.3c-0.1,0-0.1,0-0.2,0C64.4,252.6,64.3,252.6,64.3,252.6z M53.5,233.3
							l0,12.3l10.6,6.1v-12.3L53.5,233.3z"/>
					</g>
					<g>
						<path d="M64.4,252.6c0.1,0,0.1,0,0.2,0c0.2-0.1,0.2-0.3,0.1-0.5l-11.3-19.6c-0.1-0.2-0.3-0.2-0.5-0.1
							c-0.2,0.1-0.2,0.3-0.1,0.5l11.3,19.6C64.2,252.6,64.3,252.6,64.4,252.6z"/>
					</g>
					<g>
						<path d="M53.1,246.1c0.1,0,0.1,0,0.2,0l11.3-6.5c0.2-0.1,0.2-0.3,0.1-0.5c-0.1-0.2-0.3-0.2-0.5-0.1l-11.3,6.5
							c-0.2,0.1-0.2,0.3-0.1,0.5C52.9,246,53,246.1,53.1,246.1z"/>
					</g>
				</g>
			</g>
		</g>
		<g>
			<polygon class="st3" points="64.4,134.6 83.3,123.7 64.4,112.8 45.6,123.7 			"/>
			<polygon class="st12" points="64.4,134.6 83.3,123.7 64.4,112.8 45.6,123.7 			"/>
			<polygon class="st3" points="83.3,123.7 64.4,134.6 64.4,138.9 83.3,128 			"/>
			<polygon class="st3" points="45.6,123.7 45.6,128 64.4,138.9 64.4,134.6 			"/>
			<polygon class="st13" points="45.6,123.7 45.6,128 64.4,138.9 64.4,134.6 			"/>
		</g>
		<g>
			<g>
				<g>
					<path class="st10" d="M64.3,104.4c-0.1-0.1-0.2-0.2-0.2-0.3V91c0-0.1,0.1-0.2,0.2-0.3l11.3-6.5c0.1-0.1,0.2-0.1,0.3,0
						c0.1,0.1,0.2,0.2,0.2,0.3v13.1c0,0.1-0.1,0.2-0.2,0.3l-11.3,6.5c-0.1,0-0.1,0-0.2,0C64.4,104.4,64.3,104.4,64.3,104.4z
						 M75.4,85l-10.6,6.1v12.3l10.6-6.1V85z"/>
				</g>
				<g>
					<path class="st10" d="M64.4,104.4c0.1,0,0.2-0.1,0.3-0.2l11.3-19.6c0.1-0.2,0-0.4-0.1-0.5c-0.2-0.1-0.4,0-0.5,0.1l-11.3,19.6
						c-0.1,0.2,0,0.4,0.1,0.5C64.3,104.4,64.4,104.4,64.4,104.4z"/>
				</g>
				<g>
					<path class="st10" d="M75.8,97.9c0.1,0,0.2-0.1,0.3-0.2c0.1-0.2,0-0.4-0.1-0.5l-11.3-6.5c-0.2-0.1-0.4,0-0.5,0.1
						c-0.1,0.2,0,0.4,0.1,0.5l11.3,6.5C75.6,97.8,75.7,97.9,75.8,97.9z"/>
				</g>
			</g>
			<g>
				<g>
					<path class="st10" d="M64.3,117.4c-0.1-0.1-0.2-0.2-0.2-0.3v-13.1c0-0.1,0.1-0.2,0.2-0.3l11.3-6.5c0.1-0.1,0.2-0.1,0.3,0
						c0.1,0.1,0.2,0.2,0.2,0.3v13.1c0,0.1-0.1,0.2-0.2,0.3l-11.3,6.5c-0.1,0-0.1,0-0.2,0C64.4,117.5,64.3,117.5,64.3,117.4z
						 M75.4,98.1l-10.6,6.1v12.3l10.6-6.1V98.1z"/>
				</g>
				<g>
					<path class="st10" d="M64.4,117.5c0.1,0,0.2-0.1,0.3-0.2l11.3-19.6c0.1-0.2,0-0.4-0.1-0.5c-0.2-0.1-0.4,0-0.5,0.1L64.1,117
						c-0.1,0.2,0,0.4,0.1,0.5C64.3,117.5,64.4,117.5,64.4,117.5z"/>
				</g>
				<g>
					<path class="st10" d="M75.8,110.9c0.1,0,0.2-0.1,0.3-0.2c0.1-0.2,0-0.4-0.1-0.5l-11.3-6.5c-0.2-0.1-0.4,0-0.5,0.1
						c-0.1,0.2,0,0.4,0.1,0.5l11.3,6.5C75.6,110.9,75.7,110.9,75.8,110.9z"/>
				</g>
			</g>
			<g>
				<g>
					<path class="st10" d="M64.3,130.5c-0.1-0.1-0.2-0.2-0.2-0.3v-13.1c0-0.1,0.1-0.2,0.2-0.3l11.3-6.5c0.1-0.1,0.2-0.1,0.3,0
						c0.1,0.1,0.2,0.2,0.2,0.3v13.1c0,0.1-0.1,0.2-0.2,0.3l-11.3,6.5c-0.1,0-0.1,0-0.2,0C64.4,130.6,64.3,130.5,64.3,130.5z
						 M75.4,111.2l-10.6,6.1v12.3l10.6-6.1V111.2z"/>
				</g>
				<g>
					<path class="st10" d="M64.4,130.6c0.1,0,0.2-0.1,0.3-0.2l11.3-19.6c0.1-0.2,0-0.4-0.1-0.5c-0.2-0.1-0.4,0-0.5,0.1L64.1,130
						c-0.1,0.2,0,0.4,0.1,0.5C64.3,130.5,64.4,130.6,64.4,130.6z"/>
				</g>
				<g>
					<path class="st10" d="M75.8,124c0.1,0,0.2-0.1,0.3-0.2c0.1-0.2,0-0.4-0.1-0.5l-11.3-6.5c-0.2-0.1-0.4,0-0.5,0.1
						c-0.1,0.2,0,0.4,0.1,0.5l11.3,6.5C75.6,124,75.7,124,75.8,124z"/>
				</g>
			</g>
		</g>
		<g class="st11">
			<g>
				<g>
					<path d="M64.3,104.4c-0.1-0.1-0.2-0.2-0.2-0.3V91c0-0.1,0.1-0.2,0.2-0.3l11.3-6.5c0.1-0.1,0.2-0.1,0.3,0
						c0.1,0.1,0.2,0.2,0.2,0.3v13.1c0,0.1-0.1,0.2-0.2,0.3l-11.3,6.5c-0.1,0-0.1,0-0.2,0C64.4,104.4,64.3,104.4,64.3,104.4z
						 M75.4,85l-10.6,6.1v12.3l10.6-6.1V85z"/>
				</g>
				<g>
					<path d="M64.4,104.4c0.1,0,0.2-0.1,0.3-0.2l11.3-19.6c0.1-0.2,0-0.4-0.1-0.5c-0.2-0.1-0.4,0-0.5,0.1l-11.3,19.6
						c-0.1,0.2,0,0.4,0.1,0.5C64.3,104.4,64.4,104.4,64.4,104.4z"/>
				</g>
				<g>
					<path d="M75.8,97.9c0.1,0,0.2-0.1,0.3-0.2c0.1-0.2,0-0.4-0.1-0.5l-11.3-6.5c-0.2-0.1-0.4,0-0.5,0.1c-0.1,0.2,0,0.4,0.1,0.5
						l11.3,6.5C75.6,97.8,75.7,97.9,75.8,97.9z"/>
				</g>
			</g>
			<g>
				<g>
					<path d="M64.3,117.4c-0.1-0.1-0.2-0.2-0.2-0.3v-13.1c0-0.1,0.1-0.2,0.2-0.3l11.3-6.5c0.1-0.1,0.2-0.1,0.3,0
						c0.1,0.1,0.2,0.2,0.2,0.3v13.1c0,0.1-0.1,0.2-0.2,0.3l-11.3,6.5c-0.1,0-0.1,0-0.2,0C64.4,117.5,64.3,117.5,64.3,117.4z
						 M75.4,98.1l-10.6,6.1v12.3l10.6-6.1V98.1z"/>
				</g>
				<g>
					<path d="M64.4,117.5c0.1,0,0.2-0.1,0.3-0.2l11.3-19.6c0.1-0.2,0-0.4-0.1-0.5c-0.2-0.1-0.4,0-0.5,0.1L64.1,117
						c-0.1,0.2,0,0.4,0.1,0.5C64.3,117.5,64.4,117.5,64.4,117.5z"/>
				</g>
				<g>
					<path d="M75.8,110.9c0.1,0,0.2-0.1,0.3-0.2c0.1-0.2,0-0.4-0.1-0.5l-11.3-6.5c-0.2-0.1-0.4,0-0.5,0.1c-0.1,0.2,0,0.4,0.1,0.5
						l11.3,6.5C75.6,110.9,75.7,110.9,75.8,110.9z"/>
				</g>
			</g>
			<g>
				<g>
					<path d="M64.3,130.5c-0.1-0.1-0.2-0.2-0.2-0.3v-13.1c0-0.1,0.1-0.2,0.2-0.3l11.3-6.5c0.1-0.1,0.2-0.1,0.3,0
						c0.1,0.1,0.2,0.2,0.2,0.3v13.1c0,0.1-0.1,0.2-0.2,0.3l-11.3,6.5c-0.1,0-0.1,0-0.2,0C64.4,130.6,64.3,130.5,64.3,130.5z
						 M75.4,111.2l-10.6,6.1v12.3l10.6-6.1V111.2z"/>
				</g>
				<g>
					<path d="M64.4,130.6c0.1,0,0.2-0.1,0.3-0.2l11.3-19.6c0.1-0.2,0-0.4-0.1-0.5c-0.2-0.1-0.4,0-0.5,0.1L64.1,130
						c-0.1,0.2,0,0.4,0.1,0.5C64.3,130.5,64.4,130.6,64.4,130.6z"/>
				</g>
				<g>
					<path d="M75.8,124c0.1,0,0.2-0.1,0.3-0.2c0.1-0.2,0-0.4-0.1-0.5l-11.3-6.5c-0.2-0.1-0.4,0-0.5,0.1c-0.1,0.2,0,0.4,0.1,0.5
						l11.3,6.5C75.6,124,75.7,124,75.8,124z"/>
				</g>
			</g>
		</g>
		<g>
			<g>
				<g>
					<path class="st10" d="M64.3,104.4l-11.3-6.5c-0.1-0.1-0.2-0.2-0.2-0.3V84.4c0-0.1,0.1-0.2,0.2-0.3c0.1-0.1,0.2-0.1,0.3,0
						l11.3,6.5c0.1,0.1,0.2,0.2,0.2,0.3v13.1c0,0.1-0.1,0.2-0.2,0.3c-0.1,0-0.1,0-0.2,0C64.4,104.4,64.3,104.4,64.3,104.4z M53.5,85
						v12.3l10.6,6.1V91.2L53.5,85z"/>
				</g>
				<g>
					<path class="st10" d="M64.4,104.4c0.1,0,0.1,0,0.2,0c0.2-0.1,0.2-0.3,0.1-0.5L53.4,84.3c-0.1-0.2-0.3-0.2-0.5-0.1
						c-0.2,0.1-0.2,0.3-0.1,0.5l11.3,19.6C64.2,104.3,64.3,104.4,64.4,104.4z"/>
				</g>
				<g>
					<path class="st10" d="M53.1,97.9c0.1,0,0.1,0,0.2,0l11.3-6.5c0.2-0.1,0.2-0.3,0.1-0.5c-0.1-0.2-0.3-0.2-0.5-0.1l-11.3,6.5
						c-0.2,0.1-0.2,0.3-0.1,0.5C52.9,97.8,53,97.9,53.1,97.9z"/>
				</g>
			</g>
			<g>
				<g>
					<path class="st10" d="M64.3,117.4l-11.3-6.5c-0.1-0.1-0.2-0.2-0.2-0.3V97.5c0-0.1,0.1-0.2,0.2-0.3c0.1-0.1,0.2-0.1,0.3,0
						l11.3,6.5c0.1,0.1,0.2,0.2,0.2,0.3v13.1c0,0.1-0.1,0.2-0.2,0.3c-0.1,0-0.1,0-0.2,0C64.4,117.5,64.3,117.5,64.3,117.4z
						 M53.5,98.1v12.3l10.6,6.1v-12.3L53.5,98.1z"/>
				</g>
				<g>
					<path class="st10" d="M64.4,117.5c0.1,0,0.1,0,0.2,0c0.2-0.1,0.2-0.3,0.1-0.5L53.4,97.3c-0.1-0.2-0.3-0.2-0.5-0.1
						c-0.2,0.1-0.2,0.3-0.1,0.5l11.3,19.6C64.2,117.4,64.3,117.5,64.4,117.5z"/>
				</g>
				<g>
					<path class="st10" d="M53.1,110.9c0.1,0,0.1,0,0.2,0l11.3-6.5c0.2-0.1,0.2-0.3,0.1-0.5c-0.1-0.2-0.3-0.2-0.5-0.1l-11.3,6.5
						c-0.2,0.1-0.2,0.3-0.1,0.5C52.9,110.9,53,110.9,53.1,110.9z"/>
				</g>
			</g>
			<g>
				<g>
					<path class="st10" d="M64.3,130.5L52.9,124c-0.1-0.1-0.2-0.2-0.2-0.3v-13.1c0-0.1,0.1-0.2,0.2-0.3c0.1-0.1,0.2-0.1,0.3,0
						l11.3,6.5c0.1,0.1,0.2,0.2,0.2,0.3v13.1c0,0.1-0.1,0.2-0.2,0.3c-0.1,0-0.1,0-0.2,0C64.4,130.6,64.3,130.5,64.3,130.5z
						 M53.5,111.2v12.3l10.6,6.1v-12.3L53.5,111.2z"/>
				</g>
				<g>
					<path class="st10" d="M64.4,130.6c0.1,0,0.1,0,0.2,0c0.2-0.1,0.2-0.3,0.1-0.5l-11.3-19.6c-0.1-0.2-0.3-0.2-0.5-0.1
						c-0.2,0.1-0.2,0.3-0.1,0.5l11.3,19.6C64.2,130.5,64.3,130.6,64.4,130.6z"/>
				</g>
				<g>
					<path class="st10" d="M53.1,124c0.1,0,0.1,0,0.2,0l11.3-6.5c0.2-0.1,0.2-0.3,0.1-0.5c-0.1-0.2-0.3-0.2-0.5-0.1l-11.3,6.5
						c-0.2,0.1-0.2,0.3-0.1,0.5C52.9,124,53,124,53.1,124z"/>
				</g>
			</g>
		</g>
		<g class="st9">
			<g>
				<g>
					<path d="M64.3,104.4l-11.3-6.5c-0.1-0.1-0.2-0.2-0.2-0.3V84.4c0-0.1,0.1-0.2,0.2-0.3c0.1-0.1,0.2-0.1,0.3,0l11.3,6.5
						c0.1,0.1,0.2,0.2,0.2,0.3v13.1c0,0.1-0.1,0.2-0.2,0.3c-0.1,0-0.1,0-0.2,0C64.4,104.4,64.3,104.4,64.3,104.4z M53.5,85v12.3
						l10.6,6.1V91.2L53.5,85z"/>
				</g>
				<g>
					<path d="M64.4,104.4c0.1,0,0.1,0,0.2,0c0.2-0.1,0.2-0.3,0.1-0.5L53.4,84.3c-0.1-0.2-0.3-0.2-0.5-0.1c-0.2,0.1-0.2,0.3-0.1,0.5
						l11.3,19.6C64.2,104.3,64.3,104.4,64.4,104.4z"/>
				</g>
				<g>
					<path d="M53.1,97.9c0.1,0,0.1,0,0.2,0l11.3-6.5c0.2-0.1,0.2-0.3,0.1-0.5c-0.1-0.2-0.3-0.2-0.5-0.1l-11.3,6.5
						c-0.2,0.1-0.2,0.3-0.1,0.5C52.9,97.8,53,97.9,53.1,97.9z"/>
				</g>
			</g>
			<g>
				<g>
					<path d="M64.3,117.4l-11.3-6.5c-0.1-0.1-0.2-0.2-0.2-0.3V97.5c0-0.1,0.1-0.2,0.2-0.3c0.1-0.1,0.2-0.1,0.3,0l11.3,6.5
						c0.1,0.1,0.2,0.2,0.2,0.3v13.1c0,0.1-0.1,0.2-0.2,0.3c-0.1,0-0.1,0-0.2,0C64.4,117.5,64.3,117.5,64.3,117.4z M53.5,98.1v12.3
						l10.6,6.1v-12.3L53.5,98.1z"/>
				</g>
				<g>
					<path d="M64.4,117.5c0.1,0,0.1,0,0.2,0c0.2-0.1,0.2-0.3,0.1-0.5L53.4,97.3c-0.1-0.2-0.3-0.2-0.5-0.1c-0.2,0.1-0.2,0.3-0.1,0.5
						l11.3,19.6C64.2,117.4,64.3,117.5,64.4,117.5z"/>
				</g>
				<g>
					<path d="M53.1,110.9c0.1,0,0.1,0,0.2,0l11.3-6.5c0.2-0.1,0.2-0.3,0.1-0.5c-0.1-0.2-0.3-0.2-0.5-0.1l-11.3,6.5
						c-0.2,0.1-0.2,0.3-0.1,0.5C52.9,110.9,53,110.9,53.1,110.9z"/>
				</g>
			</g>
			<g>
				<g>
					<path d="M64.3,130.5L52.9,124c-0.1-0.1-0.2-0.2-0.2-0.3v-13.1c0-0.1,0.1-0.2,0.2-0.3c0.1-0.1,0.2-0.1,0.3,0l11.3,6.5
						c0.1,0.1,0.2,0.2,0.2,0.3v13.1c0,0.1-0.1,0.2-0.2,0.3c-0.1,0-0.1,0-0.2,0C64.4,130.6,64.3,130.5,64.3,130.5z M53.5,111.2v12.3
						l10.6,6.1v-12.3L53.5,111.2z"/>
				</g>
				<g>
					<path d="M64.4,130.6c0.1,0,0.1,0,0.2,0c0.2-0.1,0.2-0.3,0.1-0.5l-11.3-19.6c-0.1-0.2-0.3-0.2-0.5-0.1c-0.2,0.1-0.2,0.3-0.1,0.5
						l11.3,19.6C64.2,130.5,64.3,130.6,64.4,130.6z"/>
				</g>
				<g>
					<path d="M53.1,124c0.1,0,0.1,0,0.2,0l11.3-6.5c0.2-0.1,0.2-0.3,0.1-0.5c-0.1-0.2-0.3-0.2-0.5-0.1l-11.3,6.5
						c-0.2,0.1-0.2,0.3-0.1,0.5C52.9,124,53,124,53.1,124z"/>
				</g>
			</g>
		</g>
		<g>
			<path class="st0" d="M80.9,142.3c0.5,0.3,1.4,0.3,1.9,0l13.9-8.1c0.5-0.3,1-1.1,1-1.7v-19.7c0-7.8-4.2-15-10.9-18.9l-8.4-4.9
				l-15.9,9.2v33.4L80.9,142.3z"/>
			<path class="st2" d="M82.8,142.3l4.8-2.8l4.8-2.8l3.8-2.2c0.2-0.1,0.4-0.2,0.6-0.3c0.2-0.1,0.3-0.3,0.4-0.5
				c0.2-0.4,0.4-0.8,0.3-1.2l0-2.8l0-5.6l0-5.6l0.1-5.6l0.1,5.6l0,5.6l0,5.6l0,2.8c0,0.2,0,0.5-0.1,0.7c-0.1,0.2-0.2,0.5-0.3,0.7
				c-0.1,0.2-0.3,0.4-0.5,0.5c-0.2,0.2-0.4,0.2-0.6,0.4l-3.8,2.2l-4.8,2.8L82.8,142.3z"/>
			<path class="st2" d="M62.5,98.3v33.4l18.4,10.6c0.5,0.3,1,0.1,1-0.6V122c0-7.8-4.2-15-10.9-18.9L62.5,98.3z"/>
			<path class="st3" d="M64.8,114.8v-12.7l5.1,2.9c6,3.5,9.8,9.9,9.8,16.9v7.2c0,1.7-1.8,2.7-3.2,1.9l-8-4.6l-2-4.2
				C65.3,120,64.8,117.4,64.8,114.8z"/>
			<path class="st13" d="M64.8,114.8v-12.7l5.1,2.9c6,3.5,9.8,9.9,9.8,16.9v7.2c0,1.7-1.8,2.7-3.2,1.9l-8-4.6l-2-4.2
				C65.3,120,64.8,117.4,64.8,114.8z"/>
			<polygon class="st2" points="70,129.6 68.4,128.6 68.4,103.2 70,104.2 			"/>
			<path class="st3" d="M95.4,125.3c0,0.6-0.4,1.4-1,1.7l-9.4,5.4c-0.5,0.3-1,0.1-1-0.6V122c0-5.8-2.1-11.4-5.9-15.7
				c-0.4-0.5-0.3-1.1,0.2-1.4c3.1-1.8,6.8-3.9,9.9-5.7c0.5-0.3,1.3-0.2,1.8,0.2c3.3,3.6,5.3,8.3,5.3,13.4V125.3z"/>
			<path class="st12" d="M95.4,125.3c0,0.6-0.4,1.4-1,1.7l-9.4,5.4c-0.5,0.3-1,0.1-1-0.6V122c0-5.8-2.1-11.4-5.9-15.7
				c-0.4-0.5-0.3-1.1,0.2-1.4c3.1-1.8,6.8-3.9,9.9-5.7c0.5-0.3,1.3-0.2,1.8,0.2c3.3,3.6,5.3,8.3,5.3,13.4V125.3z"/>
			<path class="st14" d="M93.4,104.2l-12,6.9c-0.3-0.7-0.7-1.3-1.1-2l12-6.9C92.7,102.8,93,103.5,93.4,104.2z"/>
			<path class="st14" d="M94.3,106.3l-11.9,6.9c-0.1-0.3-0.3-0.7-0.4-1l11.9-6.9C94,105.6,94.1,105.9,94.3,106.3z"/>
		</g>
		<g>
			<g>
				<path class="st0" d="M149.7,133.6c-0.1,0-0.1,0-0.2,0l-34.2-19.8v-13c0-0.2,0.2-0.3,0.3-0.3c0.2,0,0.3,0.2,0.3,0.3v12.6
					l33.8,19.6c0.2,0.1,0.2,0.3,0.1,0.5C149.9,133.5,149.8,133.6,149.7,133.6z"/>
			</g>
			<g>
				<polygon class="st3" points="17.2,50.4 7,44.5 22.5,35.6 32.7,41.4 				"/>
				<polygon class="st12" points="17.2,50.4 7,44.5 22.5,35.6 32.7,41.4 				"/>
				<polygon class="st3" points="32.7,41.4 17.2,50.4 17.2,68.3 32.7,59.3 				"/>
				<polygon class="st3" points="7,44.5 7,62.4 17.2,68.3 17.2,50.4 				"/>
				<polygon class="st13" points="7,44.5 7,62.4 17.2,68.3 17.2,50.4 				"/>
				<polygon class="st3" points="8.4,57.7 8.4,61.6 15.8,65.9 15.8,62 				"/>
			</g>
			<g>
				<g>
					<g>
						<g>
							<path class="st10" d="M121.1,124c-0.1,0-0.1,0-0.2,0l-11.3-6.5c-0.1-0.1-0.2-0.2-0.2-0.3l0-13.1c0-0.1,0.1-0.2,0.2-0.3
								c0.1-0.1,0.2-0.1,0.3,0l11.3,6.5c0.1,0.1,0.2,0.2,0.2,0.3v13.1c0,0.1-0.1,0.2-0.2,0.3C121.2,124,121.1,124,121.1,124z
								 M110.1,116.9l10.6,6.1v-12.3l-10.6-6.1L110.1,116.9z"/>
						</g>
						<g>
							<path class="st10" d="M121.1,124c-0.1,0-0.2-0.1-0.3-0.2l-11.3-19.6c-0.1-0.2,0-0.4,0.1-0.5c0.2-0.1,0.4,0,0.5,0.1l11.3,19.6
								c0.1,0.2,0,0.4-0.1,0.5C121.2,124,121.1,124,121.1,124z"/>
						</g>
						<g>
							<path class="st10" d="M109.7,117.5c-0.1,0-0.2-0.1-0.3-0.2c-0.1-0.2,0-0.4,0.1-0.5l11.3-6.5c0.2-0.1,0.4,0,0.5,0.1
								c0.1,0.2,0,0.4-0.1,0.5l-11.3,6.5C109.8,117.5,109.8,117.5,109.7,117.5z"/>
						</g>
					</g>
					<g>
						<g>
							<path class="st10" d="M109.7,117.5c-0.1,0-0.1,0-0.2,0l-11.3-6.5c-0.1-0.1-0.2-0.2-0.2-0.3V97.5c0-0.1,0.1-0.2,0.2-0.3
								c0.1-0.1,0.2-0.1,0.3,0l11.3,6.5c0.1,0.1,0.2,0.2,0.2,0.3v13.1c0,0.1-0.1,0.2-0.2,0.3C109.8,117.5,109.8,117.5,109.7,117.5z
								 M98.8,110.4l10.6,6.1v-12.3l-10.6-6.1V110.4z"/>
						</g>
						<g>
							<path class="st10" d="M109.7,117.5c-0.1,0-0.2-0.1-0.3-0.2L98.1,97.7c-0.1-0.2,0-0.4,0.1-0.5c0.2-0.1,0.4,0,0.5,0.1L110,117
								c0.1,0.2,0,0.4-0.1,0.5C109.8,117.5,109.8,117.5,109.7,117.5z"/>
						</g>
						<g>
							<path class="st10" d="M98.4,110.9c-0.1,0-0.2-0.1-0.3-0.2c-0.1-0.2,0-0.4,0.1-0.5l11.3-6.5c0.2-0.1,0.4,0,0.5,0.1
								c0.1,0.2,0,0.4-0.1,0.5l-11.3,6.5C98.5,110.9,98.5,110.9,98.4,110.9z"/>
						</g>
					</g>
					<g>
						<g>
							<path class="st10" d="M98.4,110.9c-0.1,0-0.1,0-0.2,0l-11.3-6.5c-0.1-0.1-0.2-0.2-0.2-0.3V91c0-0.1,0.1-0.2,0.2-0.3
								c0.1-0.1,0.2-0.1,0.3,0l11.3,6.5c0.1,0.1,0.2,0.2,0.2,0.3v13.1c0,0.1-0.1,0.2-0.2,0.3C98.5,110.9,98.5,110.9,98.4,110.9z
								 M87.4,103.9l10.6,6.1V97.7l-10.6-6.1V103.9z"/>
						</g>
						<g>
							<path class="st10" d="M98.4,110.9c-0.1,0-0.2-0.1-0.3-0.2L86.8,91.1c-0.1-0.2,0-0.4,0.1-0.5c0.2-0.1,0.4,0,0.5,0.1l11.3,19.6
								c0.1,0.2,0,0.4-0.1,0.5C98.5,110.9,98.5,110.9,98.4,110.9z"/>
						</g>
						<g>
							<path class="st10" d="M87.1,104.4c-0.1,0-0.2-0.1-0.3-0.2c-0.1-0.2,0-0.4,0.1-0.5l11.3-6.5c0.2-0.1,0.4,0,0.5,0.1
								c0.1,0.2,0,0.4-0.1,0.5l-11.3,6.5C87.2,104.4,87.1,104.4,87.1,104.4z"/>
						</g>
					</g>
				</g>
				<g>
					<g>
						<g>
							<path class="st10" d="M87.1,104.4c-0.1,0-0.1,0-0.2,0l-11.3-6.5c-0.1-0.1-0.2-0.2-0.2-0.3V84.4c0-0.1,0.1-0.2,0.2-0.3
								c0.1-0.1,0.2-0.1,0.3,0l11.3,6.5c0.1,0.1,0.2,0.2,0.2,0.3v13.1c0,0.1-0.1,0.2-0.2,0.3C87.2,104.4,87.1,104.4,87.1,104.4z
								 M76.1,97.3l10.6,6.1V91.2L76.1,85V97.3z"/>
						</g>
						<g>
							<path class="st10" d="M87.1,104.4c-0.1,0-0.2-0.1-0.3-0.2L75.5,84.6c-0.1-0.2,0-0.4,0.1-0.5c0.2-0.1,0.4,0,0.5,0.1l11.3,19.6
								c0.1,0.2,0,0.4-0.1,0.5C87.2,104.4,87.1,104.4,87.1,104.4z"/>
						</g>
						<g>
							<path class="st10" d="M75.8,97.9c-0.1,0-0.2-0.1-0.3-0.2c-0.1-0.2,0-0.4,0.1-0.5l11.3-6.5c0.2-0.1,0.4,0,0.5,0.1
								c0.1,0.2,0,0.4-0.1,0.5l-11.3,6.5C75.9,97.8,75.8,97.9,75.8,97.9z"/>
						</g>
					</g>
					<g>
						<g>
							<path class="st10" d="M75.8,97.9c-0.1,0-0.1,0-0.2,0l-11.3-6.5c-0.1-0.1-0.2-0.2-0.2-0.3l0-13.1c0-0.1,0.1-0.2,0.2-0.3
								c0.1-0.1,0.2-0.1,0.3,0l11.3,6.5c0.1,0.1,0.2,0.2,0.2,0.3v13.1c0,0.1-0.1,0.2-0.2,0.3C75.9,97.8,75.8,97.9,75.8,97.9z
								 M64.8,90.8l10.6,6.1V84.6l-10.6-6.1L64.8,90.8z"/>
						</g>
						<g>
							<path class="st10" d="M75.8,97.9c-0.1,0-0.2-0.1-0.3-0.2L64.1,78.1c-0.1-0.2,0-0.4,0.1-0.5c0.2-0.1,0.4,0,0.5,0.1l11.3,19.6
								c0.1,0.2,0,0.4-0.1,0.5C75.9,97.8,75.8,97.9,75.8,97.9z"/>
						</g>
						<g>
							<path class="st10" d="M64.4,91.3c-0.1,0-0.2-0.1-0.3-0.2c-0.1-0.2,0-0.4,0.1-0.5l11.3-6.5c0.2-0.1,0.4,0,0.5,0.1
								c0.1,0.2,0,0.4-0.1,0.5l-11.3,6.5C64.5,91.3,64.5,91.3,64.4,91.3z"/>
						</g>
					</g>
					<g>
						<g>
							<path class="st10" d="M64.4,91.3c-0.1,0-0.1,0-0.2,0l-11.3-6.5c-0.1-0.1-0.2-0.2-0.2-0.3V71.4c0-0.1,0.1-0.2,0.2-0.3
								c0.1-0.1,0.2-0.1,0.3,0l11.3,6.5c0.1,0.1,0.2,0.2,0.2,0.3V91c0,0.1-0.1,0.2-0.2,0.3C64.5,91.3,64.5,91.3,64.4,91.3z
								 M53.5,84.2l10.6,6.1V78.1L53.5,72V84.2z"/>
						</g>
						<g>
							<path class="st10" d="M64.4,91.3c-0.1,0-0.2-0.1-0.3-0.2L52.8,71.5c-0.1-0.2,0-0.4,0.1-0.5c0.2-0.1,0.4,0,0.5,0.1l11.3,19.6
								c0.1,0.2,0,0.4-0.1,0.5C64.5,91.3,64.5,91.3,64.4,91.3z"/>
						</g>
						<g>
							<path class="st10" d="M53.1,84.8c-0.1,0-0.2-0.1-0.3-0.2c-0.1-0.2,0-0.4,0.1-0.5l11.3-6.5c0.2-0.1,0.4,0,0.5,0.1
								c0.1,0.2,0,0.4-0.1,0.5l-11.3,6.5C53.2,84.8,53.2,84.8,53.1,84.8z"/>
						</g>
					</g>
				</g>
				<g>
					<g>
						<g>
							<path class="st10" d="M53.1,84.8c-0.1,0-0.1,0-0.2,0l-11.3-6.5c-0.1-0.1-0.2-0.2-0.2-0.3V64.8c0-0.1,0.1-0.2,0.2-0.3
								c0.1-0.1,0.2-0.1,0.3,0l11.3,6.5c0.1,0.1,0.2,0.2,0.2,0.3v13.1c0,0.1-0.1,0.2-0.2,0.3C53.2,84.8,53.2,84.8,53.1,84.8z
								 M42.1,77.7l10.6,6.1V71.6l-10.6-6.1V77.7z"/>
						</g>
						<g>
							<path class="st10" d="M53.1,84.8c-0.1,0-0.2-0.1-0.3-0.2L41.5,65c-0.1-0.2,0-0.4,0.1-0.5c0.2-0.1,0.4,0,0.5,0.1l11.3,19.6
								c0.1,0.2,0,0.4-0.1,0.5C53.2,84.8,53.2,84.8,53.1,84.8z"/>
						</g>
						<g>
							<path class="st10" d="M41.8,78.2c-0.1,0-0.2-0.1-0.3-0.2c-0.1-0.2,0-0.4,0.1-0.5l11.3-6.5c0.2-0.1,0.4,0,0.5,0.1
								c0.1,0.2,0,0.4-0.1,0.5L42,78.2C41.9,78.2,41.8,78.2,41.8,78.2z"/>
						</g>
					</g>
					<g>
						<g>
							<path class="st10" d="M41.8,78.2c-0.1,0-0.1,0-0.2,0l-11.3-6.5c-0.1-0.1-0.2-0.2-0.2-0.3V58.3c0-0.1,0.1-0.2,0.2-0.3
								c0.1-0.1,0.2-0.1,0.3,0L42,64.5c0.1,0.1,0.2,0.2,0.2,0.3v13.1c0,0.1-0.1,0.2-0.2,0.3C41.9,78.2,41.8,78.2,41.8,78.2z
								 M30.8,71.2l10.6,6.1V65l-10.6-6.1V71.2z"/>
						</g>
						<g>
							<path class="st10" d="M41.8,78.2c-0.1,0-0.2-0.1-0.3-0.2L30.1,58.5c-0.1-0.2,0-0.4,0.1-0.5c0.2-0.1,0.4,0,0.5,0.1l11.3,19.6
								c0.1,0.2,0,0.4-0.1,0.5C41.9,78.2,41.8,78.2,41.8,78.2z"/>
						</g>
						<g>
							<path class="st10" d="M30.5,71.7c-0.1,0-0.2-0.1-0.3-0.2c-0.1-0.2,0-0.4,0.1-0.5l11.3-6.5c0.2-0.1,0.4,0,0.5,0.1
								c0.1,0.2,0,0.4-0.1,0.5l-11.3,6.5C30.6,71.7,30.5,71.7,30.5,71.7z"/>
						</g>
					</g>
					<g>
						<g>
							<path class="st10" d="M30.5,71.7c-0.1,0-0.1,0-0.2,0L19,65.1c-0.1-0.1-0.2-0.2-0.2-0.3V51.7c0-0.1,0.1-0.2,0.2-0.3
								c0.1-0.1,0.2-0.1,0.3,0L30.6,58c0.1,0.1,0.2,0.2,0.2,0.3v13.1c0,0.1-0.1,0.2-0.2,0.3C30.6,71.7,30.5,71.7,30.5,71.7z
								 M19.5,64.6l10.6,6.1V58.5l-10.6-6.1V64.6z"/>
						</g>
						<g>
							<path class="st10" d="M30.5,71.7c-0.1,0-0.2-0.1-0.3-0.2L18.8,51.9c-0.1-0.2,0-0.4,0.1-0.5c0.2-0.1,0.4,0,0.5,0.1l11.3,19.6
								c0.1,0.2,0,0.4-0.1,0.5C30.6,71.7,30.5,71.7,30.5,71.7z"/>
						</g>
						<g>
							<path class="st10" d="M19.1,65.2c-0.1,0-0.2-0.1-0.3-0.2c-0.1-0.2,0-0.4,0.1-0.5L30.3,58c0.2-0.1,0.4,0,0.5,0.1
								c0.1,0.2,0,0.4-0.1,0.5l-11.3,6.5C19.2,65.2,19.2,65.2,19.1,65.2z"/>
						</g>
					</g>
				</g>
				<g>
					<g>
						<g>
							<path class="st10" d="M155,143.6c-0.1,0-0.1,0-0.2,0l-11.3-6.5c-0.1-0.1-0.2-0.2-0.2-0.3c0-0.1,0.1-0.2,0.2-0.3l11.3-6.5
								c0.1-0.1,0.2-0.1,0.3,0l11.3,6.5c0.1,0.1,0.2,0.2,0.2,0.3c0,0.1-0.1,0.2-0.2,0.3l-11.3,6.5
								C155.2,143.6,155.1,143.6,155,143.6z M144.4,136.7l10.6,6.1l10.6-6.1l-10.6-6.1L144.4,136.7z"/>
						</g>
						<g>
							<g>
								<polygon class="st3" points="145.9,132.7 148.7,134.3 154.2,131.1 151.4,129.5 								"/>
								<polygon class="st4" points="145.9,132.7 148.7,134.3 154.2,131.1 151.4,129.5 								"/>
							</g>
							<polygon class="st3" points="145.9,132.7 148.7,134.3 148.7,135.9 145.9,134.3 							"/>
							<g>
								<polygon class="st3" points="154.2,131.1 154.2,132.7 148.7,135.9 148.7,134.3 								"/>
								<polygon class="st5" points="154.2,131.1 154.2,132.7 148.7,135.9 148.7,134.3 								"/>
							</g>
						</g>
						<path class="st10" d="M143.9,123.4c-0.1-0.1-0.2-0.1-0.3,0c-0.1,0.1-0.2,0.2-0.2,0.3v13.1c0,0.1,0.1,0.2,0.2,0.3l11.3,6.5
							c0.1,0,0.1,0,0.2,0c0.1,0,0.1,0,0.2,0c0.1-0.1,0.2-0.2,0.2-0.3L143.9,123.4z M144.1,136.5v-12.3l10.6,18.4L144.1,136.5z"/>
						<path class="st9" d="M143.9,123.4c-0.1-0.1-0.2-0.1-0.3,0c-0.1,0.1-0.2,0.2-0.2,0.3v13.1c0,0.1,0.1,0.2,0.2,0.3l11.3,6.5
							c0.1,0,0.1,0,0.2,0c0.1,0,0.1,0,0.2,0c0.1-0.1,0.2-0.2,0.2-0.3L143.9,123.4z M144.1,136.5v-12.3l10.6,18.4L144.1,136.5z"/>
						<g>
							<path class="st10" d="M155,143.6c-0.1,0-0.2-0.1-0.3-0.2l-11.3-19.6c-0.1-0.2,0-0.4,0.1-0.5c0.2-0.1,0.4,0,0.5,0.1l11.3,19.6
								c0.1,0.2,0,0.4-0.1,0.5C155.1,143.6,155.1,143.6,155,143.6z"/>
						</g>
					</g>
					<g>
						<path class="st10" d="M155.2,116.8c-0.1-0.1-0.2-0.1-0.3,0c-0.1,0.1-0.2,0.2-0.2,0.3v13.1c0,0.1,0.1,0.2,0.2,0.3l11.3,6.5
							c0.1,0,0.1,0,0.2,0s0.1,0,0.2,0c0.1-0.1,0.2-0.2,0.2-0.3L155.2,116.8z M155.4,130v-12.3l10.6,18.4L155.4,130z"/>
						<path class="st9" d="M155.2,116.8c-0.1-0.1-0.2-0.1-0.3,0c-0.1,0.1-0.2,0.2-0.2,0.3v13.1c0,0.1,0.1,0.2,0.2,0.3l11.3,6.5
							c0.1,0,0.1,0,0.2,0s0.1,0,0.2,0c0.1-0.1,0.2-0.2,0.2-0.3L155.2,116.8z M155.4,130v-12.3l10.6,18.4L155.4,130z"/>
						<g>
							<path class="st10" d="M166.4,137.1c-0.1,0-0.2-0.1-0.3-0.2l-11.3-19.6c-0.1-0.2,0-0.4,0.1-0.5c0.2-0.1,0.4,0,0.5,0.1
								l11.3,19.6c0.1,0.2,0,0.4-0.1,0.5C166.5,137.1,166.4,137.1,166.4,137.1z"/>
						</g>
						<g class="st9">
							<path d="M166.4,137.1c-0.1,0-0.2-0.1-0.3-0.2l-11.3-19.6c-0.1-0.2,0-0.4,0.1-0.5c0.2-0.1,0.4,0,0.5,0.1l11.3,19.6
								c0.1,0.2,0,0.4-0.1,0.5C166.5,137.1,166.4,137.1,166.4,137.1z"/>
						</g>
					</g>
					<g>
						<g>
							<path class="st10" d="M143.7,137.1c-0.1,0-0.1,0-0.2,0l-11.3-6.5c-0.1-0.1-0.2-0.2-0.2-0.3v-13.1c0-0.1,0.1-0.2,0.2-0.3
								c0.1-0.1,0.2-0.1,0.3,0l11.3,6.5c0.1,0.1,0.2,0.2,0.2,0.3v13.1c0,0.1-0.1,0.2-0.2,0.3C143.8,137.1,143.8,137.1,143.7,137.1z
								 M132.7,130l10.6,6.1v-12.3l-10.6-6.1V130z"/>
						</g>
						<g>
							<path class="st10" d="M143.7,137.1c-0.1,0-0.2-0.1-0.3-0.2l-11.3-19.6c-0.1-0.2,0-0.4,0.1-0.5c0.2-0.1,0.4,0,0.5,0.1
								l11.3,19.6c0.1,0.2,0,0.4-0.1,0.5C143.8,137.1,143.8,137.1,143.7,137.1z"/>
						</g>
						<g>
							<path class="st10" d="M132.4,130.6c-0.1,0-0.2-0.1-0.3-0.2c-0.1-0.2,0-0.4,0.1-0.5l11.3-6.5c0.2-0.1,0.4,0,0.5,0.1
								c0.1,0.2,0,0.4-0.1,0.5l-11.3,6.5C132.5,130.5,132.4,130.6,132.4,130.6z"/>
						</g>
					</g>
					<g>
						<g>
							<path class="st10" d="M132.4,130.6c-0.1,0-0.1,0-0.2,0l-11.3-6.5c-0.1-0.1-0.2-0.2-0.2-0.3v-13.1c0-0.1,0.1-0.2,0.2-0.3
								c0.1-0.1,0.2-0.1,0.3,0l11.3,6.5c0.1,0.1,0.2,0.2,0.2,0.3v13.1c0,0.1-0.1,0.2-0.2,0.3C132.5,130.5,132.4,130.6,132.4,130.6z
								 M121.4,123.5l10.6,6.1v-12.3l-10.6-6.1V123.5z"/>
						</g>
						<g>
							<path class="st10" d="M132.4,130.6c-0.1,0-0.2-0.1-0.3-0.2l-11.3-19.6c-0.1-0.2,0-0.4,0.1-0.5c0.2-0.1,0.4,0,0.5,0.1
								l11.3,19.6c0.1,0.2,0,0.4-0.1,0.5C132.5,130.5,132.4,130.6,132.4,130.6z"/>
						</g>
						<g>
							<path class="st10" d="M121.1,124c-0.1,0-0.2-0.1-0.3-0.2c-0.1-0.2,0-0.4,0.1-0.5l11.3-6.5c0.2-0.1,0.4,0,0.5,0.1
								c0.1,0.2,0,0.4-0.1,0.5l-11.3,6.5C121.2,124,121.1,124,121.1,124z"/>
						</g>
					</g>
				</g>
			</g>
			<g class="st9">
				<g>
					<g>
						<g>
							<path d="M121.1,124c-0.1,0-0.1,0-0.2,0l-11.3-6.5c-0.1-0.1-0.2-0.2-0.2-0.3l0-13.1c0-0.1,0.1-0.2,0.2-0.3
								c0.1-0.1,0.2-0.1,0.3,0l11.3,6.5c0.1,0.1,0.2,0.2,0.2,0.3v13.1c0,0.1-0.1,0.2-0.2,0.3C121.2,124,121.1,124,121.1,124z
								 M110.1,116.9l10.6,6.1v-12.3l-10.6-6.1L110.1,116.9z"/>
						</g>
						<g>
							<path d="M121.1,124c-0.1,0-0.2-0.1-0.3-0.2l-11.3-19.6c-0.1-0.2,0-0.4,0.1-0.5c0.2-0.1,0.4,0,0.5,0.1l11.3,19.6
								c0.1,0.2,0,0.4-0.1,0.5C121.2,124,121.1,124,121.1,124z"/>
						</g>
						<g>
							<path d="M109.7,117.5c-0.1,0-0.2-0.1-0.3-0.2c-0.1-0.2,0-0.4,0.1-0.5l11.3-6.5c0.2-0.1,0.4,0,0.5,0.1c0.1,0.2,0,0.4-0.1,0.5
								l-11.3,6.5C109.8,117.5,109.8,117.5,109.7,117.5z"/>
						</g>
					</g>
					<g>
						<g>
							<path d="M109.7,117.5c-0.1,0-0.1,0-0.2,0l-11.3-6.5c-0.1-0.1-0.2-0.2-0.2-0.3V97.5c0-0.1,0.1-0.2,0.2-0.3
								c0.1-0.1,0.2-0.1,0.3,0l11.3,6.5c0.1,0.1,0.2,0.2,0.2,0.3v13.1c0,0.1-0.1,0.2-0.2,0.3C109.8,117.5,109.8,117.5,109.7,117.5z
								 M98.8,110.4l10.6,6.1v-12.3l-10.6-6.1V110.4z"/>
						</g>
						<g>
							<path d="M109.7,117.5c-0.1,0-0.2-0.1-0.3-0.2L98.1,97.7c-0.1-0.2,0-0.4,0.1-0.5c0.2-0.1,0.4,0,0.5,0.1L110,117
								c0.1,0.2,0,0.4-0.1,0.5C109.8,117.5,109.8,117.5,109.7,117.5z"/>
						</g>
						<g>
							<path d="M98.4,110.9c-0.1,0-0.2-0.1-0.3-0.2c-0.1-0.2,0-0.4,0.1-0.5l11.3-6.5c0.2-0.1,0.4,0,0.5,0.1c0.1,0.2,0,0.4-0.1,0.5
								l-11.3,6.5C98.5,110.9,98.5,110.9,98.4,110.9z"/>
						</g>
					</g>
					<g>
						<g>
							<path d="M98.4,110.9c-0.1,0-0.1,0-0.2,0l-11.3-6.5c-0.1-0.1-0.2-0.2-0.2-0.3V91c0-0.1,0.1-0.2,0.2-0.3c0.1-0.1,0.2-0.1,0.3,0
								l11.3,6.5c0.1,0.1,0.2,0.2,0.2,0.3v13.1c0,0.1-0.1,0.2-0.2,0.3C98.5,110.9,98.5,110.9,98.4,110.9z M87.4,103.9l10.6,6.1V97.7
								l-10.6-6.1V103.9z"/>
						</g>
						<g>
							<path d="M98.4,110.9c-0.1,0-0.2-0.1-0.3-0.2L86.8,91.1c-0.1-0.2,0-0.4,0.1-0.5c0.2-0.1,0.4,0,0.5,0.1l11.3,19.6
								c0.1,0.2,0,0.4-0.1,0.5C98.5,110.9,98.5,110.9,98.4,110.9z"/>
						</g>
						<g>
							<path d="M87.1,104.4c-0.1,0-0.2-0.1-0.3-0.2c-0.1-0.2,0-0.4,0.1-0.5l11.3-6.5c0.2-0.1,0.4,0,0.5,0.1c0.1,0.2,0,0.4-0.1,0.5
								l-11.3,6.5C87.2,104.4,87.1,104.4,87.1,104.4z"/>
						</g>
					</g>
				</g>
				<g>
					<g>
						<g>
							<path d="M87.1,104.4c-0.1,0-0.1,0-0.2,0l-11.3-6.5c-0.1-0.1-0.2-0.2-0.2-0.3V84.4c0-0.1,0.1-0.2,0.2-0.3
								c0.1-0.1,0.2-0.1,0.3,0l11.3,6.5c0.1,0.1,0.2,0.2,0.2,0.3v13.1c0,0.1-0.1,0.2-0.2,0.3C87.2,104.4,87.1,104.4,87.1,104.4z
								 M76.1,97.3l10.6,6.1V91.2L76.1,85V97.3z"/>
						</g>
						<g>
							<path d="M87.1,104.4c-0.1,0-0.2-0.1-0.3-0.2L75.5,84.6c-0.1-0.2,0-0.4,0.1-0.5c0.2-0.1,0.4,0,0.5,0.1l11.3,19.6
								c0.1,0.2,0,0.4-0.1,0.5C87.2,104.4,87.1,104.4,87.1,104.4z"/>
						</g>
						<g>
							<path d="M75.8,97.9c-0.1,0-0.2-0.1-0.3-0.2c-0.1-0.2,0-0.4,0.1-0.5l11.3-6.5c0.2-0.1,0.4,0,0.5,0.1c0.1,0.2,0,0.4-0.1,0.5
								l-11.3,6.5C75.9,97.8,75.8,97.9,75.8,97.9z"/>
						</g>
					</g>
					<g>
						<g>
							<path d="M75.8,97.9c-0.1,0-0.1,0-0.2,0l-11.3-6.5c-0.1-0.1-0.2-0.2-0.2-0.3l0-13.1c0-0.1,0.1-0.2,0.2-0.3
								c0.1-0.1,0.2-0.1,0.3,0l11.3,6.5c0.1,0.1,0.2,0.2,0.2,0.3v13.1c0,0.1-0.1,0.2-0.2,0.3C75.9,97.8,75.8,97.9,75.8,97.9z
								 M64.8,90.8l10.6,6.1V84.6l-10.6-6.1L64.8,90.8z"/>
						</g>
						<g>
							<path d="M75.8,97.9c-0.1,0-0.2-0.1-0.3-0.2L64.1,78.1c-0.1-0.2,0-0.4,0.1-0.5c0.2-0.1,0.4,0,0.5,0.1l11.3,19.6
								c0.1,0.2,0,0.4-0.1,0.5C75.9,97.8,75.8,97.9,75.8,97.9z"/>
						</g>
						<g>
							<path d="M64.4,91.3c-0.1,0-0.2-0.1-0.3-0.2c-0.1-0.2,0-0.4,0.1-0.5l11.3-6.5c0.2-0.1,0.4,0,0.5,0.1c0.1,0.2,0,0.4-0.1,0.5
								l-11.3,6.5C64.5,91.3,64.5,91.3,64.4,91.3z"/>
						</g>
					</g>
					<g>
						<g>
							<path d="M64.4,91.3c-0.1,0-0.1,0-0.2,0l-11.3-6.5c-0.1-0.1-0.2-0.2-0.2-0.3V71.4c0-0.1,0.1-0.2,0.2-0.3
								c0.1-0.1,0.2-0.1,0.3,0l11.3,6.5c0.1,0.1,0.2,0.2,0.2,0.3V91c0,0.1-0.1,0.2-0.2,0.3C64.5,91.3,64.5,91.3,64.4,91.3z
								 M53.5,84.2l10.6,6.1V78.1L53.5,72V84.2z"/>
						</g>
						<g>
							<path d="M64.4,91.3c-0.1,0-0.2-0.1-0.3-0.2L52.8,71.5c-0.1-0.2,0-0.4,0.1-0.5c0.2-0.1,0.4,0,0.5,0.1l11.3,19.6
								c0.1,0.2,0,0.4-0.1,0.5C64.5,91.3,64.5,91.3,64.4,91.3z"/>
						</g>
						<g>
							<path d="M53.1,84.8c-0.1,0-0.2-0.1-0.3-0.2c-0.1-0.2,0-0.4,0.1-0.5l11.3-6.5c0.2-0.1,0.4,0,0.5,0.1c0.1,0.2,0,0.4-0.1,0.5
								l-11.3,6.5C53.2,84.8,53.2,84.8,53.1,84.8z"/>
						</g>
					</g>
				</g>
				<g>
					<g>
						<g>
							<path d="M53.1,84.8c-0.1,0-0.1,0-0.2,0l-11.3-6.5c-0.1-0.1-0.2-0.2-0.2-0.3V64.8c0-0.1,0.1-0.2,0.2-0.3
								c0.1-0.1,0.2-0.1,0.3,0l11.3,6.5c0.1,0.1,0.2,0.2,0.2,0.3v13.1c0,0.1-0.1,0.2-0.2,0.3C53.2,84.8,53.2,84.8,53.1,84.8z
								 M42.1,77.7l10.6,6.1V71.6l-10.6-6.1V77.7z"/>
						</g>
						<g>
							<path d="M53.1,84.8c-0.1,0-0.2-0.1-0.3-0.2L41.5,65c-0.1-0.2,0-0.4,0.1-0.5c0.2-0.1,0.4,0,0.5,0.1l11.3,19.6
								c0.1,0.2,0,0.4-0.1,0.5C53.2,84.8,53.2,84.8,53.1,84.8z"/>
						</g>
						<g>
							<path d="M41.8,78.2c-0.1,0-0.2-0.1-0.3-0.2c-0.1-0.2,0-0.4,0.1-0.5l11.3-6.5c0.2-0.1,0.4,0,0.5,0.1c0.1,0.2,0,0.4-0.1,0.5
								L42,78.2C41.9,78.2,41.8,78.2,41.8,78.2z"/>
						</g>
					</g>
					<g>
						<g>
							<path d="M41.8,78.2c-0.1,0-0.1,0-0.2,0l-11.3-6.5c-0.1-0.1-0.2-0.2-0.2-0.3V58.3c0-0.1,0.1-0.2,0.2-0.3
								c0.1-0.1,0.2-0.1,0.3,0L42,64.5c0.1,0.1,0.2,0.2,0.2,0.3v13.1c0,0.1-0.1,0.2-0.2,0.3C41.9,78.2,41.8,78.2,41.8,78.2z
								 M30.8,71.2l10.6,6.1V65l-10.6-6.1V71.2z"/>
						</g>
						<g>
							<path d="M41.8,78.2c-0.1,0-0.2-0.1-0.3-0.2L30.1,58.5c-0.1-0.2,0-0.4,0.1-0.5c0.2-0.1,0.4,0,0.5,0.1l11.3,19.6
								c0.1,0.2,0,0.4-0.1,0.5C41.9,78.2,41.8,78.2,41.8,78.2z"/>
						</g>
						<g>
							<path d="M30.5,71.7c-0.1,0-0.2-0.1-0.3-0.2c-0.1-0.2,0-0.4,0.1-0.5l11.3-6.5c0.2-0.1,0.4,0,0.5,0.1c0.1,0.2,0,0.4-0.1,0.5
								l-11.3,6.5C30.6,71.7,30.5,71.7,30.5,71.7z"/>
						</g>
					</g>
					<g>
						<g>
							<path d="M30.5,71.7c-0.1,0-0.1,0-0.2,0L19,65.1c-0.1-0.1-0.2-0.2-0.2-0.3V51.7c0-0.1,0.1-0.2,0.2-0.3c0.1-0.1,0.2-0.1,0.3,0
								L30.6,58c0.1,0.1,0.2,0.2,0.2,0.3v13.1c0,0.1-0.1,0.2-0.2,0.3C30.6,71.7,30.5,71.7,30.5,71.7z M19.5,64.6l10.6,6.1V58.5
								l-10.6-6.1V64.6z"/>
						</g>
						<g>
							<path d="M30.5,71.7c-0.1,0-0.2-0.1-0.3-0.2L18.8,51.9c-0.1-0.2,0-0.4,0.1-0.5c0.2-0.1,0.4,0,0.5,0.1l11.3,19.6
								c0.1,0.2,0,0.4-0.1,0.5C30.6,71.7,30.5,71.7,30.5,71.7z"/>
						</g>
						<g>
							<path d="M19.1,65.2c-0.1,0-0.2-0.1-0.3-0.2c-0.1-0.2,0-0.4,0.1-0.5L30.3,58c0.2-0.1,0.4,0,0.5,0.1c0.1,0.2,0,0.4-0.1,0.5
								l-11.3,6.5C19.2,65.2,19.2,65.2,19.1,65.2z"/>
						</g>
					</g>
				</g>
				<g>
					<g>
						<g>
							<path d="M155.4,143.3c0,0.1-0.1,0.2-0.2,0.3c-0.1,0-0.1,0-0.2,0c-0.1,0-0.2-0.1-0.3-0.2l-11.3-19.6c-0.1-0.2,0-0.4,0.1-0.5
								c0.2-0.1,0.4,0,0.5,0.1l11.3,19.6C155.4,143.2,155.4,143.2,155.4,143.3"/>
						</g>
					</g>
					<g>
						<g>
							<path d="M143.7,137.1c-0.1,0-0.1,0-0.2,0l-11.3-6.5c-0.1-0.1-0.2-0.2-0.2-0.3v-13.1c0-0.1,0.1-0.2,0.2-0.3
								c0.1-0.1,0.2-0.1,0.3,0l11.3,6.5c0.1,0.1,0.2,0.2,0.2,0.3v13.1c0,0.1-0.1,0.2-0.2,0.3C143.8,137.1,143.8,137.1,143.7,137.1z
								 M132.7,130l10.6,6.1v-12.3l-10.6-6.1V130z"/>
						</g>
						<g>
							<path d="M143.7,137.1c-0.1,0-0.2-0.1-0.3-0.2l-11.3-19.6c-0.1-0.2,0-0.4,0.1-0.5c0.2-0.1,0.4,0,0.5,0.1l11.3,19.6
								c0.1,0.2,0,0.4-0.1,0.5C143.8,137.1,143.8,137.1,143.7,137.1z"/>
						</g>
						<g>
							<path d="M132.4,130.6c-0.1,0-0.2-0.1-0.3-0.2c-0.1-0.2,0-0.4,0.1-0.5l11.3-6.5c0.2-0.1,0.4,0,0.5,0.1c0.1,0.2,0,0.4-0.1,0.5
								l-11.3,6.5C132.5,130.5,132.4,130.6,132.4,130.6z"/>
						</g>
					</g>
					<g>
						<g>
							<path d="M132.4,130.6c-0.1,0-0.1,0-0.2,0l-11.3-6.5c-0.1-0.1-0.2-0.2-0.2-0.3v-13.1c0-0.1,0.1-0.2,0.2-0.3
								c0.1-0.1,0.2-0.1,0.3,0l11.3,6.5c0.1,0.1,0.2,0.2,0.2,0.3v13.1c0,0.1-0.1,0.2-0.2,0.3C132.5,130.5,132.4,130.6,132.4,130.6z
								 M121.4,123.5l10.6,6.1v-12.3l-10.6-6.1V123.5z"/>
						</g>
						<g>
							<path d="M132.4,130.6c-0.1,0-0.2-0.1-0.3-0.2l-11.3-19.6c-0.1-0.2,0-0.4,0.1-0.5c0.2-0.1,0.4,0,0.5,0.1l11.3,19.6
								c0.1,0.2,0,0.4-0.1,0.5C132.5,130.5,132.4,130.6,132.4,130.6z"/>
						</g>
						<g>
							<path d="M121.1,124c-0.1,0-0.2-0.1-0.3-0.2c-0.1-0.2,0-0.4,0.1-0.5l11.3-6.5c0.2-0.1,0.4,0,0.5,0.1c0.1,0.2,0,0.4-0.1,0.5
								l-11.3,6.5C121.2,124,121.1,124,121.1,124z"/>
						</g>
					</g>
				</g>
			</g>
			<g>
				<g>
					<g>
						<g>
							<path class="st10" d="M121.1,110.9c-0.1,0-0.1,0-0.2,0l-11.3-6.5c-0.1-0.1-0.2-0.2-0.2-0.3s0.1-0.2,0.2-0.3l11.3-6.5
								c0.1-0.1,0.2-0.1,0.3,0l11.3,6.5c0.1,0.1,0.2,0.2,0.2,0.3s-0.1,0.2-0.2,0.3l-11.3,6.5C121.2,110.9,121.1,110.9,121.1,110.9z
								 M110.4,104.1l10.6,6.1l10.6-6.1l-10.6-6.1L110.4,104.1z"/>
						</g>
						<g>
							<path class="st10" d="M132.4,104.4h-22.7c-0.2,0-0.3-0.2-0.3-0.3s0.2-0.3,0.3-0.3h22.7c0.2,0,0.3,0.2,0.3,0.3
								S132.6,104.4,132.4,104.4z"/>
						</g>
						<g>
							<path class="st10" d="M121.1,110.9c-0.2,0-0.3-0.2-0.3-0.3V97.5c0-0.2,0.2-0.3,0.3-0.3s0.3,0.2,0.3,0.3v13.1
								C121.4,110.8,121.2,110.9,121.1,110.9z"/>
						</g>
					</g>
					<g>
						<g>
							<path class="st10" d="M109.7,104.4c-0.1,0-0.1,0-0.2,0l-11.3-6.5c-0.1-0.1-0.2-0.2-0.2-0.3c0-0.1,0.1-0.2,0.2-0.3l11.3-6.5
								c0.1-0.1,0.2-0.1,0.3,0l11.3,6.5c0.1,0.1,0.2,0.2,0.2,0.3c0,0.1-0.1,0.2-0.2,0.3l-11.3,6.5
								C109.8,104.4,109.8,104.4,109.7,104.4z M99.1,97.5l10.6,6.1l10.6-6.1l-10.6-6.1L99.1,97.5z"/>
						</g>
						<g>
							<path class="st10" d="M121.1,97.9H98.4c-0.2,0-0.3-0.2-0.3-0.3c0-0.2,0.2-0.3,0.3-0.3h22.7c0.2,0,0.3,0.2,0.3,0.3
								C121.4,97.7,121.2,97.9,121.1,97.9z"/>
						</g>
						<g>
							<path class="st10" d="M109.7,104.4c-0.2,0-0.3-0.2-0.3-0.3V91c0-0.2,0.2-0.3,0.3-0.3s0.3,0.2,0.3,0.3v13.1
								C110.1,104.2,109.9,104.4,109.7,104.4z"/>
						</g>
					</g>
					<g>
						<g>
							<path class="st10" d="M98.4,97.9c-0.1,0-0.1,0-0.2,0l-11.3-6.5c-0.1-0.1-0.2-0.2-0.2-0.3c0-0.1,0.1-0.2,0.2-0.3l11.3-6.5
								c0.1-0.1,0.2-0.1,0.3,0l11.3,6.5c0.1,0.1,0.2,0.2,0.2,0.3c0,0.1-0.1,0.2-0.2,0.3l-11.3,6.5C98.5,97.8,98.5,97.9,98.4,97.9z
								 M87.8,91l10.6,6.1L109,91l-10.6-6.1L87.8,91z"/>
						</g>
						<g>
							<path class="st10" d="M109.7,91.3H87.1c-0.2,0-0.3-0.2-0.3-0.3c0-0.2,0.2-0.3,0.3-0.3h22.7c0.2,0,0.3,0.2,0.3,0.3
								C110.1,91.2,109.9,91.3,109.7,91.3z"/>
						</g>
						<g>
							<path class="st10" d="M98.4,97.9c-0.2,0-0.3-0.2-0.3-0.3V84.4c0-0.2,0.2-0.3,0.3-0.3c0.2,0,0.3,0.2,0.3,0.3v13.1
								C98.8,97.7,98.6,97.9,98.4,97.9z"/>
						</g>
					</g>
				</g>
				<g>
					<g>
						<g>
							<path class="st10" d="M87.1,91.3c-0.1,0-0.1,0-0.2,0l-11.3-6.5c-0.1-0.1-0.2-0.2-0.2-0.3s0.1-0.2,0.2-0.3l11.3-6.5
								c0.1-0.1,0.2-0.1,0.3,0l11.3,6.5c0.1,0.1,0.2,0.2,0.2,0.3s-0.1,0.2-0.2,0.3l-11.3,6.5C87.2,91.3,87.1,91.3,87.1,91.3z
								 M76.4,84.4l10.6,6.1l10.6-6.1l-10.6-6.1L76.4,84.4z"/>
						</g>
						<g>
							<path class="st10" d="M98.4,84.8H75.8c-0.2,0-0.3-0.2-0.3-0.3s0.2-0.3,0.3-0.3h22.7c0.2,0,0.3,0.2,0.3,0.3
								S98.6,84.8,98.4,84.8z"/>
						</g>
						<g>
							<path class="st10" d="M87.1,91.3c-0.2,0-0.3-0.2-0.3-0.3V77.9c0-0.2,0.2-0.3,0.3-0.3c0.2,0,0.3,0.2,0.3,0.3V91
								C87.4,91.2,87.3,91.3,87.1,91.3z"/>
						</g>
					</g>
					<g>
						<g>
							<path class="st10" d="M75.8,84.8c-0.1,0-0.1,0-0.2,0l-11.3-6.5c-0.1-0.1-0.2-0.2-0.2-0.3c0-0.1,0.1-0.2,0.2-0.3l11.3-6.5
								c0.1-0.1,0.2-0.1,0.3,0l11.3,6.5c0.1,0.1,0.2,0.2,0.2,0.3c0,0.1-0.1,0.2-0.2,0.3l-11.3,6.5C75.9,84.8,75.8,84.8,75.8,84.8z
								 M65.1,77.9L75.8,84l10.6-6.1l-10.6-6.1L65.1,77.9z"/>
						</g>
						<g>
							<path class="st10" d="M87.1,78.2H64.4c-0.2,0-0.3-0.2-0.3-0.3c0-0.2,0.2-0.3,0.3-0.3h22.7c0.2,0,0.3,0.2,0.3,0.3
								C87.4,78.1,87.3,78.2,87.1,78.2z"/>
						</g>
						<g>
							<path class="st10" d="M75.8,84.8c-0.2,0-0.3-0.2-0.3-0.3V71.4c0-0.2,0.2-0.3,0.3-0.3s0.3,0.2,0.3,0.3v13.1
								C76.1,84.6,75.9,84.8,75.8,84.8z"/>
						</g>
					</g>
					<g>
						<g>
							<path class="st10" d="M64.4,78.2c-0.1,0-0.1,0-0.2,0l-11.3-6.5c-0.1-0.1-0.2-0.2-0.2-0.3c0-0.1,0.1-0.2,0.2-0.3l11.3-6.5
								c0.1-0.1,0.2-0.1,0.3,0l11.3,6.5c0.1,0.1,0.2,0.2,0.2,0.3c0,0.1-0.1,0.2-0.2,0.3l-11.3,6.5C64.5,78.2,64.5,78.2,64.4,78.2z
								 M53.8,71.4l10.6,6.1l10.6-6.1l-10.6-6.1L53.8,71.4z"/>
						</g>
						<g>
							<path class="st10" d="M75.8,71.7H53.1c-0.2,0-0.3-0.2-0.3-0.3c0-0.2,0.2-0.3,0.3-0.3h22.7c0.2,0,0.3,0.2,0.3,0.3
								C76.1,71.6,75.9,71.7,75.8,71.7z"/>
						</g>
						<g>
							<path class="st10" d="M64.4,78.2c-0.2,0-0.3-0.2-0.3-0.3V64.8c0-0.2,0.2-0.3,0.3-0.3c0.2,0,0.3,0.2,0.3,0.3v13.1
								C64.8,78.1,64.6,78.2,64.4,78.2z"/>
						</g>
					</g>
				</g>
				<g>
					<g>
						<g>
							<path class="st10" d="M53.1,71.7c-0.1,0-0.1,0-0.2,0l-11.3-6.5c-0.1-0.1-0.2-0.2-0.2-0.3c0-0.1,0.1-0.2,0.2-0.3L52.9,58
								c0.1-0.1,0.2-0.1,0.3,0l11.3,6.5c0.1,0.1,0.2,0.2,0.2,0.3s-0.1,0.2-0.2,0.3l-11.3,6.5C53.2,71.7,53.2,71.7,53.1,71.7z
								 M42.5,64.8L53.1,71l10.6-6.1l-10.6-6.1L42.5,64.8z"/>
						</g>
						<g>
							<path class="st10" d="M64.4,65.2L64.4,65.2l-22.7,0c-0.2,0-0.3-0.2-0.3-0.3c0-0.2,0.2-0.3,0.3-0.3l0,0l22.7,0
								c0.2,0,0.3,0.2,0.3,0.3S64.6,65.2,64.4,65.2z"/>
						</g>
						<g>
							<path class="st10" d="M53.1,71.7c-0.2,0-0.3-0.2-0.3-0.3V58.3c0-0.2,0.2-0.3,0.3-0.3s0.3,0.2,0.3,0.3v13.1
								C53.5,71.6,53.3,71.7,53.1,71.7z"/>
						</g>
					</g>
					<g>
						<g>
							<path class="st10" d="M41.8,65.2c-0.1,0-0.1,0-0.2,0l-11.3-6.5c-0.1-0.1-0.2-0.2-0.2-0.3c0-0.1,0.1-0.2,0.2-0.3l11.3-6.5
								c0.1-0.1,0.2-0.1,0.3,0L53.3,58c0.1,0.1,0.2,0.2,0.2,0.3c0,0.1-0.1,0.2-0.2,0.3L42,65.1C41.9,65.2,41.8,65.2,41.8,65.2z
								 M31.1,58.3l10.6,6.1l10.6-6.1l-10.6-6.1L31.1,58.3z"/>
						</g>
						<g>
							<path class="st10" d="M53.1,58.6L53.1,58.6l-22.7,0c-0.2,0-0.3-0.2-0.3-0.3c0-0.2,0.2-0.3,0.3-0.3l0,0l22.7,0
								c0.2,0,0.3,0.2,0.3,0.3C53.5,58.5,53.3,58.6,53.1,58.6z"/>
						</g>
						<g>
							<path class="st10" d="M41.8,65.2c-0.2,0-0.3-0.2-0.3-0.3V51.7c0-0.2,0.2-0.3,0.3-0.3c0.2,0,0.3,0.2,0.3,0.3v13.1
								C42.1,65,42,65.2,41.8,65.2z"/>
						</g>
					</g>
					<g>
						<g>
							<path class="st10" d="M30.5,58.6c-0.1,0-0.1,0-0.2,0L19,52c-0.1-0.1-0.2-0.2-0.2-0.3s0.1-0.2,0.2-0.3l11.3-6.5
								c0.1-0.1,0.2-0.1,0.3,0L42,51.4c0.1,0.1,0.2,0.2,0.2,0.3S42.1,52,42,52l-11.3,6.5C30.6,58.6,30.5,58.6,30.5,58.6z M19.8,51.7
								l10.6,6.1l10.6-6.1l-10.6-6.1L19.8,51.7z"/>
						</g>
						<g>
							<path class="st10" d="M41.8,52.1H19.1c-0.2,0-0.3-0.2-0.3-0.3s0.2-0.3,0.3-0.3h22.7c0.2,0,0.3,0.2,0.3,0.3S42,52.1,41.8,52.1
								z"/>
						</g>
						<g>
							<path class="st10" d="M30.5,58.6c-0.2,0-0.3-0.2-0.3-0.3V45.2c0-0.2,0.2-0.3,0.3-0.3s0.3,0.2,0.3,0.3v13.1
								C30.8,58.5,30.6,58.6,30.5,58.6z"/>
						</g>
					</g>
				</g>
				<g>
					<g>
						<g>
							<path class="st10" d="M143.7,124c-0.1,0-0.1,0-0.2,0l-11.3-6.5c-0.1-0.1-0.2-0.2-0.2-0.3c0-0.1,0.1-0.2,0.2-0.3l11.3-6.5
								c0.1-0.1,0.2-0.1,0.3,0l11.3,6.5c0.1,0.1,0.2,0.2,0.2,0.3c0,0.1-0.1,0.2-0.2,0.3l-11.3,6.5C143.8,124,143.8,124,143.7,124z
								 M133.1,117.1l10.6,6.1l10.6-6.1l-10.6-6.1L133.1,117.1z"/>
						</g>
						<g>
							<path class="st10" d="M155,117.5h-22.7c-0.2,0-0.3-0.2-0.3-0.3s0.2-0.3,0.3-0.3H155c0.2,0,0.3,0.2,0.3,0.3
								S155.2,117.5,155,117.5z"/>
						</g>
						<g>
							<path class="st10" d="M143.7,124c-0.2,0-0.3-0.2-0.3-0.3v-13.1c0-0.2,0.2-0.3,0.3-0.3c0.2,0,0.3,0.2,0.3,0.3v13.1
								C144.1,123.9,143.9,124,143.7,124z"/>
						</g>
					</g>
					<g>
						<g>
							<path class="st10" d="M132.4,117.5c-0.1,0-0.1,0-0.2,0l-11.3-6.5c-0.1-0.1-0.2-0.2-0.2-0.3c0-0.1,0.1-0.2,0.2-0.3l11.3-6.5
								c0.1-0.1,0.2-0.1,0.3,0l11.3,6.5c0.1,0.1,0.2,0.2,0.2,0.3c0,0.1-0.1,0.2-0.2,0.3l-11.3,6.5
								C132.5,117.5,132.4,117.5,132.4,117.5z M121.8,110.6l10.6,6.1l10.6-6.1l-10.6-6.1L121.8,110.6z"/>
						</g>
						<g>
							<path class="st10" d="M143.7,110.9h-22.7c-0.2,0-0.3-0.2-0.3-0.3c0-0.2,0.2-0.3,0.3-0.3h22.7c0.2,0,0.3,0.2,0.3,0.3
								C144.1,110.8,143.9,110.9,143.7,110.9z"/>
						</g>
						<g>
							<path class="st10" d="M132.4,117.5c-0.2,0-0.3-0.2-0.3-0.3v-13.1c0-0.2,0.2-0.3,0.3-0.3c0.2,0,0.3,0.2,0.3,0.3v13.1
								C132.7,117.3,132.6,117.5,132.4,117.5z"/>
						</g>
					</g>
				</g>
			</g>
		</g>
		<g>
			<g>
				<g>
					<path class="st10" d="M64.3,45.7c-0.1-0.1-0.1-0.1-0.1-0.3l0-9.3c0-0.1,0-0.1,0.1-0.2l6.1-3.5c0.1,0,0.1,0,0.2,0
						c0.1,0,0.1,0.1,0.1,0.2l1.2,8c0,0.1,0,0.2-0.1,0.2l-7.3,4.9c0,0-0.1,0-0.1,0C64.3,45.8,64.3,45.8,64.3,45.7z M70.3,33l-5.6,3.3
						l0,8.7l6.7-4.4L70.3,33z"/>
				</g>
				<g>
					<path class="st10" d="M64.4,45.8c0.1,0,0.2,0,0.2-0.1l6.1-12.9c0-0.1,0-0.2-0.1-0.3c-0.1-0.1-0.2,0-0.2,0.1l-6.1,12.8
						c-0.1,0.1,0,0.3,0.1,0.4C64.3,45.8,64.3,45.8,64.4,45.8z"/>
				</g>
				<g>
					<path class="st10" d="M71.6,40.9c0.1,0,0.1,0,0.2-0.1c0-0.1,0-0.3-0.1-0.3L64.5,36c-0.1-0.1-0.2,0-0.3,0.1
						c-0.1,0.1,0,0.2,0.1,0.3l7.3,4.5C71.6,40.9,71.6,40.9,71.6,40.9z"/>
				</g>
			</g>
			<g>
				<g>
					<path class="st10" d="M64.3,58.8c-0.1-0.1-0.1-0.2-0.1-0.4l0-12.9c0-0.1,0-0.2,0.1-0.2l7.2-4.8c0.1,0,0.1,0,0.2,0
						c0.1,0,0.1,0.1,0.1,0.2L73.4,52c0,0.1,0,0.2-0.1,0.3l-8.8,6.4c0,0-0.1,0.1-0.1,0.1C64.4,58.8,64.3,58.8,64.3,58.8z M71.4,41.1
						l-6.7,4.5l0,12.1l8.2-5.9L71.4,41.1z"/>
				</g>
				<g>
					<path class="st10" d="M64.4,58.8c0.1,0,0.2-0.1,0.2-0.2l7.2-17.8c0-0.1,0-0.3-0.1-0.3c-0.1-0.1-0.2,0-0.3,0.1l-7.3,17.7
						c-0.1,0.2,0,0.4,0.1,0.6C64.3,58.8,64.4,58.8,64.4,58.8z"/>
				</g>
				<g>
					<path class="st10" d="M73.2,52.4c0.1,0,0.2-0.1,0.2-0.2c0.1-0.2,0-0.4-0.1-0.5l-8.8-6.5c-0.1-0.1-0.3,0-0.3,0.1
						c-0.1,0.1,0,0.3,0.1,0.4l8.8,6.6C73.1,52.3,73.2,52.4,73.2,52.4z"/>
				</g>
			</g>
			<g>
				<g>
					<path class="st10" d="M64.3,78.2c-0.1-0.1-0.2-0.3-0.2-0.6l0-19.2c0-0.1,0.1-0.3,0.1-0.4l8.8-6.3c0.1-0.1,0.2-0.1,0.3,0
						c0.1,0.1,0.1,0.2,0.2,0.3l2.6,19.1c0,0.2,0,0.3-0.1,0.4l-11.4,6.6c-0.1,0.1-0.1,0.1-0.2,0.1C64.4,78.2,64.3,78.2,64.3,78.2z
						 M73,52.6l-8.3,6l0,17.9l10.7-5.6L73,52.6z"/>
				</g>
				<g>
					<path class="st10" d="M64.4,78.2c0.1,0,0.2-0.1,0.3-0.3l8.7-25.7c0.1-0.2,0-0.4-0.1-0.5c-0.1-0.1-0.3,0-0.3,0.1l-8.8,25.4
						c-0.1,0.3,0,0.7,0.1,0.9C64.3,78.2,64.4,78.2,64.4,78.2z"/>
				</g>
				<g>
					<path class="st10" d="M75.8,71.7c0.1,0,0.2-0.1,0.2-0.3c0.1-0.2,0-0.5-0.2-0.7L64.5,58c-0.1-0.1-0.3-0.1-0.4,0.1
						c-0.1,0.2,0,0.4,0.1,0.6l11.4,12.8C75.7,71.6,75.8,71.7,75.8,71.7z"/>
				</g>
			</g>
		</g>
		<g class="st11">
			<g>
				<g>
					<g>
						<path d="M64.3,45.7c-0.1-0.1-0.1-0.1-0.1-0.3l0-9.3c0-0.1,0-0.1,0.1-0.2l6.1-3.5c0.1,0,0.1,0,0.2,0c0.1,0,0.1,0.1,0.1,0.2
							l1.2,8c0,0.1,0,0.2-0.1,0.2l-7.3,4.9c0,0-0.1,0-0.1,0C64.3,45.8,64.3,45.8,64.3,45.7z M70.3,33l-5.6,3.3l0,8.7l6.7-4.4
							L70.3,33z"/>
					</g>
					<g>
						<path d="M64.4,45.8c0.1,0,0.2,0,0.2-0.1l6.1-12.9c0-0.1,0-0.2-0.1-0.3c-0.1-0.1-0.2,0-0.2,0.1l-6.1,12.8
							c-0.1,0.1,0,0.3,0.1,0.4C64.3,45.8,64.3,45.8,64.4,45.8z"/>
					</g>
					<g>
						<path d="M71.6,40.9c0.1,0,0.1,0,0.2-0.1c0-0.1,0-0.3-0.1-0.3L64.5,36c-0.1-0.1-0.2,0-0.3,0.1c-0.1,0.1,0,0.2,0.1,0.3l7.3,4.5
							C71.6,40.9,71.6,40.9,71.6,40.9z"/>
					</g>
				</g>
				<g>
					<g>
						<path d="M64.3,58.8c-0.1-0.1-0.1-0.2-0.1-0.4l0-12.9c0-0.1,0-0.2,0.1-0.2l7.2-4.8c0.1,0,0.1,0,0.2,0c0.1,0,0.1,0.1,0.1,0.2
							L73.4,52c0,0.1,0,0.2-0.1,0.3l-8.8,6.4c0,0-0.1,0.1-0.1,0.1C64.4,58.8,64.3,58.8,64.3,58.8z M71.4,41.1l-6.7,4.5l0,12.1
							l8.2-5.9L71.4,41.1z"/>
					</g>
					<g>
						<path d="M64.4,58.8c0.1,0,0.2-0.1,0.2-0.2l7.2-17.8c0-0.1,0-0.3-0.1-0.3c-0.1-0.1-0.2,0-0.3,0.1l-7.3,17.7
							c-0.1,0.2,0,0.4,0.1,0.6C64.3,58.8,64.4,58.8,64.4,58.8z"/>
					</g>
					<g>
						<path d="M73.2,52.4c0.1,0,0.2-0.1,0.2-0.2c0.1-0.2,0-0.4-0.1-0.5l-8.8-6.5c-0.1-0.1-0.3,0-0.3,0.1c-0.1,0.1,0,0.3,0.1,0.4
							l8.8,6.6C73.1,52.3,73.2,52.4,73.2,52.4z"/>
					</g>
				</g>
				<g>
					<g>
						<path d="M64.3,78.2c-0.1-0.1-0.2-0.3-0.2-0.6l0-19.2c0-0.1,0.1-0.3,0.1-0.4l8.8-6.3c0.1-0.1,0.2-0.1,0.3,0
							c0.1,0.1,0.1,0.2,0.2,0.3l2.6,19.1c0,0.2,0,0.3-0.1,0.4l-11.4,6.6c-0.1,0.1-0.1,0.1-0.2,0.1C64.4,78.2,64.3,78.2,64.3,78.2z
							 M73,52.6l-8.3,6l0,17.9l10.7-5.6L73,52.6z"/>
					</g>
					<g>
						<path d="M64.4,78.2c0.1,0,0.2-0.1,0.3-0.3l8.7-25.7c0.1-0.2,0-0.4-0.1-0.5c-0.1-0.1-0.3,0-0.3,0.1l-8.8,25.4
							c-0.1,0.3,0,0.7,0.1,0.9C64.3,78.2,64.4,78.2,64.4,78.2z"/>
					</g>
					<g>
						<path d="M75.8,71.7c0.1,0,0.2-0.1,0.2-0.3c0.1-0.2,0-0.5-0.2-0.7L64.5,58c-0.1-0.1-0.3-0.1-0.4,0.1c-0.1,0.2,0,0.4,0.1,0.6
							l11.4,12.8C75.7,71.6,75.8,71.7,75.8,71.7z"/>
					</g>
				</g>
			</g>
		</g>
		<g>
			<g>
				<g>
					<g>
						<path class="st10" d="M64.5,45.8c0,0-0.1,0-0.1,0l-7.3-4.9c-0.1,0-0.1-0.1-0.1-0.2l1.2-8c0-0.1,0.1-0.1,0.1-0.2
							c0.1,0,0.1,0,0.2,0l6.1,3.5c0.1,0,0.1,0.1,0.1,0.2l0,9.3c0,0.1,0,0.2-0.1,0.3C64.6,45.8,64.5,45.8,64.5,45.8z M57.5,40.5
							l6.7,4.4l0-8.7L58.6,33L57.5,40.5z"/>
					</g>
					<g>
						<path class="st10" d="M64.5,45.8c-0.1,0-0.2,0-0.2-0.1l-6.1-12.9c0-0.1,0-0.2,0.1-0.3c0.1-0.1,0.2,0,0.2,0.1l6.1,12.8
							c0.1,0.1,0,0.3-0.1,0.4C64.6,45.8,64.5,45.8,64.5,45.8z"/>
					</g>
					<g>
						<path class="st10" d="M57.2,40.9c-0.1,0-0.1,0-0.2-0.1c0-0.1,0-0.3,0.1-0.3l7.2-4.4c0.1-0.1,0.2,0,0.3,0.1
							c0.1,0.1,0,0.2-0.1,0.3l-7.3,4.5C57.3,40.9,57.3,40.9,57.2,40.9z"/>
					</g>
				</g>
				<g>
					<g>
						<path class="st10" d="M64.5,58.8c0,0-0.1,0-0.1-0.1l-8.8-6.4c-0.1-0.1-0.1-0.2-0.1-0.3L57,40.7c0-0.1,0.1-0.2,0.1-0.2
							c0.1,0,0.2,0,0.2,0l7.2,4.8c0.1,0,0.1,0.1,0.1,0.2l0,12.9c0,0.1-0.1,0.3-0.1,0.4C64.6,58.8,64.5,58.8,64.5,58.8z M55.9,51.8
							l8.2,5.9l0-12.1l-6.7-4.5L55.9,51.8z"/>
					</g>
					<g>
						<path class="st10" d="M64.5,58.8c-0.1,0-0.2-0.1-0.2-0.2L57,40.8c0-0.1,0-0.3,0.1-0.3c0.1-0.1,0.2,0,0.3,0.1l7.3,17.7
							c0.1,0.2,0,0.4-0.1,0.6C64.6,58.8,64.5,58.8,64.5,58.8z"/>
					</g>
					<g>
						<path class="st10" d="M55.6,52.4c-0.1,0-0.2-0.1-0.2-0.2c-0.1-0.2,0-0.4,0.1-0.5l8.8-6.5c0.1-0.1,0.3,0,0.3,0.1
							c0.1,0.1,0,0.3-0.1,0.4l-8.8,6.6C55.7,52.3,55.7,52.4,55.6,52.4z"/>
					</g>
				</g>
				<g>
					<g>
						<path class="st10" d="M64.4,78.2c-0.1,0-0.1,0-0.2-0.1l-11.4-6.6c-0.1-0.1-0.1-0.3-0.1-0.4L55.4,52c0-0.1,0.1-0.2,0.2-0.3
							c0.1-0.1,0.2-0.1,0.3,0l8.8,6.3c0.1,0.1,0.1,0.2,0.1,0.4l0,19.2c0,0.2-0.1,0.4-0.2,0.6C64.5,78.2,64.5,78.2,64.4,78.2z
							 M53.4,70.9l10.7,5.6l0-17.9l-8.3-6L53.4,70.9z"/>
					</g>
					<g>
						<path class="st10" d="M64.4,78.2c-0.1,0-0.2-0.1-0.3-0.3l-8.7-25.7c-0.1-0.2,0-0.4,0.1-0.5c0.1-0.1,0.3,0,0.3,0.1l8.8,25.4
							c0.1,0.3,0,0.7-0.1,0.9C64.5,78.2,64.5,78.2,64.4,78.2z"/>
					</g>
					<g>
						<path class="st10" d="M53,71.7c-0.1,0-0.2-0.1-0.2-0.3c-0.1-0.2,0-0.5,0.2-0.7L64.3,58c0.1-0.1,0.3-0.1,0.4,0.1
							c0.1,0.2,0,0.4-0.1,0.6L53.2,71.6C53.1,71.6,53.1,71.7,53,71.7z"/>
					</g>
				</g>
			</g>
		</g>
		<g class="st9">
			<g>
				<g>
					<g>
						<path d="M64.5,45.8c0,0-0.1,0-0.1,0l-7.3-4.9c-0.1,0-0.1-0.1-0.1-0.2l1.2-8c0-0.1,0.1-0.1,0.1-0.2c0.1,0,0.1,0,0.2,0l6.1,3.5
							c0.1,0,0.1,0.1,0.1,0.2l0,9.3c0,0.1,0,0.2-0.1,0.3C64.6,45.8,64.5,45.8,64.5,45.8z M57.5,40.5l6.7,4.4l0-8.7L58.6,33
							L57.5,40.5z"/>
					</g>
					<g>
						<path d="M64.5,45.8c-0.1,0-0.2,0-0.2-0.1l-6.1-12.9c0-0.1,0-0.2,0.1-0.3c0.1-0.1,0.2,0,0.2,0.1l6.1,12.8
							c0.1,0.1,0,0.3-0.1,0.4C64.6,45.8,64.5,45.8,64.5,45.8z"/>
					</g>
					<g>
						<path d="M57.2,40.9c-0.1,0-0.1,0-0.2-0.1c0-0.1,0-0.3,0.1-0.3l7.2-4.4c0.1-0.1,0.2,0,0.3,0.1c0.1,0.1,0,0.2-0.1,0.3l-7.3,4.5
							C57.3,40.9,57.3,40.9,57.2,40.9z"/>
					</g>
				</g>
				<g>
					<g>
						<path d="M64.5,58.8c0,0-0.1,0-0.1-0.1l-8.8-6.4c-0.1-0.1-0.1-0.2-0.1-0.3L57,40.7c0-0.1,0.1-0.2,0.1-0.2c0.1,0,0.2,0,0.2,0
							l7.2,4.8c0.1,0,0.1,0.1,0.1,0.2l0,12.9c0,0.1-0.1,0.3-0.1,0.4C64.6,58.8,64.5,58.8,64.5,58.8z M55.9,51.8l8.2,5.9l0-12.1
							l-6.7-4.5L55.9,51.8z"/>
					</g>
					<g>
						<path d="M64.5,58.8c-0.1,0-0.2-0.1-0.2-0.2L57,40.8c0-0.1,0-0.3,0.1-0.3c0.1-0.1,0.2,0,0.3,0.1l7.3,17.7
							c0.1,0.2,0,0.4-0.1,0.6C64.6,58.8,64.5,58.8,64.5,58.8z"/>
					</g>
					<g>
						<path d="M55.6,52.4c-0.1,0-0.2-0.1-0.2-0.2c-0.1-0.2,0-0.4,0.1-0.5l8.8-6.5c0.1-0.1,0.3,0,0.3,0.1c0.1,0.1,0,0.3-0.1,0.4
							l-8.8,6.6C55.7,52.3,55.7,52.4,55.6,52.4z"/>
					</g>
				</g>
				<g>
					<g>
						<path d="M64.4,78.2c-0.1,0-0.1,0-0.2-0.1l-11.4-6.6c-0.1-0.1-0.1-0.3-0.1-0.4L55.4,52c0-0.1,0.1-0.2,0.2-0.3
							c0.1-0.1,0.2-0.1,0.3,0l8.8,6.3c0.1,0.1,0.1,0.2,0.1,0.4l0,19.2c0,0.2-0.1,0.4-0.2,0.6C64.5,78.2,64.5,78.2,64.4,78.2z
							 M53.4,70.9l10.7,5.6l0-17.9l-8.3-6L53.4,70.9z"/>
					</g>
					<g>
						<path d="M64.4,78.2c-0.1,0-0.2-0.1-0.3-0.3l-8.7-25.7c-0.1-0.2,0-0.4,0.1-0.5c0.1-0.1,0.3,0,0.3,0.1l8.8,25.4
							c0.1,0.3,0,0.7-0.1,0.9C64.5,78.2,64.5,78.2,64.4,78.2z"/>
					</g>
					<g>
						<path d="M53,71.7c-0.1,0-0.2-0.1-0.2-0.3c-0.1-0.2,0-0.5,0.2-0.7L64.3,58c0.1-0.1,0.3-0.1,0.4,0.1c0.1,0.2,0,0.4-0.1,0.6
							L53.2,71.6C53.1,71.6,53.1,71.7,53,71.7z"/>
					</g>
				</g>
			</g>
		</g>
		<g>
			<polygon class="st3" points="64.4,34.3 56.8,29.9 64.4,25.4 72.1,29.9 			"/>
			<polygon class="st12" points="64.4,34.3 56.8,29.9 64.4,25.4 72.1,29.9 			"/>
			<polygon class="st3" points="72.1,29.9 64.4,34.3 64.4,37.3 72.1,32.9 			"/>
			<polygon class="st3" points="56.8,29.9 56.8,32.9 64.4,37.3 64.4,34.3 			"/>
			<polygon class="st13" points="56.8,29.9 56.8,32.9 64.4,37.3 64.4,34.3 			"/>
		</g>
	</g>
	<g id="Cable">
		<g>
			<path class="st0" d="M149.7,131.6c-0.2,0-0.3-0.2-0.3-0.3V120L67.6,32.6l48.3,68c0.1,0.2,0.1,0.4-0.1,0.5
				c-0.2,0.1-0.4,0.1-0.5-0.1L64.2,28.9l0.5-0.4l85.3,91.2v11.6C150,131.5,149.9,131.6,149.7,131.6z"/>
		</g>
		<g>
			<path class="st0" d="M19.5,43.3c-0.1,0-0.3-0.1-0.3-0.2c-0.1-0.2,0-0.4,0.2-0.4l45-14.3c0.2-0.1,0.4,0,0.4,0.2
				c0.1,0.2,0,0.4-0.2,0.4l-45,14.3C19.5,43.3,19.5,43.3,19.5,43.3z"/>
		</g>
	</g>
	<path id="Sphere" class="st2" d="M68.4,29.5c0,0.6-0.4,1.2-1.2,1.6c-1.6,0.9-4.1,0.9-5.7,0c-0.8-0.5-1.2-1-1.2-1.6c0-2.2,1.8-4,4-4
		C66.6,25.5,68.4,27.3,68.4,29.5z"/>
	<g>
		<g>
			<polygon class="st0" points="122.8,208.4 153.4,190.7 154.2,191.1 123.5,208.8 			"/>
			<polygon class="st2" points="125.5,210 125.5,211.1 122.8,209.5 122.8,208.4 123.5,208.8 123.5,207.5 122.8,207.1 122.8,206 
				125.5,207.6 125.5,208.7 124.8,208.3 124.8,209.5 			"/>
			<polygon class="st0" points="153.4,188.3 122.8,206 125.5,207.6 156.2,189.9 			"/>
			<polygon class="st1" points="156.2,191 156.2,189.9 125.5,207.6 125.5,208.7 			"/>
			<polygon class="st1" points="156.2,193.4 156.2,192.3 125.5,210 125.5,211.1 			"/>
			<polygon class="st0" points="124.8,209.5 155.5,191.8 156.2,192.3 125.5,210 			"/>
			<polygon points="155.5,191.4 155.5,191.8 124.8,209.5 124.8,208.3 125.5,208.7 			"/>
		</g>
		<g>
			<path class="st3" d="M131.7,207.6c-0.1,0-0.1-0.1-0.1-0.1v-3.4l-2.7-1.6c-0.1,0-0.1-0.1-0.1-0.2c0-0.1,0.1-0.1,0.2-0.1l2.8,1.6
				v3.6C131.9,207.6,131.8,207.6,131.7,207.6z"/>
		</g>
		<g>
			<path class="st3" d="M156.2,193.5c-0.1,0-0.1-0.1-0.1-0.1V190l-2.7-1.6c-0.1,0-0.1-0.1-0.1-0.2c0-0.1,0.1-0.1,0.2-0.1l2.8,1.6
				v3.6C156.3,193.4,156.3,193.5,156.2,193.5z"/>
		</g>
		<g>
			<path class="st3" d="M130.3,203.3C130.3,203.3,130.3,203.3,130.3,203.3c-0.2-0.1-0.2-0.2-0.1-0.2l11.4-11.3l0,0l13-2.9
				c0.1,0,0.1,0,0.2,0.1c0,0.1,0,0.1-0.1,0.2l-12.9,2.9L130.3,203.3C130.4,203.3,130.4,203.3,130.3,203.3z"/>
		</g>
		<path class="st0" d="M142.7,191.2c-0.1,0-0.2,0.1-0.2,0.2c0,0.4-0.1,0.6-0.2,0.7c-0.1,0-0.2,0-0.3,0l0.2,0.5c0.1,0,0.2,0,0.3-0.1
			c0.3-0.2,0.4-0.5,0.4-1C142.9,191.3,142.8,191.2,142.7,191.2z"/>
	</g>
</g>
</svg>
