<?xml version="1.0" encoding="utf-8"?>
<!-- Generator: Adobe Illustrator 27.6.1, SVG Export Plug-In . SVG Version: 6.00 Build 0)  -->
<svg version="1.1" id="layer" xmlns="http://www.w3.org/2000/svg" xmlns:xlink="http://www.w3.org/1999/xlink" x="0px" y="0px"
	 viewBox="0 0 171.39 313.43" style="enable-background:new 0 0 171.39 313.43;" xml:space="preserve">
<style type="text/css">
	.st0{fill:#004D5C;}
	.st1{fill:url(#SVGID_1_);}
	.st2{fill:#72CCB7;}
	.st3{fill:url(#SVGID_00000102537774256188755300000000556377807745034429_);}
	.st4{fill:url(#SVGID_00000001655129158130078870000008176896400543471498_);}
	.st5{fill:url(#SVGID_00000039107955468504773050000004005455021329623226_);}
	.st6{fill:url(#SVGID_00000169549330320414275990000005537881773031730362_);}
	.st7{fill:url(#SVGID_00000047047447566066945160000009710324480286063797_);}
	.st8{fill:url(#SVGID_00000112627792457134666450000016765149917022704779_);}
	.st9{fill:url(#SVGID_00000097485104829447322470000017745394445416189064_);}
	.st10{fill:url(#SVGID_00000151507522764504939550000009656610744185111180_);}
	.st11{fill:#FFF7CC;}
	.st12{fill:url(#SVGID_00000085221581959140286310000001989710321847221141_);}
	.st13{fill:#CF3E3E;}
	.st14{fill:#FFE696;}
	.st15{fill:url(#SVGID_00000127039781888981263440000016598884139334437772_);}
	.st16{fill:url(#SVGID_00000027584772932347007720000016440913093566494645_);}
	.st17{fill:url(#SVGID_00000137828791297565775060000016819544620895974837_);}
	.st18{fill:url(#SVGID_00000085220020284475467350000003835777944824325512_);}
	.st19{fill:url(#SVGID_00000003092402681357185380000005142436177717883290_);}
	.st20{fill:#B86053;}
	.st21{fill:url(#SVGID_00000036966576846745965030000009851109041104060319_);}
	.st22{fill:url(#SVGID_00000152967123169530915040000008771600848313540001_);}
	.st23{fill:url(#SVGID_00000006676345774067700840000014321173490868937097_);}
	.st24{fill:#BD622A;}
	.st25{fill:url(#SVGID_00000052824798559540142240000009330593847252042404_);}
	.st26{fill:url(#SVGID_00000032608339253013766320000002788681336356114866_);}
	.st27{fill:url(#SVGID_00000178915116930126675130000002991665113846918329_);}
	.st28{fill:url(#SVGID_00000081620085559300552660000002730268358418867875_);}
	.st29{fill:url(#SVGID_00000041278420266627664520000008076868070644830905_);}
	.st30{fill:#BA2537;}
	.st31{fill:url(#SVGID_00000170960668119298104260000017377322742182085815_);}
	.st32{fill:url(#SVGID_00000078725292494449014740000017664644597507968918_);}
	.st33{fill:url(#SVGID_00000142177126595014192980000007165621090934776213_);}
	.st34{fill:#A5CED6;}
	.st35{fill:url(#SVGID_00000090285407089559981000000010293959505448683660_);}
	.st36{fill:url(#SVGID_00000004512713639338773670000017597470121821273494_);}
	.st37{fill:url(#SVGID_00000119834830684391275050000005486201957476673695_);}
	.st38{fill:#FFD586;}
	.st39{fill:url(#SVGID_00000114760783265518048150000011408444003091170745_);}
</style>
<g id="layer2">
</g>
<g id="layer3">
</g>
<g>
	<path class="st0" d="M69.57,84.18c-1.04,0-2.09-0.42-3.1-1.25c-5.82-4.78-5.14-13.15-3.9-19.91c0.35-1.9,0.9-3.73,1.44-5.5
		c0.28-0.92,0.56-1.85,0.81-2.79c0.67-2.48,0.79-4.45,0.37-6.2l1.05-0.25c0.46,1.93,0.34,4.06-0.38,6.73
		c-0.26,0.95-0.54,1.89-0.82,2.82c-0.53,1.74-1.07,3.54-1.41,5.38c-1.19,6.47-1.86,14.46,3.53,18.88c1.54,1.26,3.04,1.33,4.48,0.22
		c1.88-1.47,3.24-3.57,3.81-5.91c0.95-3.88,0.62-8,0.31-11.99c-0.27-3.41-0.54-6.94-0.05-10.39l1.07,0.15
		c-0.48,3.33-0.21,6.79,0.05,10.15c0.32,4.07,0.65,8.28-0.34,12.33c-0.63,2.58-2.12,4.89-4.19,6.51
		C71.42,83.85,70.5,84.18,69.57,84.18z"/>
	<path class="st0" d="M78.16,76.81c-0.82,0-1.68-0.22-2.5-0.64c-2.4-1.24-4.04-3.94-4.41-7.22c-0.3-2.68,0.22-5.36,0.73-7.94
		l0.08-0.43c0.53-2.75,0.97-5.43,0.47-8.01l1.06-0.2c0.53,2.77,0.08,5.56-0.47,8.42l-0.08,0.43c-0.49,2.51-0.99,5.1-0.71,7.62
		c0.25,2.26,1.39,5.12,3.83,6.38c1.05,0.54,2.17,0.67,3.07,0.34c1.3-0.48,2.05-1.81,2.45-2.85c0.95-2.45,0.94-5.21,0.92-7.89
		c-0.02-2.9-0.04-5.91,1.14-8.63l0.99,0.43c-1.09,2.51-1.07,5.27-1.05,8.19c0.02,2.78,0.04,5.65-0.99,8.29
		c-0.48,1.24-1.41,2.85-3.08,3.47C79.15,76.73,78.67,76.81,78.16,76.81z"/>
	<path class="st0" d="M158.36,230.34c-1.65,0-3.19-0.39-4.45-1.13c-1.39-0.82-2.42-2.03-3.45-3.3l-0.19-0.23
		c-0.87-1.08-1.76-2.19-2.87-2.99c-1.26-0.9-2.71-1.25-3.87-0.91l-0.3-1.04c1.5-0.43,3.25-0.04,4.8,1.07
		c1.23,0.88,2.17,2.05,3.08,3.19l0.19,0.23c0.96,1.19,1.92,2.32,3.15,3.04c1.33,0.78,3.06,1.11,4.88,0.93
		c1.5-0.15,3.08-0.63,4.97-1.5c1.19-0.55,2.5-1.27,3.1-2.45c0.65-1.28,0.46-2.96-0.59-5.14c-0.14-0.3-0.29-0.59-0.44-0.88
		c-0.76-1.51-1.54-3.07-1.55-4.82c0-0.66,0.11-1.3,0.22-1.92c0.07-0.42,0.15-0.85,0.18-1.27c0.2-2.49-1.17-5.1-3.34-6.34
		c-0.19-0.11-0.38-0.21-0.57-0.3c-0.37-0.19-0.75-0.38-1.11-0.64c-0.72-0.51-1.16-1.17-1.25-1.87l1.07-0.14
		c0.07,0.53,0.54,0.94,0.81,1.13c0.29,0.21,0.62,0.38,0.97,0.56c0.21,0.11,0.41,0.21,0.62,0.33c2.56,1.47,4.12,4.43,3.88,7.36
		c-0.04,0.46-0.12,0.92-0.2,1.37c-0.1,0.6-0.2,1.17-0.2,1.73c0.01,1.5,0.7,2.88,1.43,4.34c0.15,0.3,0.3,0.6,0.45,0.9
		c1.2,2.5,1.39,4.5,0.58,6.1c-0.75,1.47-2.24,2.31-3.61,2.94c-2,0.92-3.69,1.42-5.31,1.59
		C159.08,230.32,158.72,230.34,158.36,230.34z"/>
	<linearGradient id="SVGID_1_" gradientUnits="userSpaceOnUse" x1="141.4683" y1="217.7314" x2="141.951" y2="224.4545">
		<stop  offset="0" style="stop-color:#4DA9A3"/>
		<stop  offset="0.7765" style="stop-color:#004D5C"/>
		<stop  offset="0.845" style="stop-color:#02505E"/>
		<stop  offset="0.8875" style="stop-color:#095865"/>
		<stop  offset="0.9229" style="stop-color:#156770"/>
		<stop  offset="0.9545" style="stop-color:#277B80"/>
		<stop  offset="0.9831" style="stop-color:#3D9694"/>
		<stop  offset="1" style="stop-color:#4DA9A3"/>
	</linearGradient>
	<polygon class="st1" points="140.58,217.91 144.08,218.56 143.44,223.94 139.4,224.35 	"/>
	<path class="st2" d="M46.33,26.73l2.74,0.88c-5.92-1.53-8.43,10.58-3.93,11.9l-2.55-0.91C37.74,36.25,41.22,25.29,46.33,26.73z"/>
	<polygon class="st2" points="105.52,135.13 96.29,154.73 88.55,168.34 86.23,167.6 94.14,154 102.68,134.09 	"/>
	<polygon class="st0" points="90.58,170.35 88.38,169.6 86.23,167.6 88.55,168.34 	"/>
	<path class="st0" d="M49.27,31.84c0.88,0.25,1.3,1.4,0.96,2.58c-0.33,1.18-1.31,1.93-2.18,1.69c-0.86-0.25-1.29-1.4-0.95-2.58
		C47.43,32.34,48.4,31.59,49.27,31.84z"/>
	<path class="st0" d="M123.74,57.21c0.98,0.28,1.47,1.59,1.09,2.92c-0.39,1.33-1.49,2.18-2.47,1.9c-0.97-0.28-1.46-1.59-1.08-2.92
		S122.77,56.93,123.74,57.21z"/>
	
		<linearGradient id="SVGID_00000042705351717594071690000000609817635644663998_" gradientUnits="userSpaceOnUse" x1="12.9657" y1="105.8529" x2="24.964" y2="79.374">
		<stop  offset="0" style="stop-color:#4DA9A3"/>
		<stop  offset="1" style="stop-color:#004D5C"/>
	</linearGradient>
	<path style="fill:url(#SVGID_00000042705351717594071690000000609817635644663998_);" d="M27.68,87.96l0.01,0.01
		c-0.82,0.62-1.43,1.48-1.71,2.52c-0.15,0.57-0.19,1.16-0.13,1.71h-0.01l-5.27-2.31l-3.37,4.04c0.08,3.44,0.82,8.25,1.98,12.49
		c-3.17-3.15-5.74-6.7-7.71-10.64c0.68-3.26,2.12-6.4,4.01-9.43c2.7-1.4,5.44-2.31,8.24-2.51L27.68,87.96z"/>
	
		<linearGradient id="SVGID_00000035514921158968177450000000305469635836557225_" gradientUnits="userSpaceOnUse" x1="33.7066" y1="115.2512" x2="45.7049" y2="88.7723">
		<stop  offset="0" style="stop-color:#4DA9A3"/>
		<stop  offset="1" style="stop-color:#004D5C"/>
	</linearGradient>
	<path style="fill:url(#SVGID_00000035514921158968177450000000305469635836557225_);" d="M47.57,97c-0.29,3.58-1,6.95-2.42,9.96
		c-3.93,1.99-8.11,3.29-12.53,3.93c3.45-2.7,6.92-6.11,9.04-8.84l-0.29-5.25l-5.55-1.23c0.58-0.57,1-1.29,1.22-2.1
		c0.23-0.85,0.22-1.72-0.01-2.52l5.43-0.88C44.59,91.9,46.24,94.27,47.57,97z"/>
	
		<radialGradient id="SVGID_00000060017506600318395490000003769691727550681487_" cx="27.8811" cy="88.801" r="11.4163" gradientUnits="userSpaceOnUse">
		<stop  offset="0" style="stop-color:#FF8759"/>
		<stop  offset="0.7619" style="stop-color:#AB1535"/>
		<stop  offset="0.8168" style="stop-color:#AD1836"/>
		<stop  offset="0.86" style="stop-color:#B52239"/>
		<stop  offset="0.8994" style="stop-color:#C1333E"/>
		<stop  offset="0.9363" style="stop-color:#D24A46"/>
		<stop  offset="0.9713" style="stop-color:#E8684F"/>
		<stop  offset="1" style="stop-color:#FF8759"/>
	</radialGradient>
	<path style="fill:url(#SVGID_00000060017506600318395490000003769691727550681487_);" d="M37.03,90.96
		c0.23,0.8,0.24,1.66,0.01,2.52c-0.22,0.81-0.64,1.52-1.22,2.1c-1.34,1.36-3.5,1.96-5.65,1.37c-2.42-0.65-4.09-2.6-4.31-4.75
		c-0.06-0.55-0.02-1.13,0.13-1.71c0.28-1.04,0.89-1.9,1.71-2.52c0.97-0.77,2.24-1.2,3.59-1.18c0.52,0,1.05,0.08,1.58,0.22
		c0.96,0.27,1.81,0.73,2.5,1.34C36.16,89.07,36.74,89.98,37.03,90.96z"/>
	
		<linearGradient id="SVGID_00000047039467854092008160000007287010814745801149_" gradientUnits="userSpaceOnUse" x1="31.8305" y1="83.7323" x2="36.7608" y2="86.0423">
		<stop  offset="0" style="stop-color:#4DA9A3"/>
		<stop  offset="0.7765" style="stop-color:#004D5C"/>
		<stop  offset="0.845" style="stop-color:#02505E"/>
		<stop  offset="0.8875" style="stop-color:#095865"/>
		<stop  offset="0.9229" style="stop-color:#156770"/>
		<stop  offset="0.9545" style="stop-color:#277B80"/>
		<stop  offset="0.9831" style="stop-color:#3D9694"/>
		<stop  offset="1" style="stop-color:#4DA9A3"/>
	</linearGradient>
	<path style="fill:url(#SVGID_00000047039467854092008160000007287010814745801149_);" d="M37.74,83.18l-2.39,5.16
		c-0.68-0.6-1.53-1.07-2.5-1.34c-0.53-0.14-1.06-0.22-1.58-0.22l1.75-5.56L37.74,83.18z"/>
	
		<linearGradient id="SVGID_00000116950268827323676460000006756636430958895807_" gradientUnits="userSpaceOnUse" x1="55.6597" y1="22.8015" x2="46.4657" y2="60.3133">
		<stop  offset="0" style="stop-color:#4DA9A3"/>
		<stop  offset="1" style="stop-color:#004D5C"/>
	</linearGradient>
	<path style="fill:url(#SVGID_00000116950268827323676460000006756636430958895807_);" d="M63.42,32.32l-4.34,12.03l-4.34-1.42
		l-9.59-3.44c-4.49-1.33-1.99-13.44,3.93-11.9l9.45,3L63.42,32.32z M50.23,34.42c0.33-1.18-0.09-2.33-0.96-2.58
		c-0.86-0.25-1.84,0.51-2.17,1.69c-0.33,1.18,0.09,2.33,0.95,2.58C48.92,36.35,49.89,35.6,50.23,34.42z"/>
	
		<linearGradient id="SVGID_00000164510012381925987580000017494443354023886473_" gradientUnits="userSpaceOnUse" x1="122.9177" y1="39.2863" x2="113.7236" y2="76.7981">
		<stop  offset="0" style="stop-color:#4DA9A3"/>
		<stop  offset="1" style="stop-color:#004D5C"/>
	</linearGradient>
	<path style="fill:url(#SVGID_00000164510012381925987580000017494443354023886473_);" d="M131.78,55.38
		c5.9,1.98-0.86,15.72-7.83,13.46l-7.81-2.95l-2.15-0.81l-12.37-4.82l5.91-13.71L131.78,55.38z M124.83,60.13
		c0.38-1.33-0.11-2.64-1.09-2.92c-0.97-0.28-2.08,0.57-2.46,1.9s0.11,2.64,1.08,2.92C123.34,62.31,124.44,61.46,124.83,60.13z"/>
	
		<linearGradient id="SVGID_00000088851971883096805650000018198257466220776364_" gradientUnits="userSpaceOnUse" x1="91.6635" y1="111.1635" x2="123.9465" y2="111.1635">
		<stop  offset="0" style="stop-color:#4DA9A3"/>
		<stop  offset="1" style="stop-color:#004D5C"/>
	</linearGradient>
	<polygon style="fill:url(#SVGID_00000088851971883096805650000018198257466220776364_);" points="123.95,68.84 99,156.44 
		94.14,154 91.66,153.05 116.14,65.89 	"/>
	
		<linearGradient id="SVGID_00000162313986822770731280000010098684732322961556_" gradientUnits="userSpaceOnUse" x1="160.6113" y1="197.3139" x2="155.7384" y2="205.2667">
		<stop  offset="0" style="stop-color:#4DA9A3"/>
		<stop  offset="0.7765" style="stop-color:#004D5C"/>
		<stop  offset="0.845" style="stop-color:#02505E"/>
		<stop  offset="0.8875" style="stop-color:#095865"/>
		<stop  offset="0.9229" style="stop-color:#156770"/>
		<stop  offset="0.9545" style="stop-color:#277B80"/>
		<stop  offset="0.9831" style="stop-color:#3D9694"/>
		<stop  offset="1" style="stop-color:#4DA9A3"/>
	</linearGradient>
	<polygon style="fill:url(#SVGID_00000162313986822770731280000010098684732322961556_);" points="161.54,199.22 158.13,206.12 
		154.25,204.01 157.97,196.85 	"/>
	<polygon class="st11" points="141.28,275.34 141.04,278.83 116.46,278.58 115.7,275.34 	"/>
	<polygon class="st11" points="142.82,263.35 142.05,271.57 114.39,271.57 113.24,263.35 	"/>
	
		<linearGradient id="SVGID_00000038395035380492710040000006669864246855790779_" gradientUnits="userSpaceOnUse" x1="85.2867" y1="266.2474" x2="150.4727" y2="294.1053">
		<stop  offset="0" style="stop-color:#FFCB5D"/>
		<stop  offset="0.7429" style="stop-color:#ED8E26"/>
		<stop  offset="0.8404" style="stop-color:#EB861F"/>
	</linearGradient>
	<path style="fill:url(#SVGID_00000038395035380492710040000006669864246855790779_);" d="M106.17,267.46l6.71,12.27H98.8
		C98.96,279.52,106.17,267.46,106.17,267.46z M106.43,275.98l0.27-5.63h-1.2l0.27,5.63H106.43z M106.64,277.87
		c0-0.53-0.24-0.95-0.54-0.95c-0.29,0-0.53,0.42-0.53,0.95c0,0.53,0.24,0.95,0.53,0.95C106.4,278.82,106.64,278.4,106.64,277.87z"/>
	<path class="st13" d="M106.1,276.92c0.3,0,0.54,0.42,0.54,0.95c0,0.53-0.24,0.95-0.54,0.95c-0.29,0-0.53-0.42-0.53-0.95
		C105.57,277.34,105.8,276.92,106.1,276.92z M105.5,270.35l0.27,5.63h0.66l0.27-5.63H105.5z M96.22,281.14h19.31l-9.36-19.4
		L96.22,281.14z M98.8,279.73c0.15-0.22,7.37-12.27,7.37-12.27l6.71,12.27H98.8z"/>
	<polygon class="st2" points="91.66,286.38 89.73,295.67 65.09,295.67 67.84,286.38 70.33,286.38 90.1,286.38 	"/>
	<polygon class="st14" points="95.24,254.66 90.1,286.38 70.33,286.38 78.14,254.66 	"/>
	
		<linearGradient id="SVGID_00000157283229107076672000000013536884124495404716_" gradientUnits="userSpaceOnUse" x1="89.7297" y1="291.0239" x2="156.8489" y2="291.0239">
		<stop  offset="0" style="stop-color:#4DA9A3"/>
		<stop  offset="1" style="stop-color:#004D5C"/>
	</linearGradient>
	<polygon style="fill:url(#SVGID_00000157283229107076672000000013536884124495404716_);" points="153.45,286.38 156.85,295.67 
		89.73,295.67 91.66,286.38 151.42,286.38 	"/>
	
		<linearGradient id="SVGID_00000027579801986276082550000004895238988449342377_" gradientUnits="userSpaceOnUse" x1="88.8869" y1="257.8234" x2="154.0728" y2="285.6814">
		<stop  offset="0" style="stop-color:#FFCB5D"/>
		<stop  offset="0.7429" style="stop-color:#ED8E26"/>
		<stop  offset="0.8404" style="stop-color:#EB861F"/>
	</linearGradient>
	<path style="fill:url(#SVGID_00000027579801986276082550000004895238988449342377_);" d="M147.09,254.66l4.32,31.72H91.66H90.1
		l5.14-31.72h2.72h36.17H147.09z M142.05,271.57l0.77-8.22h-29.58l1.16,8.22H142.05z M141.04,278.83l0.24-3.49H115.7l0.76,3.24
		L141.04,278.83z M115.53,281.14l-9.36-19.4l-9.95,19.4H115.53z"/>
	
		<linearGradient id="SVGID_00000092428362736578167280000016932155456190041736_" gradientUnits="userSpaceOnUse" x1="97.9616" y1="252.3652" x2="134.1302" y2="252.3652">
		<stop  offset="0" style="stop-color:#4DA9A3"/>
		<stop  offset="0.7765" style="stop-color:#004D5C"/>
		<stop  offset="0.845" style="stop-color:#02505E"/>
		<stop  offset="0.8875" style="stop-color:#095865"/>
		<stop  offset="0.9229" style="stop-color:#156770"/>
		<stop  offset="0.9545" style="stop-color:#277B80"/>
		<stop  offset="0.9831" style="stop-color:#3D9694"/>
		<stop  offset="1" style="stop-color:#4DA9A3"/>
	</linearGradient>
	<polygon style="fill:url(#SVGID_00000092428362736578167280000016932155456190041736_);" points="131.93,250.07 134.13,254.66 
		97.96,254.66 100.9,250.07 102.47,250.07 129.72,250.07 	"/>
	
		<linearGradient id="SVGID_00000052792004645514898850000015018721729752178339_" gradientUnits="userSpaceOnUse" x1="102.4665" y1="246.2723" x2="129.7225" y2="246.2723">
		<stop  offset="0" style="stop-color:#4DA9A3"/>
		<stop  offset="0.7765" style="stop-color:#004D5C"/>
		<stop  offset="0.845" style="stop-color:#02505E"/>
		<stop  offset="0.8875" style="stop-color:#095865"/>
		<stop  offset="0.9229" style="stop-color:#156770"/>
		<stop  offset="0.9545" style="stop-color:#277B80"/>
		<stop  offset="0.9831" style="stop-color:#3D9694"/>
		<stop  offset="1" style="stop-color:#4DA9A3"/>
	</linearGradient>
	<polygon style="fill:url(#SVGID_00000052792004645514898850000015018721729752178339_);" points="128.99,242.48 129.72,250.07 
		102.47,250.07 103.75,242.48 	"/>
	
		<linearGradient id="SVGID_00000074443371293458255880000007884067972761828749_" gradientUnits="userSpaceOnUse" x1="100.2087" y1="238.478" x2="132.0128" y2="238.478">
		<stop  offset="0" style="stop-color:#4DA9A3"/>
		<stop  offset="0.7765" style="stop-color:#004D5C"/>
		<stop  offset="0.845" style="stop-color:#02505E"/>
		<stop  offset="0.8875" style="stop-color:#095865"/>
		<stop  offset="0.9229" style="stop-color:#156770"/>
		<stop  offset="0.9545" style="stop-color:#277B80"/>
		<stop  offset="0.9831" style="stop-color:#3D9694"/>
		<stop  offset="1" style="stop-color:#4DA9A3"/>
	</linearGradient>
	<polygon style="fill:url(#SVGID_00000074443371293458255880000007884067972761828749_);" points="132.01,234.48 131.74,242.48 
		128.99,242.48 103.75,242.48 100.21,242.48 100.86,234.48 107.84,234.48 	"/>
	<polygon class="st20" points="151.7,208.88 145.81,208.51 142.73,206.22 143.44,202.24 	"/>
	
		<linearGradient id="SVGID_00000089545848489742129200000004782855628313496988_" gradientUnits="userSpaceOnUse" x1="108.0192" y1="177.1619" x2="142.3592" y2="231.3612">
		<stop  offset="0" style="stop-color:#FFCB5D"/>
		<stop  offset="0.7429" style="stop-color:#ED8E26"/>
		<stop  offset="0.8404" style="stop-color:#EB861F"/>
	</linearGradient>
	<path style="fill:url(#SVGID_00000089545848489742129200000004782855628313496988_);" d="M146.89,182.98l-3.45,19.26l-0.71,3.98
		l-5.2,28.26h-5.52h-24.18l7.59-52.08c1.34-6.13,7.72-11.71,15.39-12.05C140.16,170.44,145.96,176.85,146.89,182.98z M141.76,185.18
		c1.49-12.54-18.86-12.05-21.93,0.67l-3.08,20.75l20.6,0.79L141.76,185.18z M133.21,228.18l3.06-15.37l-20.26-1.24l-2.46,16.62
		H133.21z"/>
	<path class="st14" d="M125.4,170.26l5.42,0.1c-7.67,0.33-14.05,5.92-15.39,12.05l-7.59,52.08h-6.98h-4.97l6.34-52.08l1.9,1.54
		l-2.29,28.38h4.76l2.99-23.92l0.58-4.61l0.08-0.64C111.97,175.29,120.12,170.81,125.4,170.26z"/>
	
		<linearGradient id="SVGID_00000044145411074290766780000015497352710498421660_" gradientUnits="userSpaceOnUse" x1="82.6508" y1="155.4618" x2="149.9512" y2="196.2832">
		<stop  offset="0" style="stop-color:#FFCB5D"/>
		<stop  offset="0.7429" style="stop-color:#ED8E26"/>
		<stop  offset="0.8404" style="stop-color:#EB861F"/>
	</linearGradient>
	<path style="fill:url(#SVGID_00000044145411074290766780000015497352710498421660_);" d="M160.8,191.23l-2.83,5.63l-3.73,7.15
		l-2.55,4.87l-8.25-6.63l3.45-19.26L160.8,191.23z M150.64,204.23l6.2-11.33l-8.32-5.4l-3.26,12.93L150.64,204.23z M104.63,159.23
		l20.77,11.03c-5.28,0.55-13.43,5.03-15.15,12.9l-0.08,0.64h-0.01l-18.54-14.09L99,156.44L104.63,159.23z M116.25,169.06
		l-15.35-8.45l-4.99,8.28l11.67,8.4C109.95,173.51,112.59,170.72,116.25,169.06z"/>
	<g>
		
			<linearGradient id="SVGID_00000176042242742637394690000007045435840107026623_" gradientUnits="userSpaceOnUse" x1="82.7358" y1="155.3215" x2="150.0362" y2="196.143">
			<stop  offset="0" style="stop-color:#FFCB5D"/>
			<stop  offset="0.7429" style="stop-color:#ED8E26"/>
			<stop  offset="0.8404" style="stop-color:#EB861F"/>
		</linearGradient>
		<path style="fill:url(#SVGID_00000176042242742637394690000007045435840107026623_);" d="M156.84,192.9l-6.2,11.33l-5.38-3.8
			l3.26-12.93L156.84,192.9z M95.91,168.88l11.67,8.4c2.38-3.78,5.01-6.57,8.67-8.23l-15.35-8.45L95.91,168.88z"/>
		<path class="st24" d="M150.73,204.63l-5.78-4.08l3.4-13.48l8.85,5.74L150.73,204.63z M145.56,200.32l4.98,3.52l5.94-10.85
			l-7.79-5.06L145.56,200.32z M107.65,177.68l-0.23-0.17l-11.87-8.55l5.25-8.71l0.23,0.13l15.82,8.71l-0.49,0.22
			c-3.34,1.52-5.98,4.02-8.56,8.13L107.65,177.68z M96.27,168.81l11.23,8.09c2.47-3.86,5.01-6.32,8.16-7.86L101,160.97L96.27,168.81
			z"/>
	</g>
	<polygon class="st20" points="110.18,183.79 109.6,188.41 104.13,183.94 102.23,182.4 84.21,167.42 86.41,168.05 88.56,170.05 
		90.77,170.81 88.74,168.8 91.63,169.71 110.17,183.79 	"/>
	<polygon class="st20" points="109.6,188.41 106.6,212.32 101.84,212.32 104.13,183.94 	"/>
	
		<linearGradient id="SVGID_00000034773601673511219870000011095510194780314801_" gradientUnits="userSpaceOnUse" x1="62.1758" y1="27.0266" x2="103.825" y2="59.1599">
		<stop  offset="0" style="stop-color:#FFCB5D"/>
		<stop  offset="0.7429" style="stop-color:#ED8E26"/>
		<stop  offset="0.8404" style="stop-color:#EB861F"/>
	</linearGradient>
	<path style="fill:url(#SVGID_00000034773601673511219870000011095510194780314801_);" d="M109.89,41.13l-2.37,5.42l-5.91,13.71
		l-2.55,5.48l-37.54-16.5l0.02-0.04l6.51-19.15L109.89,41.13z M95.89,59.15l7.17-15.23l-6.95-2.03l-9.67,3.27l4.7,11.93L95.89,59.15
		z M84.98,42.69l6.45-2.18L82.84,38L84.98,42.69z M87.29,55.41l-3.55-9.36l-8.11,4.28L87.29,55.41z M82.21,43.47l-3.74-6.74
		l-7.54-2.19L67.07,46.6l4.76,2.06L82.21,43.47z"/>
	<polygon class="st14" points="98.82,155.99 91.45,169.25 88.55,168.34 96.29,154.73 	"/>
	<polygon class="st14" points="94.14,154 86.23,167.6 84.03,166.96 91.66,153.05 	"/>
	<g>
		
			<linearGradient id="SVGID_00000014624893959165203060000015972353936169155742_" gradientUnits="userSpaceOnUse" x1="61.8994" y1="27.3848" x2="103.5484" y2="59.5181">
			<stop  offset="0" style="stop-color:#FFCB5D"/>
			<stop  offset="0.7429" style="stop-color:#ED8E26"/>
			<stop  offset="0.8404" style="stop-color:#EB861F"/>
		</linearGradient>
		<path style="fill:url(#SVGID_00000014624893959165203060000015972353936169155742_);" d="M103.06,43.91l-7.17,15.23l-4.74-2.06
			l-4.7-11.93l9.67-3.27L103.06,43.91z M82.84,38l2.14,4.69l6.45-2.18L82.84,38z M75.62,50.33l11.67,5.08l-3.55-9.36L75.62,50.33z
			 M70.94,34.54L67.07,46.6l4.76,2.06l10.38-5.2l-3.74-6.74L70.94,34.54z"/>
		<path class="st24" d="M96.02,59.5l-5.08-2.21l-0.04-0.1l-4.8-12.19l10.02-3.39l0.08,0.02l7.25,2.12L96.02,59.5z M91.36,56.88
			l4.4,1.91l6.93-14.71l-6.56-1.92l-9.32,3.16L91.36,56.88z M87.77,55.91L75,50.35l8.88-4.68L87.77,55.91z M76.25,50.31l10.56,4.6
			l-3.22-8.47L76.25,50.31z M71.84,48.96l-5.1-2.21l4.02-12.55l7.9,2.3l3.93,7.08L71.84,48.96z M67.4,46.45l4.42,1.92l10.02-5.01
			l-3.55-6.4l-7.18-2.09L67.4,46.45z M84.84,43.03l-2.49-5.45l9.98,2.91L84.84,43.03z M83.33,38.43l1.79,3.93l5.41-1.83L83.33,38.43
			z"/>
	</g>
	<polygon class="st14" points="59.6,27.8 68.06,30.04 61.55,49.2 61.53,49.24 53.63,45.77 54.73,42.94 59.07,44.36 63.42,32.32 
		58.52,30.6 	"/>
	
		<linearGradient id="SVGID_00000001656441618448466850000005001479092142463678_" gradientUnits="userSpaceOnUse" x1="24.4732" y1="54.0912" x2="65.5706" y2="59.6076">
		<stop  offset="0" style="stop-color:#FFCB5D"/>
		<stop  offset="0.7429" style="stop-color:#ED8E26"/>
		<stop  offset="0.8404" style="stop-color:#EB861F"/>
	</linearGradient>
	<polygon style="fill:url(#SVGID_00000001656441618448466850000005001479092142463678_);" points="54.73,42.94 53.63,45.77 
		43.71,74.03 36.06,70.94 45.14,39.51 	"/>
	
		<linearGradient id="SVGID_00000165916078700044921260000004572086306777486754_" gradientUnits="userSpaceOnUse" x1="28.5225" y1="73.6422" x2="44.1065" y2="79.9861">
		<stop  offset="0" style="stop-color:#FF8759"/>
		<stop  offset="0.7619" style="stop-color:#AB1535"/>
		<stop  offset="0.8168" style="stop-color:#AD1836"/>
		<stop  offset="0.86" style="stop-color:#B52239"/>
		<stop  offset="0.8994" style="stop-color:#C1333E"/>
		<stop  offset="0.9363" style="stop-color:#D24A46"/>
		<stop  offset="0.9713" style="stop-color:#E8684F"/>
		<stop  offset="1" style="stop-color:#FF8759"/>
	</linearGradient>
	<polygon style="fill:url(#SVGID_00000165916078700044921260000004572086306777486754_);" points="45.97,74.92 41.63,84.8 
		37.74,83.18 33.03,81.23 29.03,79.56 31.5,69.04 33.73,70 36.06,70.94 43.71,74.03 	"/>
	<polygon class="st14" points="45.14,39.51 36.06,70.94 33.73,70 42.59,38.6 	"/>
	<g>
		
			<linearGradient id="SVGID_00000002365259820743585930000017909383028708735880_" gradientUnits="userSpaceOnUse" x1="109.5417" y1="176.1973" x2="143.8815" y2="230.3965">
			<stop  offset="0" style="stop-color:#FFCB5D"/>
			<stop  offset="0.7429" style="stop-color:#ED8E26"/>
			<stop  offset="0.8404" style="stop-color:#EB861F"/>
		</linearGradient>
		<path style="fill:url(#SVGID_00000002365259820743585930000017909383028708735880_);" d="M119.83,185.85
			c3.07-12.72,23.42-13.21,21.93-0.67l-4.41,22.21l-20.6-0.79L119.83,185.85z M116.01,211.57l-2.46,16.62h19.66l3.06-15.37
			L116.01,211.57z"/>
		<path class="st24" d="M133.43,228.45h-20.2l2.55-17.17l0.25,0.01l20.56,1.26L133.43,228.45z M113.86,227.91h19.13l2.95-14.85
			l-19.7-1.21L113.86,227.91z M137.57,207.67l-0.23-0.01l-20.9-0.8l3.13-21.07c1.8-7.46,9.46-10.92,15.51-9.83
			c3.81,0.68,7.63,3.47,6.95,9.25L137.57,207.67z M117.06,206.34l20.07,0.77l4.36-21.98c0.54-4.57-1.89-7.81-6.51-8.64
			c-5.82-1.05-13.16,2.26-14.89,9.41L117.06,206.34z"/>
	</g>
	<g>
		<path class="st30" d="M133.13,184.2c1.34,0.38,2,2.17,1.48,3.99c-0.05,0.19-0.13,0.39-0.21,0.57c-0.03,0.08-0.06,0.15-0.1,0.23
			c-0.05,0.11-0.11,0.19-0.16,0.29c-0.05,0.08-0.11,0.16-0.15,0.24c-0.05,0.08-0.11,0.15-0.17,0.22c-0.05,0.08-0.11,0.14-0.17,0.21
			c-0.05,0.06-0.12,0.13-0.18,0.18c-0.05,0.04-0.1,0.09-0.15,0.14c-0.12,0.09-0.24,0.17-0.37,0.25c-0.37,0.21-0.77,0.32-1.18,0.36
			h-0.01c-0.18,0-0.35-0.02-0.52-0.08c-1.34-0.38-2.01-2.17-1.48-3.99c0.49-1.71,1.84-2.84,3.11-2.66
			C132.95,184.16,133.04,184.18,133.13,184.2z"/>
		
			<linearGradient id="SVGID_00000043446511911066650420000011475129788506569147_" gradientUnits="userSpaceOnUse" x1="129.9508" y1="182.5082" x2="130.2266" y2="194.9891">
			<stop  offset="0" style="stop-color:#FF8759"/>
			<stop  offset="0.7619" style="stop-color:#AB1535"/>
			<stop  offset="0.8168" style="stop-color:#AD1836"/>
			<stop  offset="0.86" style="stop-color:#B52239"/>
			<stop  offset="0.8994" style="stop-color:#C1333E"/>
			<stop  offset="0.9363" style="stop-color:#D24A46"/>
			<stop  offset="0.9713" style="stop-color:#E8684F"/>
			<stop  offset="1" style="stop-color:#FF8759"/>
		</linearGradient>
		<path style="fill:url(#SVGID_00000043446511911066650420000011475129788506569147_);" d="M132.87,184.15
			c-1.27-0.18-2.63,0.95-3.11,2.66c-0.53,1.81,0.14,3.61,1.48,3.99c0.17,0.05,0.33,0.08,0.52,0.08c-0.11,0.02-0.22,0.02-0.32,0.02
			c-0.4-0.01-1.91,0.03-2.48-0.13c-1.42-0.41-2.12-2.31-1.57-4.25c0.55-1.93,2.15-3.17,3.58-2.75
			C131.23,183.85,132.3,184.02,132.87,184.15z"/>
	</g>
	
		<linearGradient id="SVGID_00000117657560495783452550000018401978700016749222_" gradientUnits="userSpaceOnUse" x1="22.5707" y1="71.7212" x2="42.338" y2="78.4328">
		<stop  offset="0" style="stop-color:#F5ECBD"/>
		<stop  offset="0.1103" style="stop-color:#E2D9AE"/>
		<stop  offset="0.335" style="stop-color:#B0A987"/>
		<stop  offset="0.6545" style="stop-color:#5F5B49"/>
		<stop  offset="1" style="stop-color:#000000"/>
	</linearGradient>
	<polygon style="fill:url(#SVGID_00000117657560495783452550000018401978700016749222_);" points="31.97,69.98 29.83,78.91 
		33.46,80.35 36.49,72.8 44.94,75.17 	"/>
	
		<linearGradient id="SVGID_00000020357684054341444830000009594101246487144122_" gradientUnits="userSpaceOnUse" x1="27.216" y1="84.6288" x2="32.6405" y2="95.202">
		<stop  offset="0" style="stop-color:#F5ECBD"/>
		<stop  offset="0.1103" style="stop-color:#E2D9AE"/>
		<stop  offset="0.335" style="stop-color:#B0A987"/>
		<stop  offset="0.6545" style="stop-color:#5F5B49"/>
		<stop  offset="1" style="stop-color:#000000"/>
	</linearGradient>
	<path style="fill:url(#SVGID_00000020357684054341444830000009594101246487144122_);" d="M33.39,90.25
		c0.12,0.44,0.13,0.91,0.01,1.37c-0.12,0.44-0.35,0.83-0.67,1.14c-0.73,0.74-1.91,1.07-3.08,0.75c-1.32-0.35-2.23-1.42-2.35-2.59
		c-0.04-0.3-0.01-0.62,0.07-0.93c0.15-0.57,0.48-1.04,0.93-1.37c0.53-0.42,1.22-0.65,1.96-0.64c0.28,0,0.57,0.04,0.86,0.12
		c0.52,0.15,0.99,0.4,1.36,0.73C32.92,89.22,33.24,89.72,33.39,90.25z"/>
	<polygon class="st34" points="100.86,234.48 100.64,237.15 117.77,238.11 117.77,242.48 103.75,242.48 103.48,244.11 
		118.46,244.11 118.73,250.07 116.63,250.07 116.11,254.66 128.87,254.66 126.66,250.07 125.08,250.07 124.67,244.18 129.12,243.83 
		128.99,242.48 125.8,242.48 125.84,238.11 131.92,237.08 132.01,234.48 	"/>
	
		<linearGradient id="SVGID_00000055680350292903163420000009620299268719359104_" gradientUnits="userSpaceOnUse" x1="94.2951" y1="238.9944" x2="112.7291" y2="241.2929">
		<stop  offset="0" style="stop-color:#8A8677"/>
		<stop  offset="0.1713" style="stop-color:#706D61"/>
		<stop  offset="0.7396" style="stop-color:#201F1B"/>
		<stop  offset="1" style="stop-color:#000000"/>
	</linearGradient>
	<polygon style="fill:url(#SVGID_00000055680350292903163420000009620299268719359104_);" points="101.05,238.04 100.64,241.97 
		108.08,241.97 108.08,238.52 	"/>
	
		<linearGradient id="SVGID_00000083077234755416191040000013219149323687326373_" gradientUnits="userSpaceOnUse" x1="97.5466" y1="246.0665" x2="114.3293" y2="248.1591">
		<stop  offset="0" style="stop-color:#8A8677"/>
		<stop  offset="0.1713" style="stop-color:#706D61"/>
		<stop  offset="0.7396" style="stop-color:#201F1B"/>
		<stop  offset="1" style="stop-color:#000000"/>
	</linearGradient>
	<polygon style="fill:url(#SVGID_00000083077234755416191040000013219149323687326373_);" points="103.84,244.57 103.15,249.56 
		110,249.56 110,244.82 	"/>
	
		<linearGradient id="SVGID_00000012465609793781935830000006903450796410775740_" gradientUnits="userSpaceOnUse" x1="91.5305" y1="250.9095" x2="113.8634" y2="253.6942">
		<stop  offset="0" style="stop-color:#8A8677"/>
		<stop  offset="0.1713" style="stop-color:#706D61"/>
		<stop  offset="0.7396" style="stop-color:#201F1B"/>
		<stop  offset="1" style="stop-color:#000000"/>
	</linearGradient>
	<polygon style="fill:url(#SVGID_00000012465609793781935830000006903450796410775740_);" points="101.27,250.66 99.15,254.25 
		108.25,254.25 108.71,250.66 	"/>
	<path class="st24" d="M43.02,70.29l-4.72-1.05l7.49-26.26l5.79,2.02L43.02,70.29z M38.98,68.84l3.68,0.82l8.23-24.32l-4.74-1.66
		L38.98,68.84z"/>
	<polygon class="st34" points="107.53,46.55 112.17,48.24 110.28,63.63 101.62,60.26 	"/>
	<polygon class="st34" points="116.14,65.89 114.54,68.57 121.01,74.26 123.95,68.84 	"/>
	<polygon class="st38" points="45.14,39.51 43.62,44.75 52.61,48.67 54.73,42.94 	"/>
	<polygon class="st38" points="146.89,182.98 143.44,202.24 148.86,206.6 151.37,185.64 	"/>
	
		<linearGradient id="SVGID_00000050625414207541778720000002132442449420224387_" gradientUnits="userSpaceOnUse" x1="94.2586" y1="243.2056" x2="125.6332" y2="278.2349">
		<stop  offset="0" style="stop-color:#8A8677"/>
		<stop  offset="0.1713" style="stop-color:#706D61"/>
		<stop  offset="0.7396" style="stop-color:#201F1B"/>
		<stop  offset="1" style="stop-color:#000000"/>
	</linearGradient>
	<polygon style="fill:url(#SVGID_00000050625414207541778720000002132442449420224387_);" points="96.22,255.97 91.66,285.28 
		99.84,285.28 105.87,258.73 145.97,255.97 	"/>
</g>
</svg>
