<svg xmlns="http://www.w3.org/2000/svg" xmlns:xlink="http://www.w3.org/1999/xlink" width="500" zoomAndPan="magnify" viewBox="0 0 375 374.999991" height="500" preserveAspectRatio="xMidYMid meet" version="1.0"><defs><g/><clipPath id="d4ef6809b6"><path d="M 18.75 18.75 L 354.75 18.75 L 354.75 354.75 L 18.75 354.75 Z M 18.75 18.75 " clip-rule="nonzero"/></clipPath><clipPath id="c0b1fa03b7"><path d="M 186.75 18.75 C 93.964844 18.75 18.75 93.964844 18.75 186.75 C 18.75 279.535156 93.964844 354.75 186.75 354.75 C 279.535156 354.75 354.75 279.535156 354.75 186.75 C 354.75 93.964844 279.535156 18.75 186.75 18.75 Z M 186.75 18.75 " clip-rule="nonzero"/></clipPath><clipPath id="e3ea5facd0"><path d="M 43 40 L 300 40 L 300 322 L 43 322 Z M 43 40 " clip-rule="nonzero"/></clipPath><clipPath id="a3e818a183"><path d="M 33 51.730469 L 284.21875 31.886719 L 306.363281 312.265625 L 55.144531 332.105469 Z M 33 51.730469 " clip-rule="nonzero"/></clipPath><clipPath id="904b7cc915"><path d="M 33 51.730469 L 284.21875 31.886719 L 306.363281 312.265625 L 55.144531 332.105469 Z M 33 51.730469 " clip-rule="nonzero"/></clipPath><clipPath id="47a6bb091f"><path d="M 44 194 L 300 194 L 300 322 L 44 322 Z M 44 194 " clip-rule="nonzero"/></clipPath><clipPath id="10a180038e"><path d="M 33 51.730469 L 284.21875 31.886719 L 306.363281 312.265625 L 55.144531 332.105469 Z M 33 51.730469 " clip-rule="nonzero"/></clipPath><clipPath id="e35b328d51"><path d="M 33 51.730469 L 284.21875 31.886719 L 306.363281 312.265625 L 55.144531 332.105469 Z M 33 51.730469 " clip-rule="nonzero"/></clipPath><clipPath id="1a7e278178"><path d="M 76 69 L 257 69 L 257 291 L 76 291 Z M 76 69 " clip-rule="nonzero"/></clipPath><clipPath id="a5060a36cd"><path d="M 33 51.730469 L 284.21875 31.886719 L 306.363281 312.265625 L 55.144531 332.105469 Z M 33 51.730469 " clip-rule="nonzero"/></clipPath><clipPath id="8cc55d8c08"><path d="M 33 51.730469 L 284.21875 31.886719 L 306.363281 312.265625 L 55.144531 332.105469 Z M 33 51.730469 " clip-rule="nonzero"/></clipPath><clipPath id="50ca98e189"><path d="M 231 77 L 262 77 L 262 109 L 231 109 Z M 231 77 " clip-rule="nonzero"/></clipPath><clipPath id="588cb9c248"><path d="M 33 51.730469 L 284.21875 31.886719 L 306.363281 312.265625 L 55.144531 332.105469 Z M 33 51.730469 " clip-rule="nonzero"/></clipPath><clipPath id="5d7bb9e14d"><path d="M 33 51.730469 L 284.21875 31.886719 L 306.363281 312.265625 L 55.144531 332.105469 Z M 33 51.730469 " clip-rule="nonzero"/></clipPath><clipPath id="30e68130b3"><path d="M 237 84 L 256 84 L 256 102 L 237 102 Z M 237 84 " clip-rule="nonzero"/></clipPath><clipPath id="23edf75925"><path d="M 33 51.730469 L 284.21875 31.886719 L 306.363281 312.265625 L 55.144531 332.105469 Z M 33 51.730469 " clip-rule="nonzero"/></clipPath><clipPath id="6ba9fca37a"><path d="M 33 51.730469 L 284.21875 31.886719 L 306.363281 312.265625 L 55.144531 332.105469 Z M 33 51.730469 " clip-rule="nonzero"/></clipPath><clipPath id="2bc4684c1c"><path d="M 239 249 L 271 249 L 271 281 L 239 281 Z M 239 249 " clip-rule="nonzero"/></clipPath><clipPath id="95b1cd910d"><path d="M 33 51.730469 L 284.21875 31.886719 L 306.363281 312.265625 L 55.144531 332.105469 Z M 33 51.730469 " clip-rule="nonzero"/></clipPath><clipPath id="6d62ead6ee"><path d="M 33 51.730469 L 284.21875 31.886719 L 306.363281 312.265625 L 55.144531 332.105469 Z M 33 51.730469 " clip-rule="nonzero"/></clipPath><clipPath id="abb8bc865a"><path d="M 246 262 L 264 262 L 264 267 L 246 267 Z M 246 262 " clip-rule="nonzero"/></clipPath><clipPath id="dc14b5af37"><path d="M 33 51.730469 L 284.21875 31.886719 L 306.363281 312.265625 L 55.144531 332.105469 Z M 33 51.730469 " clip-rule="nonzero"/></clipPath><clipPath id="a16c7f7dbe"><path d="M 33 51.730469 L 284.21875 31.886719 L 306.363281 312.265625 L 55.144531 332.105469 Z M 33 51.730469 " clip-rule="nonzero"/></clipPath></defs><g clip-path="url(#d4ef6809b6)"><g clip-path="url(#c0b1fa03b7)"><path fill="#ffffff" d="M 18.75 18.75 L 354.75 18.75 L 354.75 354.75 L 18.75 354.75 Z M 18.75 18.75 " fill-opacity="1" fill-rule="nonzero"/></g></g><g clip-path="url(#e3ea5facd0)"><g clip-path="url(#a3e818a183)"><g clip-path="url(#904b7cc915)"><path fill="#d62828" d="M 178.140625 104.449219 C 205.8125 102.261719 231.152344 115.171875 246.3125 136.210938 L 288.539062 86.742188 C 260.304688 55.453125 218.394531 37.125 173.105469 40.703125 C 95.734375 46.8125 37.957031 114.5 44.070312 191.871094 C 50.179688 269.242188 117.867188 327.019531 195.238281 320.910156 C 238.953125 317.457031 276.421875 294.335938 299.617188 260.890625 L 250.484375 218.953125 C 238.304688 240.074219 216.300781 255.101562 190.203125 257.160156 C 148.101562 260.488281 111.140625 228.9375 107.816406 186.835938 C 104.492188 144.734375 136.042969 107.773438 178.140625 104.449219 Z M 178.140625 104.449219 " fill-opacity="1" fill-rule="nonzero"/></g></g></g><g clip-path="url(#47a6bb091f)"><g clip-path="url(#10a180038e)"><g clip-path="url(#e35b328d51)"><path fill="#003049" d="M 190.203125 257.160156 C 150.589844 260.289062 115.550781 232.535156 108.78125 194.160156 L 44.859375 199.210938 C 54.519531 272.847656 120.355469 326.824219 195.238281 320.910156 C 238.953125 317.457031 276.421875 294.335938 299.617188 260.890625 L 250.484375 218.953125 C 238.304688 240.074219 216.300781 255.101562 190.203125 257.160156 Z M 190.203125 257.160156 " fill-opacity="1" fill-rule="nonzero"/></g></g></g><g clip-path="url(#1a7e278178)"><g clip-path="url(#a5060a36cd)"><g clip-path="url(#8cc55d8c08)"><path fill="#ffffff" d="M 76.394531 188.824219 C 81.207031 249.769531 134.722656 295.449219 195.667969 290.636719 C 218.121094 288.863281 239.203125 280.464844 256.625 266.332031 L 253.773438 262.820312 C 237.046875 276.371094 216.816406 284.417969 195.277344 286.121094 C 136.78125 290.738281 85.460938 246.933594 80.839844 188.4375 C 76.21875 129.945312 120.105469 78.6875 178.5625 74.070312 C 202.484375 72.179688 225.691406 78.171875 245.664062 91.433594 L 248.152344 87.675781 C 227.324219 73.882812 203.148438 67.617188 178.207031 69.585938 C 117.261719 74.402344 71.582031 127.878906 76.394531 188.824219 Z M 76.394531 188.824219 " fill-opacity="1" fill-rule="nonzero"/></g></g></g><g clip-path="url(#50ca98e189)"><g clip-path="url(#588cb9c248)"><g clip-path="url(#5d7bb9e14d)"><path fill="#ffffff" d="M 261.195312 88.492188 C 261.503906 89.449219 261.71875 90.429688 261.832031 91.433594 C 261.945312 92.433594 261.964844 93.4375 261.878906 94.441406 C 261.796875 95.445312 261.617188 96.433594 261.339844 97.402344 C 261.066406 98.371094 260.695312 99.304688 260.234375 100.203125 C 259.773438 101.097656 259.230469 101.941406 258.601562 102.730469 C 257.976562 103.519531 257.277344 104.242188 256.507812 104.894531 C 255.742188 105.546875 254.914062 106.117188 254.035156 106.605469 C 253.152344 107.097656 252.234375 107.496094 251.273438 107.804688 C 250.3125 108.113281 249.332031 108.324219 248.332031 108.4375 C 247.328125 108.554688 246.324219 108.570312 245.320312 108.488281 C 244.316406 108.40625 243.328125 108.226562 242.359375 107.949219 C 241.390625 107.671875 240.457031 107.300781 239.5625 106.839844 C 238.664062 106.378906 237.820312 105.835938 237.03125 105.210938 C 236.242188 104.582031 235.519531 103.886719 234.867188 103.117188 C 234.214844 102.347656 233.644531 101.523438 233.15625 100.640625 C 232.667969 99.757812 232.269531 98.839844 231.960938 97.878906 C 231.652344 96.917969 231.441406 95.9375 231.324219 94.9375 C 231.210938 93.933594 231.195312 92.933594 231.277344 91.925781 C 231.359375 90.921875 231.539062 89.933594 231.816406 88.964844 C 232.09375 87.996094 232.460938 87.0625 232.921875 86.167969 C 233.382812 85.269531 233.925781 84.425781 234.554688 83.636719 C 235.179688 82.847656 235.878906 82.128906 236.648438 81.476562 C 237.414062 80.824219 238.242188 80.253906 239.121094 79.761719 C 240.003906 79.273438 240.925781 78.875 241.882812 78.566406 C 242.84375 78.257812 243.824219 78.046875 244.828125 77.929688 C 245.828125 77.816406 246.832031 77.800781 247.835938 77.882812 C 248.839844 77.964844 249.828125 78.144531 250.796875 78.421875 C 251.765625 78.699219 252.699219 79.066406 253.597656 79.527344 C 254.492188 79.988281 255.335938 80.53125 256.125 81.160156 C 256.914062 81.785156 257.636719 82.484375 258.289062 83.253906 C 258.941406 84.023438 259.511719 84.847656 260 85.730469 C 260.488281 86.609375 260.890625 87.53125 261.195312 88.492188 Z M 261.195312 88.492188 " fill-opacity="1" fill-rule="nonzero"/></g></g></g><g clip-path="url(#30e68130b3)"><g clip-path="url(#23edf75925)"><g clip-path="url(#6ba9fca37a)"><path fill="#d62828" d="M 246.847656 84.570312 L 244.992188 84.71875 L 245.59375 92.320312 L 237.957031 92.921875 L 238.105469 94.8125 L 245.742188 94.210938 L 246.34375 101.8125 L 248.199219 101.664062 L 247.597656 94.0625 L 255.234375 93.460938 L 255.085938 91.570312 L 247.449219 92.171875 Z M 246.847656 84.570312 " fill-opacity="1" fill-rule="nonzero"/></g></g></g><g clip-path="url(#2bc4684c1c)"><g clip-path="url(#95b1cd910d)"><g clip-path="url(#6d62ead6ee)"><path fill="#ffffff" d="M 259.769531 250.210938 C 260.730469 250.519531 261.648438 250.921875 262.527344 251.414062 C 263.410156 251.90625 264.230469 252.480469 265 253.136719 C 265.765625 253.789062 266.460938 254.511719 267.085938 255.304688 C 267.710938 256.097656 268.25 256.941406 268.707031 257.839844 C 269.167969 258.738281 269.53125 259.671875 269.804688 260.640625 C 270.082031 261.613281 270.257812 262.601562 270.335938 263.605469 C 270.414062 264.609375 270.394531 265.613281 270.277344 266.613281 C 270.160156 267.617188 269.945312 268.59375 269.632812 269.554688 C 269.324219 270.511719 268.921875 271.433594 268.429688 272.3125 C 267.9375 273.191406 267.363281 274.015625 266.707031 274.78125 C 266.054688 275.550781 265.332031 276.246094 264.539062 276.867188 C 263.746094 277.492188 262.902344 278.035156 262.003906 278.492188 C 261.105469 278.949219 260.171875 279.316406 259.203125 279.589844 C 258.230469 279.863281 257.242188 280.039062 256.238281 280.121094 C 255.234375 280.199219 254.230469 280.179688 253.230469 280.0625 C 252.226562 279.945312 251.25 279.730469 250.289062 279.417969 C 249.332031 279.105469 248.410156 278.703125 247.53125 278.210938 C 246.652344 277.71875 245.828125 277.148438 245.0625 276.492188 C 244.292969 275.835938 243.597656 275.113281 242.976562 274.324219 C 242.351562 273.53125 241.808594 272.6875 241.351562 271.789062 C 240.894531 270.890625 240.527344 269.957031 240.253906 268.984375 C 239.980469 268.015625 239.804688 267.027344 239.722656 266.023438 C 239.644531 265.019531 239.664062 264.015625 239.78125 263.011719 C 239.898438 262.011719 240.113281 261.03125 240.425781 260.074219 C 240.738281 259.113281 241.140625 258.195312 241.632812 257.316406 C 242.125 256.4375 242.699219 255.613281 243.351562 254.84375 C 244.007812 254.078125 244.730469 253.382812 245.519531 252.757812 C 246.3125 252.132812 247.15625 251.59375 248.054688 251.136719 C 248.953125 250.675781 249.886719 250.3125 250.859375 250.039062 C 251.828125 249.765625 252.816406 249.585938 253.820312 249.507812 C 254.824219 249.429688 255.828125 249.449219 256.832031 249.566406 C 257.832031 249.683594 258.8125 249.898438 259.769531 250.210938 Z M 259.769531 250.210938 " fill-opacity="1" fill-rule="nonzero"/></g></g></g><g clip-path="url(#abb8bc865a)"><g clip-path="url(#dc14b5af37)"><g clip-path="url(#a16c7f7dbe)"><path fill="#d62828" d="M 246.378906 264.214844 L 263.503906 262.863281 L 263.664062 264.894531 L 246.539062 266.246094 Z M 246.378906 264.214844 " fill-opacity="1" fill-rule="nonzero"/></g></g></g><g fill="#d62828" fill-opacity="1"><g transform="translate(117.093438, 187.53258)"><g><path d="M 17.785156 -5.722656 C 14.011719 -5.566406 5.992188 -5.953125 5.992188 -15.566406 C 5.992188 -22.960938 11.011719 -25.800781 17.785156 -25.453125 L 17.785156 -18.5625 L 23.738281 -18.5625 L 23.738281 -30.785156 C 23.738281 -30.9375 23.585938 -31.132812 23.3125 -31.132812 L 18.253906 -31.132812 C 10.625 -31.132812 0 -29.382812 0 -15.566406 C 0 -2.257812 10.507812 0 18.253906 0 L 23.3125 0 C 23.585938 0 23.738281 -0.195312 23.738281 -0.351562 L 23.738281 -5.722656 Z M 17.785156 -5.722656 "/></g></g></g><g fill="#d62828" fill-opacity="1"><g transform="translate(142.032401, 187.53258)"><g><path d="M 17.902344 -15.488281 C 17.902344 -17.125 16.617188 -18.445312 14.984375 -18.445312 C 13.347656 -18.445312 12.0625 -17.125 12.0625 -15.488281 C 12.0625 -13.894531 13.347656 -12.570312 14.984375 -12.570312 C 16.617188 -12.570312 17.902344 -13.894531 17.902344 -15.488281 Z M 29.964844 -15.605469 C 29.964844 -23.351562 24.945312 -31.132812 15.023438 -31.132812 C 4.941406 -31.132812 0 -23.351562 0 -15.605469 C 0 -7.824219 4.941406 0 15.023438 0 C 24.945312 0 29.964844 -7.824219 29.964844 -15.605469 Z M 24.128906 -15.488281 C 24.128906 -10.46875 21.054688 -5.449219 15.023438 -5.449219 C 8.910156 -5.449219 5.875 -10.46875 5.875 -15.488281 C 5.875 -20.585938 8.910156 -25.648438 15.023438 -25.648438 C 21.054688 -25.648438 24.128906 -20.585938 24.128906 -15.488281 Z M 24.128906 -15.488281 "/></g></g></g><g fill="#003049" fill-opacity="1"><g transform="translate(173.472341, 187.53258)"><g><path d="M 16.8125 -5.796875 L 0 -5.796875 L 0 -0.351562 C 0 -0.195312 0.195312 0 0.429688 0 L 16.8125 0 C 17.085938 0 17.242188 -0.195312 17.242188 -0.351562 L 17.242188 -5.410156 C 17.242188 -5.605469 17.085938 -5.796875 16.8125 -5.796875 Z M 5.953125 -11.753906 L 5.953125 -30.785156 C 5.953125 -30.9375 5.796875 -31.132812 5.566406 -31.132812 L 0.429688 -31.132812 C 0.195312 -31.132812 0 -30.9375 0 -30.785156 L 0 -11.753906 Z M 5.953125 -11.753906 "/></g></g></g><g fill="#003049" fill-opacity="1"><g transform="translate(191.602688, 187.53258)"><g><path d="M 24.441406 -0.46875 L 12.609375 -30.902344 C 12.492188 -31.210938 11.949219 -31.210938 11.832031 -30.902344 L 0.0390625 -0.46875 C -0.078125 -0.234375 0.078125 0 0.429688 0 L 5.761719 0 C 5.914062 0 6.109375 -0.078125 6.148438 -0.234375 L 12.21875 -17.589844 L 18.367188 -0.234375 C 18.40625 -0.078125 18.601562 0 18.71875 0 L 24.089844 0 C 24.363281 0 24.558594 -0.234375 24.441406 -0.46875 Z M 24.441406 -0.46875 "/></g></g></g><g fill="#003049" fill-opacity="1"><g transform="translate(217.280871, 187.53258)"><g><path d="M 15.179688 -21.871094 C 15.179688 -18.445312 10.585938 -18.445312 10.585938 -18.445312 L 5.914062 -18.445312 L 5.914062 -25.570312 L 10.585938 -25.570312 C 10.585938 -25.570312 15.179688 -25.609375 15.179688 -21.871094 Z M 21.132812 -22.222656 C 21.132812 -31.367188 10.585938 -31.132812 10.585938 -31.132812 L 0.429688 -31.132812 C 0.195312 -31.132812 0 -30.9375 0 -30.785156 L 0 -12.648438 L 10.585938 -12.648438 C 10.585938 -12.648438 15.605469 -12.882812 15.605469 -9.222656 C 15.605469 -6.226562 12.53125 -5.683594 10.585938 -5.683594 L 5.953125 -5.683594 L 5.953125 0 L 10.585938 0 C 12.6875 0 21.558594 -0.390625 21.558594 -9.066406 C 21.558594 -9.066406 21.753906 -13.894531 16.8125 -15.566406 C 19.1875 -16.539062 21.132812 -18.601562 21.132812 -22.222656 Z M 21.132812 -22.222656 "/></g></g></g><g fill="#003049" fill-opacity="1"><g transform="translate(239.924355, 187.53258)"><g/></g></g><g fill="#003049" fill-opacity="1"><g transform="translate(249.65094, 187.53258)"><g><path d="M 18.40625 -5.371094 C 18.40625 -5.527344 18.214844 -5.722656 17.941406 -5.722656 L 7.238281 -5.722656 L 15.800781 -17.046875 C 17.355469 -19.070312 18.019531 -21.171875 18.019531 -23 C 18.019531 -27.75 13.738281 -31.132812 9.183594 -31.132812 C 3.074219 -31.132812 0.3125 -27.125 0.3125 -22.144531 C 0.3125 -21.988281 0.46875 -21.832031 0.738281 -21.832031 L 5.449219 -21.832031 C 5.722656 -21.832031 5.875 -21.988281 5.875 -22.144531 C 5.875 -24.441406 7.589844 -25.414062 9.183594 -25.414062 C 10.703125 -25.414062 11.910156 -24.285156 11.910156 -22.6875 C 11.910156 -21.871094 11.597656 -20.9375 10.859375 -19.925781 L 0 -4.980469 L 0 -0.351562 C 0 -0.195312 0.195312 0 0.429688 0 L 17.941406 0 C 18.214844 0 18.40625 -0.195312 18.40625 -0.351562 Z M 18.40625 -5.371094 "/></g></g></g><g fill="#003049" fill-opacity="1"><g transform="translate(268.948482, 187.53258)"><g><path d="M 18.484375 -30.785156 C 18.484375 -30.9375 18.332031 -31.132812 18.058594 -31.132812 L 13 -31.132812 C 12.882812 -31.132812 12.726562 -31.054688 12.6875 -31.015625 L 0 -14.4375 L 0 -9.574219 C 0 -9.378906 0.195312 -9.222656 0.429688 -9.222656 L 12.570312 -9.222656 L 12.570312 -0.351562 C 12.570312 -0.195312 12.765625 0 13 0 L 18.058594 0 C 18.332031 0 18.484375 -0.195312 18.484375 -0.351562 Z M 12.648438 -22.804688 L 12.648438 -14.359375 L 5.914062 -14.359375 Z M 12.648438 -22.804688 "/></g></g></g><g fill="#003049" fill-opacity="1"><g transform="translate(288.362741, 187.53258)"><g><path d="M 6.234375 -27.796875 L 5.453125 -17.75 L 3.3125 -17.75 L 2.53125 -27.796875 Z M 6.234375 -27.796875 "/></g></g></g><g fill="#000000" fill-opacity="1"><g transform="translate(121.363077, 208.440632)"><g><path d="M 6.65625 0 L 5.234375 0 L 4.71875 -3.140625 L 2.1875 -3.140625 L 1.71875 0 L 0.296875 0 L 2.265625 -12.4375 L 4.5 -12.4375 Z M 3.359375 -11.40625 L 2.34375 -4.34375 L 4.515625 -4.34375 Z M 3.359375 -11.40625 "/></g></g></g><g fill="#000000" fill-opacity="1"><g transform="translate(128.320329, 208.440632)"><g><path d="M 2.40625 0 L 1.09375 0 L 1.09375 -12.4375 L 2.71875 -12.4375 L 5.21875 -3.203125 L 5.21875 -12.4375 L 6.515625 -12.4375 L 6.515625 0 L 4.984375 0 L 2.40625 -9.578125 Z M 2.40625 0 "/></g></g></g><g fill="#000000" fill-opacity="1"><g transform="translate(135.937321, 208.440632)"><g/></g></g><g fill="#000000" fill-opacity="1"><g transform="translate(138.576283, 208.440632)"><g><path d="M 2.703125 0 L 1.28125 0 L 1.28125 -12.4375 L 2.703125 -12.4375 Z M 2.703125 0 "/></g></g></g><g fill="#000000" fill-opacity="1"><g transform="translate(142.554718, 208.440632)"><g><path d="M 2.703125 0 L 1.28125 0 L 1.28125 -12.4375 L 2.703125 -12.4375 Z M 2.703125 0 "/></g></g></g><g fill="#000000" fill-opacity="1"><g transform="translate(146.533153, 208.440632)"><g><path d="M 5.546875 -12.4375 L 5.546875 -11.234375 L 3.515625 -11.234375 L 3.515625 0 L 2.125 0 L 2.125 -11.234375 L 0.09375 -11.234375 L 0.09375 -12.4375 Z M 5.546875 -12.4375 "/></g></g></g><g fill="#000000" fill-opacity="1"><g transform="translate(152.170924, 208.440632)"><g><path d="M 6.1875 -8.9375 L 4.734375 -8.9375 L 4.734375 -10.625 C 4.734375 -10.875 4.695312 -11.035156 4.625 -11.109375 C 4.550781 -11.191406 4.390625 -11.234375 4.140625 -11.234375 L 3.046875 -11.234375 C 2.785156 -11.234375 2.613281 -11.195312 2.53125 -11.125 C 2.457031 -11.050781 2.421875 -10.882812 2.421875 -10.625 L 2.421875 -1.796875 C 2.421875 -1.546875 2.457031 -1.378906 2.53125 -1.296875 C 2.613281 -1.222656 2.785156 -1.1875 3.046875 -1.1875 L 4.140625 -1.1875 C 4.390625 -1.1875 4.550781 -1.222656 4.625 -1.296875 C 4.695312 -1.378906 4.734375 -1.546875 4.734375 -1.796875 L 4.734375 -5.078125 L 3.734375 -5.078125 L 3.734375 -6.28125 L 6.1875 -6.28125 L 6.1875 -1.578125 C 6.1875 -0.515625 5.644531 0.015625 4.5625 0.015625 L 2.59375 0.015625 C 1.53125 0.015625 1 -0.515625 1 -1.578125 L 1 -10.84375 C 1 -11.90625 1.53125 -12.4375 2.59375 -12.4375 L 4.5625 -12.4375 C 5.101562 -12.4375 5.507812 -12.304688 5.78125 -12.046875 C 6.050781 -11.785156 6.1875 -11.382812 6.1875 -10.84375 Z M 6.1875 -8.9375 "/></g></g></g><g fill="#000000" fill-opacity="1"><g transform="translate(159.248133, 208.440632)"><g><path d="M 2.40625 0 L 1.09375 0 L 1.09375 -12.4375 L 2.71875 -12.4375 L 5.21875 -3.203125 L 5.21875 -12.4375 L 6.515625 -12.4375 L 6.515625 0 L 4.984375 0 L 2.40625 -9.578125 Z M 2.40625 0 "/></g></g></g><g fill="#000000" fill-opacity="1"><g transform="translate(166.865126, 208.440632)"><g/></g></g><g fill="#000000" fill-opacity="1"><g transform="translate(169.504087, 208.440632)"><g><path d="M 2.703125 0 L 1.28125 0 L 1.28125 -12.4375 L 2.703125 -12.4375 Z M 2.703125 0 "/></g></g></g><g fill="#000000" fill-opacity="1"><g transform="translate(173.482523, 208.440632)"><g><path d="M 2.40625 0 L 1.09375 0 L 1.09375 -12.4375 L 2.71875 -12.4375 L 5.21875 -3.203125 L 5.21875 -12.4375 L 6.515625 -12.4375 L 6.515625 0 L 4.984375 0 L 2.40625 -9.578125 Z M 2.40625 0 "/></g></g></g><g fill="#000000" fill-opacity="1"><g transform="translate(181.099515, 208.440632)"><g><path d="M 5.078125 -12.4375 C 5.628906 -12.4375 6.035156 -12.304688 6.296875 -12.046875 C 6.566406 -11.785156 6.703125 -11.382812 6.703125 -10.84375 L 6.703125 -1.59375 C 6.703125 -0.53125 6.160156 0 5.078125 0 L 1.09375 0 L 1.09375 -12.4375 Z M 5.265625 -10.625 C 5.265625 -10.882812 5.226562 -11.050781 5.15625 -11.125 C 5.082031 -11.195312 4.910156 -11.234375 4.640625 -11.234375 L 2.515625 -11.234375 L 2.515625 -1.203125 L 4.640625 -1.203125 C 4.910156 -1.203125 5.082031 -1.238281 5.15625 -1.3125 C 5.226562 -1.394531 5.265625 -1.5625 5.265625 -1.8125 Z M 5.265625 -10.625 "/></g></g></g><g fill="#000000" fill-opacity="1"><g transform="translate(188.796479, 208.440632)"><g><path d="M 4.921875 -12.4375 L 6.3125 -12.4375 L 6.3125 -1.59375 C 6.3125 -0.53125 5.773438 0 4.703125 0 L 2.640625 0 C 1.578125 0 1.046875 -0.53125 1.046875 -1.59375 L 1.046875 -12.4375 L 2.4375 -12.4375 L 2.4375 -1.8125 C 2.4375 -1.5625 2.476562 -1.398438 2.5625 -1.328125 C 2.644531 -1.253906 2.8125 -1.21875 3.0625 -1.21875 L 4.296875 -1.21875 C 4.554688 -1.21875 4.722656 -1.253906 4.796875 -1.328125 C 4.878906 -1.398438 4.921875 -1.5625 4.921875 -1.8125 Z M 4.921875 -12.4375 "/></g></g></g><g fill="#000000" fill-opacity="1"><g transform="translate(196.153576, 208.440632)"><g><path d="M 2.4375 0 C 1.375 0 0.84375 -0.53125 0.84375 -1.59375 L 0.84375 -3.515625 L 2.265625 -3.515625 L 2.265625 -1.8125 C 2.265625 -1.5625 2.300781 -1.398438 2.375 -1.328125 C 2.457031 -1.253906 2.625 -1.21875 2.875 -1.21875 L 3.78125 -1.21875 C 4.03125 -1.21875 4.195312 -1.253906 4.28125 -1.328125 C 4.363281 -1.398438 4.40625 -1.5625 4.40625 -1.8125 L 4.40625 -5.1875 C 4.40625 -5.445312 4.367188 -5.613281 4.296875 -5.6875 C 4.222656 -5.757812 4.050781 -5.796875 3.78125 -5.796875 L 2.40625 -5.796875 C 1.332031 -5.796875 0.796875 -6.332031 0.796875 -7.40625 L 0.796875 -10.84375 C 0.796875 -11.90625 1.332031 -12.4375 2.40625 -12.4375 L 4.203125 -12.4375 C 5.265625 -12.4375 5.796875 -11.90625 5.796875 -10.84375 L 5.796875 -8.9375 L 4.375 -8.9375 L 4.375 -10.625 C 4.375 -10.882812 4.335938 -11.050781 4.265625 -11.125 C 4.191406 -11.195312 4.023438 -11.234375 3.765625 -11.234375 L 2.84375 -11.234375 C 2.582031 -11.234375 2.410156 -11.195312 2.328125 -11.125 C 2.253906 -11.050781 2.21875 -10.882812 2.21875 -10.625 L 2.21875 -7.625 C 2.21875 -7.363281 2.253906 -7.195312 2.328125 -7.125 C 2.410156 -7.050781 2.582031 -7.015625 2.84375 -7.015625 L 4.21875 -7.015625 C 5.28125 -7.015625 5.8125 -6.484375 5.8125 -5.421875 L 5.8125 -1.59375 C 5.8125 -0.53125 5.28125 0 4.21875 0 Z M 2.4375 0 "/></g></g></g><g fill="#000000" fill-opacity="1"><g transform="translate(202.770962, 208.440632)"><g><path d="M 5.546875 -12.4375 L 5.546875 -11.234375 L 3.515625 -11.234375 L 3.515625 0 L 2.125 0 L 2.125 -11.234375 L 0.09375 -11.234375 L 0.09375 -12.4375 Z M 5.546875 -12.4375 "/></g></g></g><g fill="#000000" fill-opacity="1"><g transform="translate(208.408733, 208.440632)"><g><path d="M 5.484375 0 L 3.65625 -5.1875 L 2.5 -5.1875 L 2.5 0 L 1.09375 0 L 1.09375 -12.4375 L 4.765625 -12.4375 C 5.304688 -12.4375 5.707031 -12.304688 5.96875 -12.046875 C 6.238281 -11.785156 6.375 -11.382812 6.375 -10.84375 L 6.375 -6.78125 C 6.375 -5.84375 5.957031 -5.316406 5.125 -5.203125 L 7.015625 0 Z M 2.5 -11.234375 L 2.5 -6.40625 L 4.359375 -6.40625 C 4.609375 -6.40625 4.769531 -6.441406 4.84375 -6.515625 C 4.914062 -6.585938 4.953125 -6.75 4.953125 -7 L 4.953125 -10.625 C 4.953125 -10.875 4.914062 -11.035156 4.84375 -11.109375 C 4.769531 -11.191406 4.609375 -11.234375 4.359375 -11.234375 Z M 2.5 -11.234375 "/></g></g></g><g fill="#000000" fill-opacity="1"><g transform="translate(215.76583, 208.440632)"><g><path d="M 4.9375 -12.4375 L 6.375 -12.4375 L 4 -3.875 L 4 0 L 2.578125 0 L 2.578125 -3.796875 L 0.09375 -12.4375 L 1.546875 -12.4375 L 3.28125 -5.21875 Z M 4.9375 -12.4375 "/></g></g></g><g fill="#000000" fill-opacity="1"><g transform="translate(222.243277, 208.440632)"><g/></g></g><g fill="#000000" fill-opacity="1"><g transform="translate(224.882239, 208.440632)"><g><path d="M 4.65625 -12.4375 C 5.207031 -12.4375 5.613281 -12.304688 5.875 -12.046875 C 6.144531 -11.785156 6.28125 -11.382812 6.28125 -10.84375 L 6.28125 -1.59375 C 6.28125 -0.53125 5.738281 0 4.65625 0 L 2.59375 0 C 1.53125 0 1 -0.53125 1 -1.59375 L 1 -10.84375 C 1 -11.90625 1.53125 -12.4375 2.59375 -12.4375 Z M 4.859375 -10.625 C 4.859375 -10.875 4.820312 -11.035156 4.75 -11.109375 C 4.675781 -11.191406 4.515625 -11.234375 4.265625 -11.234375 L 3.015625 -11.234375 C 2.765625 -11.234375 2.597656 -11.195312 2.515625 -11.125 C 2.441406 -11.050781 2.40625 -10.882812 2.40625 -10.625 L 2.40625 -1.8125 C 2.40625 -1.5625 2.441406 -1.398438 2.515625 -1.328125 C 2.597656 -1.253906 2.765625 -1.21875 3.015625 -1.21875 L 4.265625 -1.21875 C 4.515625 -1.21875 4.675781 -1.253906 4.75 -1.328125 C 4.820312 -1.398438 4.859375 -1.5625 4.859375 -1.8125 Z M 4.859375 -10.625 "/></g></g></g><g fill="#000000" fill-opacity="1"><g transform="translate(232.159364, 208.440632)"><g><path d="M 4.765625 -12.4375 C 5.304688 -12.4375 5.707031 -12.304688 5.96875 -12.046875 C 6.238281 -11.785156 6.375 -11.382812 6.375 -10.84375 L 6.375 -6.578125 C 6.375 -5.515625 5.835938 -4.984375 4.765625 -4.984375 L 2.5 -4.984375 L 2.5 0 L 1.09375 0 L 1.09375 -12.4375 Z M 4.953125 -10.625 C 4.953125 -10.875 4.914062 -11.035156 4.84375 -11.109375 C 4.769531 -11.191406 4.609375 -11.234375 4.359375 -11.234375 L 2.5 -11.234375 L 2.5 -6.203125 L 4.359375 -6.203125 C 4.609375 -6.203125 4.769531 -6.238281 4.84375 -6.3125 C 4.914062 -6.382812 4.953125 -6.546875 4.953125 -6.796875 Z M 4.953125 -10.625 "/></g></g></g><g fill="#000000" fill-opacity="1"><g transform="translate(239.136609, 208.440632)"><g><path d="M 2.515625 -5.859375 L 2.515625 -1.21875 L 5.953125 -1.21875 L 5.953125 0 L 1.09375 0 L 1.09375 -12.4375 L 5.8125 -12.4375 L 5.8125 -11.234375 L 2.515625 -11.234375 L 2.515625 -7.078125 L 5.21875 -7.078125 L 5.21875 -5.859375 Z M 2.515625 -5.859375 "/></g></g></g><g fill="#000000" fill-opacity="1"><g transform="translate(245.4941, 208.440632)"><g><path d="M 2.40625 0 L 1.09375 0 L 1.09375 -12.4375 L 2.71875 -12.4375 L 5.21875 -3.203125 L 5.21875 -12.4375 L 6.515625 -12.4375 L 6.515625 0 L 4.984375 0 L 2.40625 -9.578125 Z M 2.40625 0 "/></g></g></g><g fill="#000000" fill-opacity="1"><g transform="translate(253.111092, 208.440632)"><g/></g></g><g fill="#000000" fill-opacity="1"><g transform="translate(255.750054, 208.440632)"><g><path d="M 5.203125 -6.8125 L 5.203125 -12.4375 L 6.625 -12.4375 L 6.625 0 L 5.203125 0 L 5.203125 -5.59375 L 2.515625 -5.59375 L 2.515625 0 L 1.09375 0 L 1.09375 -12.4375 L 2.515625 -12.4375 L 2.515625 -6.8125 Z M 5.203125 -6.8125 "/></g></g></g><g fill="#000000" fill-opacity="1"><g transform="translate(263.46701, 208.440632)"><g><path d="M 4.65625 -12.4375 C 5.207031 -12.4375 5.613281 -12.304688 5.875 -12.046875 C 6.144531 -11.785156 6.28125 -11.382812 6.28125 -10.84375 L 6.28125 -1.59375 C 6.28125 -0.53125 5.738281 0 4.65625 0 L 2.59375 0 C 1.53125 0 1 -0.53125 1 -1.59375 L 1 -10.84375 C 1 -11.90625 1.53125 -12.4375 2.59375 -12.4375 Z M 4.859375 -10.625 C 4.859375 -10.875 4.820312 -11.035156 4.75 -11.109375 C 4.675781 -11.191406 4.515625 -11.234375 4.265625 -11.234375 L 3.015625 -11.234375 C 2.765625 -11.234375 2.597656 -11.195312 2.515625 -11.125 C 2.441406 -11.050781 2.40625 -10.882812 2.40625 -10.625 L 2.40625 -1.8125 C 2.40625 -1.5625 2.441406 -1.398438 2.515625 -1.328125 C 2.597656 -1.253906 2.765625 -1.21875 3.015625 -1.21875 L 4.265625 -1.21875 C 4.515625 -1.21875 4.675781 -1.253906 4.75 -1.328125 C 4.820312 -1.398438 4.859375 -1.5625 4.859375 -1.8125 Z M 4.859375 -10.625 "/></g></g></g><g fill="#000000" fill-opacity="1"><g transform="translate(270.744136, 208.440632)"><g><path d="M 4.921875 -12.4375 L 6.3125 -12.4375 L 6.3125 -1.59375 C 6.3125 -0.53125 5.773438 0 4.703125 0 L 2.640625 0 C 1.578125 0 1.046875 -0.53125 1.046875 -1.59375 L 1.046875 -12.4375 L 2.4375 -12.4375 L 2.4375 -1.8125 C 2.4375 -1.5625 2.476562 -1.398438 2.5625 -1.328125 C 2.644531 -1.253906 2.8125 -1.21875 3.0625 -1.21875 L 4.296875 -1.21875 C 4.554688 -1.21875 4.722656 -1.253906 4.796875 -1.328125 C 4.878906 -1.398438 4.921875 -1.5625 4.921875 -1.8125 Z M 4.921875 -12.4375 "/></g></g></g><g fill="#000000" fill-opacity="1"><g transform="translate(278.101233, 208.440632)"><g><path d="M 2.4375 0 C 1.375 0 0.84375 -0.53125 0.84375 -1.59375 L 0.84375 -3.515625 L 2.265625 -3.515625 L 2.265625 -1.8125 C 2.265625 -1.5625 2.300781 -1.398438 2.375 -1.328125 C 2.457031 -1.253906 2.625 -1.21875 2.875 -1.21875 L 3.78125 -1.21875 C 4.03125 -1.21875 4.195312 -1.253906 4.28125 -1.328125 C 4.363281 -1.398438 4.40625 -1.5625 4.40625 -1.8125 L 4.40625 -5.1875 C 4.40625 -5.445312 4.367188 -5.613281 4.296875 -5.6875 C 4.222656 -5.757812 4.050781 -5.796875 3.78125 -5.796875 L 2.40625 -5.796875 C 1.332031 -5.796875 0.796875 -6.332031 0.796875 -7.40625 L 0.796875 -10.84375 C 0.796875 -11.90625 1.332031 -12.4375 2.40625 -12.4375 L 4.203125 -12.4375 C 5.265625 -12.4375 5.796875 -11.90625 5.796875 -10.84375 L 5.796875 -8.9375 L 4.375 -8.9375 L 4.375 -10.625 C 4.375 -10.882812 4.335938 -11.050781 4.265625 -11.125 C 4.191406 -11.195312 4.023438 -11.234375 3.765625 -11.234375 L 2.84375 -11.234375 C 2.582031 -11.234375 2.410156 -11.195312 2.328125 -11.125 C 2.253906 -11.050781 2.21875 -10.882812 2.21875 -10.625 L 2.21875 -7.625 C 2.21875 -7.363281 2.253906 -7.195312 2.328125 -7.125 C 2.410156 -7.050781 2.582031 -7.015625 2.84375 -7.015625 L 4.21875 -7.015625 C 5.28125 -7.015625 5.8125 -6.484375 5.8125 -5.421875 L 5.8125 -1.59375 C 5.8125 -0.53125 5.28125 0 4.21875 0 Z M 2.4375 0 "/></g></g></g><g fill="#000000" fill-opacity="1"><g transform="translate(284.718619, 208.440632)"><g><path d="M 2.515625 -5.859375 L 2.515625 -1.21875 L 5.953125 -1.21875 L 5.953125 0 L 1.09375 0 L 1.09375 -12.4375 L 5.8125 -12.4375 L 5.8125 -11.234375 L 2.515625 -11.234375 L 2.515625 -7.078125 L 5.21875 -7.078125 L 5.21875 -5.859375 Z M 2.515625 -5.859375 "/></g></g></g></svg>