<?xml version="1.0" encoding="utf-8"?>
<!-- Generator: Adobe Illustrator 27.6.1, SVG Export Plug-In . SVG Version: 6.00 Build 0)  -->
<svg version="1.1" id="Layer_1" xmlns="http://www.w3.org/2000/svg" xmlns:xlink="http://www.w3.org/1999/xlink" x="0px" y="0px"
	 viewBox="0 0 500 500" style="enable-background:new 0 0 500 500;" xml:space="preserve">
<style type="text/css">
	.st0{clip-path:url(#SVGID_00000064355213355342173360000008812614670040772263_);}
	.st1{clip-path:url(#SVGID_00000042728288469572695560000010227302761342908846_);}
	.st2{clip-path:url(#SVGID_00000111160291876155694680000013767907543776637853_);}
	.st3{fill:url(#SVGID_00000128470291499730002100000010303970594108117656_);}
	.st4{clip-path:url(#SVGID_00000173851505051650167050000007479663359275855490_);}
	.st5{clip-path:url(#SVGID_00000021819476245180061190000002266591172448232104_);}
	.st6{clip-path:url(#SVGID_00000011719405537751648800000016755839256051688863_);}
	.st7{fill:url(#SVGID_00000163058616299792631220000002036761508602980224_);}
	.st8{clip-path:url(#SVGID_00000068645376983951845320000014939317836505437866_);}
	.st9{clip-path:url(#SVGID_00000174597661388000710510000008361804940600771220_);}
	.st10{clip-path:url(#SVGID_00000155852634873924394540000017116183664035604867_);}
	.st11{fill:#FFFFFF;}
	.st12{clip-path:url(#SVGID_00000028304218983717890270000010380957599201427088_);}
	.st13{clip-path:url(#SVGID_00000107587730247294253530000012516445939065625473_);}
	.st14{clip-path:url(#SVGID_00000114775419822829812160000002779491152320981120_);}
	.st15{clip-path:url(#SVGID_00000111886915485692604880000010261683044904554682_);}
	.st16{clip-path:url(#SVGID_00000031166563098646892780000005658163173175006130_);}
	.st17{clip-path:url(#SVGID_00000054970039455268930790000008289013664456481980_);}
	.st18{fill:#D62828;}
	.st19{clip-path:url(#SVGID_00000126313629048661384400000000804893745318966658_);}
	.st20{clip-path:url(#SVGID_00000073682060470383875120000006462172470430368676_);}
	.st21{clip-path:url(#SVGID_00000041294100830481650330000018300021765398331038_);}
	.st22{clip-path:url(#SVGID_00000121994432356256358170000003435188688728926897_);}
	.st23{clip-path:url(#SVGID_00000034076860844244821670000001239061349561800358_);}
	.st24{clip-path:url(#SVGID_00000143612512299940504250000017951287603234248584_);}
</style>
<g>
	<defs>
		<rect id="SVGID_1_" x="57.3" y="53.3" width="342.7" height="376"/>
	</defs>
	<clipPath id="SVGID_00000086684591659307812940000001515077316926920627_">
		<use xlink:href="#SVGID_1_"  style="overflow:visible;"/>
	</clipPath>
	<g style="clip-path:url(#SVGID_00000086684591659307812940000001515077316926920627_);">
		<g>
			<defs>
				
					<rect id="SVGID_00000157272524719447692890000012038510473451777687_" x="58.2" y="55.2" transform="matrix(0.9969 -7.874464e-02 7.874464e-02 0.9969 -18.4059 18.5689)" width="336" height="375"/>
			</defs>
			<clipPath id="SVGID_00000060023989813921787110000000155250782500749247_">
				<use xlink:href="#SVGID_00000157272524719447692890000012038510473451777687_"  style="overflow:visible;"/>
			</clipPath>
			<g style="clip-path:url(#SVGID_00000060023989813921787110000000155250782500749247_);">
				<g>
					<defs>
						
							<rect id="SVGID_00000067203620676625079510000001193267466079469748_" x="58.2" y="55.2" transform="matrix(0.9969 -7.874464e-02 7.874464e-02 0.9969 -18.4059 18.5689)" width="336" height="375"/>
					</defs>
					<clipPath id="SVGID_00000113331964957799750390000017384418571702135215_">
						<use xlink:href="#SVGID_00000067203620676625079510000001193267466079469748_"  style="overflow:visible;"/>
					</clipPath>
					<g style="clip-path:url(#SVGID_00000113331964957799750390000017384418571702135215_);">
						
							<linearGradient id="SVGID_00000047041090530168373950000012233346875677912710_" gradientUnits="userSpaceOnUse" x1="337.451" y1="404.4339" x2="150.0282" y2="79.8081">
							<stop  offset="0.6807" style="stop-color:#D62828"/>
							<stop  offset="1" style="stop-color:#9F2828"/>
						</linearGradient>
						<path style="fill:url(#SVGID_00000047041090530168373950000012233346875677912710_);" d="M237.5,139.3
							c36.9-2.9,70.7,14.3,90.9,42.3l56.3-66c-37.6-41.7-93.5-66.2-153.9-61.4c-103.2,8.1-180.2,98.4-172,201.6
							C66.9,359,157.2,436,260.3,427.9c58.3-4.6,108.2-35.4,139.2-80L334,291.9c-16.2,28.2-45.6,48.2-80.4,50.9
							c-56.1,4.4-105.4-37.6-109.8-93.8C139.3,193,181.4,143.7,237.5,139.3z"/>
					</g>
				</g>
			</g>
		</g>
	</g>
</g>
<g>
	<defs>
		<rect id="SVGID_00000119804757345878158410000004000057707648587191_" x="58.7" y="258.7" width="341.3" height="170.7"/>
	</defs>
	<clipPath id="SVGID_00000057852978001824772920000001778177194174050436_">
		<use xlink:href="#SVGID_00000119804757345878158410000004000057707648587191_"  style="overflow:visible;"/>
	</clipPath>
	<g style="clip-path:url(#SVGID_00000057852978001824772920000001778177194174050436_);">
		<g>
			<defs>
				
					<rect id="SVGID_00000152965860252830661710000002116748227143528099_" x="58.2" y="55.2" transform="matrix(0.9969 -7.874464e-02 7.874464e-02 0.9969 -18.4059 18.5689)" width="336" height="375"/>
			</defs>
			<clipPath id="SVGID_00000114074023243714603920000005425335472101818289_">
				<use xlink:href="#SVGID_00000152965860252830661710000002116748227143528099_"  style="overflow:visible;"/>
			</clipPath>
			<g style="clip-path:url(#SVGID_00000114074023243714603920000005425335472101818289_);">
				<g>
					<defs>
						
							<rect id="SVGID_00000021817960890336034260000007815580024969033903_" x="58.2" y="55.2" transform="matrix(0.9969 -7.874464e-02 7.874464e-02 0.9969 -18.4059 18.5689)" width="336" height="375"/>
					</defs>
					<clipPath id="SVGID_00000116235453921480087400000003453654957406960528_">
						<use xlink:href="#SVGID_00000021817960890336034260000007815580024969033903_"  style="overflow:visible;"/>
					</clipPath>
					<g style="clip-path:url(#SVGID_00000116235453921480087400000003453654957406960528_);">
						
							<linearGradient id="SVGID_00000163039228551112188250000009835501815426199230_" gradientUnits="userSpaceOnUse" x1="292.7277" y1="430.2549" x2="163.2076" y2="205.9194">
							<stop  offset="0.27" style="stop-color:#0030A6"/>
							<stop  offset="0.4589" style="stop-color:#003085"/>
							<stop  offset="0.6845" style="stop-color:#003064"/>
							<stop  offset="0.873" style="stop-color:#003050"/>
							<stop  offset="1" style="stop-color:#003049"/>
						</linearGradient>
						<path style="fill:url(#SVGID_00000163039228551112188250000009835501815426199230_);" d="M253.6,342.9
							c-52.8,4.2-99.5-32.8-108.6-84l-85.2,6.7c12.9,98.2,100.7,170.2,200.5,162.3c58.3-4.6,108.2-35.4,139.2-80L334,291.9
							C317.7,320.1,288.4,340.1,253.6,342.9z"/>
					</g>
				</g>
			</g>
		</g>
	</g>
</g>
<g>
	<defs>
		<rect id="SVGID_00000151534631709463980150000000564228920030347173_" x="101.3" y="92" width="241.3" height="296"/>
	</defs>
	<clipPath id="SVGID_00000103262716991378624930000007637050690717057667_">
		<use xlink:href="#SVGID_00000151534631709463980150000000564228920030347173_"  style="overflow:visible;"/>
	</clipPath>
	<g style="clip-path:url(#SVGID_00000103262716991378624930000007637050690717057667_);">
		<g>
			<defs>
				
					<rect id="SVGID_00000114792374661215435270000004796794853418060674_" x="58.2" y="55.2" transform="matrix(0.9969 -7.874464e-02 7.874464e-02 0.9969 -18.4059 18.5689)" width="336" height="375"/>
			</defs>
			<clipPath id="SVGID_00000160151823562261005860000001841993775380626323_">
				<use xlink:href="#SVGID_00000114792374661215435270000004796794853418060674_"  style="overflow:visible;"/>
			</clipPath>
			<g style="clip-path:url(#SVGID_00000160151823562261005860000001841993775380626323_);">
				<g>
					<defs>
						
							<rect id="SVGID_00000019665474972489257400000000253339602415611546_" x="58.2" y="55.2" transform="matrix(0.9969 -7.874464e-02 7.874464e-02 0.9969 -18.4059 18.5689)" width="336" height="375"/>
					</defs>
					<clipPath id="SVGID_00000034784735472704602850000010745686028576644240_">
						<use xlink:href="#SVGID_00000019665474972489257400000000253339602415611546_"  style="overflow:visible;"/>
					</clipPath>
					<g style="clip-path:url(#SVGID_00000034784735472704602850000010745686028576644240_);">
						<path class="st11" d="M101.9,251.8c6.4,81.3,77.8,142.2,159,135.8c29.9-2.4,58-13.6,81.3-32.4l-3.8-4.7
							c-22.3,18.1-49.3,28.8-78,31.1c-78,6.2-146.4-52.2-152.6-130.2c-6.2-78,52.4-146.3,130.3-152.5c31.9-2.5,62.8,5.5,89.5,23.2
							l3.3-5c-27.8-18.4-60-26.7-93.3-24.1C156.3,99.2,95.4,170.5,101.9,251.8z"/>
					</g>
				</g>
			</g>
		</g>
	</g>
</g>
<g>
	<defs>
		<rect id="SVGID_00000060734828427713963050000012323122590678279102_" x="308" y="102.7" width="41.3" height="42.7"/>
	</defs>
	<clipPath id="SVGID_00000169543992190687668180000013833244878404063143_">
		<use xlink:href="#SVGID_00000060734828427713963050000012323122590678279102_"  style="overflow:visible;"/>
	</clipPath>
	<g style="clip-path:url(#SVGID_00000169543992190687668180000013833244878404063143_);">
		<g>
			<defs>
				
					<rect id="SVGID_00000183939843302613662650000003601322125528751499_" x="58.2" y="55.2" transform="matrix(0.9969 -7.874464e-02 7.874464e-02 0.9969 -18.4059 18.5689)" width="336" height="375"/>
			</defs>
			<clipPath id="SVGID_00000007401499080166581290000002437404771035917211_">
				<use xlink:href="#SVGID_00000183939843302613662650000003601322125528751499_"  style="overflow:visible;"/>
			</clipPath>
			<g style="clip-path:url(#SVGID_00000007401499080166581290000002437404771035917211_);">
				<g>
					<defs>
						
							<rect id="SVGID_00000012471511915173625260000008804290998966787744_" x="58.2" y="55.2" transform="matrix(0.9969 -7.874464e-02 7.874464e-02 0.9969 -18.4059 18.5689)" width="336" height="375"/>
					</defs>
					<clipPath id="SVGID_00000135669479289451512320000014528446824602845335_">
						<use xlink:href="#SVGID_00000012471511915173625260000008804290998966787744_"  style="overflow:visible;"/>
					</clipPath>
					<g style="clip-path:url(#SVGID_00000135669479289451512320000014528446824602845335_);">
						<path class="st11" d="M348.3,118c0.4,1.3,0.7,2.6,0.8,3.9c0.2,1.3,0.2,2.7,0.1,4c-0.1,1.3-0.3,2.7-0.7,3.9
							c-0.4,1.3-0.9,2.5-1.5,3.7c-0.6,1.2-1.3,2.3-2.2,3.4c-0.8,1.1-1.8,2-2.8,2.9c-1,0.9-2.1,1.6-3.3,2.3c-1.2,0.7-2.4,1.2-3.7,1.6
							c-1.3,0.4-2.6,0.7-3.9,0.8c-1.3,0.2-2.7,0.2-4,0.1c-1.3-0.1-2.7-0.3-3.9-0.7s-2.5-0.9-3.7-1.5c-1.2-0.6-2.3-1.3-3.4-2.2
							c-1.1-0.8-2-1.8-2.9-2.8c-0.9-1-1.6-2.1-2.3-3.3c-0.7-1.2-1.2-2.4-1.6-3.7c-0.4-1.3-0.7-2.6-0.8-3.9c-0.2-1.3-0.2-2.7-0.1-4
							c0.1-1.3,0.3-2.7,0.7-3.9c0.4-1.3,0.9-2.5,1.5-3.7c0.6-1.2,1.3-2.3,2.2-3.4c0.8-1.1,1.8-2,2.8-2.9c1-0.9,2.1-1.6,3.3-2.3
							c1.2-0.7,2.4-1.2,3.7-1.6c1.3-0.4,2.6-0.7,3.9-0.8c1.3-0.2,2.7-0.2,4-0.1c1.3,0.1,2.7,0.3,3.9,0.7c1.3,0.4,2.5,0.9,3.7,1.5
							c1.2,0.6,2.3,1.3,3.4,2.2c1.1,0.8,2,1.8,2.9,2.8c0.9,1,1.6,2.1,2.3,3.3C347.3,115.5,347.9,116.7,348.3,118z"/>
					</g>
				</g>
			</g>
		</g>
	</g>
</g>
<g>
	<defs>
		<rect id="SVGID_00000161619699822719917770000004212206372153080974_" x="316" y="112" width="25.3" height="24"/>
	</defs>
	<clipPath id="SVGID_00000093856847787609342240000017743414508346257073_">
		<use xlink:href="#SVGID_00000161619699822719917770000004212206372153080974_"  style="overflow:visible;"/>
	</clipPath>
	<g style="clip-path:url(#SVGID_00000093856847787609342240000017743414508346257073_);">
		<g>
			<defs>
				
					<rect id="SVGID_00000060737182745909382730000002105144213841921457_" x="58.2" y="55.2" transform="matrix(0.9969 -7.874464e-02 7.874464e-02 0.9969 -18.4059 18.5689)" width="336" height="375"/>
			</defs>
			<clipPath id="SVGID_00000039105099332761450020000004691591065275856519_">
				<use xlink:href="#SVGID_00000060737182745909382730000002105144213841921457_"  style="overflow:visible;"/>
			</clipPath>
			<g style="clip-path:url(#SVGID_00000039105099332761450020000004691591065275856519_);">
				<g>
					<defs>
						
							<rect id="SVGID_00000058587211373642737950000013904887196214728623_" x="58.2" y="55.2" transform="matrix(0.9969 -7.874464e-02 7.874464e-02 0.9969 -18.4059 18.5689)" width="336" height="375"/>
					</defs>
					<clipPath id="SVGID_00000107582048141556505560000009139758000318561447_">
						<use xlink:href="#SVGID_00000058587211373642737950000013904887196214728623_"  style="overflow:visible;"/>
					</clipPath>
					<g style="clip-path:url(#SVGID_00000107582048141556505560000009139758000318561447_);">
						<path class="st18" d="M329.1,112.8l-2.5,0.2l0.8,10.1l-10.2,0.8l0.2,2.5l10.2-0.8l0.8,10.1l2.5-0.2l-0.8-10.1l10.2-0.8
							l-0.2-2.5l-10.2,0.8L329.1,112.8z"/>
					</g>
				</g>
			</g>
		</g>
	</g>
</g>
<g>
	<defs>
		<rect id="SVGID_00000179643011073373217120000005386136464436846478_" x="318.7" y="332" width="42.7" height="42.7"/>
	</defs>
	<clipPath id="SVGID_00000078020271246997370490000015198895647297170820_">
		<use xlink:href="#SVGID_00000179643011073373217120000005386136464436846478_"  style="overflow:visible;"/>
	</clipPath>
	<g style="clip-path:url(#SVGID_00000078020271246997370490000015198895647297170820_);">
		<g>
			<defs>
				
					<rect id="SVGID_00000015337333525105842320000002284096373889383300_" x="58.2" y="55.2" transform="matrix(0.9969 -7.874464e-02 7.874464e-02 0.9969 -18.4059 18.5689)" width="336" height="375"/>
			</defs>
			<clipPath id="SVGID_00000056395538101849418100000001316255560506543280_">
				<use xlink:href="#SVGID_00000015337333525105842320000002284096373889383300_"  style="overflow:visible;"/>
			</clipPath>
			<g style="clip-path:url(#SVGID_00000056395538101849418100000001316255560506543280_);">
				<g>
					<defs>
						
							<rect id="SVGID_00000134970917724438254610000003809145139826250910_" x="58.2" y="55.2" transform="matrix(0.9969 -7.874464e-02 7.874464e-02 0.9969 -18.4059 18.5689)" width="336" height="375"/>
					</defs>
					<clipPath id="SVGID_00000183206468823549318370000005509429519244496298_">
						<use xlink:href="#SVGID_00000134970917724438254610000003809145139826250910_"  style="overflow:visible;"/>
					</clipPath>
					<g style="clip-path:url(#SVGID_00000183206468823549318370000005509429519244496298_);">
						<path class="st11" d="M346.4,333.6c1.3,0.4,2.5,0.9,3.7,1.6c1.2,0.7,2.3,1.4,3.3,2.3c1,0.9,1.9,1.8,2.8,2.9
							c0.8,1.1,1.6,2.2,2.2,3.4c0.6,1.2,1.1,2.4,1.5,3.7c0.4,1.3,0.6,2.6,0.7,4c0.1,1.3,0.1,2.7-0.1,4c-0.2,1.3-0.4,2.6-0.9,3.9
							c-0.4,1.3-0.9,2.5-1.6,3.7s-1.4,2.3-2.3,3.3c-0.9,1-1.8,2-2.9,2.8c-1.1,0.8-2.2,1.6-3.4,2.2c-1.2,0.6-2.4,1.1-3.7,1.5
							c-1.3,0.4-2.6,0.6-4,0.7c-1.3,0.1-2.7,0.1-4-0.1c-1.3-0.2-2.6-0.4-3.9-0.9c-1.3-0.4-2.5-1-3.7-1.6s-2.3-1.4-3.3-2.3
							c-1-0.9-2-1.8-2.8-2.9c-0.8-1.1-1.6-2.2-2.2-3.4c-0.6-1.2-1.1-2.4-1.5-3.7c-0.4-1.3-0.6-2.6-0.7-3.9c-0.1-1.3-0.1-2.7,0.1-4
							c0.2-1.3,0.4-2.6,0.9-3.9c0.4-1.3,1-2.5,1.6-3.7s1.4-2.3,2.3-3.3c0.9-1,1.8-1.9,2.9-2.8c1.1-0.8,2.2-1.6,3.4-2.2
							c1.2-0.6,2.4-1.1,3.7-1.5c1.3-0.4,2.6-0.6,3.9-0.7s2.7-0.1,4,0.1C343.8,332.9,345.1,333.2,346.4,333.6z"/>
					</g>
				</g>
			</g>
		</g>
	</g>
</g>
<g>
	<defs>
		<rect id="SVGID_00000072984848249236668510000011783083595415391655_" x="328" y="349.3" width="24" height="6.7"/>
	</defs>
	<clipPath id="SVGID_00000087373031287844028680000014072793322100125312_">
		<use xlink:href="#SVGID_00000072984848249236668510000011783083595415391655_"  style="overflow:visible;"/>
	</clipPath>
	<g style="clip-path:url(#SVGID_00000087373031287844028680000014072793322100125312_);">
		<g>
			<defs>
				
					<rect id="SVGID_00000066489850313441032900000014668133548793617310_" x="58.2" y="55.2" transform="matrix(0.9969 -7.874464e-02 7.874464e-02 0.9969 -18.4059 18.5689)" width="336" height="375"/>
			</defs>
			<clipPath id="SVGID_00000130610078620360765430000002391775372206004622_">
				<use xlink:href="#SVGID_00000066489850313441032900000014668133548793617310_"  style="overflow:visible;"/>
			</clipPath>
			<g style="clip-path:url(#SVGID_00000130610078620360765430000002391775372206004622_);">
				<g>
					<defs>
						
							<rect id="SVGID_00000030480925836810811770000001353467293179270827_" x="58.2" y="55.2" transform="matrix(0.9969 -7.874464e-02 7.874464e-02 0.9969 -18.4059 18.5689)" width="336" height="375"/>
					</defs>
					<clipPath id="SVGID_00000068676063755795063430000013209153654513527737_">
						<use xlink:href="#SVGID_00000030480925836810811770000001353467293179270827_"  style="overflow:visible;"/>
					</clipPath>
					<g style="clip-path:url(#SVGID_00000068676063755795063430000013209153654513527737_);">
						<path class="st18" d="M328.5,352.3l22.8-1.8l0.2,2.7l-22.8,1.8L328.5,352.3z"/>
					</g>
				</g>
			</g>
		</g>
	</g>
</g>
<g>
	<g transform="translate(239.924355, 187.53258)">
	</g>
</g>
<g>
	<g transform="translate(135.937321, 208.440632)">
	</g>
</g>
<g>
	<g transform="translate(166.865126, 208.440632)">
	</g>
</g>
<g>
	<g transform="translate(222.243277, 208.440632)">
	</g>
</g>
<g>
	<g transform="translate(253.111092, 208.440632)">
	</g>
</g>
</svg>
